<svg width="53" height="63" viewBox="0 0 53 63" fill="none" xmlns="http://www.w3.org/2000/svg">
<path d="M50.2442 1.14824L52.9372 10.5323C53.1794 11.3767 52.6998 12.26 51.8658 12.5053L40.4232 15.8709C39.5892 16.1162 38.7167 15.6306 38.4744 14.7862L35.7815 5.40214C35.5392 4.55783 36.0188 3.67452 36.8528 3.42923L48.2954 0.0636247C49.1294 -0.181671 50.0019 0.30393 50.2442 1.14824Z" fill="#3343D5"/>
<path d="M30.5452 6.94461L34.255 5.41059L37.1824 15.6078L33.236 16.3265L30.5452 6.94461Z" fill="#3343D5"/>
<path d="M17.1523 20.7508L14.5722 19.7423L9.43492 21.2531L7.83572 15.6928L12.9768 14.1819L14.6218 11.9292L15.8317 11.5737L14.4997 6.93302L16.0226 6.48479L17.3546 11.1293L29.1788 7.65173L31.7093 16.4694L17.1523 20.7508Z" fill="#3343D5"/>
<path d="M0.690825 14.066L0.385485 14.1549L0 12.8179L3.93503 11.6587L4.24419 11.5698L4.62586 12.9068L4.31671 12.9995L5.30524 16.4385L6.76322 16.0096L9.02272 23.8884L0.358772 17.8953L1.67935 17.505L0.690825 14.066Z" fill="#3343D5"/>
<path d="M9.92615 24.5083C9.5586 23.2275 10.2862 21.8876 11.5514 21.5154C12.8165 21.1433 14.1401 21.88 14.5076 23.1608C14.8752 24.4416 14.1475 25.7816 12.8824 26.1537C11.6173 26.5258 10.2937 25.7891 9.92615 24.5083Z" fill="#3343D5"/>
<path d="M30.362 18.0575L31.2436 21.1913L26.0987 22.706L23.1446 29.0082L19.4118 30.1133L16.7401 29.2748L16.1142 27.0994L17.847 24.6921L19.4576 24.2168L18.6943 21.4888L30.362 18.0575ZM19.4118 27.1612C19.4583 27.3233 19.5513 27.4678 19.6789 27.5765C19.8065 27.6852 19.9631 27.7531 20.1288 27.7717C20.2946 27.7903 20.462 27.7588 20.6101 27.6811C20.7581 27.6034 20.8801 27.483 20.9606 27.3351C21.0411 27.1873 21.0764 27.0186 21.0623 26.8504C21.0481 26.6822 20.985 26.522 20.8809 26.3901C20.7769 26.2581 20.6365 26.1604 20.4776 26.1092C20.3187 26.058 20.1484 26.0557 19.9881 26.1024C19.8816 26.1336 19.7821 26.1856 19.6954 26.2557C19.6088 26.3258 19.5366 26.4125 19.4831 26.5108C19.4296 26.6091 19.3957 26.7172 19.3835 26.8288C19.3712 26.9404 19.3809 27.0534 19.4118 27.1612Z" fill="#3343D5"/>
<path d="M20.5903 5.13988L21.2111 7.30316L17.2674 8.46312L16.6466 6.29984L20.5903 5.13988Z" fill="#3343D5"/>
<path d="M14.0959 7.05157L14.7167 9.21484L12.4443 9.88322L11.8235 7.71994L14.0959 7.05157Z" fill="#3343D5"/>
<path d="M15.6524 30.8745L17.992 31.8135L13.4959 43.278L18.8393 45.7278V31.9796H21.3583V45.7433L26.8162 43.251L21.9499 31.8482L24.259 30.8359L34.5184 54.8701C34.5841 55.0238 34.6192 55.1892 34.6218 55.3567C34.6244 55.5242 34.5943 55.6906 34.5334 55.8463C34.4724 56.002 34.3817 56.1441 34.2665 56.2643C34.1513 56.3846 34.0138 56.4806 33.8619 56.5471C33.71 56.6136 33.5467 56.6492 33.3813 56.6518C33.2158 56.6544 33.0515 56.624 32.8976 56.5622C32.7438 56.5005 32.6035 56.4087 32.4847 56.2921C32.366 56.1754 32.2711 56.0363 32.2054 55.8825L27.6483 45.21L21.3583 48.0849V61.7249C21.3583 62.0631 21.2256 62.3874 20.9894 62.6265C20.7532 62.8657 20.4329 63 20.0988 63C19.7648 63 19.4444 62.8657 19.2082 62.6265C18.972 62.3874 18.8393 62.0631 18.8393 61.7249V48.0849L12.7326 45.2796L8.46929 56.1607C8.33691 56.461 8.09507 56.6979 7.79426 56.8219C7.49345 56.9459 7.15694 56.9475 6.85499 56.8264C6.55304 56.7052 6.30901 56.4706 6.17385 56.1716C6.03869 55.8726 6.02285 55.5323 6.12965 55.2217L15.6524 30.8745Z" fill="#3343D5"/>
</svg>
