<svg width="156" height="144" viewBox="0 0 156 144" fill="none" xmlns="http://www.w3.org/2000/svg">
<path d="M153.491 129.124C144.804 121.993 135.475 117.249 133.576 116.313C133.351 116.216 133.223 115.991 133.223 115.765V102.212C134.928 101.082 136.054 99.1462 136.054 96.9519V82.915C136.054 75.9449 130.391 70.2655 123.442 70.2655H120.418C113.469 70.2655 107.807 75.9126 107.807 82.915V96.9519C107.807 99.1462 108.933 101.082 110.638 102.212V115.765C110.638 115.862 110.606 115.926 110.606 115.991C113.276 117.83 116.043 119.863 118.745 122.089C121.93 124.703 123.732 128.575 123.732 132.706V144H156V134.384C155.968 132.351 155.067 130.415 153.491 129.124Z" fill="#202020"/>
<path d="M115.078 126.51C104.879 118.12 93.9089 112.538 91.6568 111.441C91.3995 111.312 91.2386 111.053 91.2386 110.763V94.8545C93.2333 93.5314 94.5523 91.2403 94.5523 88.6588V72.1694C94.5523 63.9731 87.9249 57.2934 79.7212 57.2934H76.2145C68.0429 57.2934 61.3834 63.9408 61.3834 72.1694V88.6588C61.3834 91.2403 62.7024 93.5314 64.6971 94.8545V110.763C64.6971 111.053 64.5362 111.312 64.2788 111.441C62.0268 112.538 51.0563 118.12 40.8579 126.51C39.0241 128.027 37.9625 130.286 37.9625 132.706V144H118.005V132.706C118.005 130.286 116.944 128.027 115.078 126.51Z" fill="#202020"/>
<path d="M45.3298 115.732V102.18C47.0349 101.05 48.1609 99.1139 48.1609 96.9197V82.8827C48.1609 75.9126 42.5308 70.2333 35.5496 70.2333H32.5255C25.5764 70.2333 19.9142 75.9126 19.9142 82.8827V96.9197C19.9142 99.1139 21.0402 101.05 22.7453 102.18V115.732C22.7453 115.958 22.6166 116.184 22.3914 116.281C20.4933 117.217 11.1314 121.96 2.47721 129.092C0.900804 130.383 0 132.319 0 134.352V143.968H32.2681V132.674C32.2681 128.543 34.1019 124.671 37.2547 122.057C39.9571 119.831 42.7239 117.765 45.3941 115.958C45.3619 115.894 45.3298 115.797 45.3298 115.732Z" fill="#202020"/>
<path d="M127.11 38.2871C132.28 38.2871 136.472 34.0829 136.472 28.8968C136.472 23.7107 132.28 19.5066 127.11 19.5066C121.939 19.5066 117.748 23.7107 117.748 28.8968C117.748 34.0829 121.939 38.2871 127.11 38.2871Z" fill="#202020"/>
<path d="M105.78 48.3227C104.686 50.6783 102.82 53.5825 99.8284 55.0669C98.8311 55.5509 99.0563 57.0353 100.15 57.1966C103.399 57.7129 108.064 57.1321 112.44 53.8407L112.504 53.9052C123.571 60.4235 138.048 58.9392 147.539 49.4198C158.799 38.1257 158.799 19.7647 147.539 8.47059C136.279 -2.82353 117.973 -2.82353 106.713 8.47059C95.8713 19.3452 95.4531 36.7704 105.491 48.1291L105.78 48.3227ZM105.619 27.0575C105.651 26.0571 106.456 25.2504 107.485 25.2827L110.188 25.3472C110.67 23.0561 111.635 20.8618 113.051 18.8934L111.185 16.925C110.477 16.1829 110.509 15.0534 111.249 14.3435L113.276 12.4074C114.016 11.6975 115.142 11.7297 115.85 12.4719L117.748 14.4403C119.775 13.1173 121.995 12.2783 124.311 11.8911L124.375 9.11597C124.408 8.11563 125.212 7.30891 126.241 7.34118L129.04 7.40571C130.038 7.43798 130.842 8.24471 130.81 9.27731L130.745 12.0524C132.997 12.5365 135.185 13.4723 137.147 14.8921L139.142 12.956C139.882 12.246 141.008 12.2783 141.716 13.0205L143.646 15.0534C144.354 15.7956 144.322 16.925 143.582 17.635L141.587 19.5711C142.906 21.604 143.743 23.8306 144.129 26.1217L146.895 26.1862C147.893 26.2185 148.697 27.0252 148.665 28.0578L148.601 30.8652C148.568 31.8655 147.764 32.6723 146.735 32.64L143.968 32.5755C143.485 34.8666 142.552 37.0608 141.169 39.0292L143.067 40.9977C143.775 41.7398 143.743 42.8692 143.003 43.5792L140.976 45.5153C140.236 46.2252 139.11 46.1929 138.402 45.4508L136.536 43.4824C134.509 44.8054 132.257 45.6766 129.973 46.0639L129.909 48.7745C129.877 49.7748 129.072 50.5815 128.043 50.5492L125.244 50.4847C124.247 50.4524 123.442 49.6457 123.475 48.6131L123.539 45.9348C121.255 45.4508 119.035 44.515 117.04 43.0951L115.11 44.9345C114.37 45.6444 113.244 45.6121 112.536 44.8699L110.606 42.837C109.898 42.0948 109.93 40.9654 110.67 40.2555L112.601 38.4161C111.282 36.3832 110.413 34.1244 110.027 31.801L107.357 31.7365C106.359 31.7042 105.555 30.8975 105.587 29.8649L105.619 27.0575Z" fill="#202020"/>
</svg>
