<svg width="14" height="20" viewBox="0 0 14 20" fill="none" xmlns="http://www.w3.org/2000/svg">
<path d="M7 0C3.14013 0 0 3.20859 0 7.1523L0 12.8479C0 16.7916 3.14013 20 7 20C10.8596 20 14 16.8013 14 12.8698L14 7.1523C14 3.20859 10.8596 0 7 0ZM12.6834 12.8698C12.6834 16.0711 10.134 18.6755 7 18.6755C3.86624 18.6755 1.31664 16.0612 1.31664 12.8477L1.31664 7.1523C1.31664 3.93883 3.86624 1.32449 7 1.32449C10.134 1.32449 12.6834 3.93883 12.6834 7.1523L12.6834 12.8698Z" fill="white"/>
<path d="M7 5.47461C6.6364 5.47461 6.34168 5.77109 6.34168 6.13688L6.34168 8.45477C6.34168 8.82055 6.6364 9.11703 7 9.11703C7.3636 9.11703 7.65832 8.82055 7.65832 8.45477L7.65832 6.13688C7.65832 5.77109 7.3636 5.47461 7 5.47461Z" fill="white"/>
</svg>
