<svg width="27" height="49" viewBox="0 0 27 49" fill="none" xmlns="http://www.w3.org/2000/svg">
<path d="M20.9928 10.1835L23.8533 3.6842L23.9978 3.74971C24.0796 3.78616 24.1678 3.806 24.2572 3.80812C24.3466 3.81023 24.4356 3.79456 24.519 3.76202C24.6025 3.72947 24.6787 3.68068 24.7433 3.61846C24.8079 3.55623 24.8597 3.48179 24.8956 3.39939L25.0882 2.95794C25.1245 2.87568 25.1442 2.78704 25.1463 2.69709C25.1484 2.60714 25.1328 2.51766 25.1005 2.43378C25.0681 2.3499 25.0196 2.27327 24.9577 2.20829C24.8958 2.14331 24.8218 2.09125 24.7398 2.0551L20.2507 0.0585966C20.1689 0.0221493 20.0808 0.00230039 19.9913 0.000188365C19.9019 -0.00192366 19.8129 0.0137428 19.7295 0.046289C19.646 0.0788353 19.5698 0.127621 19.5052 0.189848C19.4406 0.252075 19.3888 0.326519 19.3529 0.40891L19.1603 0.853211C19.124 0.93547 19.1043 1.02412 19.1022 1.11406C19.1001 1.20401 19.1157 1.29349 19.148 1.37737C19.1804 1.46125 19.2289 1.53788 19.2908 1.60286C19.3527 1.66784 19.4267 1.7199 19.5087 1.75605L19.6531 1.82156L16.7897 8.31518L20.9928 10.1835Z" fill="#3343D5"/>
<path d="M11.8564 19.5243L10.1945 23.3008L14.3981 25.1713L16.06 21.3948L11.8564 19.5243Z" fill="#3343D5"/>
<path d="M8.60726 21.0974C8.69054 21.1976 8.80553 21.2659 8.93297 21.291L9.98091 21.4989C10.1093 21.5249 10.2427 21.5053 10.3584 21.4436C10.4741 21.3818 10.5649 21.2816 10.6153 21.16L11.2186 19.7189C11.258 19.6261 11.2722 19.5245 11.2598 19.4245C11.2473 19.3244 11.2087 19.2294 11.1478 19.1493L9.10574 16.4265C9.03895 16.3371 8.94748 16.2695 8.84272 16.232C8.73796 16.1945 8.62455 16.1889 8.51663 16.2158L6.92206 16.6088C6.80105 16.6382 6.69302 16.7068 6.6147 16.8041C6.53637 16.9014 6.49209 17.0219 6.48872 17.1471L6.45757 18.3005C6.45332 18.4408 6.50073 18.5777 6.59068 18.685L8.60726 21.0974Z" fill="#3343D5"/>
<path d="M5.98599 19.0088L2.78541 21.5965L4.69855 23.9893L7.89912 21.4016L5.98599 19.0088Z" fill="#3343D5"/>
<path d="M26.2919 45.5652H0.708067C0.317012 45.5652 0 45.884 0 46.2772V48.288C0 48.6812 0.317012 49 0.708067 49H26.2919C26.683 49 27 48.6812 27 48.288V46.2772C27 45.884 26.683 45.5652 26.2919 45.5652Z" fill="#3343D5"/>
<path d="M19.1008 19.7815C19.9205 19.7815 20.5849 19.1134 20.5849 18.2892C20.5849 17.4649 19.9205 16.7968 19.1008 16.7968C18.2812 16.7968 17.6167 17.4649 17.6167 18.2892C17.6167 19.1134 18.2812 19.7815 19.1008 19.7815Z" fill="#3343D5"/>
<path d="M0.566453 28.1948L13.1276 33.7856C13.1276 33.7856 15.5973 35.0216 16.059 37.2033L16.9086 37.6248C17.1437 37.0116 17.6055 36.5136 18.1973 36.2349C18.4569 36.1239 18.7366 36.0686 19.0187 36.0726C19.7012 36.0726 20.718 36.3574 21.63 37.7586L22.695 39.3678C24.6407 36.1694 30.7329 24.8027 23.6777 16.8025L20.0326 15.1563L21.2817 12.3082C21.3179 12.2259 21.3376 12.1373 21.3397 12.0473C21.3418 11.9574 21.3263 11.8679 21.2939 11.784C21.2615 11.7001 21.213 11.6235 21.1511 11.5585C21.0892 11.4936 21.0152 11.4415 20.9333 11.4053L15.923 9.18669C15.8405 9.148 15.751 9.12639 15.66 9.12312C15.569 9.11986 15.4783 9.13501 15.3933 9.16769C15.3082 9.20036 15.2305 9.24989 15.1649 9.31333C15.0992 9.37678 15.0469 9.45284 15.011 9.53701L11.4509 17.6569C11.4146 17.7391 11.3949 17.8278 11.3928 17.9177C11.3907 18.0077 11.4062 18.0972 11.4386 18.181C11.471 18.2649 11.5195 18.3415 11.5814 18.4065C11.6433 18.4715 11.7173 18.5236 11.7992 18.5597L16.8067 20.7898C16.8557 20.8109 16.907 20.8262 16.9596 20.8353L16.3677 22.3448L21.3411 24.8682C21.3411 24.8682 24.1734 25.8166 23.6069 28.0951C23.0405 30.3736 21.7801 35.8248 19.1065 35.2352C18.4621 35.1259 17.8481 34.8803 17.3051 34.5147L18.4381 31.9514C18.4758 31.8659 18.4965 31.7738 18.4988 31.6803C18.5012 31.5869 18.4852 31.4938 18.4518 31.4065C18.4184 31.3193 18.3682 31.2395 18.3042 31.1717C18.2401 31.1039 18.1634 31.0495 18.0784 31.0115L2.40176 24.0366C2.31678 23.9986 2.22518 23.9778 2.13221 23.9755C2.03925 23.9731 1.94672 23.9892 1.85993 24.0227C1.77314 24.0563 1.69377 24.1068 1.62637 24.1712C1.55897 24.2357 1.50486 24.3128 1.46711 24.3983L0.206755 27.2663C0.134015 27.4376 0.130936 27.6308 0.19818 27.8044C0.265424 27.9779 0.397634 28.1181 0.566453 28.1948ZM16.5518 18.2892C16.5518 17.7822 16.7013 17.2866 16.9814 16.8651C17.2614 16.4436 17.6596 16.115 18.1253 15.921C18.5911 15.727 19.1036 15.6762 19.5981 15.7751C20.0926 15.874 20.5468 16.1182 20.9032 16.4766C21.2597 16.8351 21.5025 17.2919 21.6009 17.7891C21.6992 18.2863 21.6487 18.8017 21.4558 19.2701C21.2629 19.7385 20.9362 20.1388 20.517 20.4204C20.0978 20.7021 19.605 20.8524 19.1008 20.8524C18.4248 20.8524 17.7764 20.5824 17.2984 20.1017C16.8203 19.621 16.5518 18.969 16.5518 18.2892ZM21.3383 23.9369C21.154 23.9369 20.9738 23.8819 20.8206 23.779C20.6674 23.676 20.5479 23.5297 20.4774 23.3585C20.4069 23.1872 20.3884 22.9988 20.4244 22.8171C20.4603 22.6353 20.5491 22.4684 20.6794 22.3373C20.8097 22.2063 20.9758 22.117 21.1565 22.0809C21.3373 22.0447 21.5246 22.0633 21.6949 22.1342C21.8652 22.2051 22.0107 22.3252 22.1131 22.4793C22.2155 22.6334 22.2701 22.8146 22.2701 22.9999C22.2701 23.1229 22.246 23.2448 22.1992 23.3585C22.1524 23.4721 22.0837 23.5754 21.9972 23.6625C21.9107 23.7495 21.8079 23.8185 21.6949 23.8656C21.5818 23.9127 21.4607 23.9369 21.3383 23.9369Z" fill="#3343D5"/>
<path d="M19.0102 36.9355C18.8493 36.9315 18.6893 36.9606 18.54 37.021C17.4892 37.4966 17.4892 38.8808 17.4892 38.8808L16.8407 44.7136H25.2072L20.9163 38.2428C20.1912 37.1491 19.4662 36.9355 19.0102 36.9355ZM19.435 40.4415C19.2507 40.4415 19.0706 40.3866 18.9173 40.2836C18.7641 40.1806 18.6447 40.0343 18.5741 39.8631C18.5036 39.6919 18.4851 39.5035 18.5211 39.3217C18.5571 39.1399 18.6458 38.973 18.7761 38.8419C18.9064 38.7109 19.0725 38.6216 19.2532 38.5855C19.434 38.5493 19.6213 38.5679 19.7916 38.6388C19.9619 38.7097 20.1074 38.8298 20.2098 38.9839C20.3122 39.138 20.3668 39.3192 20.3668 39.5045C20.3668 39.6276 20.3427 39.7494 20.2959 39.8631C20.2491 39.9768 20.1804 40.0801 20.0939 40.1671C20.0074 40.2541 19.9047 40.3231 19.7916 40.3702C19.6786 40.4173 19.5574 40.4415 19.435 40.4415Z" fill="#3343D5"/>
<path d="M14.2548 44.7136L16.0958 43.7254L16.6424 38.8295C16.6453 38.7132 16.6547 38.5972 16.6707 38.482L16.059 38.1631L14.2661 41.8656L10.4567 40.7263L11.6123 40.1567C11.7362 40.097 11.8315 39.9903 11.8771 39.86C11.9228 39.7296 11.9152 39.5864 11.8559 39.4618L11.2639 38.2172C11.2045 38.0926 11.0984 37.9968 10.9688 37.9508C10.8392 37.9049 10.6968 37.9126 10.5729 37.9722L5.63338 40.3475C5.50947 40.4072 5.41421 40.514 5.36853 40.6443C5.32286 40.7746 5.33051 40.9178 5.3898 41.0425L5.98175 42.2871C6.04113 42.4117 6.14727 42.5075 6.27686 42.5534C6.40645 42.5993 6.54887 42.5916 6.67282 42.532L8.93863 41.444L13.7535 42.9137L13.6487 43.133C13.5806 43.276 13.5423 43.4316 13.5362 43.5901C13.53 43.7486 13.5561 43.9067 13.6129 44.0547C13.6696 44.2027 13.7558 44.3375 13.8662 44.4508C13.9766 44.5641 14.1088 44.6535 14.2548 44.7136Z" fill="#3343D5"/>
</svg>
