<svg width="13" height="19" viewBox="0 0 13 19" fill="none" xmlns="http://www.w3.org/2000/svg">
<path d="M6.5 0C2.91588 0 0 3.08684 0 6.88105C0 11.5898 5.81686 18.5025 6.06452 18.7945C6.29714 19.0688 6.70328 19.0683 6.93548 18.7945C7.18314 18.5025 13 11.5898 13 6.88105C12.9999 3.08684 10.0841 0 6.5 0ZM6.5 10.3431C4.69674 10.3431 3.22972 8.79003 3.22972 6.88105C3.22972 4.97207 4.69678 3.41904 6.5 3.41904C8.30322 3.41904 9.77024 4.97211 9.77024 6.88109C9.77024 8.79007 8.30322 10.3431 6.5 10.3431Z" fill="#BDBDBD"/>
</svg>
