<svg width="21" height="21" viewBox="0 0 21 21" fill="none" xmlns="http://www.w3.org/2000/svg">
<path d="M20.3957 12.7294C20.5471 12.0465 20.6277 11.3377 20.6277 10.6102C20.6277 5.15606 16.1434 0.73437 10.6117 0.73437C10.0277 0.73437 9.45549 0.78414 8.89876 0.87885C8.00362 0.32277 6.94455 0 5.80853 0C2.60053 0 0 2.56445 0 5.72712C0 6.7844 0.291708 7.77392 0.798381 8.62407C0.665554 9.26569 0.595769 9.92978 0.595769 10.6102C0.595769 16.0644 5.08001 20.4861 10.6117 20.4861C11.2382 20.4861 11.8511 20.4289 12.4457 20.3204C13.2634 20.7537 14.1984 21 15.1915 21C18.3996 21 21 18.4358 21 15.2729C21 14.3589 20.7818 13.4958 20.3957 12.7294ZM15.7486 15.3299C15.2852 15.9764 14.6007 16.4887 13.7137 16.8523C12.8353 17.2123 11.7823 17.3949 10.5838 17.3949C9.14518 17.3949 7.93909 17.1454 6.99773 16.653C6.32479 16.2945 5.76984 15.8091 5.34864 15.2101C4.92319 14.6049 4.70737 14.0045 4.70737 13.4255C4.70737 13.0636 4.84793 12.7499 5.12523 12.4931C5.39962 12.2386 5.75124 12.1096 6.17052 12.1096C6.5147 12.1096 6.81151 12.2116 7.05289 12.4126C7.2834 12.6053 7.48126 12.8903 7.64021 13.2584C7.81769 13.6592 8.01122 13.9977 8.2156 14.2642C8.41204 14.5207 8.69466 14.7362 9.05559 14.9044C9.41871 15.0739 9.90821 15.1598 10.5103 15.1598C11.3383 15.1598 12.0172 14.9855 12.5278 14.6417C13.0266 14.3059 13.2691 13.9028 13.2691 13.4094C13.2691 13.0195 13.1425 12.7131 12.8822 12.4727C12.6096 12.2213 12.2501 12.0257 11.8134 11.8915C11.3582 11.7515 10.7402 11.6006 9.97586 11.4428C8.94037 11.2241 8.06013 10.9647 7.35908 10.6715C7.35638 10.6705 7.35361 10.6693 7.35091 10.6681C6.63268 10.3669 6.05381 9.94924 5.63034 9.42662C5.2002 8.89588 4.98225 8.23004 4.98225 7.44737C4.98225 6.70131 5.21106 6.02882 5.66236 5.44873C6.11025 4.8727 6.76438 4.42505 7.60649 4.11789C8.43774 3.81479 9.42652 3.66121 10.5453 3.66121C11.4398 3.66121 12.2263 3.76306 12.8826 3.96431C13.5428 4.16703 14.0994 4.4408 14.5367 4.77764C14.9772 5.117 15.3048 5.48009 15.5106 5.85718C15.7185 6.23805 15.8239 6.6171 15.8239 6.98376C15.8239 7.33663 15.6856 7.6573 15.413 7.93681C15.1388 8.21793 14.7927 8.36066 14.3844 8.36066C14.0134 8.36066 13.7231 8.27141 13.5217 8.09543C13.3342 7.93205 13.1398 7.67732 12.9239 7.3108C12.6741 6.84292 12.3719 6.47409 12.0251 6.21418C11.6886 5.96176 11.1259 5.83359 10.3529 5.83359C9.63496 5.83359 9.05104 5.97569 8.61749 6.25597C8.1997 6.52603 7.99673 6.83571 7.99673 7.20258C7.99673 7.42763 8.06205 7.61565 8.19644 7.77749C8.33878 7.94892 8.53954 8.09949 8.79334 8.22465C9.05658 8.35513 9.32784 8.4588 9.5996 8.53279C9.87796 8.60895 10.345 8.72179 10.9855 8.86767C11.6604 9.01054 12.2889 9.1679 12.861 9.33632C12.9759 9.37013 13.0895 9.40436 13.1997 9.43908C13.8667 9.64957 14.4431 9.9092 14.9131 10.2106C15.3929 10.5187 15.7728 10.9143 16.0423 11.3866C16.3126 11.8606 16.4495 12.4459 16.4495 13.1257C16.4494 13.9394 16.2135 14.6809 15.7486 15.3299Z" fill="white"/>
</svg>
