<svg width="103" height="101" viewBox="0 0 103 101" fill="none" xmlns="http://www.w3.org/2000/svg">
<path d="M51.5 72.8381L31.6923 61.6493V37.8422L51.5 48.9916L71.3077 37.8422V61.6493L51.5 72.8381ZM34.3333 60.154L51.5 69.8212L68.6667 60.154V42.3544L51.5 52.0084L34.3333 42.3544V60.154Z" fill="#272727"/>
<path d="M52.8205 51.1558H50.1795V70.8312H52.8205V51.1558Z" fill="#272727"/>
<path d="M70.4758 42.197L51.5132 31.31L32.5374 42.1445L24.3767 26.2338H18.4872V23.6104H26.0009L33.6335 38.4849L51.5132 28.28L69.3929 38.5374L77.0123 23.6104H84.5128V26.2338H78.6365L70.4758 42.197Z" fill="#272727"/>
<path d="M60.7436 18.3636H42.2564V0H60.7436V18.3636ZM44.8974 15.7403H58.1026V2.62338H44.8974V15.7403Z" fill="#272727"/>
<path d="M19.8077 34.1039H0V15.7403H19.8077V34.1039ZM2.64103 31.4805H17.1667V18.3636H2.64103V31.4805Z" fill="#272727"/>
<path d="M103 34.1039H83.1923V15.7403H103V34.1039ZM85.8333 31.4805H100.359V18.3636H85.8333V31.4805Z" fill="#272727"/>
<path d="M60.7436 101H42.2564V82.6364H60.7436V101ZM44.8974 98.3766H58.1026V85.2597H44.8974V98.3766Z" fill="#272727"/>
<path d="M103 85.2597H83.1923V66.8961H103V85.2597ZM85.8333 82.6364H100.359V69.5195H85.8333V82.6364Z" fill="#272727"/>
<path d="M19.8077 85.2597H0V66.8961H19.8077V85.2597ZM2.64103 82.6364H17.1667V69.5195H2.64103V82.6364Z" fill="#272727"/>
<path d="M52.8205 17.0519H50.1795V30.1688H52.8205V17.0519Z" fill="#272727"/>
<path d="M25.9877 77.3896H18.4872V74.7662H24.3899L32.2997 59.8523L34.6371 61.0722L25.9877 77.3896Z" fill="#272727"/>
<path d="M84.5128 77.3896H77.0255L68.3762 61.0722L70.7135 59.8523L78.6233 74.7662H84.5128V77.3896Z" fill="#272727"/>
<path d="M52.8205 70.8312H50.1795V83.9481H52.8205V70.8312Z" fill="#272727"/>
<path d="M23.7692 55.0909H13.2051V45.9091H23.7692V55.0909ZM15.8462 52.4675H21.1282V48.5325H15.8462V52.4675Z" fill="#272727"/>
<path d="M89.7949 55.0909H79.2308V45.9091H89.7949V55.0909ZM81.8718 52.4675H87.1538V48.5325H81.8718V52.4675Z" fill="#272727"/>
<path d="M77.9103 95.7532H67.3462V85.2597H77.9103V95.7532ZM69.9872 93.1299H75.2692V87.8831H69.9872V93.1299Z" fill="#272727"/>
</svg>
