<svg width="95" height="102" viewBox="0 0 95 102" fill="none" xmlns="http://www.w3.org/2000/svg">
<path d="M76 12.75H23.75V15.9375H76V12.75Z" fill="#272727"/>
<path d="M71.25 86.0625H19V89.25H71.25V86.0625Z" fill="#272727"/>
<path d="M55.4167 6.375H39.5833V9.5625H55.4167V6.375Z" fill="#272727"/>
<path d="M50.6667 92.4375H44.3333V95.625H50.6667V92.4375Z" fill="#272727"/>
<path d="M77.5833 54.1875H74.4167V4.78125C74.4167 4.35856 74.2499 3.95318 73.9529 3.6543C73.656 3.35541 73.2533 3.1875 72.8333 3.1875H22.1667C21.7467 3.1875 21.344 3.35541 21.0471 3.6543C20.7501 3.95318 20.5833 4.35856 20.5833 4.78125V19.125H17.4167V4.78125C17.4167 3.51318 17.9171 2.29705 18.8079 1.4004C19.6987 0.503737 20.9069 0 22.1667 0H72.8333C74.0931 0 75.3013 0.503737 76.1921 1.4004C77.0829 2.29705 77.5833 3.51318 77.5833 4.78125V54.1875Z" fill="#272727"/>
<path d="M72.8333 102H22.1667C20.9069 102 19.6987 101.496 18.8079 100.6C17.9171 99.7029 17.4167 98.4868 17.4167 97.2188V47.8125H20.5833V97.2188C20.5833 97.6414 20.7501 98.0468 21.0471 98.3457C21.344 98.6446 21.7467 98.8125 22.1667 98.8125H72.8333C73.2533 98.8125 73.656 98.6446 73.9529 98.3457C74.2499 98.0468 74.4167 97.6414 74.4167 97.2188V82.875H77.5833V97.2188C77.5833 98.4868 77.0829 99.7029 76.1921 100.6C75.3013 101.496 74.0931 102 72.8333 102Z" fill="#272727"/>
<path d="M95 79.6875H49.0833V46.5853L66.9433 57.375H95V79.6875ZM52.25 76.5H91.8333V60.5625H66.0567L52.25 52.2272V76.5Z" fill="#272727"/>
<path d="M45.9167 55.4147L28.0567 44.625H0V22.3125H45.9167V55.4147ZM3.16667 41.4375H28.9433L42.75 49.7728V25.5H3.16667V41.4375Z" fill="#272727"/>
<path d="M55.4167 38.25H52.25V35.0625H55.4167V22.3125H58.5833V35.0625C58.5833 35.9079 58.2497 36.7186 57.6558 37.3164C57.062 37.9142 56.2565 38.25 55.4167 38.25Z" fill="#272727"/>
<path d="M61.75 25.5H52.25V28.6875H61.75V25.5Z" fill="#272727"/>
<path d="M39.5833 79.6875H36.4167V66.9375C36.4167 66.0921 36.7503 65.2814 37.3442 64.6836C37.938 64.0858 38.7435 63.75 39.5833 63.75H42.75V66.9375H39.5833V79.6875Z" fill="#272727"/>
<path d="M42.75 70.125H33.25V73.3125H42.75V70.125Z" fill="#272727"/>
<path d="M33.25 76.5H30.0833V79.6875H33.25V76.5Z" fill="#272727"/>
<path d="M64.9167 35.0625H61.75V38.25H64.9167V35.0625Z" fill="#272727"/>
<path d="M37.0658 33.4688H8.85083L0.459167 25.0378L2.7075 22.7747L10.1492 30.2812H35.7675L43.2092 22.7747L45.4575 25.0378L37.0658 33.4688Z" fill="#272727"/>
<path d="M6.33333 47.8125H3.16667V57.375H6.33333V47.8125Z" fill="#272727"/>
<path d="M9.5 51H0V54.1875H9.5V51Z" fill="#272727"/>
<path d="M12.6667 60.5625H9.5V63.75H12.6667V60.5625Z" fill="#272727"/>
<path d="M12.6667 66.9375H9.5V70.125H12.6667V66.9375Z" fill="#272727"/>
<path d="M83.9167 51H80.75V54.1875H83.9167V51Z" fill="#272727"/>
<path d="M83.9167 44.625H80.75V47.8125H83.9167V44.625Z" fill="#272727"/>
<path d="M83.9167 38.25H80.75V41.4375H83.9167V38.25Z" fill="#272727"/>
<path d="M88.6667 63.75H68.0833V66.9375H88.6667V63.75Z" fill="#272727"/>
<path d="M64.9167 63.75H55.4167V66.9375H64.9167V63.75Z" fill="#272727"/>
<path d="M80.75 70.125H55.4167V73.3125H80.75V70.125Z" fill="#272727"/>
</svg>
