<svg width="111" height="110" viewBox="0 0 111 110" fill="none" xmlns="http://www.w3.org/2000/svg">
<path d="M55.5 0C24.7227 0 0 24.5 0 55C0 85.5 24.7227 110 55.5 110C86.2773 110 111 85.5 111 55C111 24.5 86.2773 0 55.5 0ZM87.5386 37.75L47.175 79.25C46.6705 79.75 46.1659 80 45.4091 80C44.6523 80 43.8955 79.75 43.6432 79.25L23.9659 58.25L23.4614 57.75C22.9568 57.25 22.7045 56.5 22.7045 56C22.7045 55.5 22.9568 54.75 23.4614 54.25L26.9932 50.75C28.0023 49.75 29.5159 49.75 30.525 50.75L30.7773 51L44.6523 65.75C45.1568 66.25 45.9136 66.25 46.4182 65.75L80.2227 31H80.475C81.4841 30 82.9977 30 84.0068 31L87.5386 34.5C88.5477 35.25 88.5477 36.75 87.5386 37.75Z" fill="#0DA950"/>
</svg>
