<svg width="262" height="88" viewBox="0 0 262 88" fill="none" xmlns="http://www.w3.org/2000/svg">
<path d="M18.2881 1.13184L17.8115 2.38281C17.4541 3.09766 16.8584 4.05078 16.0244 5.12305C15.1904 6.25488 14.1182 7.38672 12.8076 8.45898C11.4971 9.53125 9.70996 10.5439 7.50586 11.3779C5.24219 12.2119 2.74023 12.6885 0 12.748V18.2285H15.8457V86.5557H25.0195V1.13184H18.2881Z" fill="white"/>
<path d="M54.209 43.9033C54.209 32.8232 56.6514 24.1855 61.5957 17.8711C66.4805 11.6162 72.3779 8.45898 79.2285 8.45898C86.0195 8.45898 91.917 11.6162 96.8613 17.8711C101.746 24.126 104.248 32.7637 104.248 43.8438C104.248 54.8643 101.806 63.502 96.9209 69.8164C92.0361 76.1309 86.1387 79.2881 79.3477 79.2881C72.4375 79.2881 66.4805 76.1309 61.5957 69.876C56.6514 63.6211 54.209 54.9834 54.209 43.9033ZM113.422 43.9033C113.422 30.6787 110.026 20.0752 103.295 12.0332C96.5039 3.99121 88.5215 0 79.2285 0C69.9355 0 61.9531 3.99121 55.2217 12.0332C48.4307 20.0752 45.0947 30.6787 45.0947 43.9033C45.0947 57.0684 48.4307 67.6719 55.1621 75.7139C61.8936 83.7559 69.9355 87.8066 79.3477 87.8066C88.6406 87.8066 96.623 83.7559 103.354 75.7139C110.026 67.6719 113.422 57.0684 113.422 43.9033Z" fill="white"/>
<path d="M137.131 43.9033C137.131 32.8232 139.573 24.1855 144.518 17.8711C149.402 11.6162 155.3 8.45898 162.15 8.45898C168.941 8.45898 174.839 11.6162 179.783 17.8711C184.668 24.126 187.17 32.7637 187.17 43.8438C187.17 54.8643 184.728 63.502 179.843 69.8164C174.958 76.1309 169.061 79.2881 162.27 79.2881C155.359 79.2881 149.402 76.1309 144.518 69.876C139.573 63.6211 137.131 54.9834 137.131 43.9033ZM196.344 43.9033C196.344 30.6787 192.948 20.0752 186.217 12.0332C179.426 3.99121 171.443 0 162.15 0C152.857 0 144.875 3.99121 138.144 12.0332C131.353 20.0752 128.017 30.6787 128.017 43.9033C128.017 57.0684 131.353 67.6719 138.084 75.7139C144.815 83.7559 152.857 87.8066 162.27 87.8066C171.562 87.8066 179.545 83.7559 186.276 75.7139C192.948 67.6719 196.344 57.0684 196.344 43.9033Z" fill="white"/>
<path d="M238.996 78.0371V54.8643H261.573V46.8818H238.996V23.709H231.073V46.8818H208.496V54.8643H231.073V78.0371H238.996Z" fill="white"/>
</svg>
