<svg width="20" height="16" fill="none" xmlns="http://www.w3.org/2000/svg"><path d="M20 13.333c0 .468-.123.902-.32 1.283L13.363 7.08l6.247-5.83c.243.412.389.895.389 1.417v10.666zM10 8.448L18.692.336A2.35 2.35 0 0 0 17.5 0h-15c-.434 0-.836.128-1.19.336L10 8.448zm2.423-.49l-2.012 1.878a.602.602 0 0 1-.822 0L7.576 7.957 1.182 15.59c.383.256.832.41 1.318.41h15a2.36 2.36 0 0 0 1.318-.41l-6.395-7.633zM.39 1.25C.146 1.661 0 2.145 0 2.667v10.666c0 .468.123.902.321 1.283l6.314-7.538L.39 1.25z" fill="#fff"/></svg>