<svg width="30" height="30" fill="none" xmlns="http://www.w3.org/2000/svg"><path d="M10.313 15A4.692 4.692 0 0 0 15 19.686 4.692 4.692 0 0 0 19.686 15 4.692 4.692 0 0 0 15 10.314 4.692 4.692 0 0 0 10.313 15zm7.03 0A2.346 2.346 0 0 1 15 17.343 2.346 2.346 0 0 1 12.657 15 2.346 2.346 0 0 1 15 12.657 2.346 2.346 0 0 1 17.343 15zm9.139-3.515A3.519 3.519 0 0 0 22.967 15a3.519 3.519 0 0 0 3.515 3.515A3.519 3.519 0 0 0 29.997 15a3.519 3.519 0 0 0-3.515-3.515zm0 4.687A1.173 1.173 0 0 1 25.31 15a1.173 1.173 0 0 1 2.343 0c0 .646-.525 1.172-1.171 1.172zM3.518 11.485A3.519 3.519 0 0 0 .003 15a3.519 3.519 0 0 0 3.515 3.515A3.519 3.519 0 0 0 7.033 15a3.519 3.519 0 0 0-3.515-3.515zm0 4.687A1.173 1.173 0 0 1 2.346 15a1.173 1.173 0 0 1 2.343 0c0 .646-.525 1.172-1.171 1.172zm-3.12-6.128c-.85-3.457-.332-6.324 1.495-8.15C3.913-.128 7.205-.547 11.16.713c1.264.402 2.553.962 3.839 1.662 1.286-.7 2.575-1.26 3.838-1.663 3.957-1.26 7.248-.84 9.269 1.18 1.827 1.827 2.345 4.694 1.495 8.151a5.819 5.819 0 0 0-2.213-.832c.237-1.07.317-2.07.23-2.938-.115-1.147-.508-2.063-1.169-2.724-.66-.66-1.577-1.054-2.724-1.168a7.176 7.176 0 0 0-.713-.035c-1.04 0-2.222.203-3.464.599-.724.23-1.46.52-2.2.866a33.427 33.427 0 0 1 4.827 4.012 34.767 34.767 0 0 1 1.763 1.9 5.89 5.89 0 0 0-1.866 1.424 32.541 32.541 0 0 0-1.554-1.667c-1.746-1.746-3.623-3.237-5.52-4.4-1.895 1.163-3.772 2.654-5.518 4.4-.544.544-1.062 1.1-1.554 1.666A5.894 5.894 0 0 0 6.06 9.723a35.032 35.032 0 0 1 1.763-1.899c1.53-1.53 3.16-2.88 4.828-4.012a18.576 18.576 0 0 0-2.201-.866c-1.536-.49-2.98-.684-4.177-.564-1.147.114-2.064.507-2.724 1.168-.66.66-1.054 1.577-1.169 2.724-.087.869-.007 1.868.23 2.938a5.823 5.823 0 0 0-2.213.832zm29.204 9.912c.85 3.457.332 6.324-1.495 8.15C26.851 29.364 25.104 30 23.012 30c-1.274 0-2.676-.236-4.174-.713A22.137 22.137 0 0 1 15 27.624a22.14 22.14 0 0 1-3.838 1.663c-1.498.477-2.9.713-4.174.713-2.093 0-3.84-.637-5.095-1.893C.066 26.28-.452 23.413.398 19.956c.66.417 1.41.707 2.213.832-.237 1.07-.317 2.07-.23 2.938.115 1.147.508 2.064 1.169 2.724.66.66 1.577 1.054 2.724 1.169 1.197.119 2.641-.076 4.176-.565a18.61 18.61 0 0 0 2.202-.866 33.426 33.426 0 0 1-4.828-4.012 34.861 34.861 0 0 1-1.763-1.9 5.895 5.895 0 0 0 1.866-1.423c.492.566 1.01 1.122 1.554 1.666 1.746 1.746 3.623 3.237 5.52 4.4 1.895-1.163 3.772-2.654 5.518-4.4.544-.544 1.062-1.1 1.554-1.666a5.895 5.895 0 0 0 1.866 1.424 34.855 34.855 0 0 1-1.763 1.899 33.438 33.438 0 0 1-4.828 4.012c.74.345 1.477.635 2.202.866 1.535.49 2.98.684 4.177.565 1.146-.115 2.063-.508 2.723-1.169.66-.66 1.054-1.577 1.169-2.724.087-.869.007-1.868-.23-2.938a5.824 5.824 0 0 0 2.213-.832z" fill="#3343D5"/></svg>