<svg width="156" height="144" fill="none" xmlns="http://www.w3.org/2000/svg"><path d="M153.491 129.124c-8.687-7.131-18.016-11.875-19.915-12.811a.595.595 0 01-.353-.548v-13.553a6.305 6.305 0 002.831-5.26V82.915c0-6.97-5.663-12.65-12.612-12.65h-3.024c-6.949 0-12.611 5.648-12.611 12.65v14.037a6.305 6.305 0 002.831 5.26v13.553c0 .097-.032.161-.032.226 2.67 1.839 5.437 3.872 8.139 6.098 3.185 2.614 4.987 6.486 4.987 10.617V144H156v-9.616c-.032-2.033-.933-3.969-2.509-5.26z" fill="#202020"/><path d="M115.078 126.51c-10.199-8.39-21.17-13.972-23.421-15.069a.754.754 0 01-.418-.678V94.854a7.434 7.434 0 003.313-6.195v-16.49c0-8.196-6.627-14.876-14.83-14.876h-3.507c-8.172 0-14.832 6.648-14.832 14.876v16.49a7.434 7.434 0 003.314 6.195v15.909c0 .29-.16.549-.418.678-2.252 1.097-13.223 6.679-23.421 15.069a8.012 8.012 0 00-2.895 6.196V144h80.042v-11.294c0-2.42-1.061-4.679-2.927-6.196z" fill="#202020"/><path d="M45.33 115.732V102.18a6.305 6.305 0 002.83-5.26V82.883c0-6.97-5.63-12.65-12.61-12.65h-3.024c-6.95 0-12.612 5.68-12.612 12.65V96.92a6.305 6.305 0 002.831 5.26v13.552a.597.597 0 01-.354.549c-1.898.936-11.26 5.679-19.914 12.811A6.794 6.794 0 000 134.352v9.616h32.268v-11.294c0-4.131 1.834-8.003 4.987-10.617a109.135 109.135 0 018.14-6.099.595.595 0 01-.065-.226zm81.78-77.445c5.17 0 9.362-4.204 9.362-9.39 0-5.186-4.192-9.39-9.362-9.39-5.171 0-9.362 4.204-9.362 9.39 0 5.186 4.191 9.39 9.362 9.39z" fill="#202020"/><path d="M105.78 48.323c-1.094 2.355-2.96 5.26-5.952 6.744-.997.484-.772 1.968.322 2.13 3.249.516 7.914-.065 12.29-3.356l.064.064c11.067 6.518 25.544 5.034 35.035-4.485 11.26-11.294 11.26-29.655 0-40.95-11.26-11.294-29.566-11.294-40.826 0-10.842 10.875-11.26 28.3-1.222 39.66l.289.193zm-.161-21.265c.032-1 .837-1.808 1.866-1.775l2.703.064a17.059 17.059 0 012.863-6.454l-1.866-1.968a1.806 1.806 0 01.064-2.582l2.027-1.936c.74-.71 1.866-.677 2.574.065l1.898 1.968a17.096 17.096 0 016.563-2.549l.064-2.775c.033-1 .837-1.807 1.866-1.775l2.799.065a1.81 1.81 0 011.77 1.871l-.065 2.775c2.252.485 4.44 1.42 6.402 2.84l1.995-1.936c.74-.71 1.866-.678 2.574.065l1.93 2.032a1.806 1.806 0 01-.064 2.582l-1.995 1.936a17.265 17.265 0 012.542 6.55l2.766.065a1.81 1.81 0 011.77 1.872l-.064 2.807c-.033 1-.837 1.807-1.866 1.775l-2.767-.065a17.467 17.467 0 01-2.799 6.454l1.898 1.969a1.806 1.806 0 01-.064 2.581l-2.027 1.936c-.74.71-1.866.678-2.574-.064l-1.866-1.969a17.362 17.362 0 01-6.563 2.582l-.064 2.71c-.032 1-.837 1.807-1.866 1.775l-2.799-.064a1.809 1.809 0 01-1.769-1.872l.064-2.678a17.407 17.407 0 01-6.499-2.84l-1.93 1.84c-.74.71-1.866.677-2.574-.065l-1.93-2.033a1.806 1.806 0 01.064-2.582l1.931-1.839a17.41 17.41 0 01-2.574-6.615l-2.67-.064a1.81 1.81 0 01-1.77-1.872l.032-2.807z" fill="#202020"/></svg>