<svg width="27" height="49" fill="none" xmlns="http://www.w3.org/2000/svg"><path d="M20.993 10.184l2.86-6.5.145.066a.677.677 0 00.898-.35l.192-.442a.686.686 0 00-.348-.903L20.25.06a.676.676 0 00-.897.35l-.193.444a.686.686 0 00.349.903l.144.066-2.863 6.493 4.203 1.869zm-9.137 9.34l-1.662 3.777 4.204 1.87 1.662-3.776-4.204-1.87zm-3.249 1.573c.084.1.199.169.326.194l1.048.208a.564.564 0 00.634-.339l.604-1.441a.573.573 0 00-.071-.57l-2.042-2.723a.567.567 0 00-.59-.21l-1.594.393a.566.566 0 00-.433.538l-.031 1.154a.572.572 0 00.133.384l2.016 2.412zm-2.621-2.088l-3.2 2.587 1.913 2.393 3.2-2.587-1.913-2.393zm20.306 26.556H.708a.71.71 0 00-.708.712v2.011A.71.71 0 00.708 49h25.584a.71.71 0 00.708-.712v-2.01a.71.71 0 00-.708-.713zM19.1 19.782a1.49 1.49 0 001.485-1.493c0-.824-.665-1.492-1.484-1.492-.82 0-1.484.668-1.484 1.492s.664 1.492 1.484 1.492z" fill="#3343D5"/><path d="M.566 28.195l12.562 5.59s2.47 1.237 2.931 3.418l.85.422a2.54 2.54 0 011.288-1.39c.26-.111.54-.166.822-.162.682 0 1.699.284 2.611 1.686l1.065 1.609c1.946-3.199 8.038-14.565.983-22.566l-3.645-1.646 1.249-2.848a.688.688 0 00-.349-.903l-5.01-2.218a.677.677 0 00-.912.35l-3.56 8.12a.685.685 0 00.348.903l5.008 2.23a.68.68 0 00.153.045l-.592 1.51 4.973 2.523s2.832.949 2.266 3.227c-.566 2.279-1.827 7.73-4.5 7.14a4.604 4.604 0 01-1.802-.72l1.133-2.564a.716.716 0 00-.36-.94L2.402 24.038a.703.703 0 00-.776.134.713.713 0 00-.159.227l-1.26 2.868a.716.716 0 00.36.929zm15.986-9.906c0-.507.15-1.002.43-1.424a2.536 2.536 0 013.922-.389 2.568 2.568 0 01.552 2.794 2.56 2.56 0 01-.939 1.15 2.539 2.539 0 01-3.219-.318 2.57 2.57 0 01-.746-1.813zm4.786 5.648a.929.929 0 01-.86-.579.942.942 0 01.201-1.02.93.93 0 011.591.662.942.942 0 01-.575.866.927.927 0 01-.357.07z" fill="#3343D5"/><path d="M19.01 36.935c-.16-.004-.32.026-.47.086-1.05.476-1.05 1.86-1.05 1.86l-.65 5.833h8.367l-4.29-6.471c-.726-1.094-1.45-1.308-1.907-1.308zm.425 3.506a.928.928 0 01-.86-.578.942.942 0 01.201-1.021.93.93 0 011.59.663.942.942 0 01-.574.865.927.927 0 01-.357.072zm-5.18 4.273l1.84-.989.547-4.895a3.1 3.1 0 01.029-.348l-.612-.319-1.793 3.703-3.81-1.14 1.156-.57a.52.52 0 00.244-.694l-.592-1.245a.52.52 0 00-.691-.245l-4.94 2.375a.52.52 0 00-.243.695l.592 1.245a.52.52 0 00.69.245l2.267-1.088 4.815 1.47-.105.219a1.168 1.168 0 00.606 1.58z" fill="#3343D5"/></svg>