<svg width="95" height="102" fill="none" xmlns="http://www.w3.org/2000/svg"><path d="M76 12.75H23.75v3.188H76V12.75zm-4.75 73.313H19v3.187h52.25v-3.188zM55.417 6.375H39.583v3.188h15.834V6.374zm-4.75 86.063h-6.334v3.187h6.334v-3.188z" fill="#272727"/><path d="M77.583 54.188h-3.166V4.78a1.6 1.6 0 00-.464-1.127 1.578 1.578 0 00-1.12-.466H22.167c-.42 0-.823.167-1.12.466a1.599 1.599 0 00-.464 1.127v14.344h-3.166V4.781c0-1.268.5-2.484 1.39-3.38A4.734 4.734 0 0122.168 0h50.666c1.26 0 2.468.504 3.36 1.4a4.797 4.797 0 011.39 3.381v49.407zM72.833 102H22.167a4.737 4.737 0 01-3.36-1.4 4.799 4.799 0 01-1.39-3.381V47.813h3.166v49.406c0 .422.167.828.464 1.127.297.299.7.466 1.12.466h50.666c.42 0 .823-.167 1.12-.466.297-.3.464-.705.464-1.127V82.875h3.166v14.344a4.8 4.8 0 01-1.39 3.381 4.737 4.737 0 01-3.36 1.4z" fill="#272727"/><path d="M95 79.688H49.083V46.584l17.86 10.79H95v22.313zM52.25 76.5h39.583V60.562H66.057L52.25 52.227V76.5zm-6.333-21.085l-17.86-10.79H0V22.312h45.917v33.103zM3.167 41.438h25.776l13.807 8.335V25.5H3.167v15.938zm52.25-3.188H52.25v-3.188h3.167v-12.75h3.166v12.75c0 .846-.333 1.657-.927 2.254-.594.598-1.4.934-2.24.934z" fill="#272727"/><path d="M61.75 25.5h-9.5v3.188h9.5V25.5zM39.583 79.688h-3.166v-12.75c0-.846.333-1.657.927-2.254a3.156 3.156 0 012.24-.934h3.166v3.188h-3.167v12.75z" fill="#272727"/><path d="M42.75 70.125h-9.5v3.188h9.5v-3.188zm-9.5 6.375h-3.167v3.188h3.167V76.5zm31.667-41.437H61.75v3.187h3.167v-3.188zm-27.851-1.594H8.85L.459 25.038l2.248-2.263 7.442 7.506h25.618l7.442-7.506 2.248 2.263-8.391 8.43zM6.333 47.813H3.167v9.562h3.166v-9.563z" fill="#272727"/><path d="M9.5 51H0v3.188h9.5V51zm3.167 9.563H9.5v3.187h3.167v-3.188zm0 6.375H9.5v3.187h3.167v-3.188zM83.917 51H80.75v3.188h3.167V51zm0-6.375H80.75v3.188h3.167v-3.188zm0-6.375H80.75v3.188h3.167V38.25zm4.75 25.5H68.083v3.188h20.584V63.75zm-23.75 0h-9.5v3.188h9.5V63.75zm15.833 6.375H55.417v3.188H80.75v-3.188z" fill="#272727"/></svg>