<svg width="17" height="17" fill="none" xmlns="http://www.w3.org/2000/svg"><path d="M12.925 11.246c-.556-.549-1.25-.549-1.801 0-.421.417-.842.835-1.256 1.26-.113.116-.209.14-.347.063-.272-.149-.562-.269-.824-.432-1.22-.767-2.243-1.754-3.148-2.865-.45-.552-.85-1.143-1.129-1.808-.056-.134-.046-.223.064-.332.42-.407.831-.825 1.245-1.242.577-.58.577-1.26-.003-1.843-.33-.333-.658-.658-.987-.99-.34-.34-.676-.683-1.02-1.02-.555-.54-1.248-.54-1.8.004-.424.418-.831.846-1.263 1.256-.4.378-.601.842-.644 1.383-.067.881.149 1.712.453 2.522.623 1.677 1.57 3.166 2.72 4.532a16.835 16.835 0 0 0 5.576 4.362c.976.474 1.988.838 3.088.898.757.043 1.415-.148 1.942-.739.361-.403.768-.771 1.15-1.157.566-.573.57-1.266.007-1.832-.672-.676-1.348-1.348-2.023-2.02zm-.676-2.82l1.305-.222a5.834 5.834 0 0 0-1.63-3.149 5.803 5.803 0 0 0-3.326-1.659l-.184 1.312c.98.138 1.872.58 2.576 1.285a4.502 4.502 0 0 1 1.259 2.433zm2.041-5.674A9.625 9.625 0 0 0 8.771 0l-.183 1.312a8.346 8.346 0 0 1 4.768 2.378 8.339 8.339 0 0 1 2.339 4.51L17 7.977a9.695 9.695 0 0 0-2.71-5.225z" fill="#C4C4C4"/></svg>