<svg width="53" height="63" fill="none" xmlns="http://www.w3.org/2000/svg"><path d="M50.244 1.148l2.693 9.384a1.595 1.595 0 0 1-1.071 1.973l-11.443 3.366a1.57 1.57 0 0 1-1.949-1.085l-2.692-9.384a1.595 1.595 0 0 1 1.07-1.973L48.296.064a1.57 1.57 0 0 1 1.95 1.084zM30.545 6.945l3.71-1.534 2.927 10.197-3.946.718-2.69-9.381zM17.152 20.75l-2.58-1.008-5.137 1.511-1.6-5.56 5.142-1.511 1.645-2.253 1.21-.355L14.5 6.933l1.523-.448 1.332 4.644 11.824-3.477 2.53 8.817-14.557 4.282zM.69 14.066l-.305.089L0 12.818l3.935-1.16.31-.088.38 1.337-.308.092.988 3.44 1.458-.43 2.26 7.88-8.664-5.994 1.32-.39-.988-3.439zm9.236 10.442c-.367-1.28.36-2.62 1.625-2.993a2.381 2.381 0 0 1 2.957 1.646c.367 1.28-.36 2.62-1.626 2.993a2.381 2.381 0 0 1-2.956-1.646zm20.436-6.45l.882 3.133-5.145 1.515-2.954 6.302-3.733 1.105-2.672-.838-.626-2.176 1.733-2.407 1.61-.475-.763-2.728 11.668-3.431zm-10.95 9.103c.046.162.14.307.267.415a.838.838 0 0 0 1.282-.24.863.863 0 0 0-.08-.946.843.843 0 0 0-.893-.288.842.842 0 0 0-.505.409.861.861 0 0 0-.071.65z" fill="#3343D5"/><path d="M20.59 5.14l.621 2.163-3.944 1.16-.62-2.163 3.943-1.16zm-6.494 1.912l.62 2.163-2.272.668-.62-2.163 2.272-.668zm1.556 23.823l2.34.939-4.496 11.464 5.343 2.45V31.98h2.52v13.763l5.457-2.492-4.866-11.403 2.309-1.012 10.26 24.034a1.29 1.29 0 0 1-.252 1.394 1.26 1.26 0 0 1-.886.388 1.245 1.245 0 0 1-.896-.36 1.279 1.279 0 0 1-.28-.41L27.648 45.21l-6.29 2.875v13.64c0 .338-.132.662-.369.901a1.251 1.251 0 0 1-1.78 0 1.283 1.283 0 0 1-.37-.901v-13.64l-6.106-2.805-4.264 10.88a1.264 1.264 0 0 1-.675.662c-.3.124-.637.125-.939.004a1.266 1.266 0 0 1-.681-.654 1.29 1.29 0 0 1-.044-.95l9.522-24.348z" fill="#3343D5"/></svg>