<svg width="27" height="35" fill="none" xmlns="http://www.w3.org/2000/svg"><path d="M26.028 19.236a3.346 3.346 0 0 0-2.347-.944c-.886 0-1.72.335-2.346.944l-2.4 2.33c-.011-2.17-1.377-4.033-3.316-4.833l1.146-1.113h2.957c2.142 0 3.884-1.691 3.884-3.77V3.77c0-2.08-1.742-3.771-3.884-3.771H7.278C5.136 0 3.394 1.692 3.394 3.771v8.078c0 2.08 1.742 3.771 3.884 3.771h2.957l1.146 1.113c-1.94.8-3.305 2.664-3.316 4.832l-2.4-2.329a3.348 3.348 0 0 0-2.346-.944c-.887 0-1.72.335-2.347.944a3.154 3.154 0 0 0 0 4.556l6.947 6.745v3.438c0 .566.473 1.025 1.056 1.025h9.05c.583 0 1.056-.459 1.056-1.025v-3.438l6.947-6.744a3.155 3.155 0 0 0 0-4.557zM7.278 13.57c-.977 0-1.772-.772-1.772-1.72V3.77c0-.949.795-1.72 1.772-1.72h12.444c.977 0 1.772.771 1.772 1.72v8.078c0 .949-.795 1.72-1.772 1.72h-3.394c-.28 0-.549.108-.747.301L13.5 15.89l-2.081-2.02a1.072 1.072 0 0 0-.747-.3H7.278zm6.222 4.796c1.833 0 3.324 1.448 3.324 3.227 0 1.78-1.491 3.227-3.324 3.227-1.833 0-3.324-1.448-3.324-3.227 0-1.78 1.491-3.227 3.324-3.227zm11.034 3.977l-7.256 7.044c-.198.193-.31.453-.31.726v2.836h-6.937v-2.837a1.01 1.01 0 0 0-.31-.725l-7.255-7.044a1.147 1.147 0 0 1 0-1.657c.228-.221.53-.343.853-.343.322 0 .625.122.853.343l6.06 5.885c.199.192.467.3.747.3h5.041c.28 0 .55-.108.747-.3l6.061-5.885c.228-.22.531-.343.853-.343.322 0 .625.122.853.343a1.147 1.147 0 0 1 0 1.657z" fill="#3343D5"/><path d="M12.5 10.777c.27 0 .54-.1.747-.3l4-3.884c.412-.4.412-1.049 0-1.45a1.08 1.08 0 0 0-1.494 0L12.5 8.303l-1.253-1.217a1.08 1.08 0 0 0-1.494 0c-.412.4-.412 1.05 0 1.45l2 1.942c.207.2.477.3.747.3z" fill="#3343D5"/></svg>