<svg width="21" height="21" fill="none" xmlns="http://www.w3.org/2000/svg"><path d="M20.396 12.73a9.78 9.78 0 0 0 .232-2.12c0-5.454-4.485-9.876-10.016-9.876-.584 0-1.157.05-1.713.145A5.838 5.838 0 0 0 5.809 0C2.6 0 0 2.564 0 5.727c0 1.057.292 2.047.798 2.897a9.788 9.788 0 0 0-.202 1.986c0 5.454 4.484 9.876 10.016 9.876.626 0 1.24-.057 1.834-.166.817.434 1.752.68 2.745.68C18.4 21 21 18.436 21 15.273a5.64 5.64 0 0 0-.604-2.544zm-4.647 2.6c-.464.646-1.148 1.159-2.035 1.522-.879.36-1.932.543-3.13.543-1.439 0-2.645-.25-3.586-.742a4.68 4.68 0 0 1-1.65-1.443c-.425-.605-.64-1.206-.64-1.785 0-.361.14-.675.417-.932.275-.254.626-.383 1.046-.383.344 0 .64.102.882.303.23.192.428.477.587.845.178.401.371.74.576 1.006.196.257.479.472.84.64.363.17.852.256 1.454.256.828 0 1.507-.175 2.018-.518.499-.336.741-.74.741-1.233 0-.39-.127-.696-.387-.936-.272-.252-.632-.447-1.069-.582-.455-.14-1.073-.29-1.837-.448-1.036-.219-1.916-.478-2.617-.771a.141.141 0 0 1-.008-.004c-.718-.301-1.297-.719-1.72-1.241-.43-.531-.649-1.197-.649-1.98 0-.746.23-1.418.68-1.998.448-.576 1.102-1.024 1.944-1.331.832-.303 1.82-.457 2.94-.457.894 0 1.68.102 2.337.303.66.203 1.216.477 1.654.814.44.339.768.702.974 1.08.208.38.313.76.313 1.126 0 .353-.138.673-.411.953-.274.28-.62.424-1.029.424-.37 0-.66-.09-.862-.266-.188-.163-.382-.418-.598-.784-.25-.468-.552-.837-.899-1.097-.336-.252-.9-.38-1.672-.38-.718 0-1.302.142-1.736.422-.417.27-.62.58-.62.947 0 .225.065.413.2.574.142.172.343.322.596.448.264.13.535.234.807.308.278.076.745.189 1.386.335a25.036 25.036 0 0 1 2.214.571c.667.21 1.243.47 1.713.772.48.308.86.703 1.13 1.176.27.474.407 1.059.407 1.739a3.71 3.71 0 0 1-.701 2.204z" fill="#fff"/></svg>