<?xml version="1.0" standalone="no"?>
<!DOCTYPE svg PUBLIC "-//W3C//DTD SVG 20010904//EN"
 "http://www.w3.org/TR/2001/REC-SVG-20010904/DTD/svg10.dtd">
<svg version="1.0" xmlns="http://www.w3.org/2000/svg"
 width="700.000000pt" height="700.000000pt" viewBox="0 0 700.000000 700.000000"
 preserveAspectRatio="xMidYMid meet">
<metadata>
Created by potrace 1.11, written by Peter Selinger 2001-2013
</metadata>
<g transform="translate(0.000000,700.000000) scale(0.100000,-0.100000)"
fill="#000000" stroke="none">
<path d="M3877 6584 c-1 -1 -58 -5 -127 -9 -68 -3 -127 -8 -130 -10 -3 -1 -35
-6 -73 -9 -37 -4 -73 -9 -80 -11 -13 -5 -49 -12 -107 -21 -97 -15 -406 -105
-495 -144 -11 -5 -67 -30 -125 -55 -58 -25 -143 -67 -190 -93 -47 -26 -89 -49
-95 -51 -53 -21 -350 -233 -450 -320 -101 -89 -319 -316 -394 -411 -342 -432
-571 -958 -646 -1485 -3 -22 -8 -51 -10 -65 -29 -165 -26 -634 5 -820 6 -30
12 -71 14 -90 47 -369 254 -888 493 -1234 63 -93 205 -276 213 -276 3 0 5 483
6 1073 0 956 4 1201 19 1272 2 11 7 37 10 57 11 79 48 233 82 341 39 126 140
355 190 434 18 29 33 55 33 58 0 5 92 145 112 170 4 6 36 46 71 90 306 385
763 673 1238 779 153 34 159 35 314 51 53 6 318 6 375 0 253 -24 515 -92 707
-181 40 -19 74 -34 77 -34 11 0 226 -126 286 -168 57 -39 196 -147 210 -161 3
-4 34 -33 68 -65 l64 -59 140 144 c77 79 197 202 266 272 l127 128 -71 67
c-340 321 -729 555 -1155 692 -171 55 -325 88 -584 125 -52 8 -383 23 -388 19z"/>
<path d="M3877 5044 c-1 -1 -40 -5 -86 -8 -110 -9 -298 -57 -414 -106 -519
-216 -878 -708 -933 -1280 -4 -41 -7 -687 -8 -1435 l-1 -1360 21 -20 c29 -27
285 -154 404 -200 91 -36 303 -105 321 -105 5 0 9 361 9 821 0 451 3 819 8
817 218 -110 351 -157 527 -185 28 -4 133 -8 235 -7 198 0 288 14 451 68 520
171 929 653 1015 1195 3 18 8 43 11 55 3 11 6 95 8 186 5 272 -41 479 -161
724 -122 247 -309 456 -544 607 -185 119 -424 203 -635 225 -68 6 -223 12
-228 8z m230 -789 c222 -51 402 -194 507 -402 58 -115 80 -218 79 -364 -4
-362 -262 -674 -614 -739 -74 -14 -220 -14 -266 -1 -18 5 -33 8 -33 6 0 -2
-32 7 -72 21 -106 36 -203 97 -289 183 -158 159 -231 346 -224 576 9 270 150
507 382 641 68 40 198 83 268 91 28 3 51 6 52 7 8 7 159 -7 210 -19z"/>
<path d="M5499 1834 c-56 -59 -227 -197 -326 -263 -341 -227 -758 -361 -1158
-372 l-70 -2 -1 -385 0 -385 151 7 c83 3 160 8 171 10 12 2 45 7 75 11 30 4
88 13 129 21 41 8 86 17 100 20 14 3 33 7 42 10 10 3 30 7 45 10 56 10 260 75
372 120 370 147 701 362 990 642 53 51 54 53 35 71 -10 10 -129 131 -264 269
-134 139 -247 252 -250 252 -3 0 -22 -16 -41 -36z"/>
</g>
</svg>
