<svg width="218" height="218" fill="none" xmlns="http://www.w3.org/2000/svg"><path d="M99.363 201.649v-51.334c8.944 5.275 19.342 7.387 29.581 6.01 10.238-1.378 19.746-6.169 27.048-13.63 7.301-7.461 11.988-17.175 13.334-27.635s-.724-21.08-5.89-30.216c-5.166-9.135-13.139-16.273-22.681-20.307a45.986 45.986 0 00-30.096-2.004c-9.974 2.734-18.787 8.755-25.07 17.128-6.283 8.372-9.686 18.63-9.68 29.179v82.974a92.138 92.138 0 0023.454 9.835zM122.818 84.88c4.638 0 9.173 1.405 13.03 4.038a23.864 23.864 0 018.639 10.753 24.443 24.443 0 011.334 13.844 24.115 24.115 0 01-6.419 12.267 23.307 23.307 0 01-12.009 6.558c-4.549.924-9.265.45-13.551-1.364a23.564 23.564 0 01-10.526-8.824 24.334 24.334 0 01-3.953-13.312c0-6.354 2.471-12.449 6.87-16.942 4.398-4.493 10.364-7.018 16.585-7.018zm-70.363 23.583z" fill="#3343D5"/><path d="M172.547 58.039l16.576-16.934c-8.695-8.915-19.029-15.987-30.408-20.81A91.814 91.814 0 00122.818 13C71.088 13 29 55.996 29 108.84c-.02 23.326 8.324 45.851 23.454 63.32v-63.32C52.449 94.623 56.57 80.724 64.3 68.902c7.73-11.823 18.719-21.037 31.577-26.476a68.952 68.952 0 0140.655-4.08c13.648 2.78 26.182 9.633 36.016 19.693zm0 101.602a70.088 70.088 0 01-22.806 15.608 68.86 68.86 0 01-26.923 5.471v23.96a91.794 91.794 0 0035.895-7.297c11.378-4.824 21.711-11.898 30.404-20.814l-16.57-16.928z" fill="#3343D5"/></svg>