<svg width="110" height="110" fill="none" xmlns="http://www.w3.org/2000/svg"><path d="M55 0C24.5 0 0 24.5 0 55s24.5 55 55 55 55-24.5 55-55S85.5 0 55 0zm8 56l18.75 18.75c.5.5.75 1.25.75 1.75s-.25 1.25-.75 1.75l-3.5 3.5c-.5.5-1.25.75-1.75.75-.75 0-1.25-.25-1.75-.75L56 63c-.5-.5-1.25-.5-1.75 0L35.5 81.75c-.5.5-1.25.75-1.75.75-.75 0-1.25-.25-1.75-.75l-3.5-3.5c-.5-.5-.75-1.25-.75-1.75s.25-1.25.75-1.75L47.25 56c.5-.5.5-1.25 0-1.75L28.5 35.5c-.5-.5-.75-1.25-.75-1.75S28 32.5 28.5 32l3.5-3.5c.5-.5 1.25-.75 1.75-.75s1.25.25 1.75.75l18.75 18.75c.5.5 1.25.5 1.75 0L74.75 28.5c.5-.5 1.25-.75 1.75-.75.75 0 1.25.25 1.75.75l3.5 3.5c.5.5.75 1.25.75 1.75s-.25 1.25-.75 1.75L63 54.25c-.5.25-.5 1.25 0 1.75z" fill="#990A2C"/></svg>