<svg width="262" height="88" fill="none" xmlns="http://www.w3.org/2000/svg"><path d="M18.288 1.132l-.477 1.25c-.357.716-.953 1.669-1.787 2.741-.834 1.132-1.906 2.264-3.216 3.336-1.31 1.072-3.098 2.085-5.302 2.919-2.264.834-4.766 1.31-7.506 1.37v5.48h15.846v68.328h9.174V1.132h-6.732zm35.921 42.771c0-11.08 2.442-19.717 7.387-26.032C66.48 11.616 72.378 8.46 79.229 8.46c6.79 0 12.688 3.157 17.632 9.412 4.885 6.255 7.387 14.893 7.387 25.973 0 11.02-2.442 19.658-7.327 25.972-4.885 6.315-10.782 9.472-17.573 9.472-6.91 0-12.867-3.157-17.752-9.412-4.945-6.255-7.387-14.893-7.387-25.973zm59.213 0c0-13.224-3.396-23.828-10.127-31.87C96.504 3.991 88.522 0 79.228 0c-9.292 0-17.275 3.991-24.006 12.033-6.791 8.042-10.127 18.646-10.127 31.87 0 13.165 3.336 23.769 10.067 31.81 6.732 8.043 14.774 12.094 24.186 12.094 9.293 0 17.275-4.051 24.006-12.093 6.672-8.042 10.068-18.646 10.068-31.81zm23.709 0c0-11.08 2.442-19.717 7.387-26.032 4.884-6.255 10.782-9.412 17.632-9.412 6.791 0 12.689 3.157 17.633 9.412 4.885 6.255 7.387 14.893 7.387 25.973 0 11.02-2.442 19.658-7.327 25.972-4.885 6.315-10.782 9.472-17.573 9.472-6.911 0-12.868-3.157-17.752-9.412-4.945-6.255-7.387-14.893-7.387-25.973zm59.213 0c0-13.224-3.396-23.828-10.127-31.87C179.426 3.991 171.443 0 162.15 0c-9.293 0-17.275 3.991-24.006 12.033-6.791 8.042-10.127 18.646-10.127 31.87 0 13.165 3.336 23.769 10.067 31.81 6.731 8.043 14.773 12.094 24.186 12.094 9.292 0 17.275-4.051 24.006-12.093 6.672-8.042 10.068-18.646 10.068-31.81zm42.652 34.134V54.864h22.577v-7.982h-22.577V23.709h-7.923v23.173h-22.577v7.982h22.577v23.173h7.923z" fill="#fff"/></svg>