<svg width="172" height="65" fill="none" xmlns="http://www.w3.org/2000/svg"><path fill-rule="evenodd" clip-rule="evenodd" d="M162.621 40.187c3.465 0 5.968-2.478 5.968-6.196 0-3.642-2.503-6.197-5.968-6.197-3.388 0-5.968 2.517-5.968 6.197 0 3.64 2.503 6.196 5.968 6.196zm0-15.385c5.627 0 9.379 3.91 9.379 9.19 0 5.277-3.752 9.187-9.379 9.187-5.626 0-9.378-3.91-9.378-9.188 0-5.279 3.752-9.189 9.378-9.189zM136.618 39.76h8.383V28.079h-5.845l-.193 2.92c-.385 4.478-1.538 7.67-2.345 8.761zm-5.542.03h2.183c1.169-1.475 2.377-5.164 2.689-9.94l.273-4.62h11.967v14.56h2.923v6.523h-2.923v-3.61h-14.189v3.61h-2.923V39.79zm-14.921-7.438c.352-2.621 2.381-4.558 5.583-4.558 3.044 0 4.919 1.747 5.075 4.558h-10.658zm5.702-7.55c-5.722 0-8.97 4.067-8.97 9.19 0 5.551 3.674 9.187 9.319 9.187 1.837 0 3.789-.475 5.369-1.445v-3.16c-1.146.97-3.016 1.673-5.138 1.673-3.402 0-5.799-1.956-6.07-5.28h13.378c.116-.547.194-1.25.194-2.11 0-4.848-3.597-8.055-8.082-8.055zm-26.306 5.393v8.637c1.545 1.045 2.974 1.355 4.635 1.355 3.706 0 6.023-2.672 6.023-6.352 0-3.524-2.046-6.041-5.638-6.041-2.046 0-3.939 1.046-5.02 2.4zm-3.126-5.003h3.093v2.062c1.198-1.401 3.52-2.452 5.916-2.452 4.95 0 8.043 3.696 8.043 8.87 0 5.33-3.596 9.413-9.048 9.413-1.857 0-3.674-.388-4.911-1.206v4.434h-3.093V25.192zM80.75 33.601l8.407 9.15h-4.32l-7.9-8.955 7.395-8.566h4.086L80.75 33.6zm-7.65 9.15h3.126V25.23H73.1v17.522z" fill="#393B3D"/><path fill-rule="evenodd" clip-rule="evenodd" d="M35.834 32.833l17.773-10.612L35.834 11.61v21.224z" fill="url(#paint0_linear)"/><path fill-rule="evenodd" clip-rule="evenodd" d="M17.773 43.445l18.06-10.612-18.06-10.612v21.224z" fill="url(#paint1_linear)"/><path fill-rule="evenodd" clip-rule="evenodd" d="M17.773 22.221l18.06 10.612V11.609l-18.06 10.612z" fill="#412ABD"/><path fill-rule="evenodd" clip-rule="evenodd" d="M0 54.057l17.773-10.612L0 32.833v21.224z" fill="url(#paint2_linear)"/><path fill-rule="evenodd" clip-rule="evenodd" d="M0 54.021L17.773 64.67V43.445L0 54.02z" fill="#412ABD"/><path fill-rule="evenodd" clip-rule="evenodd" d="M0 32.833l17.773-10.611L0 11.608v21.224z" fill="url(#paint3_linear)"/><path fill-rule="evenodd" clip-rule="evenodd" d="M0 32.833l17.773 10.612V22.22L0 32.833zM17.773.997L0 11.645 17.773 22.22V.997zm18.061 10.648L53.606 22.22V.997L35.834 11.645z" fill="#412ABD"/><path fill-rule="evenodd" clip-rule="evenodd" d="M35.834 54.057l17.773-10.612-17.773-10.612v21.224z" fill="url(#paint4_linear)"/><path fill-rule="evenodd" clip-rule="evenodd" d="M17.773 43.445l18.06 10.612V32.833l-18.06 10.612zm18.061 10.612l17.773 10.612V43.445L35.834 54.057z" fill="#412ABD"/><defs><linearGradient id="paint0_linear" x1="44.901" y1="32.833" x2="35.897" y2="16.606" gradientUnits="userSpaceOnUse"><stop stop-color="#7512F3"/><stop offset="1" stop-color="#513BFF"/></linearGradient><linearGradient id="paint1_linear" x1="26.988" y1="43.445" x2="18.06" y2="27.096" gradientUnits="userSpaceOnUse"><stop stop-color="#7512F3"/><stop offset="1" stop-color="#513BFF"/></linearGradient><linearGradient id="paint2_linear" x1="9.068" y1="54.057" x2=".064" y2="37.829" gradientUnits="userSpaceOnUse"><stop stop-color="#7512F3"/><stop offset="1" stop-color="#513BFF"/></linearGradient><linearGradient id="paint3_linear" x1="9.068" y1="32.833" x2=".064" y2="16.606" gradientUnits="userSpaceOnUse"><stop stop-color="#7512F3"/><stop offset="1" stop-color="#513BFF"/></linearGradient><linearGradient id="paint4_linear" x1="44.901" y1="54.057" x2="35.897" y2="37.829" gradientUnits="userSpaceOnUse"><stop stop-color="#7512F3"/><stop offset="1" stop-color="#513BFF"/></linearGradient></defs></svg>