<svg width="108" height="106" fill="none" xmlns="http://www.w3.org/2000/svg"><path d="M60.56 61.205a1.5 1.5 0 1 0 0 3v-3zm23.88 1.5v1.5h.007l-.008-1.5zM78.452 20.14l-1.41.514.478 1.308 1.34-.378-.408-1.444zM52.426 2L52.42.5h-.008l.014 1.5zM25.62 24.44l-.25 1.479 1.45.245.274-1.445-1.474-.28zm-3.546-.293l-.043 1.5h.046l-.003-1.5zM2 43.426l-1.5-.02v.039l1.5-.02zm20.073 19.28v-1.5h-.043l.043 1.5zm25.474 1.5a1.5 1.5 0 0 0 0-3v3zm13.003-52.18a1.5 1.5 0 0 0-1.216 2.743l1.216-2.743zm8.891 11.467l1.416-.496-.005-.014-.005-.014-1.406.524zm11.777 6.188l.395 1.447h.002l-.397-1.447zm10.541 2.052l-.91 1.192.008.006.902-1.198zm3.937 5.536l-1.428.46.003.01.004.012 1.42-.482zm-11.29 15.795v1.5h.003l-.002-1.5zm-30.353 0h-1.5v1.5h1.5v-1.5zm1.5.326a1.5 1.5 0 1 0-3 0h3zm-3 50.609a1.5 1.5 0 0 0 3 0h-3zm-7.215-35.075a1.5 1.5 0 1 0-3 0h3zm-3 27.161a1.5 1.5 0 0 0 3 0h-3zm-7.248-27.16a1.5 1.5 0 1 0-3 0h3zm-3 19.214a1.5 1.5 0 0 0 3 0h-3zm-7.216-19.215a1.5 1.5 0 1 0-3 0h3zm-3 11.301a1.5 1.5 0 0 0 3 0h-3zm33.68-60.477a1.5 1.5 0 1 0-3 0h3zm-10.216.33a1.5 1.5 0 1 0-3 0h3zm-3 30.874a1.5 1.5 0 0 0 3 0h-3zM35.09 28.22a1.5 1.5 0 1 0-3 0h3zm-3 22.732a1.5 1.5 0 0 0 3 0h-3zm-7.216-17.977a1.5 1.5 0 0 0-3 0h3zm-3 17.977a1.5 1.5 0 0 0 3 0h-3zM14.626 39.68a1.5 1.5 0 0 0-3 0h3zm-3 8.5a1.5 1.5 0 1 0 3 0h-3zM60.56 64.205h23.88v-3H60.56v3zm23.886 0c3.306-.016 6.57-.74 9.573-2.124l-1.255-2.725a20.148 20.148 0 0 1-8.332 1.85l.014 3zm9.573-2.124a23.171 23.171 0 0 0 7.838-5.897l-2.27-1.961a20.168 20.168 0 0 1-6.823 5.133l1.255 2.725zm7.838-5.897a23.194 23.194 0 0 0 4.698-8.614l-2.878-.847a20.188 20.188 0 0 1-4.09 7.5l2.27 1.96zm4.698-8.614c.935-3.173 1.18-6.51.719-9.787l-2.971.418a20.207 20.207 0 0 1-.626 8.522l2.878.847zm.719-9.787a23.213 23.213 0 0 0-3.39-9.208l-2.533 1.608a20.202 20.202 0 0 1 2.952 8.018l2.971-.418zm-3.39-9.208a23.187 23.187 0 0 0-6.892-6.98l-1.64 2.511a20.174 20.174 0 0 1 5.999 6.077l2.533-1.608zm-6.892-6.98a23.153 23.153 0 0 0-9.16-3.503l-.453 2.966a20.156 20.156 0 0 1 7.973 3.048l1.64-2.512zm-9.16-3.503a23.147 23.147 0 0 0-9.786.604l.814 2.888a20.144 20.144 0 0 1 8.519-.526l.453-2.966zm-7.97 1.534a29.113 29.113 0 0 0-10.7-13.904l-1.716 2.461a26.114 26.114 0 0 1 9.598 12.471l2.818-1.028zm-10.7-13.904A29.068 29.068 0 0 0 52.42.5l.013 3a26.068 26.068 0 0 1 15.013 4.683l1.716-2.461zM52.412.5a29.039 29.039 0 0 0-18.36 6.772l1.926 2.3A26.039 26.039 0 0 1 52.441 3.5l-.029-3zm-18.36 6.772a29.09 29.09 0 0 0-9.907 16.887l2.948.56a26.09 26.09 0 0 1 8.885-15.147l-1.925-2.3zM25.87 22.96a22.498 22.498 0 0 0-3.8-.314l.008 3a19.5 19.5 0 0 1 3.292.272l.5-2.958zm-3.753-.314a21.002 21.002 0 0 0-8.163 1.402l1.08 2.799a18 18 0 0 1 6.997-1.202l.086-2.999zm-8.163 1.402a21.016 21.016 0 0 0-6.988 4.449l2.078 2.163a18.016 18.016 0 0 1 5.99-3.814l-1.08-2.798zm-6.988 4.449a21.04 21.04 0 0 0-4.73 6.803l2.752 1.194a18.04 18.04 0 0 1 4.055-5.835l-2.078-2.163zM2.236 35.3A21.057 21.057 0 0 0 .5 43.406l3 .039c.03-2.393.537-4.755 1.488-6.95L2.236 35.3zM.5 43.445c.036 2.79.626 5.545 1.736 8.105l2.752-1.194a18.057 18.057 0 0 1-1.488-6.95l-3 .039zm1.736 8.105a21.04 21.04 0 0 0 4.729 6.804l2.078-2.163a18.04 18.04 0 0 1-4.055-5.835L2.236 51.55zm4.729 6.804a21.018 21.018 0 0 0 6.988 4.449l1.08-2.799a18.019 18.019 0 0 1-5.99-3.813l-2.078 2.163zm6.988 4.449a21.002 21.002 0 0 0 8.163 1.401l-.086-2.998a18.002 18.002 0 0 1-6.996-1.202l-1.081 2.799zm8.12 1.402h25.474v-3H22.073v3zm37.26-49.435a16.362 16.362 0 0 1 5.284 3.745l2.185-2.056a19.363 19.363 0 0 0-6.252-4.432l-1.216 2.743zm5.284 3.745a16.382 16.382 0 0 1 3.419 5.503l2.81-1.048a19.382 19.382 0 0 0-4.044-6.511l-2.185 2.056zm3.409 5.476a11.268 11.268 0 0 0 5.39 6.244l1.396-2.655a8.267 8.267 0 0 1-3.955-4.582l-2.831.993zm5.39 6.244a11.251 11.251 0 0 0 8.198.894l-.79-2.894a8.25 8.25 0 0 1-6.012-.655l-1.396 2.655zm8.2.894a10.59 10.59 0 0 1 4.826-.183l.573-2.945a13.59 13.59 0 0 0-6.194.235l.794 2.893zm4.826-.183c1.601.312 3.11.99 4.407 1.98l1.82-2.384a13.595 13.595 0 0 0-5.654-2.54l-.573 2.944zm4.415 1.986a9.735 9.735 0 0 1 3.41 4.797l2.857-.918a12.735 12.735 0 0 0-4.462-6.275l-1.805 2.396zm3.418 4.82a10.46 10.46 0 0 1 .442 4.89l2.968.44c.312-2.114.117-4.27-.569-6.294l-2.84.964zm.442 4.89a10.459 10.459 0 0 1-1.837 4.554l2.44 1.744a13.46 13.46 0 0 0 2.365-5.859l-2.968-.438zm-1.837 4.554a10.442 10.442 0 0 1-3.71 3.21l1.374 2.666a13.442 13.442 0 0 0 4.777-4.132l-2.441-1.744zm-3.71 3.21a10.43 10.43 0 0 1-4.766 1.16l.005 3a13.428 13.428 0 0 0 6.135-1.494l-1.375-2.666zm-4.763 1.16H54.053v3h30.354v-3zM52.553 53.39V104h3V53.39h-3zM42.338 68.925v27.161h3v-27.16h-3zm-10.248 0V88.14h3V68.925h-3zm-10.216 0v11.301h3v-11.3h-3zm30.68-49.176v33.316h3V19.75h-3zm-10.216.33v30.874h3V20.079h-3zM32.09 28.221v22.732h3V28.22h-3zm-10.216 4.755v17.977h3V32.976h-3zM11.626 39.68v8.5h3v-8.5h-3z" fill="#272727"/></svg>