<svg width="122" height="30" fill="none" xmlns="http://www.w3.org/2000/svg"><path d="M34.561 8.634h-3.245V6.937c0-.428.159-.786.505-1.09.332-.303.75-.455 1.255-.455.59 0 1.081.096 1.47.276V2.426l-.317-.097a8.297 8.297 0 00-1.024-.206 7.027 7.027 0 00-1.312-.11c-3.058 0-4.587 1.6-4.587 4.8v1.835h-2.062v3.393h2.062V22.07h3.996V12.04h3.245l.014-3.407zM44.91 22.056h3.98v-8.622c0-1.572-.576-2.883-1.73-3.931-1.154-1.049-2.654-1.573-4.471-1.573-.707 0-1.4.11-2.077.304-.663.193-1.212.414-1.63.648a7.232 7.232 0 00-1.14.8c-.346.304-.576.524-.677.649-.101.124-.188.22-.245.29l2.206 2.11.332-.331c.23-.249.606-.483 1.14-.718a4.485 4.485 0 011.788-.358c.793 0 1.413.193 1.846.552.447.372.664.841.664 1.42l-4.587.787c-1.327.234-2.38.73-3.144 1.476-.75.758-1.14 1.697-1.14 2.828 0 1.103.462 2.027 1.356 2.8.909.772 2.077 1.145 3.52 1.145.75 0 1.47-.152 2.163-.455.692-.304 1.154-.552 1.356-.745a6.63 6.63 0 00.476-.483l.014 1.407zm-2.971-2.828c-1.27 0-1.918-.469-1.918-1.407 0-.869.548-1.393 1.63-1.559l3.245-.565v.427c0 .98-.26 1.738-.794 2.29-.533.552-1.255.814-2.163.814zm9.318-4.097c0 1.931.764 3.614 2.322 5.049 1.543 1.435 3.375 2.152 5.495 2.152.75 0 1.471-.097 2.149-.303.678-.207 1.226-.428 1.644-.677a7.183 7.183 0 001.183-.841c.375-.317.606-.538.707-.676.1-.138.173-.234.23-.317l-2.365-2.4-.39.469c-.259.303-.692.607-1.283.91a4.037 4.037 0 01-1.875.455c-1.038 0-1.933-.372-2.697-1.117-.75-.745-1.14-1.642-1.14-2.69s.39-1.959 1.14-2.704c.75-.745 1.658-1.117 2.697-1.117.663 0 1.284.179 1.875.51s.98.607 1.154.814c.173.22.303.386.375.51l2.51-2.4-.217-.29c-.144-.193-.39-.441-.736-.717a11.404 11.404 0 00-1.153-.814c-.433-.276-.981-.51-1.659-.703a7.835 7.835 0 00-2.149-.304c-2.12 0-3.952.731-5.51 2.166-1.543 1.435-2.307 3.118-2.307 5.035zm18.483-8.47c0 .552-.16.993-.477 1.324-.317.345-.706.51-1.153.51h-1.327v3.394h2.51v5.642c0 3.2 1.514 4.8 4.572 4.8.98.015 1.875-.123 2.668-.413v-3.255l-.173.055a3.444 3.444 0 01-1.313.234c-.519 0-.937-.152-1.269-.455a1.42 1.42 0 01-.49-1.104V11.89h2.942V8.496h-2.942V4.123H69.74V6.66zm12.851 8.484c0-1.035.346-1.904 1.053-2.621.692-.704 1.529-1.062 2.495-1.062.952 0 1.788.358 2.495 1.062.693.717 1.053 1.586 1.053 2.62 0 1.036-.36 1.905-1.053 2.608-.707.704-1.543 1.049-2.495 1.049a3.377 3.377 0 01-2.495-1.049c-.707-.703-1.053-1.572-1.053-2.607zm11.221-.014c0-1.917-.764-3.6-2.293-5.035-1.529-1.435-3.317-2.152-5.38-2.152-2.077 0-3.865.717-5.394 2.152s-2.293 3.118-2.293 5.035c0 1.931.764 3.614 2.293 5.049 1.529 1.435 3.317 2.152 5.394 2.152 2.063 0 3.851-.717 5.38-2.152s2.293-3.118 2.293-5.049zm10.487-7.063h-.592c-.793 0-1.543.18-2.264.51-.721.345-1.183.621-1.399.828-.202.207-.375.373-.49.497V8.206h-3.981v13.85h3.98v-6.635c0-1.187.318-2.097.924-2.732.605-.634 1.442-.951 2.48-.951.592.013 1.039.069 1.327.165l.015-3.835zm7.087 14.83c-.476 1.048-1.312 1.558-2.509 1.558-.592 0-1.082-.082-1.471-.276v3.38l.288.097c.202.082.505.151.937.22.419.083.851.11 1.284.11 2.423 0 4.284-1.696 5.611-5.09l5.754-14.69h-4.124l-3.404 9.186-3.39-9.187h-4.139l5.61 13.712-.447.98z" fill="#2E2E2E"/><path d="M11.013 29.526V21.49a7.212 7.212 0 004.63.94 7.283 7.283 0 004.232-2.132 7.563 7.563 0 002.088-4.325 7.636 7.636 0 00-.922-4.73 7.393 7.393 0 00-3.55-3.178 7.197 7.197 0 00-4.71-.314 7.336 7.336 0 00-3.924 2.681A7.605 7.605 0 007.342 15v12.986c1.149.682 2.384 1.2 3.67 1.54zm3.67-18.276c.726 0 1.436.22 2.04.632a3.733 3.733 0 011.352 1.683c.278.685.35 1.44.209 2.167a3.777 3.777 0 01-1.005 1.92 3.648 3.648 0 01-1.88 1.026 3.6 3.6 0 01-2.12-.213 3.689 3.689 0 01-1.648-1.382A3.807 3.807 0 0111.013 15a3.79 3.79 0 011.075-2.652 3.632 3.632 0 012.596-1.098zM3.67 14.941z" fill="#3343D5"/><path d="M22.467 7.05l2.594-2.651a14.622 14.622 0 00-4.76-3.257A14.37 14.37 0 0014.685 0C6.587 0 0 6.73 0 15a15.123 15.123 0 003.67 9.91V15c0-2.225.645-4.4 1.855-6.25a11.061 11.061 0 014.942-4.144 10.791 10.791 0 016.363-.639 10.938 10.938 0 015.637 3.082zm0 15.901a10.968 10.968 0 01-3.57 2.443 10.778 10.778 0 01-4.213.856V30a14.367 14.367 0 005.618-1.142A14.62 14.62 0 0025.06 25.6l-2.593-2.649z" fill="#3343D5"/></svg>