<svg width="114" height="28" fill="none" xmlns="http://www.w3.org/2000/svg"><path d="M32.257 8.058h-3.029V6.474c0-.399.148-.733.471-1.017.31-.283.7-.425 1.172-.425.552 0 1.01.09 1.373.258V2.264l-.296-.09a7.742 7.742 0 0 0-.956-.193 6.559 6.559 0 0 0-1.225-.103c-2.854 0-4.281 1.494-4.281 4.48v1.713h-1.925v3.167h1.925v9.36h3.729v-9.36h3.029l.013-3.18zm9.659 12.528h3.715v-8.047c0-1.468-.538-2.691-1.615-3.67-1.077-.978-2.477-1.467-4.173-1.467-.66 0-1.306.103-1.939.283-.619.18-1.13.386-1.52.605a6.704 6.704 0 0 0-1.064.747c-.323.283-.538.489-.633.605-.094.116-.175.206-.229.27l2.06 1.97.31-.309c.215-.232.565-.45 1.063-.67a4.187 4.187 0 0 1 1.67-.334c.74 0 1.319.18 1.722.515.418.347.62.785.62 1.326l-4.281.734c-1.239.219-2.221.682-2.935 1.377-.7.709-1.063 1.584-1.063 2.64 0 1.03.43 1.892 1.265 2.613.848.721 1.939 1.07 3.285 1.07.7 0 1.373-.143 2.019-.426.646-.283 1.077-.515 1.265-.695.189-.18.337-.322.445-.45l.013 1.313zm-2.773-2.64c-1.185 0-1.79-.438-1.79-1.313 0-.811.511-1.3 1.52-1.455l3.03-.528v.4c0 .913-.243 1.622-.74 2.137-.499.515-1.172.76-2.02.76zm8.697-3.824c0 1.803.713 3.374 2.167 4.713 1.44 1.339 3.15 2.008 5.129 2.008.7 0 1.373-.09 2.005-.283.633-.193 1.145-.4 1.535-.631a6.8 6.8 0 0 0 1.104-.785c.35-.296.565-.502.66-.631l.215-.296-2.208-2.24-.363.437c-.242.283-.646.567-1.198.85a3.769 3.769 0 0 1-1.75.425c-.97 0-1.804-.348-2.518-1.043-.7-.695-1.063-1.532-1.063-2.51 0-.98.364-1.83 1.063-2.524a3.46 3.46 0 0 1 2.518-1.043c.619 0 1.198.167 1.75.476.552.31.915.567 1.077.76.161.206.282.36.35.476l2.342-2.24-.202-.27a3.95 3.95 0 0 0-.687-.67 10.64 10.64 0 0 0-1.076-.76c-.404-.257-.916-.476-1.548-.656a7.313 7.313 0 0 0-2.006-.283c-1.98 0-3.689.682-5.143 2.02-1.44 1.34-2.153 2.91-2.153 4.7zm17.25-7.905c0 .515-.148.927-.444 1.236a1.41 1.41 0 0 1-1.077.476h-1.238v3.168h2.342v5.266c0 2.987 1.413 4.48 4.267 4.48.916.013 1.75-.116 2.49-.386v-3.039l-.16.052a3.227 3.227 0 0 1-1.226.219c-.484 0-.875-.142-1.184-.425a1.326 1.326 0 0 1-.458-1.03v-5.137h2.746V7.929h-2.746V3.848H65.09v2.369zm11.995 7.918c0-.965.323-1.777.983-2.446.646-.657 1.427-.992 2.329-.992.888 0 1.669.335 2.328.992.647.67.983 1.48.983 2.446 0 .966-.337 1.777-.983 2.434-.66.656-1.44.978-2.328.978a3.151 3.151 0 0 1-2.33-.978c-.659-.657-.982-1.468-.982-2.434zm10.473-.013c0-1.79-.713-3.36-2.14-4.7-1.427-1.338-3.097-2.008-5.022-2.008-1.938 0-3.607.67-5.034 2.009-1.427 1.339-2.14 2.91-2.14 4.7 0 1.802.713 3.373 2.14 4.712 1.427 1.339 3.096 2.008 5.035 2.008 1.924 0 3.594-.67 5.02-2.008 1.428-1.34 2.141-2.91 2.141-4.713zm9.788-6.592h-.552c-.74 0-1.44.168-2.114.477-.673.322-1.104.579-1.306.772-.188.193-.35.348-.457.464V7.659H89.2v12.927h3.716v-6.193c0-1.108.296-1.957.861-2.55.566-.592 1.346-.888 2.316-.888.552.013.969.064 1.238.155l.014-3.58zm6.615 13.841c-.445.979-1.225 1.455-2.343 1.455-.552 0-1.009-.077-1.373-.258v3.155l.269.09c.189.077.472.142.875.206.391.077.795.103 1.199.103 2.261 0 3.998-1.584 5.236-4.751l5.371-13.712h-3.85l-3.177 8.575-3.163-8.575h-3.864l5.237 12.798-.417.914z" fill="#fff"/><path d="M10.278 27.557V20.06a6.732 6.732 0 0 0 4.321.877 6.798 6.798 0 0 0 3.951-1.99 7.058 7.058 0 0 0 1.948-4.037 7.127 7.127 0 0 0-.86-4.414 6.9 6.9 0 0 0-3.313-2.967 6.717 6.717 0 0 0-4.396-.292 6.846 6.846 0 0 0-3.663 2.502A7.098 7.098 0 0 0 6.852 14v12.121a13.458 13.458 0 0 0 3.426 1.436zM13.705 10.5c.677 0 1.34.205 1.903.59a3.485 3.485 0 0 1 1.262 1.57c.26.64.327 1.344.195 2.023a3.524 3.524 0 0 1-.938 1.792c-.479.49-1.09.823-1.754.958a3.36 3.36 0 0 1-1.98-.2 3.443 3.443 0 0 1-1.537-1.289A3.555 3.555 0 0 1 10.278 14c0-.928.361-1.819 1.004-2.475a3.39 3.39 0 0 1 2.423-1.025zM3.426 13.945z" fill="#3343D5"/><path d="M20.969 6.58l2.421-2.474a13.646 13.646 0 0 0-4.442-3.04A13.411 13.411 0 0 0 13.705 0C6.148 0 0 6.28 0 14a14.115 14.115 0 0 0 3.426 9.25V14a10.657 10.657 0 0 1 1.73-5.834A10.324 10.324 0 0 1 9.77 4.299a10.072 10.072 0 0 1 5.939-.596 10.208 10.208 0 0 1 5.26 2.876zm0 14.84a10.236 10.236 0 0 1-3.332 2.28 10.06 10.06 0 0 1-3.932.8V28a13.41 13.41 0 0 0 5.243-1.066 13.644 13.644 0 0 0 4.441-3.04l-2.42-2.473z" fill="#3343D5"/></svg>