<svg width="296" height="133" fill="none" xmlns="http://www.w3.org/2000/svg"><path d="M15.924 32.277c0-5.696 1.899-10.529 5.783-14.456 3.84-3.926 8.545-5.911 14.069-5.911 5.523 0 10.227 1.985 14.068 5.911 3.884 3.927 5.783 8.76 5.783 14.456s-1.9 10.529-5.783 14.412c-3.84 3.927-8.545 5.869-14.069 5.869-5.523 0-10.227-1.942-14.068-5.869-3.884-3.883-5.783-8.716-5.783-14.412zm-13.723-.043c0 8.889 3.237 16.527 9.71 22.827 6.473 6.3 14.457 9.45 23.864 9.45 9.408 0 17.392-3.15 23.865-9.45 6.473-6.3 9.71-13.938 9.71-22.827 0-8.89-3.237-16.484-9.71-22.784C53.167 3.15 45.183 0 35.776 0 26.367 0 18.384 3.15 11.91 9.45 5.438 15.75 2.2 23.345 2.2 32.234zm106.118 20.324c-3.798 0-7.034-1.38-9.71-4.186-2.675-2.804-4.013-6.257-4.013-10.4V1.296H81.347v36.678c0 7.551 2.546 13.851 7.682 18.943 5.092 5.092 11.522 7.638 19.247 7.638s14.155-2.546 19.29-7.638c5.092-5.092 7.682-11.392 7.682-18.943V1.295h-13.249v36.678c0 4.142-1.338 7.638-4.013 10.4-2.676 2.804-5.913 4.185-9.667 4.185zm42.421 10.615h13.292V41.511h11.479l11.911 21.662h14.155l-13.249-23.43 1.122-.605c.777-.345 1.683-.992 2.805-1.942a24.519 24.519 0 0 0 3.194-3.409c1.036-1.294 1.942-3.063 2.719-5.221.776-2.158 1.165-4.445 1.165-6.947 0-5.696-1.985-10.486-5.999-14.413-4.013-3.927-9.105-5.911-15.233-5.911h-27.404l.043 61.878zm35.344-41.554c0 2.244-.777 4.142-2.373 5.696-1.597 1.553-3.625 2.287-6.042 2.287h-13.68V13.247h13.68c2.417 0 4.445.82 6.042 2.374 1.596 1.596 2.373 3.581 2.373 5.998zm-153.372 91.92c0 2.33-.907 4.229-2.72 5.696-1.812 1.51-4.272 2.244-7.465 2.244-2.762 0-5.438-.604-7.94-1.856-2.547-1.208-4.187-2.201-4.92-2.934-.734-.734-1.295-1.338-1.683-1.812L0 122.816l.993 1.079c.56.691 1.51 1.554 2.848 2.546 1.294 1.036 2.848 2.028 4.574 2.977 1.726.993 3.97 1.856 6.646 2.546A33.342 33.342 0 0 0 23.39 133c7.336 0 13.076-1.812 17.219-5.437 4.143-3.625 6.214-8.285 6.214-14.024 0-4.056-1.036-7.379-3.15-10.054-2.072-2.632-4.618-4.531-7.639-5.696-3.02-1.122-5.998-2.158-8.976-3.02-2.977-.864-5.524-1.9-7.595-3.15-2.072-1.252-3.15-2.935-3.15-5.006 0-1.813.776-3.41 2.33-4.704 1.553-1.294 3.582-1.942 6.085-1.942 2.114 0 4.143.518 6.128 1.468 1.985.992 3.323 1.769 3.927 2.373.604.604 1.079 1.079 1.424 1.51l7.94-8.414-.776-.863c-.475-.604-1.295-1.338-2.417-2.158-1.122-.82-2.46-1.64-3.97-2.416-1.51-.777-3.453-1.468-5.826-2.072-2.33-.604-4.79-.863-7.337-.863-6.386 0-11.608 1.77-15.622 5.308-4.013 3.538-6.041 7.81-6.041 12.816 0 4.056 1.079 7.379 3.15 10.054 2.115 2.632 4.66 4.531 7.639 5.696a114.972 114.972 0 0 0 8.976 2.977c3.02.863 5.567 1.899 7.638 3.194 2.072 1.251 3.15 2.891 3.15 4.962zm39.314-43.371H58.734v62.648h13.292v-18.461l7.94-8.803 18.125 27.264h15.45L88.813 95.8l22.958-25.632h-15.45l-24.295 26.97v-26.97zm49.455 62.648h13.292V69.784h-13.292v63.032zm71.163 0v-13.063h-28.698v-49.97h-13.292v63.033h41.99zm52.131 0v-13.063h-28.698v-49.97h-13.292v63.033h41.99zm37.113-19.277c0 2.33-.906 4.229-2.718 5.696-1.813 1.51-4.273 2.244-7.466 2.244-2.762 0-5.438-.604-7.941-1.856-2.546-1.208-4.186-2.201-4.919-2.934-.734-.734-1.295-1.338-1.683-1.812l-7.984 7.939.992 1.079c.561.691 1.511 1.554 2.849 2.546 1.294 1.036 2.848 2.028 4.574 2.977 1.726.993 3.97 1.856 6.646 2.546a33.347 33.347 0 0 0 8.329 1.036c7.336 0 13.076-1.812 17.219-5.437 4.143-3.625 6.214-8.285 6.214-14.024 0-4.056-1.036-7.379-3.15-10.054-2.072-2.632-4.618-4.531-7.639-5.696-3.021-1.122-5.998-2.158-8.976-3.02-2.978-.864-5.524-1.9-7.595-3.15-2.072-1.252-3.151-2.935-3.151-5.006 0-1.813.777-3.41 2.331-4.704 1.553-1.294 3.582-1.942 6.085-1.942 2.114 0 4.143.518 6.128 1.468 1.985.992 3.323 1.769 3.927 2.373.604.604 1.079 1.079 1.424 1.51l7.94-8.414-.776-.863c-.475-.604-1.295-1.338-2.417-2.158-1.122-.82-2.46-1.64-3.97-2.416-1.511-.777-3.453-1.468-5.826-2.072-2.331-.604-4.79-.863-7.337-.863-6.387 0-11.608 1.77-15.622 5.308-4.013 3.538-6.041 7.81-6.041 12.816 0 4.056 1.078 7.379 3.15 10.054 2.114 2.632 4.661 4.531 7.638 5.696a115.004 115.004 0 0 0 8.977 2.977c3.02.863 5.567 1.899 7.638 3.194 2.071 1.251 3.15 2.891 3.15 4.962z" fill="#fff" fill-opacity=".02"/></svg>