<svg width="960" height="254" fill="none" xmlns="http://www.w3.org/2000/svg"><path d="M51.206 2.03c10.478 0 19.547 1.747 27.208 5.243 7.774 3.495 13.745 8.456 17.914 14.883 4.168 6.428 6.253 14.038 6.253 22.833 0 8.683-2.085 16.294-6.253 22.833-4.169 6.427-10.14 11.389-17.914 14.884-7.66 3.383-16.73 5.074-27.208 5.074H27.377v32.643H0V2.03h51.206zm-1.521 63.424c8.224 0 14.477-1.747 18.758-5.243 4.282-3.608 6.422-8.682 6.422-15.222 0-6.652-2.14-11.726-6.421-15.222-4.282-3.608-10.535-5.412-18.76-5.412H27.378v41.1h22.308zM122.126 2.03h27.378v96.067h59.317v22.326h-86.695V2.03zm180.889 93.023h-54.923l-10.478 25.37h-28.053L262.287 2.03h27.04l52.896 118.393h-28.73l-10.478-25.37zm-8.618-20.804l-18.759-45.327-18.759 45.327h37.518zm78.662-49.894h-37.855V2.03h103.088v22.325h-37.856v96.068h-27.377V24.355zm107.34-.338v31.29h54.755v21.987h-54.755v43.129h-27.377V2.03h89.399v21.987h-62.022zm136.691 98.435c-12.281 0-23.378-2.65-33.293-7.949-9.801-5.3-17.519-12.572-23.152-21.818-5.521-9.359-8.281-19.845-8.281-31.459s2.76-22.044 8.281-31.29c5.633-9.358 13.351-16.687 23.152-21.987C593.712 2.65 604.809 0 617.09 0c12.28 0 23.321 2.65 33.123 7.95 9.802 5.299 17.519 12.628 23.152 21.986 5.633 9.246 8.45 19.676 8.45 31.29s-2.817 22.1-8.45 31.459c-5.633 9.246-13.35 16.518-23.152 21.818-9.802 5.299-20.843 7.949-33.123 7.949zm0-23.34c6.985 0 13.294-1.579 18.927-4.736 5.633-3.27 10.027-7.78 13.182-13.53 3.267-5.751 4.901-12.29 4.901-19.62 0-7.329-1.634-13.869-4.901-19.62-3.155-5.75-7.549-10.204-13.182-13.36-5.633-3.27-11.942-4.906-18.927-4.906-6.986 0-13.295 1.635-18.928 4.905-5.633 3.157-10.083 7.611-13.351 13.362-3.154 5.75-4.732 12.29-4.732 19.62 0 7.328 1.578 13.868 4.732 19.619 3.268 5.75 7.718 10.26 13.351 13.53 5.633 3.157 11.942 4.736 18.928 4.736zm160.673 21.311l-22.815-32.981h-25.18v32.981H702.39V2.03h51.206c10.478 0 19.547 1.747 27.209 5.243 7.773 3.495 13.745 8.456 17.913 14.883 4.169 6.428 6.253 14.038 6.253 22.833 0 8.795-2.141 16.406-6.422 22.833-4.168 6.315-10.14 11.163-17.913 14.546l26.532 38.055h-29.405zm-.507-75.434c0-6.652-2.141-11.726-6.422-15.222-4.281-3.608-10.534-5.412-18.759-5.412h-22.307v41.269h22.307c8.225 0 14.478-1.804 18.759-5.413 4.281-3.608 6.422-8.682 6.422-15.222zm157.057 75.434l-.169-71.036-34.814 58.52h-12.336l-34.645-56.998v69.514h-25.687V2.03h22.645l44.277 73.572L937.186 2.03h22.476L960 120.423h-25.687zM27.377 155.565v31.289h54.755v21.988H27.377v45.128H0V133.577h89.399v21.988H27.377zM180.889 226.6h-54.923l-10.478 27.37H87.434l52.727-120.393h27.04l52.895 120.393h-28.729l-10.478-27.37zm-8.619-20.803l-18.758-45.328-18.759 45.328h37.517zM287.333 254c-12.055 0-22.983-2.593-32.785-7.78-9.689-5.3-17.35-12.572-22.984-21.818-5.52-9.359-8.28-19.902-8.28-31.628 0-11.727 2.76-22.213 8.28-31.459 5.634-9.359 13.295-16.631 22.984-21.818 9.802-5.299 20.786-7.949 32.954-7.949 10.253 0 19.491 1.804 27.715 5.412 8.338 3.608 15.323 8.795 20.956 15.56l-17.576 16.237c-7.999-9.246-17.913-13.869-29.743-13.869-7.323 0-13.858 1.635-19.603 4.905-5.746 3.157-10.253 7.611-13.52 13.361-3.155 5.751-4.732 12.291-4.732 19.62 0 7.329 1.577 13.869 4.732 19.619 3.267 5.751 7.774 10.261 13.52 13.531 5.745 3.157 12.28 4.736 19.603 4.736 11.83 0 21.744-4.68 29.743-14.038l17.576 16.236c-5.633 6.878-12.618 12.122-20.956 15.73-8.337 3.608-17.631 5.412-27.884 5.412zm90.677-98.097h-37.855v-22.326h103.088v22.326h-37.855v98.067H378.01v-98.067zM513.612 254c-12.28 0-23.377-2.65-33.292-7.949-9.802-5.3-17.519-12.572-23.152-21.818-5.521-9.359-8.281-19.845-8.281-31.459s2.76-22.044 8.281-31.29c5.633-9.358 13.35-16.687 23.152-21.987 9.915-5.299 21.012-7.949 33.292-7.949 12.281 0 23.322 2.65 33.124 7.949 9.801 5.3 17.519 12.629 23.152 21.987 5.633 9.246 8.45 19.676 8.45 31.29s-2.817 22.1-8.45 31.459c-5.633 9.246-13.351 16.518-23.152 21.818-9.802 5.299-20.843 7.949-33.124 7.949zm0-23.34c6.986 0 13.295-1.579 18.928-4.736 5.633-3.27 10.027-7.78 13.182-13.531 3.267-5.75 4.901-12.29 4.901-19.619 0-7.329-1.634-13.869-4.901-19.62-3.155-5.75-7.549-10.204-13.182-13.361-5.633-3.27-11.942-4.905-18.928-4.905-6.985 0-13.294 1.635-18.927 4.905-5.633 3.157-10.084 7.611-13.351 13.361-3.154 5.751-4.732 12.291-4.732 19.62 0 7.329 1.578 13.869 4.732 19.619 3.267 5.751 7.718 10.261 13.351 13.531 5.633 3.157 11.942 4.736 18.927 4.736zm160.674 23.31l-22.815-34.981h-25.18v34.981h-27.378V133.577h51.206c10.478 0 19.547 1.748 27.208 5.244 7.774 3.495 13.746 8.456 17.914 14.883 4.169 6.427 6.253 14.038 6.253 22.833 0 8.795-2.141 16.406-6.422 22.833-4.168 6.314-10.14 11.163-17.913 14.546l26.532 40.054h-29.405zm-.507-77.433c0-6.652-2.141-11.726-6.422-15.222-4.282-3.608-10.534-5.412-18.759-5.412h-22.307v41.268h22.307c8.225 0 14.477-1.804 18.759-5.412 4.281-3.608 6.422-8.682 6.422-15.222zm104.538 33.488v43.945H750.94v-44.283l-45.798-76.11h29.067l31.603 52.601 31.602-52.601h26.87l-45.967 76.448z" fill="#fff" fill-opacity=".02"/></svg>