<svg width="88" height="105" fill="none" xmlns="http://www.w3.org/2000/svg"><path d="M60.641 84.373H27.336l-1.145-1.138v-47.2a43.63 43.63 0 0 1 10.13-27.91L43.107 0h1.763l6.787 8.125a43.63 43.63 0 0 1 10.13 27.91v47.208l-1.146 1.13zM28.49 82.097h31.007V36.034a41.362 41.362 0 0 0-9.603-26.453l-5.9-7.07-5.901 7.07a41.362 41.362 0 0 0-9.611 26.453l.007 46.063z" fill="#272727"/><path d="M43.992 55.561a12.95 12.95 0 0 1-7.163-2.16 12.83 12.83 0 0 1-4.748-5.75 12.738 12.738 0 0 1-.734-7.403 12.79 12.79 0 0 1 3.529-6.56 12.919 12.919 0 0 1 6.601-3.507 12.968 12.968 0 0 1 7.45.73 12.881 12.881 0 0 1 5.786 4.718 12.756 12.756 0 0 1 2.172 7.119 12.788 12.788 0 0 1-3.78 9.056 12.949 12.949 0 0 1-9.113 3.757zm0-23.35a10.65 10.65 0 0 0-5.89 1.776 10.552 10.552 0 0 0-3.906 4.729 10.476 10.476 0 0 0-.603 6.088 10.516 10.516 0 0 0 2.902 5.395 10.623 10.623 0 0 0 5.429 2.884c2.057.406 4.188.198 6.126-.6a10.59 10.59 0 0 0 4.759-3.88 10.49 10.49 0 0 0 1.786-5.855 10.512 10.512 0 0 0-3.107-7.449 10.644 10.644 0 0 0-7.496-3.088z" fill="#272727"/><path d="M43.992 48.164a6.801 6.801 0 0 1-3.761-1.133 6.738 6.738 0 0 1-2.494-3.02 6.69 6.69 0 0 1-.386-3.888 6.716 6.716 0 0 1 1.854-3.445 6.784 6.784 0 0 1 3.466-1.842 6.81 6.81 0 0 1 3.913.383 6.762 6.762 0 0 1 3.038 2.478 6.7 6.7 0 0 1 1.141 3.739 6.715 6.715 0 0 1-1.985 4.755 6.8 6.8 0 0 1-4.786 1.973zm0-11.181a4.5 4.5 0 0 0-2.49.75 4.46 4.46 0 0 0-1.65 1.998 4.428 4.428 0 0 0 .972 4.853 4.507 4.507 0 0 0 4.883.965 4.475 4.475 0 0 0 2.011-1.64 4.433 4.433 0 0 0 .755-2.473 4.447 4.447 0 0 0-1.314-3.147 4.503 4.503 0 0 0-3.167-1.306z" fill="#272727"/><path d="M51.649 50.615a7.842 7.842 0 0 0-1.27-2.858 7.896 7.896 0 0 0-2.287-2.141l1.198-1.935a10.188 10.188 0 0 1 2.948 2.767 10.117 10.117 0 0 1 1.632 3.689l-2.221.478zm-15.329-.251l-2.22-.56a10.064 10.064 0 0 1 4.488-6.07L39.8 45.67a7.795 7.795 0 0 0-3.48 4.696zm8.817-3.337h-2.29v7.396h2.29v-7.396zm41.695 44.599H70.038l-1.145-1.138v-23.82a22.575 22.575 0 0 1 5.244-14.415l3.428-4.104h1.763l3.428 4.104A22.582 22.582 0 0 1 88 66.667v23.82l-1.168 1.139zM71.168 89.35h14.504V66.667a20.307 20.307 0 0 0-4.718-12.987l-2.542-3.035-2.542 3.035a20.307 20.307 0 0 0-4.717 12.987l.015 22.683z" fill="#272727"/><path d="M67.489 69.072a3.583 3.583 0 0 1-1.748-.442 3.556 3.556 0 0 1-1.306-1.235l-2.29-3.573a16.38 16.38 0 0 1-2.603-8.898v-3.08h2.29v3.08a14.122 14.122 0 0 0 2.29 7.67l2.29 3.572a1.35 1.35 0 0 0 1.541.573 1.337 1.337 0 0 0 .955-1.331h2.29a3.536 3.536 0 0 1-.712 2.181 3.573 3.573 0 0 1-1.906 1.293c-.352.116-.72.18-1.091.19zm3.687 19.041h-2.29a12.698 12.698 0 0 0-3.054-8.276l-1.77-2.056a1.26 1.26 0 0 0-1.404-.376 1.258 1.258 0 0 0-.826 1.188h-2.29c.004-.72.23-1.42.645-2.008A3.548 3.548 0 0 1 61.87 75.3a3.57 3.57 0 0 1 3.917 1.016l1.771 2.056a14.965 14.965 0 0 1 3.619 9.74zm-53.222 3.513H1.145L0 90.488v-23.82a22.582 22.582 0 0 1 5.244-14.415l3.428-4.104h1.763l3.428 4.104a22.575 22.575 0 0 1 5.244 14.414v23.82l-1.153 1.139zM2.29 89.35h14.504V66.667a20.307 20.307 0 0 0-4.718-12.987l-2.542-3.035-2.542 3.035A20.307 20.307 0 0 0 2.29 66.667V89.35z" fill="#272727"/><path d="M20.496 69.072c-.361 0-.721-.051-1.069-.152a3.573 3.573 0 0 1-1.914-1.29 3.535 3.535 0 0 1-.72-2.184h2.291c-.01.295.078.586.25.826a1.35 1.35 0 0 0 1.573.479 1.35 1.35 0 0 0 .673-.547l2.29-3.573a14.169 14.169 0 0 0 2.359-7.707v-3.08h2.29v3.08a16.425 16.425 0 0 1-2.695 8.898l-2.29 3.573c-.32.514-.767.938-1.3 1.231a3.583 3.583 0 0 1-1.738.446zm-1.412 19.041h-2.29a14.966 14.966 0 0 1 3.626-9.756l1.77-2.055a3.586 3.586 0 0 1 3.977-1.009 3.493 3.493 0 0 1 2.344 3.3h-2.29a1.232 1.232 0 0 0-.84-1.169 1.29 1.29 0 0 0-1.442.357l-1.802 2.056a12.698 12.698 0 0 0-3.053 8.276zm15.786.789h-2.29v8.39h2.29v-8.39zm20.527 0h-2.29v8.39h2.29v-8.39zm-10.26 5.895h-2.29V105h2.29V94.797zm31.817.227h-2.29v9.521h2.29v-9.52zm5.702.456h-2.29v4.983h2.29v-4.984zm-69.343-.456h-2.29v9.521h2.29v-9.52zm-5.703.456H5.32v4.983h2.29v-4.984zm44.138-31.969H36.237v2.276h15.511v-2.276zm0 7.48H36.237v2.276h15.511v-2.276zm34.702 8.535H70.07v2.276h16.38v-2.276zm0 3.482H70.07v2.276h16.38v-2.276zm-68.992-3.482H1.527v2.276h15.931v-2.276z" fill="#272727"/><path d="M17.458 83.008H1.527v2.276h15.931v-2.276z" fill="#272727"/></svg>