<svg width="103" height="101" fill="none" xmlns="http://www.w3.org/2000/svg"><path d="M51.5 72.838L31.692 61.65V37.842L51.5 48.992l19.808-11.15V61.65L51.5 72.84zM34.333 60.154L51.5 69.821l17.167-9.667v-17.8L51.5 52.008l-17.167-9.654v17.8z" fill="#272727"/><path d="M52.82 51.156h-2.64V70.83h2.64V51.156zm17.656-8.959L51.513 31.31 32.537 42.145l-8.16-15.911h-5.89V23.61h7.514l7.632 14.875 17.88-10.205 17.88 10.257 7.62-14.927h7.5v2.624h-5.877l-8.16 15.963zm-9.732-23.833H42.256V0h18.488v18.364zM44.897 15.74h13.206V2.623H44.897V15.74z" fill="#272727"/><path d="M19.808 34.104H0V15.74h19.808v18.364zM2.64 31.48h14.526V18.363H2.64V31.48zM103 34.104H83.192V15.74H103v18.364zM85.833 31.48h14.526V18.363H85.833V31.48zM60.744 101H42.256V82.636h18.488V101zm-15.847-2.623h13.206V85.26H44.897v13.117zM103 85.26H83.192V66.896H103V85.26zm-17.167-2.624h14.526V69.52H85.833v13.117zM19.808 85.26H0V66.896h19.808V85.26zM2.64 82.636h14.526V69.52H2.64v13.117zm50.18-65.584h-2.64v13.117h2.64V17.052z" fill="#272727"/><path d="M25.988 77.39h-7.5v-2.624h5.902l7.91-14.914 2.337 1.22-8.65 16.318zm58.525 0h-7.488l-8.649-16.318 2.337-1.22 7.91 14.914h5.89v2.624zM52.82 70.831h-2.64v13.117h2.64V70.831zM23.77 55.09H13.204v-9.18H23.77v9.18zm-7.924-2.623h5.282v-3.934h-5.282v3.934zm73.949 2.623H79.23v-9.18h10.564v9.18zm-7.923-2.623h5.282v-3.934h-5.282v3.934zM77.91 95.753H67.346V85.26H77.91v10.493zm-7.923-2.623h5.282v-5.247h-5.282v5.247z" fill="#272727"/></svg>