<svg width="443" height="433" fill="none" xmlns="http://www.w3.org/2000/svg"><g opacity=".15" fill="#fff"><path d="M402.5 375.8a34.601 34.601 0 0 1-34.56-34.56h2.13a32.438 32.438 0 0 0 64.87 0V224h2.13v117.24a34.598 34.598 0 0 1-34.57 34.56zm-32.44-87.11h-2.13V287h2.13v1.69zm0-4.56h-2.13v-2.83h2.13v2.83zm0-5.67h-2.13v-2.83h2.13v2.83zm0-5.67h-2.13V270h2.13v2.79zm0-5.67h-2.13v-2.83h2.13v2.83zm0-5.67h-2.13v-2.84h2.13v2.84zm0-5.67h-2.13v-2.83h2.13v2.83zm0-5.67h-2.13v-2.84h2.13v2.84zm0-5.67h-2.13v-2.83h2.13v2.83zm0-5.67h-2.13v-2.83h2.13v2.83zm0-5.67h-2.13v-2.83h2.13v2.83zm0-5.67h-2.13v-2.83h2.13v2.83zm0-5.67h-2.13v-2.83h2.13v2.83zm0-5.67h-2.13v-2.83h2.13v2.83zm0-5.67h-2.13v-2.83h2.13v2.83zm0-5.67h-2.13v-2.83h2.13v2.83zm0-5.67h-2.13v-2.84h2.13v2.84zm0-5.67h-2.13v-2.83h2.13v2.83zm0-5.67h-2.13v-2.83h2.13v2.83zm0-5.67h-2.13v-2.84h2.13v2.84zm0-5.67h-2.13v-2.83h2.13v2.83zm0-5.67h-2.13v-2.83h2.13v2.83zm0-5.67h-2.13v-2.83h2.13v2.83zm0-5.67h-2.13v-2.83h2.13v2.83zm0-5.67h-2.13v-2.82h2.13v2.82zm0-5.67h-2.13v-2.83h2.13v2.83zm0-5.67h-2.13v-2.83h2.13v2.83zm0-5.67h-2.13v-2.83h2.13v2.83zm0-5.67h-2.13v-2.83h2.13v2.83zm0-5.67h-2.13v-2.84h2.13v2.84zm0-5.67h-2.13v-2.83h2.13v2.83zm0-5.67h-2.13v-2.83h2.13v2.83zm0-5.67h-2.13v-2.83h2.13v2.83zm0-5.67h-2.13v-2.82h2.13v2.82zm0-5.67h-2.13v-2.81h2.13v2.81zm0-5.67h-2.13v-2.81h2.13v2.81zm0-5.67h-2.13v-2.81h2.13v2.81zm0-5.67h-2.13V77.2h2.13v2.81zm0-5.67h-2.13v-2.81h2.13v2.81zm0-5.67h-2.13v-2.81h2.13v2.81zm0-5.67h-2.13v-2.81h2.13V63zm0-5.67h-2.13v-2.81h2.13v2.81zm0-5.67h-2.13v-2.81h2.13v2.81zm0-5.67h-2.13v-2.81h2.13v2.81zm0-5.67h-2.13v-2.81h2.13v2.81zM298.25 37h-2.13c0-1 0-1.95.11-2.91l2.12.16c-.06.88-.1 1.8-.1 2.75zm69.61-2.22c-.06-.91-.15-1.83-.28-2.73l2.1-.3c.14 1 .24 1.93.3 2.9l-2.12.13zm-69.18-3.26l-2.1-.33c.15-1 .34-1.92.57-2.86l2.07.5c-.22.85-.39 1.75-.54 2.66v.03zm68.41-2.18c-.2-.89-.44-1.78-.71-2.66l2-.63c.29.93.54 1.88.75 2.82l-2.04.47zM300 26.15l-2-.66c.3-.92.64-1.85 1-2.74l2 .82c-.43.84-.75 1.71-1 2.58zm65.5-2.09c-.34-.85-.71-1.69-1.12-2.51l1.91-.94c.43.87.83 1.76 1.19 2.66l-1.98.79zm-63.39-3l-1.89-1c.44-.86.93-1.72 1.44-2.54l1.81 1.12c-.47.81-.97 1.62-1.39 2.43l.03-.01zm61-1.93c-.47-.78-1-1.56-1.5-2.3l1.73-1.23c.56.79 1.1 1.61 1.59 2.44l-1.82 1.09zM305 16.4l-1.71-1.26c.57-.78 1.19-1.55 1.82-2.28l1.61 1.39c-.63.68-1.21 1.41-1.72 2.15zm54.89-1.74c-.58-.7-1.2-1.39-1.84-2l1.52-1.49c.68.69 1.34 1.42 2 2.17l-1.68 1.32zm-51.3-2.42l-1.5-1.51c.68-.68 1.41-1.34 2.15-2l1.38 1.62c-.74.65-1.42 1.24-2.06 1.88l.03.01zM356 10.73c-.69-.6-1.41-1.18-2.14-1.73l1.27-1.71c.78.58 1.54 1.2 2.27 1.83l-1.4 1.61zm-43.27-2L311.51 7c.79-.57 1.6-1.11 2.43-1.61L315 7.16c-.74.47-1.51.99-2.25 1.52l-.02.05zm38.86-1.23c-.77-.49-1.57-.95-2.38-1.37l1-1.88c.86.45 1.71.94 2.53 1.45l-1.15 1.8zm-34.15-1.67l-1-1.9c.86-.43 1.76-.84 2.65-1.21l.8 2c-.79.28-1.63.7-2.45 1.11zm29.29-.93c-.84-.36-1.7-.69-2.57-1l.67-2c.92.31 1.84.66 2.73 1l-.83 2zm-24.2-1.14l-.64-2c.92-.29 1.87-.55 2.81-.77l.48 2.01c-.89.23-1.78.48-2.65.76zm19-.6c-.89-.22-1.79-.41-2.69-.56l.35-2.1c1 .16 1.91.36 2.86.59l-.52 2.07zm-13.65-.64l-.32-2.1c1-.14 1.93-.25 2.9-.32l.15 2.12c-.91.06-1.83.16-2.73.29v.01zm8.23-.26c-.9-.08-1.83-.12-2.75-.13V0c1 0 2 .05 2.91.14l-.16 2.12zM155.06 235.62h-2.13v-2.83h2.13v2.83zm0-5.67h-2.13v-2.83h2.13v2.83zm0-5.67h-2.13v-2.83h2.13v2.83zm0-5.67h-2.13v-2.84h2.13v2.84zm0-5.67h-2.13v-2.84h2.13v2.84zm0-5.67h-2.13v-2.83h2.13v2.83zm0-5.67h-2.13v-2.84h2.13v2.84zm0-5.67h-2.13v-2.83h2.13v2.83zm0-5.67h-2.13v-2.83h2.13v2.83zm0-5.67h-2.13v-2.83h2.13v2.83zm0-5.67h-2.13v-2.83h2.13v2.83zm0-5.67h-2.13v-2.83h2.13v2.83zm0-5.67h-2.13v-2.83h2.13v2.83zm0-5.67h-2.13v-2.83h2.13v2.83zm0-5.67h-2.13v-2.83h2.13v2.83zm0-5.67h-2.13v-2.83h2.13v2.83zm0-5.67h-2.13v-2.83h2.13v2.83zm0-5.67h-2.13v-2.83h2.13v2.83zm0-5.67h-2.13v-2.83h2.13v2.83zm0-5.67h-2.13v-2.83h2.13v2.83zm0-5.67h-2.13v-2.83h2.13v2.83zm0-5.67h-2.13v-2.83h2.13v2.83zm0-5.67h-2.13v-2.83h2.13v2.83zm0-5.67h-2.13v-2.83h2.13v2.83zm0-5.67h-2.13v-2.82h2.13v2.82zm0-5.67h-2.13V91h2.13v2.87zm0-5.67h-2.13v-2.82h2.13v2.82zm0-5.67h-2.13v-2.82h2.13v2.82zm0-5.67h-2.13V74h2.13v2.86zm0-5.67h-2.13v-2.82h2.13v2.82zm0-5.67h-2.13V62.7h2.13v2.82zm71.11-3.6h-2.13c0-.667-.017-1.3-.05-1.9l2.12-.12c.047.687.07 1.367.07 2.04l-.01-.02zm-71.06-2l-2.11-.11c.06-1 .15-1.95.28-2.9l2.11.29c-.13.9-.22 1.8-.27 2.73l-.01-.01zm68.62-2.63c-.12-.9-.28-1.81-.47-2.71l2.08-.45c.2.95.37 1.91.5 2.87l-2.11.29zm-67.87-2.81l-2.07-.48c.21-.95.46-1.9.74-2.82l2 .62c-.23.9-.46 1.8-.66 2.69l-.01-.01zm66.71-2.55c-.26-.87-.57-1.75-.9-2.6l2-.78c.35.9.68 1.83 1 2.76l-2.1.62zm-65.1-2.7l-2-.78c.36-.9.75-1.8 1.18-2.67l1.91.94c-.37.82-.75 1.67-1.08 2.52l-.01-.01zm63.1-2.41c-.4-.82-.84-1.63-1.3-2.42l1.83-1.08c.49.83 1 1.7 1.38 2.57l-1.91.93zm-60.67-2.51l-1.83-1.09c.5-.83 1-1.66 1.59-2.45l1.75 1.23c-.53.75-1.04 1.52-1.51 2.31zm57.87-2.21c-.52-.74-1.09-1.48-1.67-2.18l1.64-1.36c.62.75 1.22 1.53 1.77 2.32l-1.74 1.22zm-54.69-2.28l-1.63-1.36c.62-.74 1.28-1.47 2-2.16l1.52 1.49c-.68.65-1.3 1.34-1.89 2.04v-.01zm51.18-2c-.63-.65-1.31-1.29-2-1.89l1.4-1.6c.73.64 1.44 1.32 2.12 2l-1.52 1.49zm-47.34-2l-1.4-1.6c.73-.63 1.49-1.25 2.28-1.83l1.26 1.71c-.72.63-1.44 1.21-2.13 1.8l-.01-.08zm43.2-1.65a29.3 29.3 0 0 0-2.27-1.55L209 30.9c.82.52 1.63 1.07 2.41 1.65l-1.29 1.62zm-38.79-1.62l-1.12-1.8c.82-.51 1.68-1 2.54-1.44l1 1.89c-.82.5-1.63.96-2.4 1.44l-.02-.09zm34.13-1.3c-.81-.42-1.64-.82-2.49-1.17l.83-2c.9.38 1.78.8 2.64 1.25l-.98 1.92zm-29.26-1.22l-.82-2c.9-.38 1.81-.72 2.73-1l.66 2c-.84.41-1.7.73-2.55 1.09l-.02-.09zm24.2-.93c-.86-.29-1.75-.54-2.64-.76l.5-2.07c.94.23 1.89.5 2.8.81l-.66 2.02zm-19-.78l-.5-2.07c.94-.23 1.9-.42 2.86-.57l.33 2.1c-.86.22-1.76.41-2.65.63l-.04-.09zm13.65-.52c-.9-.14-1.81-.26-2.73-.33l.17-2.12c1 .08 1.94.2 2.9.35l-.34 2.1zm-8.22-.34l-.16-2.12c.94-.07 1.91-.11 2.86-.11l.06 2.13c-.93.09-1.84.12-2.73.19l-.03-.09zM11.07 375.36H8.94v1.42h2.13v-1.42zm-.01-2.92H8.94v-2.92h2.13l-.01 2.92zm0-5.84H8.94v-2.92h2.13l-.01 2.92zm0-5.84H8.94v-2.92h2.13l-.01 2.92zm0-5.84H8.94V352h2.13l-.01 2.92zm0-5.84H8.94v-2.92h2.13l-.01 2.92zm0-5.84H8.94v-2.92h2.13l-.01 2.92zm0-5.84H8.94v-2.92h2.13l-.01 2.92zm0-5.84H8.94v-2.92h2.13l-.01 2.92zm0-5.84H8.94v-2.92h2.13l-.01 2.92zm0-5.84H8.94V317h2.13l-.01 2.88zm0-5.84H8.94v-2.92h2.13l-.01 2.92zm0-5.84H8.94v-2.9h2.13l-.01 2.9zm0-5.84H8.94v-2.92h2.13l-.01 2.92zm0-5.84H8.94v-2.92h2.13l-.01 2.92zm0-5.84H8.94v-2.92h2.13l-.01 2.92zm0-5.84H8.94V282h2.13l-.01 2.84zm.01-7.22H8.94v1.42h2.13v-1.42z"/><path d="M326.69 166.42h-2.13V71.18a34.12 34.12 0 0 0-68.24 0v77h-2.12v-77a36.246 36.246 0 0 1 72.49 0v95.24zM207.06 337.45h-2.13v-2.83h2.13v2.83zm0-5.67h-2.13V329h2.13v2.78zm0-5.67h-2.13v-2.83h2.13v2.83zm0-5.67h-2.13v-2.84h2.13v2.84zm0-5.67h-2.13v-2.83h2.13v2.83zm0-5.67h-2.13v-2.83h2.13v2.83zm0-5.67h-2.13v-2.83h2.13v2.83zm0-5.67h-2.13v-2.83h2.13v2.83zm0-5.67h-2.13v-2.84h2.13v2.84zm0-5.67h-2.13v-2.82h2.13v2.82zm0-5.67h-2.13v-2.83h2.13v2.83zm0-5.67h-2.13v-2.83h2.13v2.83zm0-5.67h-2.13v-2.83h2.13v2.83zm0-5.67h-2.13v-2.83h2.13v2.83zm0-5.67h-2.13v-2.84h2.13v2.84zm0-5.67h-2.13v-2.83h2.13v2.83zm0-5.67h-2.13v-2.83h2.13v2.83zm0-5.62L205 241c.047-.985.151-1.967.31-2.94l2.1.34a23.85 23.85 0 0 0-.32 2.73l-.03-.02zm.87-5.34l-2-.58c.279-.948.613-1.88 1-2.79l2 .81c-.36.841-.671 1.703-.93 2.58l-.07-.02zm2.07-5l-1.86-1a25.791 25.791 0 0 1 1.59-2.49l1.72 1.24a23.586 23.586 0 0 0-1.45 2.27v-.02zm3.16-4.39l-1.53-1.38a25.76 25.76 0 0 1 2.11-2.07l1.4 1.6a24.12 24.12 0 0 0-1.94 1.87l-.04-.02zm4.08-3.56l-1.21-1.75a25.851 25.851 0 0 1 2.52-1.53l1 1.88c-.783.43-1.541.904-2.27 1.42l-.04-.02zm4.78-2.54l-.77-2a26.2 26.2 0 0 1 2.81-.92l.54 2.06c-.866.245-1.717.539-2.55.88l-.03-.02zm5.23-1.37l-.3-2.11a25.83 25.83 0 0 1 2.94-.25l.06 2.13c-.891.033-1.779.117-2.66.25l-.04-.02zm5.59-.33l-.18-2.12c.9-.079 1.795-.209 2.68-.39l.43 2.08c-.954.202-1.919.349-2.89.44l-.04-.01zm5.78-1.18l-.66-2a23.25 23.25 0 0 0 2.52-1l.89 1.93a25.61 25.61 0 0 1-2.71 1.08l-.04-.01zm5.36-2.48l-1.11-1.81a23.78 23.78 0 0 0 2.23-1.55l1.31 1.67a25.76 25.76 0 0 1-2.41 1.7l-.02-.01zm4.65-3.63l-1.49-1.51a23.765 23.765 0 0 0 1.82-2l1.66 1.33a25.796 25.796 0 0 1-1.95 2.19l-.04-.01zm3.7-4.59l-1.8-1.14c.481-.765.919-1.556 1.31-2.37l1.91.92c-.411.892-.871 1.76-1.38 2.6l-.04-.01zm2.56-5.32l-2-.69a23.38 23.38 0 0 0 .73-2.61l2.08.46a25.287 25.287 0 0 1-.77 2.85l-.04-.01zm1.27-5.76l-2.12-.21c.081-.804.121-1.612.12-2.42h2.13c.014.881-.016 1.762-.09 2.64l-.04-.01zM163.5 432.51a43.61 43.61 0 0 1-43.56-43.56V177.7h2.13v211.25a41.442 41.442 0 0 0 41.435 40.796 41.442 41.442 0 0 0 41.435-40.796h2.13a43.608 43.608 0 0 1-43.57 43.56zM44.06 200.54h-2.12v-2.83h2.13l-.01 2.83zm0-5.67h-2.12V192h2.13l-.01 2.87zm0-5.67h-2.12v-2.84h2.13l-.01 2.84zm0-5.67h-2.12v-2.83h2.13l-.01 2.83zm0-5.67h-2.12V175h2.13l-.01 2.86zm0-5.67h-2.12v-2.83h2.13l-.01 2.83zm0-5.67h-2.12v-2.83h2.13l-.01 2.83zm0-5.67h-2.12V158h2.13l-.01 2.85zm0-5.67h-2.12v-2.83h2.13l-.01 2.83zm0-5.67h-2.12v-2.83h2.13l-.01 2.83zm0-5.67h-2.12V141h2.13l-.01 2.84zm0-5.67h-2.12v-2.83h2.13l-.01 2.83zm0-5.67h-2.12v-2.83h2.13l-.01 2.83zm0-5.67h-2.12v-.64c0-.76.02-1.51.06-2.25l2.12.12c-.04.707-.06 1.42-.06 2.14v.63zm75.85-1.92c0-.92-.09-1.84-.19-2.75l2.11-.22c.1 1 .17 1.94.2 2.9l-2.12.07zm-75.54-3.6l-2.11-.27c.12-1 .28-1.92.48-2.87l2.08.42c-.18.91-.33 1.83-.45 2.73v-.01zm75-1.88c-.16-.9-.36-1.8-.59-2.69l2.06-.53c.24.94.45 1.9.62 2.84l-2.09.38zm-73.86-3.51l-2-.57c.26-.93.56-1.86.89-2.77l2 .72c-.4.87-.68 1.7-.93 2.63l.04-.01zm72.5-1.82c-.29-.86-.62-1.73-1-2.58l2-.82c.37.89.72 1.81 1 2.72l-2 .68zm-70.62-3.36l-1.94-.87c.39-.88.83-1.76 1.28-2.61l1.87 1c-.47.82-.88 1.65-1.25 2.49l.04-.01zm68.45-1.74c-.42-.82-.87-1.63-1.34-2.41l1.82-1.1c.5.82 1 1.68 1.41 2.54l-1.89.97zM50 105.89l-1.79-1.14c.52-.82 1.08-1.63 1.65-2.4l1.71 1.27c-.57.73-1.12 1.5-1.57 2.27zm63-1.57c-.53-.75-1.09-1.48-1.67-2.19l1.64-1.35c.61.75 1.21 1.52 1.77 2.31l-1.74 1.23zm-59.75-2.86l-1.61-1.39c.63-.73 1.3-1.45 2-2.14l1.51 1.5c-.68.66-1.31 1.34-1.91 2.03h.01zm56.26-1.4c-.63-.66-1.29-1.31-2-1.93l1.49-1.56c.71.65 1.41 1.34 2.08 2l-1.57 1.49zm-52.38-2.5L55.73 96c.73-.63 1.49-1.25 2.26-1.83l1.28 1.7c-.73.51-1.45 1.13-2.14 1.69zm48.29-1.2a35.16 35.16 0 0 0-2.23-1.62l1.19-1.74c.8.54 1.59 1.12 2.35 1.71l-1.31 1.65zm-43.89-2.1l-1.15-1.79c.82-.53 1.66-1 2.5-1.48l1 1.87c-.77.43-1.57.9-2.35 1.4zm39.32-1c-.79-.45-1.61-.89-2.44-1.28l.92-1.92c.87.42 1.74.88 2.58 1.36l-1.06 1.84zm-34.48-1.63l-.88-1.94c.88-.4 1.79-.77 2.69-1.1l.73 2c-.85.31-1.71.66-2.54 1.04zm29.51-.74a38.1 38.1 0 0 0-2.6-.92l.63-2c.93.29 1.85.61 2.75 1l-.78 1.92zm-24.34-1.16l-.58-2c.93-.27 1.88-.5 2.83-.7l.43 2.08c-.9.14-1.8.37-2.68.62zm19.08-.48c-.89-.21-1.8-.38-2.7-.52l.33-2.1c1 .15 1.92.34 2.86.56l-.49 2.06zm-13.69-.65l-.28-2.11c1-.13 1.93-.22 2.9-.28l.13 2.12c-.93.06-1.85.15-2.75.27zm8.25-.21c-.91-.08-1.84-.12-2.75-.13v-2.13c1 0 1.95.06 2.91.14l-.16 2.12zM10 285.22c5.523 0 10-4.477 10-10s-4.477-10-10-10-10 4.477-10 10 4.477 10 10 10z"/><path d="M120.94 136.61c5.523 0 10-4.477 10-10s-4.477-10-10-10-10 4.477-10 10 4.477 10 10 10zm204.75 38.5c5.523 0 10-4.477 10-10s-4.477-10-10-10-10 4.477-10 10 4.477 10 10 10zM162.36 411.77c8.837 0 16-7.163 16-16s-7.163-16-16-16-16 7.163-16 16 7.163 16 16 16zm26-332c8.837 0 16-7.163 16-16s-7.163-16-16-16-16 7.163-16 16 7.163 16 16 16zm17.7 317c5.523 0 10-4.477 10-10s-4.477-10-10-10-10 4.477-10 10 4.477 10 10 10zm-85.12-211.78a7.29 7.29 0 1 0 0-14.58 7.29 7.29 0 0 0 0 14.58zM10 244.15a7.29 7.29 0 1 0 0-14.58 7.29 7.29 0 0 0 0 14.58zm143.94 25.21a7.29 7.29 0 1 0 0-14.58 7.29 7.29 0 0 0 0 14.58zm0-24.79a8.95 8.95 0 1 0 0-17.9 8.95 8.95 0 0 0 0 17.9zm71.11-174.05a8.95 8.95 0 1 0 0-17.9 8.95 8.95 0 0 0 0 17.9zm0 23.89a6.79 6.79 0 1 0 0-13.58 6.79 6.79 0 0 0 0 13.58zm72.18 16.16a6.79 6.79 0 1 0 0-13.58 6.79 6.79 0 0 0 0 13.58zm71.82 187.16a9.54 9.54 0 0 0 9.54-9.54 9.54 9.54 0 0 0-9.54-9.54 9.54 9.54 0 0 0-9.54 9.54 9.54 9.54 0 0 0 9.54 9.54zm0 51a6.79 6.79 0 1 0 0-13.58 6.79 6.79 0 0 0 0 13.58zm66.88-117.24a6.79 6.79 0 1 0 0-13.58 6.79 6.79 0 0 0 0 13.58zM206.35 344.74a7.29 7.29 0 1 0 0-14.58 7.29 7.29 0 0 0 0 14.58zM10 383.74a7.29 7.29 0 1 0 0-14.58 7.29 7.29 0 0 0 0 14.58zm245.2-191.47a7.29 7.29 0 1 0 0-14.58 7.29 7.29 0 0 0 0 14.58z"/><path d="M115 301.39a40.108 40.108 0 0 1-40.06-40.06v-27.79a31.94 31.94 0 0 0-63.87 0H8.94a34.067 34.067 0 0 1 34.065-34.065A34.063 34.063 0 0 1 77.07 233.54v27.78a37.943 37.943 0 0 0 37.935 37.324 37.941 37.941 0 0 0 37.935-37.324h2.13A40.112 40.112 0 0 1 115 301.39zM261.15 150a37.143 37.143 0 0 1-37.1-37.1V87.62h2.13v25.29a34.998 34.998 0 0 0 48.394 32.336 35.006 35.006 0 0 0 18.942-18.942 34.998 34.998 0 0 0 2.664-13.394v-9.29h2.13v9.29A37.14 37.14 0 0 1 261.15 150z"/></g></svg>