<svg width="297" height="66" fill="none" xmlns="http://www.w3.org/2000/svg"><path d="M15.143 61.556V50.378h1.523v4.778h6.58v-4.778h1.522v11.178h-1.522v-5.067h-6.58v5.067h-1.523zm13.247 0V50.378h4.073c1.164 0 2.075.252 2.731.755.657.49.985 1.185.985 2.09 0 1.229-.567 2.051-1.701 2.466v.044c.716.149 1.276.467 1.679.956.403.489.604 1.067.604 1.733 0 .963-.366 1.726-1.097 2.29-.716.562-1.708.844-2.977.844H28.39zm1.522-6.334h2.395c.746 0 1.313-.163 1.7-.489.404-.34.605-.814.605-1.422 0-1.185-.798-1.778-2.395-1.778h-2.305v3.69zm0 5.156h2.574c.91 0 1.589-.17 2.037-.511.447-.356.671-.845.671-1.467 0-.652-.239-1.148-.716-1.489-.463-.355-1.134-.533-2.015-.533h-2.551v4zm8.974-4.4c0-1.778.53-3.2 1.589-4.267 1.074-1.067 2.402-1.6 3.984-1.6 1.492 0 2.649.496 3.47 1.489.82.978 1.23 2.2 1.23 3.667 0 .177-.014.43-.044.755h-8.64c.03 1.378.462 2.46 1.298 3.245.836.785 1.858 1.177 3.067 1.177 1.298 0 2.44-.444 3.424-1.333l.694 1.156c-.522.474-1.164.851-1.925 1.133a6.302 6.302 0 0 1-2.238.422c-1.686 0-3.096-.548-4.23-1.644-1.12-1.096-1.68-2.496-1.68-4.2zm1.656-1.156h7.073c-.045-1.11-.366-1.963-.962-2.555-.597-.608-1.343-.911-2.239-.911-.97 0-1.813.303-2.529.91-.716.608-1.164 1.46-1.343 2.556zm10.716 1.156c0-1.704.567-3.104 1.7-4.2 1.135-1.111 2.537-1.667 4.209-1.667.776 0 1.537.14 2.283.422.746.267 1.358.66 1.835 1.178l-.783 1.133a4.496 4.496 0 0 0-1.5-1 4.467 4.467 0 0 0-1.79-.377c-1.254 0-2.299.422-3.134 1.266-.836.845-1.254 1.926-1.254 3.245 0 1.303.418 2.378 1.254 3.222.85.83 1.91 1.244 3.178 1.244a5.2 5.2 0 0 0 1.97-.4 4.66 4.66 0 0 0 1.634-1.133l.694 1.133c-.493.549-1.134.986-1.925 1.312a6.554 6.554 0 0 1-2.462.466c-1.687 0-3.097-.54-4.23-1.622-1.12-1.096-1.68-2.504-1.68-4.222zm15.69 5.578V51.71h-4.096v-1.333h9.736v1.333H68.47v9.845h-1.522zm7.978 0V50.378h1.477v7.333c0 1.022-.022 1.578-.067 1.667h.045c.06-.104.448-.66 1.164-1.667l5.529-7.333h1.455v11.178h-1.5v-8.023c.015-.252.03-.466.045-.644.015-.193.022-.296.022-.311h-.045c0 .03-.067.133-.201.31-.12.179-.284.4-.493.668-.194.266-.343.481-.447.644l-5.529 7.356h-1.455zm13.224 0V50.378h1.523v9.844h6.222v-9.844h1.545v9.844h1.566v4h-1.432v-2.666H88.15zm13.334 0V50.378h1.478v7.333c0 1.022-.023 1.578-.068 1.667h.045c.06-.104.448-.66 1.164-1.667l5.529-7.333h1.455v11.178h-1.5v-8.023c.015-.252.03-.466.045-.644.015-.193.022-.296.022-.311h-.045c0 .03-.067.133-.201.31-.12.179-.284.4-.493.668-.194.266-.343.481-.447.644l-5.529 7.356h-1.455zm12.464-5.645c0-1.644.574-3.022 1.723-4.133 1.149-1.111 2.552-1.667 4.208-1.667 1.656 0 3.059.556 4.208 1.667 1.164 1.11 1.746 2.489 1.746 4.133 0 1.674-.582 3.082-1.746 4.222-1.149 1.126-2.552 1.69-4.208 1.69-1.656 0-3.059-.564-4.208-1.69-1.149-1.14-1.723-2.548-1.723-4.222zm1.566 0c0 1.304.418 2.385 1.254 3.245.85.859 1.887 1.288 3.111 1.288 1.224 0 2.261-.43 3.111-1.288.851-.86 1.276-1.941 1.276-3.245 0-1.26-.425-2.311-1.276-3.155-.85-.86-1.887-1.29-3.111-1.29-1.224 0-2.261.43-3.111 1.29-.836.844-1.254 1.896-1.254 3.155zm13.162 5.645V50.378h1.522v4.778h6.581v-4.778h1.522v11.178h-1.522v-5.067h-6.581v5.067h-1.522zm13.246 0V50.378h1.522v4.778h6.581v-4.778h1.522v11.178h-1.522v-5.067h-6.581v5.067h-1.522zm12.262-3c0-2.593 2.283-3.89 6.849-3.89h.671v-.31c0-1.926-.925-2.89-2.775-2.89-1.149 0-2.216.356-3.201 1.067l-.694-1.155c.448-.385 1.037-.69 1.768-.911a7.149 7.149 0 0 1 2.216-.356c1.358 0 2.395.37 3.112 1.111.731.726 1.096 1.785 1.096 3.178v7.156h-1.454v-1.312l.067-.933h-.045c-.313.711-.813 1.311-1.5 1.8-.671.474-1.44.711-2.305.711-1.03 0-1.925-.289-2.686-.866-.746-.578-1.119-1.378-1.119-2.4zm1.544-.134c0 .563.224 1.06.672 1.49.447.429 1.067.644 1.857.644 1.03 0 1.858-.43 2.485-1.29a4.706 4.706 0 0 0 .962-2.888v-.511h-.649c-.477 0-.895.007-1.253.022-.343.015-.799.074-1.366.178-.552.089-1.007.215-1.365.377a2.53 2.53 0 0 0-.94.756c-.269.34-.403.748-.403 1.222zm9.862 3.134l2.708-3.845.515-.667V57a3.325 3.325 0 0 1-1.835-1.067c-.507-.577-.761-1.296-.761-2.155 0-1.096.358-1.934 1.074-2.511.731-.593 1.701-.89 2.91-.89h3.962v11.179h-1.522v-4.29h-2.328l-2.955 4.29h-1.768zm4.79-5.467h2.261v-4.556h-2.149c-1.806 0-2.708.748-2.708 2.245 0 .726.238 1.296.716 1.71.492.4 1.119.6 1.88.6zm13.03 5.467V50.378h9.423v11.178h-1.522V51.71h-6.379v9.845h-1.522zm11.684.088V60.29c.925-.148 1.604-.748 2.037-1.8.432-1.067.649-2.645.649-4.733v-3.378h6.894v11.178h-1.522V51.69h-3.895v2.067c0 2.637-.336 4.585-1.007 5.844-.657 1.244-1.709 1.926-3.156 2.044zm12.249-3.088c0-2.593 2.283-3.89 6.85-3.89h.671v-.31c0-1.926-.925-2.89-2.775-2.89-1.149 0-2.216.356-3.201 1.067l-.694-1.155c.448-.385 1.037-.69 1.768-.911a7.144 7.144 0 0 1 2.216-.356c1.358 0 2.395.37 3.111 1.111.732.726 1.097 1.785 1.097 3.178v7.156h-1.455v-1.312l.067-.933h-.044c-.314.711-.814 1.311-1.5 1.8-.672.474-1.44.711-2.306.711-1.029 0-1.924-.289-2.685-.866-.747-.578-1.12-1.378-1.12-2.4zm1.545-.134c0 .563.224 1.06.671 1.49.448.429 1.067.644 1.858.644 1.03 0 1.858-.43 2.485-1.29a4.712 4.712 0 0 0 .962-2.888v-.511h-.649c-.478 0-.895.007-1.253.022-.344.015-.799.074-1.366.178-.552.089-1.007.215-1.365.377a2.523 2.523 0 0 0-.94.756c-.269.34-.403.748-.403 1.222zm13.604 3.134V51.71h-4.096v-1.333h9.737v1.333h-4.118v9.845h-1.523zm6.759-5.645c0-1.674.56-3.037 1.679-4.089 1.134-1.052 2.596-1.615 4.387-1.689V46h1.477v4.133c1.791.074 3.246.637 4.365 1.69 1.134 1.051 1.701 2.414 1.701 4.088 0 1.704-.567 3.096-1.701 4.178-1.119 1.067-2.574 1.637-4.365 1.711V66h-1.477v-4.2c-1.791-.074-3.253-.644-4.387-1.711-1.119-1.082-1.679-2.474-1.679-4.178zm7.543 4.578c1.358-.074 2.448-.519 3.268-1.333.836-.83 1.254-1.912 1.254-3.245 0-1.318-.418-2.37-1.254-3.155-.82-.786-1.91-1.215-3.268-1.29v9.023zm-5.998-4.578c0 1.333.41 2.415 1.231 3.245.835.814 1.932 1.259 3.29 1.333v-9.022c-1.358.074-2.455.503-3.29 1.289-.821.785-1.231 1.837-1.231 3.155zm14.193 0c0-1.644.574-3.022 1.723-4.133 1.149-1.111 2.552-1.667 4.208-1.667 1.657 0 3.059.556 4.208 1.667 1.164 1.11 1.746 2.489 1.746 4.133 0 1.674-.582 3.082-1.746 4.222-1.149 1.126-2.551 1.69-4.208 1.69-1.656 0-3.059-.564-4.208-1.69-1.149-1.14-1.723-2.548-1.723-4.222zm1.567 0c0 1.304.417 2.385 1.253 3.245.851.859 1.888 1.288 3.111 1.288 1.224 0 2.261-.43 3.112-1.288.85-.86 1.275-1.941 1.275-3.245 0-1.26-.425-2.311-1.275-3.155-.851-.86-1.888-1.29-3.112-1.29-1.223 0-2.26.43-3.111 1.29-.836.844-1.253 1.896-1.253 3.155zM259.717 66V50.378h1.455v1.178l-.067.866h.045a3.778 3.778 0 0 1 1.544-1.689c.702-.414 1.493-.622 2.373-.622 1.507 0 2.701.54 3.581 1.622.881 1.067 1.321 2.474 1.321 4.223 0 1.762-.47 3.185-1.41 4.266-.94 1.067-2.149 1.6-3.626 1.6a4.21 4.21 0 0 1-2.171-.578 4.217 4.217 0 0 1-1.545-1.644h-.045c.045.267.067.593.067.978V66h-1.522zm1.478-10c0 1.2.321 2.244.962 3.133.657.89 1.53 1.334 2.619 1.334 1.03 0 1.895-.4 2.596-1.2.702-.815 1.052-1.911 1.052-3.29 0-1.347-.335-2.429-1.007-3.244-.656-.83-1.514-1.244-2.574-1.244-1.029 0-1.895.378-2.596 1.133-.702.756-1.052 1.882-1.052 3.378zm11.278 5.556l.917-11.178h1.612l3.38 6.889.694 1.577h.044c.239-.577.471-1.103.694-1.577l3.403-6.89h1.589l.94 11.179h-1.5l-.559-7.223V52.4h-.045a12.646 12.646 0 0 1-.716 1.622l-3.134 6.245h-1.388l-3.111-6.2-.739-1.667h-.044c.029.889.029 1.533 0 1.933l-.56 7.223h-1.477zm15.484-3c0-2.593 2.283-3.89 6.849-3.89h.672v-.31c0-1.926-.925-2.89-2.776-2.89-1.149 0-2.215.356-3.2 1.067l-.694-1.155c.447-.385 1.037-.69 1.768-.911a7.144 7.144 0 0 1 2.216-.356c1.358 0 2.395.37 3.111 1.111.731.726 1.097 1.785 1.097 3.178v7.156h-1.455v-1.312l.067-.933h-.045c-.313.711-.813 1.311-1.499 1.8-.672.474-1.44.711-2.306.711-1.029 0-1.925-.289-2.686-.866-.746-.578-1.119-1.378-1.119-2.4zm1.545-.134c0 .563.224 1.06.671 1.49.448.429 1.067.644 1.858.644 1.03 0 1.858-.43 2.484-1.29a4.707 4.707 0 0 0 .963-2.888v-.511h-.649c-.478 0-.895.007-1.254.022-.343.015-.798.074-1.365.178-.552.089-1.007.215-1.365.377a2.523 2.523 0 0 0-.94.756c-.269.34-.403.748-.403 1.222zM1 61.497V50.32h1.477v7.334c0 1.022-.022 1.577-.067 1.666h.045c.06-.103.448-.659 1.164-1.666l5.528-7.334h1.455v11.178h-1.5v-8.022c.016-.252.03-.467.045-.645.015-.192.023-.296.023-.31h-.045c0 .029-.067.133-.201.31-.12.178-.284.4-.493.667-.194.267-.343.482-.447.645l-5.53 7.355H1z" fill="#393B3D"/><path d="M27.415 21.521c-1.79 3.15-5.544 5.636-10.87 5.636-7.028-.134-10.652-4.881-10.652-10.916 0-6.523 4.104-10.916 10.783-10.916 4.584 0 8.295 2.662 10.128 5.413v-7.72C25.014 1.73 21.478.221 16.676.221 6.548.222 0 6.833 0 16.196c0 10.029 6.636 16.02 16.589 16.064 5.282 0 9.298-2.042 10.826-3.905V21.52zm5.633 10.25h11.307c7.814 0 12.79-3.55 12.79-10.383 0-6.834-4.278-10.029-12.66-10.029h-5.98V5.814h16.24V.71H33.048v31.062zm11.263-15.309c4.715 0 7.16 1.066 7.16 4.793 0 4.127-2.794 5.414-7.16 5.414h-5.806V16.462h5.806zm38.349-3.239H68.603v-7.41h15.672V.71H63.146v31.062h21.61v-5.103H68.602v-8.343H82.66v-5.103zm18.752 8.875c8.949 0 13.751-3.639 13.751-10.872 0-7.01-4.103-10.516-13.751-10.516H91.24v31.06h5.457v-9.673h4.715zm.48-16.285c5.326 0 7.596 1.464 7.596 5.28 0 4.216-2.619 5.902-7.683 5.902h-5.108V5.813h5.195z" fill="#1BAB36"/><path fill-rule="evenodd" clip-rule="evenodd" d="M156.324 37.455h5.498v-7.53c2.2 1.421 5.43 2.098 8.73 2.098 9.691 0 16.083-7.105 16.083-16.374 0-9-5.498-15.427-14.296-15.427-4.262 0-8.386 1.827-10.517 4.262V.898h-5.498v36.557zm24.469-21.603c0-6.158-3.643-10.556-10.035-10.556-3.643 0-7.011 1.827-8.936 4.195V24.58c2.75 1.827 5.293 2.368 8.248 2.368 6.599 0 10.723-4.669 10.723-11.096zm43.964 21.603h5.155v-6.109h25.019v6.109h5.155V26.272h-5.155V.898h-21.102l-.481 8.052c-.55 8.323-2.68 14.75-4.742 17.322h-3.849v11.183zm14.228-31.482l-.344 5.075c-.688 7.78-2.75 13.329-4.193 15.223h14.984V5.974h-10.447z" fill="#0DB7B5"/><path d="M141.955.898h7.217l-13.541 14.548 14.847 15.9h-7.629l-13.954-15.562L141.955.898zm-19.864 30.448h5.499V.898h-5.499v30.448z" fill="#0DB7B5"/><path fill-rule="evenodd" clip-rule="evenodd" d="M209.432 26.948c3.987 0 7.492-1.353 9.485-3.18l1.719 4.263c-3.025 2.706-7.492 3.992-11.616 3.992-10.036 0-16.565-6.293-16.565-15.9 0-8.864 5.773-15.901 15.946-15.901 7.973 0 14.365 5.548 14.365 13.938 0 1.489-.137 2.706-.343 3.654h-23.782c.481 5.751 4.742 9.134 10.791 9.134zm7.63-13.532c-.275-5.007-3.575-8.12-8.936-8.12-5.636 0-9.21 3.451-9.829 8.12h18.765zm46.946 2.706c0 9.135 6.599 15.9 16.496 15.9 9.898 0 16.496-6.765 16.496-15.9 0-9.134-6.598-15.9-16.496-15.9-9.897 0-16.496 6.766-16.496 15.9zm5.842 0c0-6.428 4.606-10.826 10.654-10.826 6.186 0 10.654 4.466 10.654 10.826 0 6.496-4.468 10.826-10.654 10.826s-10.654-4.466-10.654-10.826z" fill="#0DB7B5"/></svg>