<svg width="809" height="1103" fill="none" xmlns="http://www.w3.org/2000/svg"><g opacity=".2"><mask id="a" maskUnits="userSpaceOnUse" x="-413" y="-119" width="1222" height="1222"><path d="M809 491.96v10.973c0 7.208 0 18.021-1.361 32.037a580.764 580.764 0 01-20.182 119.581 602.495 602.495 0 01-77.441 171.562 615.536 615.536 0 01-170.979 173.405 622.838 622.838 0 01-124.29 64.072 608.498 608.498 0 01-145.512 35.24 621.193 621.193 0 01-158.166-2.16 603.14 603.14 0 01-80.084-17.22c-13.374-3.44-26.428-8.01-40.042-12.65l-19.54-7.53-9.77-3.85-9.61-4.32a614.014 614.014 0 01-262.275-220.501 610.018 610.018 0 01-76.24-160.99 634.768 634.768 0 01-19.781-88.104A675.55 675.55 0 01-413 491.96a669.313 669.313 0 016.807-89.866 634.736 634.736 0 0119.781-88.104 610.104 610.104 0 0176.32-160.669 614.102 614.102 0 01262.274-220.5l9.61-4.325 9.61-3.845 19.541-7.609c13.294-4.325 26.268-9.21 40.042-12.655a604.076 604.076 0 0180.084-17.22 621.463 621.463 0 01158.166-2.083 608.611 608.611 0 01145.512 35.242A623.025 623.025 0 01539.037-15.6a615.642 615.642 0 01170.979 173.405 602.506 602.506 0 0177.281 171.722 580.785 580.785 0 0120.181 119.581c1.282 13.936 1.042 24.749 1.362 32.038l.16 10.813zm0 0v-10.973c0-7.209 0-18.022-1.442-32.038a580.377 580.377 0 00-20.982-119.421 601.446 601.446 0 00-77.841-170.921A613.647 613.647 0 00537.596-13.516a620.246 620.246 0 00-124.05-63.355 605.522 605.522 0 00-144.792-34.12 617.608 617.608 0 00-157.124 2.803 599.485 599.485 0 00-79.524 17.38C18.812-87.362 5.92-82.797-7.215-78.071l-19.3 7.128-10.09 4.085-9.53 4.325a608.658 608.658 0 00-258.512 219.539 602.438 602.438 0 00-94.018 246.21 674.192 674.192 0 00-6.327 88.745 667.716 667.716 0 006.327 88.824 627.474 627.474 0 0019.22 86.742 603.246 603.246 0 0074.798 159.468A608.623 608.623 0 00-45.735 1046.53l9.53 4.33 9.69 3.84 19.38 7.61c13.134 4.33 26.027 9.21 39.321 12.74a600.038 600.038 0 0079.524 17.38 617.652 617.652 0 00157.124 2.8 605.572 605.572 0 00144.872-34.44 620.326 620.326 0 00124.05-63.355 613.63 613.63 0 00171.139-172.123 601.477 601.477 0 0077.842-170.921 580.468 580.468 0 0020.661-119.421c1.362-13.936 1.122-24.749 1.442-32.037l.16-10.973z" fill="#fff"/><path d="M710.417 491.96v9.211c0 6.087.001 15.057-1.121 26.751A486.694 486.694 0 01692.158 628.2a505.01 505.01 0 01-64.707 144.17A516.094 516.094 0 01483.94 917.501a522.333 522.333 0 01-104.109 53.904 510.601 510.601 0 01-122.048 29.635 521.345 521.345 0 01-132.619-1.762 506.718 506.718 0 01-67.27-14.417c-11.212-2.884-22.183-6.969-33.315-10.573a248.96 248.96 0 01-32.674-13.215 512.56 512.56 0 01-222.436-189.081 512.654 512.654 0 010-559.744A512.557 512.557 0 01-8.095 23.168c10.651-5.046 21.783-8.891 32.674-13.216C35.471 5.627 46.602 1.942 57.894-.621a506.643 506.643 0 0167.27-14.417A521.12 521.12 0 01257.783-16.8a510.544 510.544 0 01122.048 29.475A522.352 522.352 0 01483.94 66.58a516.084 516.084 0 01143.27 145.45 505.024 505.024 0 0164.708 144.17 486.782 486.782 0 0116.818 100.278c1.121 11.694.881 20.744 1.121 26.832l.56 8.65zm0 0v-9.211c0-6.087.001-15.058-1.201-26.752a486.389 486.389 0 00-17.378-100.037 503.977 503.977 0 00-65.268-143.209 514.11 514.11 0 00-143.43-144.17 519.569 519.569 0 00-104.11-53.023 507.19 507.19 0 00-121.327-28.834 517.28 517.28 0 00-131.578 2.403 502.087 502.087 0 00-66.63 14.658c-11.131 2.883-21.942 6.968-32.914 10.652-10.971 3.685-21.783 8.01-32.033 13.216a508.547 508.547 0 00-219.21 187.634 508.648 508.648 0 000 553.426A508.545 508.545 0 00-5.452 956.347c10.57 5.046 21.542 8.891 32.033 13.216 10.491 4.325 21.783 8.009 32.915 10.652a502.026 502.026 0 0066.549 14.577 517.31 517.31 0 00131.578 2.403 507.177 507.177 0 00121.327-28.834 519.532 519.532 0 00104.109-53.022 514.113 514.113 0 00143.431-144.17 504.017 504.017 0 0065.268-143.209 486.398 486.398 0 0017.378-100.038c1.121-11.694.961-20.744 1.202-26.751l.079-9.211z" fill="#fff"/><path d="M615.517 491.96l-1.441 29.315c0 4.725 0 10.172-1.041 16.019l-2.883 18.982c-1.122 6.808-1.923 14.257-3.604 22.026l-6.247 24.509a404.238 404.238 0 01-52.295 117.018 416.46 416.46 0 01-129.584 126.715 416.402 416.402 0 01-171.131 59.664c-8.729 1.442-17.618 1.202-26.507 1.923l-13.374.721h-13.535a430.336 430.336 0 01-163.29-34.681L4.396 861.676c-8.97-4.085-16.978-9.691-24.986-14.577l-12.573-7.609c-4.005-2.803-8.009-5.847-11.853-8.73-8.008-6.008-16.017-11.534-23.625-17.942a449.594 449.594 0 01-80.083-89.225 448.512 448.512 0 01-52.135-110.13 462.047 462.047 0 01-18.259-121.583 461.463 461.463 0 0118.259-121.583 448.541 448.541 0 0152.135-110.05 450.676 450.676 0 0180.083-89.225c7.528-6.407 16.017-11.934 23.625-17.941 4.004-2.883 8.009-5.927 11.853-8.73l12.573-7.529c8.489-4.886 16.497-10.412 25.226-14.657l26.188-12.495a430.318 430.318 0 01163.291-35.001h13.614l13.374.72c8.889.721 17.699.481 26.428 1.923a416.402 416.402 0 01171.067 59.926 416.47 416.47 0 01129.407 126.934A404.306 404.306 0 01600.54 381.19l6.247 24.509c1.682 8.009 2.403 15.218 3.604 22.026l2.883 18.982c.801 5.847.721 11.213 1.041 16.019l1.201 29.234zm0 0l-1.521-29.314c0-4.726 0-10.092-1.121-16.019l-2.964-18.982c-1.201-6.809-1.922-14.257-3.684-22.026l-6.326-24.509a403.69 403.69 0 00-52.856-116.618 417.253 417.253 0 00-116.762-117.418 424.403 424.403 0 00-183.312-65.838c-8.569-1.361-17.538-1.04-26.347-1.682l-13.375-.64h-13.293a425.519 425.519 0 00-161.05 36.042L7.2 127.451c-8.57 4.325-16.417 9.851-24.746 14.737l-12.333 7.609c-3.924 2.803-8.008 5.767-11.612 8.73-8.008 5.927-16.017 11.454-23.064 17.861a447.14 447.14 0 00-78.482 88.104 441.333 441.333 0 00-50.854 108.368 455.021 455.021 0 00-17.538 119.341 454.348 454.348 0 0017.538 119.42 441.34 441.34 0 0050.854 108.448 448.479 448.479 0 0078.482 88.104c7.367 6.407 15.456 11.854 23.064 17.861 3.924 2.883 8.008 5.927 11.612 8.73l12.333 7.609c8.008 4.886 16.017 10.413 24.746 14.738l25.707 12.494a425.524 425.524 0 00161.209 36.043h13.294l13.294-.641c8.809-.641 17.618 0 26.267-1.682a424.4 424.4 0 00183.472-66.158 417.36 417.36 0 00116.763-117.418 403.715 403.715 0 0052.855-116.618l6.327-24.509c1.681-8.009 2.482-15.137 3.683-22.026l2.964-18.982c.881-5.847.72-11.213 1.121-16.019l1.361-29.635z" fill="#fff"/><path d="M522.782 491.96l-1.121 22.747c0 3.684 0 8.009-.801 12.414l-2.243 14.738c-.88 5.286-1.441 11.133-2.802 17.14l-4.805 18.822a314.174 314.174 0 01-40.763 90.907A324.258 324.258 0 01236.722 814.1c-6.727 1.121-13.694.961-20.581 1.521-6.976.616-13.98.856-20.982.721A334.78 334.78 0 0168.146 789.27l-20.422-9.691c-6.807-3.284-13.053-8.01-19.7-11.454l-9.85-5.927-9.29-6.808c-6.087-4.645-12.494-8.97-18.42-13.936a325.832 325.832 0 01-102.988-154.742 359.872 359.872 0 01-14.255-94.672 359.275 359.275 0 0114.255-94.672 349.346 349.346 0 0140.683-85.861 350.57 350.57 0 0162.465-69.442c5.927-4.965 12.333-9.291 18.42-13.936l9.29-6.808 9.85-5.927c6.567-3.765 12.893-8.01 19.7-11.454l20.422-9.691a334.792 334.792 0 01127.093-27.072h10.571l10.331.561c6.887.56 13.774.4 20.501 1.522a324.228 324.228 0 01132.983 46.677 324.28 324.28 0 01100.622 98.694 314.174 314.174 0 0140.763 90.907l4.885 19.063c1.281 6.007 1.922 11.773 2.803 17.14l2.242 14.737c.641 4.485.561 8.73.801 12.415l.881 23.067zm0 0l-1.201-22.747c0-3.684 0-8.009-.881-12.415l-2.323-14.737c-.881-5.286-1.521-11.053-2.883-17.06l-4.965-19.063a313.532 313.532 0 00-41.083-90.586 323.177 323.177 0 00-90.655-90.988 329.206 329.206 0 00-142.389-51.18c-6.647-1.041-13.614-.801-20.502-1.281l-10.33-.481h-10.331a330.086 330.086 0 00-124.851 28.113l-19.86 9.852c-6.648 3.364-12.734 8.009-19.14 11.453l-9.53 5.847-9.13 6.728C6.8 238.061.555 242.306-5.132 247.271a346.954 346.954 0 00-60.783 68.241 342.017 342.017 0 00-39.401 84.019 352.452 352.452 0 00-13.534 92.509 352.452 352.452 0 0013.534 92.509 342.017 342.017 0 0039.401 84.019A348.076 348.076 0 00-5.13 736.889c5.686 4.965 11.932 9.21 17.859 13.856l8.969 6.728 9.53 5.847c6.407 3.764 12.573 8.009 19.14 11.453l19.94 9.772a329.994 329.994 0 00125.332 28.033c6.864.205 13.735.045 20.582-.481 6.807-.48 13.694 0 20.421-1.281a329.114 329.114 0 00142.469-51.181 323.237 323.237 0 0090.415-91.067 313.494 313.494 0 0041.163-90.747l4.965-19.062c1.362-6.007 1.922-11.774 2.883-17.061l2.323-14.737c.64-4.485.56-8.65.881-12.415l1.041-22.586z" fill="#fff"/><path d="M430.845 491.96l-.801 16.019c0 2.643 0 5.607-.56 8.89l-1.602 10.573c-.641 3.764-1.041 8.009-2.002 12.254l-3.444 13.616a224.764 224.764 0 01-29.07 65.117 232.64 232.64 0 01-167.055 104.123c-4.805.801-9.77.721-14.735 1.121-5.005.457-10.031.644-15.056.561a240.233 240.233 0 01-91.136-19.223 244.309 244.309 0 01-56.059-34.12A233.877 233.877 0 01-24.831 559.48a257.618 257.618 0 01-10.331-68.241 257.94 257.94 0 0110.33-67.84 234.12 234.12 0 0174.159-111.411 244.398 244.398 0 0156.058-34.12 240.226 240.226 0 0191.216-19.223c4.998-.079 9.997.108 14.976.561 4.965.4 9.85 0 14.655 1.121A232.656 232.656 0 01393.366 364.45a224.764 224.764 0 0129.07 65.117l3.444 13.616c.961 4.325 1.361 8.41 2.002 12.254l1.602 10.573c.48 3.203 0 6.247.56 8.89l.801 17.06zm0 0l-.881-16.019c0-2.643 0-5.606-.64-8.89l-1.442-10.733c-.641-3.764-1.121-8.009-2.082-12.254l-3.524-13.616a224.258 224.258 0 00-29.471-64.717 229.77 229.77 0 00-64.948-65.036 235.1 235.1 0 00-101.706-36.283c-4.725-.721-9.69-.561-14.656-.881a136.653 136.653 0 00-14.735 0 235.319 235.319 0 00-89.213 20.104 238.213 238.213 0 00-53.737 34.04 247.573 247.573 0 00-43.245 48.697 243.5 243.5 0 00-27.95 59.831 231.26 231.26 0 000 131.675 243.573 243.573 0 0028.11 59.99 248.762 248.762 0 0043.245 48.698 238.304 238.304 0 0053.577 33.88A235.267 235.267 0 00196.6 720.71c4.882.26 9.773.26 14.655 0 4.885 0 9.77 0 14.575-.881a235.027 235.027 0 00101.787-36.283 229.939 229.939 0 0065.028-65.678 224.285 224.285 0 0029.471-64.075l3.524-13.616c.961-4.325 1.361-8.41 2.082-12.255l1.682-10.572c.48-3.204.4-6.247.64-8.89l.801-16.5z" fill="#fff"/></mask><g mask="url(#a)"><path fill="#C4C4C4" d="M1 555h816v595H1z"/></g></g><circle cx="259" cy="809" r="21" fill="#74EE87"/><circle cx="546.5" cy="993.5" r="31.5" fill="#C9F157"/><circle cx="556.5" cy="694.5" r="22.5" fill="#75D7F6"/></svg>