<?xml version="1.0" encoding="utf-8"?><svg xmlns="http://www.w3.org/2000/svg" xmlns:xlink="http://www.w3.org/1999/xlink"><symbol viewBox="0 0 262 88" id="icon_100" xmlns="http://www.w3.org/2000/svg"><path d="M18.288 1.132l-.477 1.25c-.357.716-.953 1.669-1.787 2.741-.834 1.132-1.906 2.264-3.216 3.336-1.31 1.072-3.098 2.085-5.302 2.919-2.264.834-4.766 1.31-7.506 1.37v5.48h15.846v68.328h9.174V1.132h-6.732zm35.921 42.771c0-11.08 2.442-19.717 7.387-26.032C66.48 11.616 72.378 8.46 79.229 8.46c6.79 0 12.688 3.157 17.632 9.412 4.885 6.255 7.387 14.893 7.387 25.973 0 11.02-2.442 19.658-7.327 25.972-4.885 6.315-10.782 9.472-17.573 9.472-6.91 0-12.867-3.157-17.752-9.412-4.945-6.255-7.387-14.893-7.387-25.973zm59.213 0c0-13.224-3.396-23.828-10.127-31.87C96.504 3.991 88.522 0 79.228 0c-9.292 0-17.275 3.991-24.006 12.033-6.791 8.042-10.127 18.646-10.127 31.87 0 13.165 3.336 23.769 10.067 31.81 6.732 8.043 14.774 12.094 24.186 12.094 9.293 0 17.275-4.051 24.006-12.093 6.672-8.042 10.068-18.646 10.068-31.81zm23.709 0c0-11.08 2.442-19.717 7.387-26.032 4.884-6.255 10.782-9.412 17.632-9.412 6.791 0 12.689 3.157 17.633 9.412 4.885 6.255 7.387 14.893 7.387 25.973 0 11.02-2.442 19.658-7.327 25.972-4.885 6.315-10.782 9.472-17.573 9.472-6.911 0-12.868-3.157-17.752-9.412-4.945-6.255-7.387-14.893-7.387-25.973zm59.213 0c0-13.224-3.396-23.828-10.127-31.87C179.426 3.991 171.443 0 162.15 0c-9.293 0-17.275 3.991-24.006 12.033-6.791 8.042-10.127 18.646-10.127 31.87 0 13.165 3.336 23.769 10.067 31.81 6.731 8.043 14.773 12.094 24.186 12.094 9.292 0 17.275-4.051 24.006-12.093 6.672-8.042 10.068-18.646 10.068-31.81zm42.652 34.134V54.864h22.577v-7.982h-22.577V23.709h-7.923v23.173h-22.577v7.982h22.577v23.173h7.923z"/></symbol><symbol viewBox="0 0 111 110" id="icon_advantage" xmlns="http://www.w3.org/2000/svg"><path d="M55.5 0C24.723 0 0 24.5 0 55s24.723 55 55.5 55S111 85.5 111 55 86.277 0 55.5 0zm32.039 37.75l-40.364 41.5c-.505.5-1.01.75-1.766.75-.757 0-1.514-.25-1.766-.75l-19.677-21-.505-.5c-.504-.5-.756-1.25-.756-1.75s.252-1.25.756-1.75l3.532-3.5c1.01-1 2.523-1 3.532 0l.252.25 13.875 14.75c.505.5 1.262.5 1.766 0L80.223 31h.252c1.01-1 2.523-1 3.532 0l3.532 3.5c1.009.75 1.009 2.25 0 3.25z"/></symbol><symbol viewBox="0 0 13 19" id="icon_anchor" xmlns="http://www.w3.org/2000/svg"><path d="M6.5 0C2.916 0 0 3.087 0 6.881c0 4.709 5.817 11.622 6.065 11.913a.564.564 0 0 0 .87 0C7.183 18.503 13 11.59 13 6.881 13 3.087 10.084 0 6.5 0zm0 10.343c-1.803 0-3.27-1.553-3.27-3.462 0-1.909 1.467-3.462 3.27-3.462s3.27 1.553 3.27 3.462c0 1.91-1.467 3.462-3.27 3.462z"/></symbol><symbol viewBox="0 0 23 44" id="icon_arrow_right" xmlns="http://www.w3.org/2000/svg"><path d="M20.02 21.999L.363 2.128a1.25 1.25 0 0 1 0-1.761 1.218 1.218 0 0 1 1.742 0l20.532 20.756a1.25 1.25 0 0 1 0 1.761L2.105 43.631c-.237.24-.557.369-.867.369-.31 0-.63-.12-.866-.369a1.25 1.25 0 0 1 0-1.761L20.02 21.999z"/></symbol><symbol viewBox="0 0 27 35" id="icon_buy_people" xmlns="http://www.w3.org/2000/svg"><path d="M26.028 19.236a3.346 3.346 0 0 0-2.347-.944c-.886 0-1.72.335-2.346.944l-2.4 2.33c-.011-2.17-1.377-4.033-3.316-4.833l1.146-1.113h2.957c2.142 0 3.884-1.691 3.884-3.77V3.77c0-2.08-1.742-3.771-3.884-3.771H7.278C5.136 0 3.394 1.692 3.394 3.771v8.078c0 2.08 1.742 3.771 3.884 3.771h2.957l1.146 1.113c-1.94.8-3.305 2.664-3.316 4.832l-2.4-2.329a3.348 3.348 0 0 0-2.346-.944c-.887 0-1.72.335-2.347.944a3.154 3.154 0 0 0 0 4.556l6.947 6.745v3.438c0 .566.473 1.025 1.056 1.025h9.05c.583 0 1.056-.459 1.056-1.025v-3.438l6.947-6.744a3.155 3.155 0 0 0 0-4.557zM7.278 13.57c-.977 0-1.772-.772-1.772-1.72V3.77c0-.949.795-1.72 1.772-1.72h12.444c.977 0 1.772.771 1.772 1.72v8.078c0 .949-.795 1.72-1.772 1.72h-3.394c-.28 0-.549.108-.747.301L13.5 15.89l-2.081-2.02a1.072 1.072 0 0 0-.747-.3H7.278zm6.222 4.796c1.833 0 3.324 1.448 3.324 3.227 0 1.78-1.491 3.227-3.324 3.227-1.833 0-3.324-1.448-3.324-3.227 0-1.78 1.491-3.227 3.324-3.227zm11.034 3.977l-7.256 7.044c-.198.193-.31.453-.31.726v2.836h-6.937v-2.837a1.01 1.01 0 0 0-.31-.725l-7.255-7.044a1.147 1.147 0 0 1 0-1.657c.228-.221.53-.343.853-.343.322 0 .625.122.853.343l6.06 5.885c.199.192.467.3.747.3h5.041c.28 0 .55-.108.747-.3l6.061-5.885c.228-.22.531-.343.853-.343.322 0 .625.122.853.343a1.147 1.147 0 0 1 0 1.657z"/><path d="M12.5 10.777c.27 0 .54-.1.747-.3l4-3.884c.412-.4.412-1.049 0-1.45a1.08 1.08 0 0 0-1.494 0L12.5 8.303l-1.253-1.217a1.08 1.08 0 0 0-1.494 0c-.412.4-.412 1.05 0 1.45l2 1.942c.207.2.477.3.747.3z"/></symbol><symbol viewBox="0 0 30 30" id="icon_create_platform" xmlns="http://www.w3.org/2000/svg"><path d="M10.313 15A4.692 4.692 0 0 0 15 19.686 4.692 4.692 0 0 0 19.686 15 4.692 4.692 0 0 0 15 10.314 4.692 4.692 0 0 0 10.313 15zm7.03 0A2.346 2.346 0 0 1 15 17.343 2.346 2.346 0 0 1 12.657 15 2.346 2.346 0 0 1 15 12.657 2.346 2.346 0 0 1 17.343 15zm9.139-3.515A3.519 3.519 0 0 0 22.967 15a3.519 3.519 0 0 0 3.515 3.515A3.519 3.519 0 0 0 29.997 15a3.519 3.519 0 0 0-3.515-3.515zm0 4.687A1.173 1.173 0 0 1 25.31 15a1.173 1.173 0 0 1 2.343 0c0 .646-.525 1.172-1.171 1.172zM3.518 11.485A3.519 3.519 0 0 0 .003 15a3.519 3.519 0 0 0 3.515 3.515A3.519 3.519 0 0 0 7.033 15a3.519 3.519 0 0 0-3.515-3.515zm0 4.687A1.173 1.173 0 0 1 2.346 15a1.173 1.173 0 0 1 2.343 0c0 .646-.525 1.172-1.171 1.172zm-3.12-6.128c-.85-3.457-.332-6.324 1.495-8.15C3.913-.128 7.205-.547 11.16.713c1.264.402 2.553.962 3.839 1.662 1.286-.7 2.575-1.26 3.838-1.663 3.957-1.26 7.248-.84 9.269 1.18 1.827 1.827 2.345 4.694 1.495 8.151a5.819 5.819 0 0 0-2.213-.832c.237-1.07.317-2.07.23-2.938-.115-1.147-.508-2.063-1.169-2.724-.66-.66-1.577-1.054-2.724-1.168a7.176 7.176 0 0 0-.713-.035c-1.04 0-2.222.203-3.464.599-.724.23-1.46.52-2.2.866a33.427 33.427 0 0 1 4.827 4.012 34.767 34.767 0 0 1 1.763 1.9 5.89 5.89 0 0 0-1.866 1.424 32.541 32.541 0 0 0-1.554-1.667c-1.746-1.746-3.623-3.237-5.52-4.4-1.895 1.163-3.772 2.654-5.518 4.4-.544.544-1.062 1.1-1.554 1.666A5.894 5.894 0 0 0 6.06 9.723a35.032 35.032 0 0 1 1.763-1.899c1.53-1.53 3.16-2.88 4.828-4.012a18.576 18.576 0 0 0-2.201-.866c-1.536-.49-2.98-.684-4.177-.564-1.147.114-2.064.507-2.724 1.168-.66.66-1.054 1.577-1.169 2.724-.087.869-.007 1.868.23 2.938a5.823 5.823 0 0 0-2.213.832zm29.204 9.912c.85 3.457.332 6.324-1.495 8.15C26.851 29.364 25.104 30 23.012 30c-1.274 0-2.676-.236-4.174-.713A22.137 22.137 0 0 1 15 27.624a22.14 22.14 0 0 1-3.838 1.663c-1.498.477-2.9.713-4.174.713-2.093 0-3.84-.637-5.095-1.893C.066 26.28-.452 23.413.398 19.956c.66.417 1.41.707 2.213.832-.237 1.07-.317 2.07-.23 2.938.115 1.147.508 2.064 1.169 2.724.66.66 1.577 1.054 2.724 1.169 1.197.119 2.641-.076 4.176-.565a18.61 18.61 0 0 0 2.202-.866 33.426 33.426 0 0 1-4.828-4.012 34.861 34.861 0 0 1-1.763-1.9 5.895 5.895 0 0 0 1.866-1.423c.492.566 1.01 1.122 1.554 1.666 1.746 1.746 3.623 3.237 5.52 4.4 1.895-1.163 3.772-2.654 5.518-4.4.544-.544 1.062-1.1 1.554-1.666a5.895 5.895 0 0 0 1.866 1.424 34.855 34.855 0 0 1-1.763 1.899 33.438 33.438 0 0 1-4.828 4.012c.74.345 1.477.635 2.202.866 1.535.49 2.98.684 4.177.565 1.146-.115 2.063-.508 2.723-1.169.66-.66 1.054-1.577 1.169-2.724.087-.869.007-1.868-.23-2.938a5.824 5.824 0 0 0 2.213-.832z"/></symbol><symbol viewBox="0 0 18 18" id="icon_cross" xmlns="http://www.w3.org/2000/svg"><path fill-rule="evenodd" clip-rule="evenodd" d="M11.14 9l6.417-6.418a1.513 1.513 0 1 0-2.14-2.139L9 6.861 2.582.443a1.513 1.513 0 1 0-2.139 2.14L6.861 9 .443 15.418a1.513 1.513 0 0 0 2.14 2.139L9 11.139l6.418 6.418a1.513 1.513 0 1 0 2.139-2.14L11.139 9z"/></symbol><symbol viewBox="0 0 110 110" id="icon_disadvantage" xmlns="http://www.w3.org/2000/svg"><path d="M55 0C24.5 0 0 24.5 0 55s24.5 55 55 55 55-24.5 55-55S85.5 0 55 0zm8 56l18.75 18.75c.5.5.75 1.25.75 1.75s-.25 1.25-.75 1.75l-3.5 3.5c-.5.5-1.25.75-1.75.75-.75 0-1.25-.25-1.75-.75L56 63c-.5-.5-1.25-.5-1.75 0L35.5 81.75c-.5.5-1.25.75-1.75.75-.75 0-1.25-.25-1.75-.75l-3.5-3.5c-.5-.5-.75-1.25-.75-1.75s.25-1.25.75-1.75L47.25 56c.5-.5.5-1.25 0-1.75L28.5 35.5c-.5-.5-.75-1.25-.75-1.75S28 32.5 28.5 32l3.5-3.5c.5-.5 1.25-.75 1.75-.75s1.25.25 1.75.75l18.75 18.75c.5.5 1.25.5 1.75 0L74.75 28.5c.5-.5 1.25-.75 1.75-.75.75 0 1.25.25 1.75.75l3.5 3.5c.5.5.75 1.25.75 1.75s-.25 1.25-.75 1.75L63 54.25c-.5.25-.5 1.25 0 1.75z"/></symbol><symbol viewBox="0 0 20 26" id="icon_download" xmlns="http://www.w3.org/2000/svg"><path d="M20 8.825h-5.714V.002H5.714v8.823H0L10 19.12 20 8.825zM0 22.061v2.941h20v-2.941H0z"/></symbol><symbol viewBox="0 0 20 16" id="icon_email" xmlns="http://www.w3.org/2000/svg"><path d="M20 13.333c0 .468-.123.902-.32 1.283L13.363 7.08l6.247-5.83c.243.412.389.895.389 1.417v10.666zM10 8.448L18.692.336A2.35 2.35 0 0 0 17.5 0h-15c-.434 0-.836.128-1.19.336L10 8.448zm2.423-.49l-2.012 1.878a.602.602 0 0 1-.822 0L7.576 7.957 1.182 15.59c.383.256.832.41 1.318.41h15a2.36 2.36 0 0 0 1.318-.41l-6.395-7.633zM.39 1.25C.146 1.661 0 2.145 0 2.667v10.666c0 .468.123.902.321 1.283l6.314-7.538L.39 1.25z"/></symbol><symbol viewBox="0 0 27 49" id="icon_microscope" xmlns="http://www.w3.org/2000/svg"><path d="M20.993 10.184l2.86-6.5.145.066a.677.677 0 0 0 .898-.35l.192-.442a.686.686 0 0 0-.348-.903L20.25.06a.676.676 0 0 0-.897.35l-.193.444a.686.686 0 0 0 .349.903l.144.066-2.863 6.493 4.203 1.869zm-9.137 9.34l-1.662 3.777 4.204 1.87 1.662-3.776-4.204-1.87zm-3.249 1.573c.084.1.199.169.326.194l1.048.208a.564.564 0 0 0 .634-.339l.604-1.441a.573.573 0 0 0-.071-.57l-2.042-2.723a.567.567 0 0 0-.59-.21l-1.594.393a.566.566 0 0 0-.433.538l-.031 1.154a.572.572 0 0 0 .133.384l2.016 2.412zm-2.621-2.088l-3.2 2.587 1.913 2.393 3.2-2.587-1.913-2.393zm20.306 26.556H.708a.71.71 0 0 0-.708.712v2.011A.71.71 0 0 0 .708 49h25.584a.71.71 0 0 0 .708-.712v-2.01a.71.71 0 0 0-.708-.713zM19.1 19.782a1.49 1.49 0 0 0 1.485-1.493c0-.824-.665-1.492-1.484-1.492-.82 0-1.484.668-1.484 1.492s.664 1.492 1.484 1.492z"/><path d="M.566 28.195l12.562 5.59s2.47 1.237 2.931 3.418l.85.422a2.54 2.54 0 0 1 1.288-1.39c.26-.111.54-.166.822-.162.682 0 1.699.284 2.611 1.686l1.065 1.609c1.946-3.199 8.038-14.565.983-22.566l-3.645-1.646 1.249-2.848a.688.688 0 0 0-.349-.903l-5.01-2.218a.677.677 0 0 0-.912.35l-3.56 8.12a.685.685 0 0 0 .348.903l5.008 2.23a.68.68 0 0 0 .153.045l-.592 1.51 4.973 2.523s2.832.949 2.266 3.227c-.566 2.279-1.827 7.73-4.5 7.14a4.604 4.604 0 0 1-1.802-.72l1.133-2.564a.716.716 0 0 0-.36-.94L2.402 24.038a.703.703 0 0 0-.776.134.713.713 0 0 0-.159.227l-1.26 2.868a.716.716 0 0 0 .36.929zm15.986-9.906c0-.507.15-1.002.43-1.424a2.536 2.536 0 0 1 3.922-.389 2.568 2.568 0 0 1 .552 2.794 2.56 2.56 0 0 1-.939 1.15 2.539 2.539 0 0 1-3.219-.318 2.57 2.57 0 0 1-.746-1.813zm4.786 5.648a.929.929 0 0 1-.86-.579.942.942 0 0 1 .201-1.02.93.93 0 0 1 1.591.662.942.942 0 0 1-.575.866.927.927 0 0 1-.357.07z"/><path d="M19.01 36.935c-.16-.004-.32.026-.47.086-1.05.476-1.05 1.86-1.05 1.86l-.65 5.833h8.367l-4.29-6.471c-.726-1.094-1.45-1.308-1.907-1.308zm.425 3.506a.928.928 0 0 1-.86-.578.942.942 0 0 1 .201-1.021.93.93 0 0 1 1.59.663.942.942 0 0 1-.574.865.927.927 0 0 1-.357.072zm-5.18 4.273l1.84-.989.547-4.895a3.1 3.1 0 0 1 .029-.348l-.612-.319-1.793 3.703-3.81-1.14 1.156-.57a.52.52 0 0 0 .244-.694l-.592-1.245a.52.52 0 0 0-.691-.245l-4.94 2.375a.52.52 0 0 0-.243.695l.592 1.245a.52.52 0 0 0 .69.245l2.267-1.088 4.815 1.47-.105.219a1.168 1.168 0 0 0 .606 1.58z"/></symbol><symbol viewBox="0 0 14 20" id="icon_mouse" xmlns="http://www.w3.org/2000/svg"><path d="M7 0C3.14 0 0 3.209 0 7.152v5.696C0 16.792 3.14 20 7 20s7-3.199 7-7.13V7.152C14 3.21 10.86 0 7 0zm5.683 12.87c0 3.201-2.549 5.806-5.683 5.806s-5.683-2.615-5.683-5.828V7.152c0-3.213 2.55-5.828 5.683-5.828 3.134 0 5.683 2.615 5.683 5.828v5.718z"/><path d="M7 5.475a.66.66 0 0 0-.658.662v2.318A.66.66 0 0 0 7 9.117a.66.66 0 0 0 .658-.662V6.137A.66.66 0 0 0 7 5.475z"/></symbol><symbol viewBox="0 0 156 144" id="icon_people" xmlns="http://www.w3.org/2000/svg"><path d="M153.491 129.124c-8.687-7.131-18.016-11.875-19.915-12.811a.595.595 0 0 1-.353-.548v-13.553a6.305 6.305 0 0 0 2.831-5.26V82.915c0-6.97-5.663-12.65-12.612-12.65h-3.024c-6.949 0-12.611 5.648-12.611 12.65v14.037a6.305 6.305 0 0 0 2.831 5.26v13.553c0 .097-.032.161-.032.226 2.67 1.839 5.437 3.872 8.139 6.098 3.185 2.614 4.987 6.486 4.987 10.617V144H156v-9.616c-.032-2.033-.933-3.969-2.509-5.26z"/><path d="M115.078 126.51c-10.199-8.39-21.17-13.972-23.421-15.069a.754.754 0 0 1-.418-.678V94.854a7.434 7.434 0 0 0 3.313-6.195v-16.49c0-8.196-6.627-14.876-14.83-14.876h-3.507c-8.172 0-14.832 6.648-14.832 14.876v16.49a7.434 7.434 0 0 0 3.314 6.195v15.909c0 .29-.16.549-.418.678-2.252 1.097-13.223 6.679-23.421 15.069a8.012 8.012 0 0 0-2.895 6.196V144h80.042v-11.294c0-2.42-1.061-4.679-2.927-6.196z"/><path d="M45.33 115.732V102.18a6.305 6.305 0 0 0 2.83-5.26V82.883c0-6.97-5.63-12.65-12.61-12.65h-3.024c-6.95 0-12.612 5.68-12.612 12.65V96.92a6.305 6.305 0 0 0 2.831 5.26v13.552a.597.597 0 0 1-.354.549c-1.898.936-11.26 5.679-19.914 12.811A6.794 6.794 0 0 0 0 134.352v9.616h32.268v-11.294c0-4.131 1.834-8.003 4.987-10.617a109.135 109.135 0 0 1 8.14-6.099.595.595 0 0 1-.065-.226zm81.78-77.445c5.17 0 9.362-4.204 9.362-9.39 0-5.186-4.192-9.39-9.362-9.39-5.171 0-9.362 4.204-9.362 9.39 0 5.186 4.191 9.39 9.362 9.39z"/><path d="M105.78 48.323c-1.094 2.355-2.96 5.26-5.952 6.744-.997.484-.772 1.968.322 2.13 3.249.516 7.914-.065 12.29-3.356l.064.064c11.067 6.518 25.544 5.034 35.035-4.485 11.26-11.294 11.26-29.655 0-40.95-11.26-11.294-29.566-11.294-40.826 0-10.842 10.875-11.26 28.3-1.222 39.66l.289.193zm-.161-21.265c.032-1 .837-1.808 1.866-1.775l2.703.064a17.059 17.059 0 0 1 2.863-6.454l-1.866-1.968a1.806 1.806 0 0 1 .064-2.582l2.027-1.936c.74-.71 1.866-.677 2.574.065l1.898 1.968a17.096 17.096 0 0 1 6.563-2.549l.064-2.775c.033-1 .837-1.807 1.866-1.775l2.799.065a1.81 1.81 0 0 1 1.77 1.871l-.065 2.775c2.252.485 4.44 1.42 6.402 2.84l1.995-1.936c.74-.71 1.866-.678 2.574.065l1.93 2.032a1.806 1.806 0 0 1-.064 2.582l-1.995 1.936a17.265 17.265 0 0 1 2.542 6.55l2.766.065a1.81 1.81 0 0 1 1.77 1.872l-.064 2.807c-.033 1-.837 1.807-1.866 1.775l-2.767-.065a17.467 17.467 0 0 1-2.799 6.454l1.898 1.969a1.806 1.806 0 0 1-.064 2.581l-2.027 1.936c-.74.71-1.866.678-2.574-.064l-1.866-1.969a17.362 17.362 0 0 1-6.563 2.582l-.064 2.71c-.032 1-.837 1.807-1.866 1.775l-2.799-.064a1.809 1.809 0 0 1-1.769-1.872l.064-2.678a17.407 17.407 0 0 1-6.499-2.84l-1.93 1.84c-.74.71-1.866.677-2.574-.065l-1.93-2.033a1.806 1.806 0 0 1 .064-2.582l1.931-1.839a17.41 17.41 0 0 1-2.574-6.615l-2.67-.064a1.81 1.81 0 0 1-1.77-1.872l.032-2.807z"/></symbol><symbol viewBox="0 0 17 17" id="icon_phone" xmlns="http://www.w3.org/2000/svg"><path d="M12.925 11.246c-.556-.549-1.25-.549-1.801 0-.421.417-.842.835-1.256 1.26-.113.116-.209.14-.347.063-.272-.149-.562-.269-.824-.432-1.22-.767-2.243-1.754-3.148-2.865-.45-.552-.85-1.143-1.129-1.808-.056-.134-.046-.223.064-.332.42-.407.831-.825 1.245-1.242.577-.58.577-1.26-.003-1.843-.33-.333-.658-.658-.987-.99-.34-.34-.676-.683-1.02-1.02-.555-.54-1.248-.54-1.8.004-.424.418-.831.846-1.263 1.256-.4.378-.601.842-.644 1.383-.067.881.149 1.712.453 2.522.623 1.677 1.57 3.166 2.72 4.532a16.835 16.835 0 0 0 5.576 4.362c.976.474 1.988.838 3.088.898.757.043 1.415-.148 1.942-.739.361-.403.768-.771 1.15-1.157.566-.573.57-1.266.007-1.832-.672-.676-1.348-1.348-2.023-2.02zm-.676-2.82l1.305-.222a5.834 5.834 0 0 0-1.63-3.149 5.803 5.803 0 0 0-3.326-1.659l-.184 1.312c.98.138 1.872.58 2.576 1.285a4.502 4.502 0 0 1 1.259 2.433zm2.041-5.674A9.625 9.625 0 0 0 8.771 0l-.183 1.312a8.346 8.346 0 0 1 4.768 2.378 8.339 8.339 0 0 1 2.339 4.51L17 7.977a9.695 9.695 0 0 0-2.71-5.225z"/></symbol><symbol viewBox="0 0 21 21" id="icon_skype" xmlns="http://www.w3.org/2000/svg"><path d="M20.396 12.73a9.78 9.78 0 0 0 .232-2.12c0-5.454-4.485-9.876-10.016-9.876-.584 0-1.157.05-1.713.145A5.838 5.838 0 0 0 5.809 0C2.6 0 0 2.564 0 5.727c0 1.057.292 2.047.798 2.897a9.788 9.788 0 0 0-.202 1.986c0 5.454 4.484 9.876 10.016 9.876.626 0 1.24-.057 1.834-.166.817.434 1.752.68 2.745.68C18.4 21 21 18.436 21 15.273a5.64 5.64 0 0 0-.604-2.544zm-4.647 2.6c-.464.646-1.148 1.159-2.035 1.522-.879.36-1.932.543-3.13.543-1.439 0-2.645-.25-3.586-.742a4.68 4.68 0 0 1-1.65-1.443c-.425-.605-.64-1.206-.64-1.785 0-.361.14-.675.417-.932.275-.254.626-.383 1.046-.383.344 0 .64.102.882.303.23.192.428.477.587.845.178.401.371.74.576 1.006.196.257.479.472.84.64.363.17.852.256 1.454.256.828 0 1.507-.175 2.018-.518.499-.336.741-.74.741-1.233 0-.39-.127-.696-.387-.936-.272-.252-.632-.447-1.069-.582-.455-.14-1.073-.29-1.837-.448-1.036-.219-1.916-.478-2.617-.771a.141.141 0 0 1-.008-.004c-.718-.301-1.297-.719-1.72-1.241-.43-.531-.649-1.197-.649-1.98 0-.746.23-1.418.68-1.998.448-.576 1.102-1.024 1.944-1.331.832-.303 1.82-.457 2.94-.457.894 0 1.68.102 2.337.303.66.203 1.216.477 1.654.814.44.339.768.702.974 1.08.208.38.313.76.313 1.126 0 .353-.138.673-.411.953-.274.28-.62.424-1.029.424-.37 0-.66-.09-.862-.266-.188-.163-.382-.418-.598-.784-.25-.468-.552-.837-.899-1.097-.336-.252-.9-.38-1.672-.38-.718 0-1.302.142-1.736.422-.417.27-.62.58-.62.947 0 .225.065.413.2.574.142.172.343.322.596.448.264.13.535.234.807.308.278.076.745.189 1.386.335a25.036 25.036 0 0 1 2.214.571c.667.21 1.243.47 1.713.772.48.308.86.703 1.13 1.176.27.474.407 1.059.407 1.739a3.71 3.71 0 0 1-.701 2.204z"/></symbol><symbol viewBox="0 0 20 17" id="icon_telegram" xmlns="http://www.w3.org/2000/svg"><path d="M4.812 9.85L7.3 15.864l3.238-3.132L16.09 17 20 0 0 8.057 4.812 9.85zm9.473-4.973l-6.122 5.4-.762 2.78L5.992 9.65l8.293-4.773z"/></symbol><symbol viewBox="0 0 53 63" id="icon_telescope" xmlns="http://www.w3.org/2000/svg"><path d="M50.244 1.148l2.693 9.384a1.595 1.595 0 0 1-1.071 1.973l-11.443 3.366a1.57 1.57 0 0 1-1.949-1.085l-2.692-9.384a1.595 1.595 0 0 1 1.07-1.973L48.296.064a1.57 1.57 0 0 1 1.95 1.084zM30.545 6.945l3.71-1.534 2.927 10.197-3.946.718-2.69-9.381zM17.152 20.75l-2.58-1.008-5.137 1.511-1.6-5.56 5.142-1.511 1.645-2.253 1.21-.355L14.5 6.933l1.523-.448 1.332 4.644 11.824-3.477 2.53 8.817-14.557 4.282zM.69 14.066l-.305.089L0 12.818l3.935-1.16.31-.088.38 1.337-.308.092.988 3.44 1.458-.43 2.26 7.88-8.664-5.994 1.32-.39-.988-3.439zm9.236 10.442c-.367-1.28.36-2.62 1.625-2.993a2.381 2.381 0 0 1 2.957 1.646c.367 1.28-.36 2.62-1.626 2.993a2.381 2.381 0 0 1-2.956-1.646zm20.436-6.45l.882 3.133-5.145 1.515-2.954 6.302-3.733 1.105-2.672-.838-.626-2.176 1.733-2.407 1.61-.475-.763-2.728 11.668-3.431zm-10.95 9.103c.046.162.14.307.267.415a.838.838 0 0 0 1.282-.24.863.863 0 0 0-.08-.946.843.843 0 0 0-.893-.288.842.842 0 0 0-.505.409.861.861 0 0 0-.071.65z"/><path d="M20.59 5.14l.621 2.163-3.944 1.16-.62-2.163 3.943-1.16zm-6.494 1.912l.62 2.163-2.272.668-.62-2.163 2.272-.668zm1.556 23.823l2.34.939-4.496 11.464 5.343 2.45V31.98h2.52v13.763l5.457-2.492-4.866-11.403 2.309-1.012 10.26 24.034a1.29 1.29 0 0 1-.252 1.394 1.26 1.26 0 0 1-.886.388 1.245 1.245 0 0 1-.896-.36 1.279 1.279 0 0 1-.28-.41L27.648 45.21l-6.29 2.875v13.64c0 .338-.132.662-.369.901a1.251 1.251 0 0 1-1.78 0 1.283 1.283 0 0 1-.37-.901v-13.64l-6.106-2.805-4.264 10.88a1.264 1.264 0 0 1-.675.662c-.3.124-.637.125-.939.004a1.266 1.266 0 0 1-.681-.654 1.29 1.29 0 0 1-.044-.95l9.522-24.348z"/></symbol></svg>