<?xml version="1.0" encoding="utf-8"?><svg xmlns="http://www.w3.org/2000/svg" xmlns:xlink="http://www.w3.org/1999/xlink"><symbol viewBox="0 0 262 88" id="icon_100" xmlns="http://www.w3.org/2000/svg"><path d="M18.288 1.132l-.477 1.25c-.357.716-.953 1.669-1.787 2.741-.834 1.132-1.906 2.264-3.216 3.336-1.31 1.072-3.098 2.085-5.302 2.919-2.264.834-4.766 1.31-7.506 1.37v5.48h15.846v68.328h9.174V1.132h-6.732zm35.921 42.771c0-11.08 2.442-19.717 7.387-26.032C66.48 11.616 72.378 8.46 79.229 8.46c6.79 0 12.688 3.157 17.632 9.412 4.885 6.255 7.387 14.893 7.387 25.973 0 11.02-2.442 19.658-7.327 25.972-4.885 6.315-10.782 9.472-17.573 9.472-6.91 0-12.867-3.157-17.752-9.412-4.945-6.255-7.387-14.893-7.387-25.973zm59.213 0c0-13.224-3.396-23.828-10.127-31.87C96.504 3.991 88.522 0 79.228 0c-9.292 0-17.275 3.991-24.006 12.033-6.791 8.042-10.127 18.646-10.127 31.87 0 13.165 3.336 23.769 10.067 31.81 6.732 8.043 14.774 12.094 24.186 12.094 9.293 0 17.275-4.051 24.006-12.093 6.672-8.042 10.068-18.646 10.068-31.81zm23.709 0c0-11.08 2.442-19.717 7.387-26.032 4.884-6.255 10.782-9.412 17.632-9.412 6.791 0 12.689 3.157 17.633 9.412 4.885 6.255 7.387 14.893 7.387 25.973 0 11.02-2.442 19.658-7.327 25.972-4.885 6.315-10.782 9.472-17.573 9.472-6.911 0-12.868-3.157-17.752-9.412-4.945-6.255-7.387-14.893-7.387-25.973zm59.213 0c0-13.224-3.396-23.828-10.127-31.87C179.426 3.991 171.443 0 162.15 0c-9.293 0-17.275 3.991-24.006 12.033-6.791 8.042-10.127 18.646-10.127 31.87 0 13.165 3.336 23.769 10.067 31.81 6.731 8.043 14.773 12.094 24.186 12.094 9.292 0 17.275-4.051 24.006-12.093 6.672-8.042 10.068-18.646 10.068-31.81zm42.652 34.134V54.864h22.577v-7.982h-22.577V23.709h-7.923v23.173h-22.577v7.982h22.577v23.173h7.923z"/></symbol><symbol viewBox="0 0 111 110" id="icon_advantage" xmlns="http://www.w3.org/2000/svg"><path d="M55.5 0C24.723 0 0 24.5 0 55s24.723 55 55.5 55S111 85.5 111 55 86.277 0 55.5 0zm32.039 37.75l-40.364 41.5c-.505.5-1.01.75-1.766.75-.757 0-1.514-.25-1.766-.75l-19.677-21-.505-.5c-.504-.5-.756-1.25-.756-1.75s.252-1.25.756-1.75l3.532-3.5c1.01-1 2.523-1 3.532 0l.252.25 13.875 14.75c.505.5 1.262.5 1.766 0L80.223 31h.252c1.01-1 2.523-1 3.532 0l3.532 3.5c1.009.75 1.009 2.25 0 3.25z"/></symbol><symbol viewBox="0 0 13 19" id="icon_anchor" xmlns="http://www.w3.org/2000/svg"><path d="M6.5 0C2.916 0 0 3.087 0 6.881c0 4.709 5.817 11.622 6.065 11.913a.564.564 0 00.87 0C7.183 18.503 13 11.59 13 6.881 13 3.087 10.084 0 6.5 0zm0 10.343c-1.803 0-3.27-1.553-3.27-3.462 0-1.909 1.467-3.462 3.27-3.462s3.27 1.553 3.27 3.462c0 1.91-1.467 3.462-3.27 3.462z"/></symbol><symbol viewBox="0 0 23 44" id="icon_arrow_right" xmlns="http://www.w3.org/2000/svg"><path d="M20.02 21.999L.363 2.128a1.25 1.25 0 010-1.761 1.218 1.218 0 011.742 0l20.532 20.756a1.25 1.25 0 010 1.761L2.105 43.631c-.237.24-.557.369-.867.369-.31 0-.63-.12-.866-.369a1.25 1.25 0 010-1.761L20.02 21.999z"/></symbol><symbol viewBox="0 0 27 35" id="icon_buy_people" xmlns="http://www.w3.org/2000/svg"><path d="M26.028 19.236a3.346 3.346 0 00-2.347-.944c-.886 0-1.72.335-2.346.944l-2.4 2.33c-.011-2.17-1.377-4.033-3.316-4.833l1.146-1.113h2.957c2.142 0 3.884-1.691 3.884-3.77V3.77c0-2.08-1.742-3.771-3.884-3.771H7.278C5.136 0 3.394 1.692 3.394 3.771v8.078c0 2.08 1.742 3.771 3.884 3.771h2.957l1.146 1.113c-1.94.8-3.305 2.664-3.316 4.832l-2.4-2.329a3.348 3.348 0 00-2.346-.944c-.887 0-1.72.335-2.347.944a3.154 3.154 0 000 4.556l6.947 6.745v3.438c0 .566.473 1.025 1.056 1.025h9.05c.583 0 1.056-.459 1.056-1.025v-3.438l6.947-6.744a3.155 3.155 0 000-4.557zM7.278 13.57c-.977 0-1.772-.772-1.772-1.72V3.77c0-.949.795-1.72 1.772-1.72h12.444c.977 0 1.772.771 1.772 1.72v8.078c0 .949-.795 1.72-1.772 1.72h-3.394c-.28 0-.549.108-.747.301L13.5 15.89l-2.081-2.02a1.072 1.072 0 00-.747-.3H7.278zm6.222 4.796c1.833 0 3.324 1.448 3.324 3.227 0 1.78-1.491 3.227-3.324 3.227-1.833 0-3.324-1.448-3.324-3.227 0-1.78 1.491-3.227 3.324-3.227zm11.034 3.977l-7.256 7.044c-.198.193-.31.453-.31.726v2.836h-6.937v-2.837a1.01 1.01 0 00-.31-.725l-7.255-7.044a1.147 1.147 0 010-1.657c.228-.221.53-.343.853-.343.322 0 .625.122.853.343l6.06 5.885c.199.192.467.3.747.3h5.041c.28 0 .55-.108.747-.3l6.061-5.885c.228-.22.531-.343.853-.343.322 0 .625.122.853.343a1.147 1.147 0 010 1.657z"/><path d="M12.5 10.777c.27 0 .54-.1.747-.3l4-3.884c.412-.4.412-1.049 0-1.45a1.08 1.08 0 00-1.494 0L12.5 8.303l-1.253-1.217a1.08 1.08 0 00-1.494 0c-.412.4-.412 1.05 0 1.45l2 1.942c.207.2.477.3.747.3z"/></symbol><symbol viewBox="0 0 95 102" id="icon_communication" xmlns="http://www.w3.org/2000/svg"><path d="M76 12.75H23.75v3.188H76V12.75zm-4.75 73.313H19v3.187h52.25v-3.188zM55.417 6.375H39.583v3.188h15.834V6.374zm-4.75 86.063h-6.334v3.187h6.334v-3.188z"/><path d="M77.583 54.188h-3.166V4.78a1.6 1.6 0 00-.464-1.127 1.578 1.578 0 00-1.12-.466H22.167c-.42 0-.823.167-1.12.466a1.599 1.599 0 00-.464 1.127v14.344h-3.166V4.781c0-1.268.5-2.484 1.39-3.38A4.734 4.734 0 0122.168 0h50.666c1.26 0 2.468.504 3.36 1.4a4.797 4.797 0 011.39 3.381v49.407zM72.833 102H22.167a4.737 4.737 0 01-3.36-1.4 4.799 4.799 0 01-1.39-3.381V47.813h3.166v49.406c0 .422.167.828.464 1.127.297.299.7.466 1.12.466h50.666c.42 0 .823-.167 1.12-.466.297-.3.464-.705.464-1.127V82.875h3.166v14.344a4.8 4.8 0 01-1.39 3.381 4.737 4.737 0 01-3.36 1.4z"/><path d="M95 79.688H49.083V46.584l17.86 10.79H95v22.313zM52.25 76.5h39.583V60.562H66.057L52.25 52.227V76.5zm-6.333-21.085l-17.86-10.79H0V22.312h45.917v33.103zM3.167 41.438h25.776l13.807 8.335V25.5H3.167v15.938zm52.25-3.188H52.25v-3.188h3.167v-12.75h3.166v12.75c0 .846-.333 1.657-.927 2.254-.594.598-1.4.934-2.24.934z"/><path d="M61.75 25.5h-9.5v3.188h9.5V25.5zM39.583 79.688h-3.166v-12.75c0-.846.333-1.657.927-2.254a3.156 3.156 0 012.24-.934h3.166v3.188h-3.167v12.75z"/><path d="M42.75 70.125h-9.5v3.188h9.5v-3.188zm-9.5 6.375h-3.167v3.188h3.167V76.5zm31.667-41.437H61.75v3.187h3.167v-3.188zm-27.851-1.594H8.85L.459 25.038l2.248-2.263 7.442 7.506h25.618l7.442-7.506 2.248 2.263-8.391 8.43zM6.333 47.813H3.167v9.562h3.166v-9.563z"/><path d="M9.5 51H0v3.188h9.5V51zm3.167 9.563H9.5v3.187h3.167v-3.188zm0 6.375H9.5v3.187h3.167v-3.188zM83.917 51H80.75v3.188h3.167V51zm0-6.375H80.75v3.188h3.167v-3.188zm0-6.375H80.75v3.188h3.167V38.25zm4.75 25.5H68.083v3.188h20.584V63.75zm-23.75 0h-9.5v3.188h9.5V63.75zm15.833 6.375H55.417v3.188H80.75v-3.188z"/></symbol><symbol viewBox="0 0 30 30" id="icon_create_platform" xmlns="http://www.w3.org/2000/svg"><path d="M10.313 15A4.692 4.692 0 0015 19.686 4.692 4.692 0 0019.686 15 4.692 4.692 0 0015 10.314 4.692 4.692 0 0010.313 15zm7.03 0A2.346 2.346 0 0115 17.343 2.346 2.346 0 0112.657 15 2.346 2.346 0 0115 12.657 2.346 2.346 0 0117.343 15zm9.139-3.515A3.519 3.519 0 0022.967 15a3.519 3.519 0 003.515 3.515A3.519 3.519 0 0029.997 15a3.519 3.519 0 00-3.515-3.515zm0 4.687A1.173 1.173 0 0125.31 15a1.173 1.173 0 012.343 0c0 .646-.525 1.172-1.171 1.172zM3.518 11.485A3.519 3.519 0 00.003 15a3.519 3.519 0 003.515 3.515A3.519 3.519 0 007.033 15a3.519 3.519 0 00-3.515-3.515zm0 4.687A1.173 1.173 0 012.346 15a1.173 1.173 0 012.343 0c0 .646-.525 1.172-1.171 1.172zm-3.12-6.128c-.85-3.457-.332-6.324 1.495-8.15C3.913-.128 7.205-.547 11.16.713c1.264.402 2.553.962 3.839 1.662 1.286-.7 2.575-1.26 3.838-1.663 3.957-1.26 7.248-.84 9.269 1.18 1.827 1.827 2.345 4.694 1.495 8.151a5.819 5.819 0 00-2.213-.832c.237-1.07.317-2.07.23-2.938-.115-1.147-.508-2.063-1.169-2.724-.66-.66-1.577-1.054-2.724-1.168a7.176 7.176 0 00-.713-.035c-1.04 0-2.222.203-3.464.599-.724.23-1.46.52-2.2.866a33.427 33.427 0 014.827 4.012 34.767 34.767 0 011.763 1.9 5.89 5.89 0 00-1.866 1.424 32.541 32.541 0 00-1.554-1.667c-1.746-1.746-3.623-3.237-5.52-4.4-1.895 1.163-3.772 2.654-5.518 4.4-.544.544-1.062 1.1-1.554 1.666A5.894 5.894 0 006.06 9.723a35.032 35.032 0 011.763-1.899c1.53-1.53 3.16-2.88 4.828-4.012a18.576 18.576 0 00-2.201-.866c-1.536-.49-2.98-.684-4.177-.564-1.147.114-2.064.507-2.724 1.168-.66.66-1.054 1.577-1.169 2.724-.087.869-.007 1.868.23 2.938a5.823 5.823 0 00-2.213.832zm29.204 9.912c.85 3.457.332 6.324-1.495 8.15C26.851 29.364 25.104 30 23.012 30c-1.274 0-2.676-.236-4.174-.713A22.137 22.137 0 0115 27.624a22.14 22.14 0 01-3.838 1.663c-1.498.477-2.9.713-4.174.713-2.093 0-3.84-.637-5.095-1.893C.066 26.28-.452 23.413.398 19.956c.66.417 1.41.707 2.213.832-.237 1.07-.317 2.07-.23 2.938.115 1.147.508 2.064 1.169 2.724.66.66 1.577 1.054 2.724 1.169 1.197.119 2.641-.076 4.176-.565a18.61 18.61 0 002.202-.866 33.426 33.426 0 01-4.828-4.012 34.861 34.861 0 01-1.763-1.9 5.895 5.895 0 001.866-1.423c.492.566 1.01 1.122 1.554 1.666 1.746 1.746 3.623 3.237 5.52 4.4 1.895-1.163 3.772-2.654 5.518-4.4.544-.544 1.062-1.1 1.554-1.666a5.895 5.895 0 001.866 1.424 34.855 34.855 0 01-1.763 1.899 33.438 33.438 0 01-4.828 4.012c.74.345 1.477.635 2.202.866 1.535.49 2.98.684 4.177.565 1.146-.115 2.063-.508 2.723-1.169.66-.66 1.054-1.577 1.169-2.724.087-.869.007-1.868-.23-2.938a5.824 5.824 0 002.213-.832z"/></symbol><symbol viewBox="0 0 18 18" id="icon_cross" xmlns="http://www.w3.org/2000/svg"><path fill-rule="evenodd" clip-rule="evenodd" d="M11.14 9l6.417-6.418a1.513 1.513 0 10-2.14-2.139L9 6.861 2.582.443a1.513 1.513 0 10-2.139 2.14L6.861 9 .443 15.418a1.513 1.513 0 002.14 2.139L9 11.139l6.418 6.418a1.513 1.513 0 102.139-2.14L11.139 9z"/></symbol><symbol viewBox="0 0 110 110" id="icon_disadvantage" xmlns="http://www.w3.org/2000/svg"><path d="M55 0C24.5 0 0 24.5 0 55s24.5 55 55 55 55-24.5 55-55S85.5 0 55 0zm8 56l18.75 18.75c.5.5.75 1.25.75 1.75s-.25 1.25-.75 1.75l-3.5 3.5c-.5.5-1.25.75-1.75.75-.75 0-1.25-.25-1.75-.75L56 63c-.5-.5-1.25-.5-1.75 0L35.5 81.75c-.5.5-1.25.75-1.75.75-.75 0-1.25-.25-1.75-.75l-3.5-3.5c-.5-.5-.75-1.25-.75-1.75s.25-1.25.75-1.75L47.25 56c.5-.5.5-1.25 0-1.75L28.5 35.5c-.5-.5-.75-1.25-.75-1.75S28 32.5 28.5 32l3.5-3.5c.5-.5 1.25-.75 1.75-.75s1.25.25 1.75.75l18.75 18.75c.5.5 1.25.5 1.75 0L74.75 28.5c.5-.5 1.25-.75 1.75-.75.75 0 1.25.25 1.75.75l3.5 3.5c.5.5.75 1.25.75 1.75s-.25 1.25-.75 1.75L63 54.25c-.5.25-.5 1.25 0 1.75z"/></symbol><symbol viewBox="0 0 20 26" id="icon_download" xmlns="http://www.w3.org/2000/svg"><path d="M20 8.825h-5.714V.002H5.714v8.823H0L10 19.12 20 8.825zM0 22.061v2.941h20v-2.941H0z"/></symbol><symbol viewBox="0 0 20 16" id="icon_email" xmlns="http://www.w3.org/2000/svg"><path d="M20 13.333c0 .468-.123.902-.32 1.283L13.363 7.08l6.247-5.83c.243.412.389.895.389 1.417v10.666zM10 8.448L18.692.336A2.35 2.35 0 0017.5 0h-15c-.434 0-.836.128-1.19.336L10 8.448zm2.423-.49l-2.012 1.878a.602.602 0 01-.822 0L7.576 7.957 1.182 15.59c.383.256.832.41 1.318.41h15a2.36 2.36 0 001.318-.41l-6.395-7.633zM.39 1.25C.146 1.661 0 2.145 0 2.667v10.666c0 .468.123.902.321 1.283l6.314-7.538L.39 1.25z"/></symbol><symbol viewBox="0 0 108 106" id="icon_lightweight" xmlns="http://www.w3.org/2000/svg"><path d="M60.56 61.205a1.5 1.5 0 100 3v-3zm23.88 1.5v1.5h.007l-.008-1.5zM78.452 20.14l-1.41.514.478 1.308 1.34-.378-.408-1.444zM52.426 2L52.42.5h-.008l.014 1.5zM25.62 24.44l-.25 1.479 1.45.245.274-1.445-1.474-.28zm-3.546-.293l-.043 1.5h.046l-.003-1.5zM2 43.426l-1.5-.02v.039l1.5-.02zm20.073 19.28v-1.5h-.043l.043 1.5zm25.474 1.5a1.5 1.5 0 000-3v3zm13.003-52.18a1.5 1.5 0 00-1.216 2.743l1.216-2.743zm8.891 11.467l1.416-.496-.005-.014-.005-.014-1.406.524zm11.777 6.188l.395 1.447h.002l-.397-1.447zm10.541 2.052l-.91 1.192.008.006.902-1.198zm3.937 5.536l-1.428.46.003.01.004.012 1.42-.482zm-11.29 15.795v1.5h.003l-.002-1.5zm-30.353 0h-1.5v1.5h1.5v-1.5zm1.5.326a1.5 1.5 0 10-3 0h3zm-3 50.609a1.5 1.5 0 003 0h-3zm-7.215-35.075a1.5 1.5 0 10-3 0h3zm-3 27.161a1.5 1.5 0 003 0h-3zm-7.248-27.16a1.5 1.5 0 10-3 0h3zm-3 19.214a1.5 1.5 0 003 0h-3zm-7.216-19.215a1.5 1.5 0 10-3 0h3zm-3 11.301a1.5 1.5 0 003 0h-3zm33.68-60.477a1.5 1.5 0 10-3 0h3zm-10.216.33a1.5 1.5 0 10-3 0h3zm-3 30.874a1.5 1.5 0 003 0h-3zM35.09 28.22a1.5 1.5 0 10-3 0h3zm-3 22.732a1.5 1.5 0 003 0h-3zm-7.216-17.977a1.5 1.5 0 00-3 0h3zm-3 17.977a1.5 1.5 0 003 0h-3zM14.626 39.68a1.5 1.5 0 00-3 0h3zm-3 8.5a1.5 1.5 0 103 0h-3zM60.56 64.205h23.88v-3H60.56v3zm23.886 0c3.306-.016 6.57-.74 9.573-2.124l-1.255-2.725a20.148 20.148 0 01-8.332 1.85l.014 3zm9.573-2.124a23.171 23.171 0 007.838-5.897l-2.27-1.961a20.168 20.168 0 01-6.823 5.133l1.255 2.725zm7.838-5.897a23.194 23.194 0 004.698-8.614l-2.878-.847a20.188 20.188 0 01-4.09 7.5l2.27 1.96zm4.698-8.614c.935-3.173 1.18-6.51.719-9.787l-2.971.418a20.207 20.207 0 01-.626 8.522l2.878.847zm.719-9.787a23.213 23.213 0 00-3.39-9.208l-2.533 1.608a20.202 20.202 0 012.952 8.018l2.971-.418zm-3.39-9.208a23.187 23.187 0 00-6.892-6.98l-1.64 2.511a20.174 20.174 0 015.999 6.077l2.533-1.608zm-6.892-6.98a23.153 23.153 0 00-9.16-3.503l-.453 2.966a20.156 20.156 0 017.973 3.048l1.64-2.512zm-9.16-3.503a23.147 23.147 0 00-9.786.604l.814 2.888a20.144 20.144 0 018.519-.526l.453-2.966zm-7.97 1.534a29.113 29.113 0 00-10.7-13.904l-1.716 2.461a26.114 26.114 0 019.598 12.471l2.818-1.028zm-10.7-13.904A29.068 29.068 0 0052.42.5l.013 3a26.068 26.068 0 0115.013 4.683l1.716-2.461zM52.412.5a29.039 29.039 0 00-18.36 6.772l1.926 2.3A26.039 26.039 0 0152.441 3.5l-.029-3zm-18.36 6.772a29.09 29.09 0 00-9.907 16.887l2.948.56a26.09 26.09 0 018.885-15.147l-1.925-2.3zM25.87 22.96a22.498 22.498 0 00-3.8-.314l.008 3a19.5 19.5 0 013.292.272l.5-2.958zm-3.753-.314a21.002 21.002 0 00-8.163 1.402l1.08 2.799a18 18 0 016.997-1.202l.086-2.999zm-8.163 1.402a21.016 21.016 0 00-6.988 4.449l2.078 2.163a18.016 18.016 0 015.99-3.814l-1.08-2.798zm-6.988 4.449a21.04 21.04 0 00-4.73 6.803l2.752 1.194a18.04 18.04 0 014.055-5.835l-2.078-2.163zM2.236 35.3A21.057 21.057 0 00.5 43.406l3 .039c.03-2.393.537-4.755 1.488-6.95L2.236 35.3zM.5 43.445c.036 2.79.626 5.545 1.736 8.105l2.752-1.194a18.057 18.057 0 01-1.488-6.95l-3 .039zm1.736 8.105a21.04 21.04 0 004.729 6.804l2.078-2.163a18.04 18.04 0 01-4.055-5.835L2.236 51.55zm4.729 6.804a21.018 21.018 0 006.988 4.449l1.08-2.799a18.019 18.019 0 01-5.99-3.813l-2.078 2.163zm6.988 4.449a21.002 21.002 0 008.163 1.401l-.086-2.998a18.002 18.002 0 01-6.996-1.202l-1.081 2.799zm8.12 1.402h25.474v-3H22.073v3zm37.26-49.435a16.362 16.362 0 015.284 3.745l2.185-2.056a19.363 19.363 0 00-6.252-4.432l-1.216 2.743zm5.284 3.745a16.382 16.382 0 013.419 5.503l2.81-1.048a19.382 19.382 0 00-4.044-6.511l-2.185 2.056zm3.409 5.476a11.268 11.268 0 005.39 6.244l1.396-2.655a8.267 8.267 0 01-3.955-4.582l-2.831.993zm5.39 6.244a11.251 11.251 0 008.198.894l-.79-2.894a8.25 8.25 0 01-6.012-.655l-1.396 2.655zm8.2.894a10.59 10.59 0 014.826-.183l.573-2.945a13.59 13.59 0 00-6.194.235l.794 2.893zm4.826-.183c1.601.312 3.11.99 4.407 1.98l1.82-2.384a13.595 13.595 0 00-5.654-2.54l-.573 2.944zm4.415 1.986a9.735 9.735 0 013.41 4.797l2.857-.918a12.735 12.735 0 00-4.462-6.275l-1.805 2.396zm3.418 4.82a10.46 10.46 0 01.442 4.89l2.968.44c.312-2.114.117-4.27-.569-6.294l-2.84.964zm.442 4.89a10.459 10.459 0 01-1.837 4.554l2.44 1.744a13.46 13.46 0 002.365-5.859l-2.968-.438zm-1.837 4.554a10.442 10.442 0 01-3.71 3.21l1.374 2.666a13.442 13.442 0 004.777-4.132l-2.441-1.744zm-3.71 3.21a10.43 10.43 0 01-4.766 1.16l.005 3a13.428 13.428 0 006.135-1.494l-1.375-2.666zm-4.763 1.16H54.053v3h30.354v-3zM52.553 53.39V104h3V53.39h-3zM42.338 68.925v27.161h3v-27.16h-3zm-10.248 0V88.14h3V68.925h-3zm-10.216 0v11.301h3v-11.3h-3zm30.68-49.176v33.316h3V19.75h-3zm-10.216.33v30.874h3V20.079h-3zM32.09 28.221v22.732h3V28.22h-3zm-10.216 4.755v17.977h3V32.976h-3zM11.626 39.68v8.5h3v-8.5h-3z"/></symbol><symbol viewBox="0 0 27 49" id="icon_microscope" xmlns="http://www.w3.org/2000/svg"><path d="M20.993 10.184l2.86-6.5.145.066a.677.677 0 00.898-.35l.192-.442a.686.686 0 00-.348-.903L20.25.06a.676.676 0 00-.897.35l-.193.444a.686.686 0 00.349.903l.144.066-2.863 6.493 4.203 1.869zm-9.137 9.34l-1.662 3.777 4.204 1.87 1.662-3.776-4.204-1.87zm-3.249 1.573c.084.1.199.169.326.194l1.048.208a.564.564 0 00.634-.339l.604-1.441a.573.573 0 00-.071-.57l-2.042-2.723a.567.567 0 00-.59-.21l-1.594.393a.566.566 0 00-.433.538l-.031 1.154a.572.572 0 00.133.384l2.016 2.412zm-2.621-2.088l-3.2 2.587 1.913 2.393 3.2-2.587-1.913-2.393zm20.306 26.556H.708a.71.71 0 00-.708.712v2.011A.71.71 0 00.708 49h25.584a.71.71 0 00.708-.712v-2.01a.71.71 0 00-.708-.713zM19.1 19.782a1.49 1.49 0 001.485-1.493c0-.824-.665-1.492-1.484-1.492-.82 0-1.484.668-1.484 1.492s.664 1.492 1.484 1.492z"/><path d="M.566 28.195l12.562 5.59s2.47 1.237 2.931 3.418l.85.422a2.54 2.54 0 011.288-1.39c.26-.111.54-.166.822-.162.682 0 1.699.284 2.611 1.686l1.065 1.609c1.946-3.199 8.038-14.565.983-22.566l-3.645-1.646 1.249-2.848a.688.688 0 00-.349-.903l-5.01-2.218a.677.677 0 00-.912.35l-3.56 8.12a.685.685 0 00.348.903l5.008 2.23a.68.68 0 00.153.045l-.592 1.51 4.973 2.523s2.832.949 2.266 3.227c-.566 2.279-1.827 7.73-4.5 7.14a4.604 4.604 0 01-1.802-.72l1.133-2.564a.716.716 0 00-.36-.94L2.402 24.038a.703.703 0 00-.776.134.713.713 0 00-.159.227l-1.26 2.868a.716.716 0 00.36.929zm15.986-9.906c0-.507.15-1.002.43-1.424a2.536 2.536 0 013.922-.389 2.568 2.568 0 01.552 2.794 2.56 2.56 0 01-.939 1.15 2.539 2.539 0 01-3.219-.318 2.57 2.57 0 01-.746-1.813zm4.786 5.648a.929.929 0 01-.86-.579.942.942 0 01.201-1.02.93.93 0 011.591.662.942.942 0 01-.575.866.927.927 0 01-.357.07z"/><path d="M19.01 36.935c-.16-.004-.32.026-.47.086-1.05.476-1.05 1.86-1.05 1.86l-.65 5.833h8.367l-4.29-6.471c-.726-1.094-1.45-1.308-1.907-1.308zm.425 3.506a.928.928 0 01-.86-.578.942.942 0 01.201-1.021.93.93 0 011.59.663.942.942 0 01-.574.865.927.927 0 01-.357.072zm-5.18 4.273l1.84-.989.547-4.895a3.1 3.1 0 01.029-.348l-.612-.319-1.793 3.703-3.81-1.14 1.156-.57a.52.52 0 00.244-.694l-.592-1.245a.52.52 0 00-.691-.245l-4.94 2.375a.52.52 0 00-.243.695l.592 1.245a.52.52 0 00.69.245l2.267-1.088 4.815 1.47-.105.219a1.168 1.168 0 00.606 1.58z"/></symbol><symbol viewBox="0 0 14 20" id="icon_mouse" xmlns="http://www.w3.org/2000/svg"><path d="M7 0C3.14 0 0 3.209 0 7.152v5.696C0 16.792 3.14 20 7 20s7-3.199 7-7.13V7.152C14 3.21 10.86 0 7 0zm5.683 12.87c0 3.201-2.549 5.806-5.683 5.806s-5.683-2.615-5.683-5.828V7.152c0-3.213 2.55-5.828 5.683-5.828 3.134 0 5.683 2.615 5.683 5.828v5.718z"/><path d="M7 5.475a.66.66 0 00-.658.662v2.318A.66.66 0 007 9.117a.66.66 0 00.658-.662V6.137A.66.66 0 007 5.475z"/></symbol><symbol viewBox="0 0 156 144" id="icon_people" xmlns="http://www.w3.org/2000/svg"><path d="M153.491 129.124c-8.687-7.131-18.016-11.875-19.915-12.811a.595.595 0 01-.353-.548v-13.553a6.305 6.305 0 002.831-5.26V82.915c0-6.97-5.663-12.65-12.612-12.65h-3.024c-6.949 0-12.611 5.648-12.611 12.65v14.037a6.305 6.305 0 002.831 5.26v13.553c0 .097-.032.161-.032.226 2.67 1.839 5.437 3.872 8.139 6.098 3.185 2.614 4.987 6.486 4.987 10.617V144H156v-9.616c-.032-2.033-.933-3.969-2.509-5.26z"/><path d="M115.078 126.51c-10.199-8.39-21.17-13.972-23.421-15.069a.754.754 0 01-.418-.678V94.854a7.434 7.434 0 003.313-6.195v-16.49c0-8.196-6.627-14.876-14.83-14.876h-3.507c-8.172 0-14.832 6.648-14.832 14.876v16.49a7.434 7.434 0 003.314 6.195v15.909c0 .29-.16.549-.418.678-2.252 1.097-13.223 6.679-23.421 15.069a8.012 8.012 0 00-2.895 6.196V144h80.042v-11.294c0-2.42-1.061-4.679-2.927-6.196z"/><path d="M45.33 115.732V102.18a6.305 6.305 0 002.83-5.26V82.883c0-6.97-5.63-12.65-12.61-12.65h-3.024c-6.95 0-12.612 5.68-12.612 12.65V96.92a6.305 6.305 0 002.831 5.26v13.552a.597.597 0 01-.354.549c-1.898.936-11.26 5.679-19.914 12.811A6.794 6.794 0 000 134.352v9.616h32.268v-11.294c0-4.131 1.834-8.003 4.987-10.617a109.135 109.135 0 018.14-6.099.595.595 0 01-.065-.226zm81.78-77.445c5.17 0 9.362-4.204 9.362-9.39 0-5.186-4.192-9.39-9.362-9.39-5.171 0-9.362 4.204-9.362 9.39 0 5.186 4.191 9.39 9.362 9.39z"/><path d="M105.78 48.323c-1.094 2.355-2.96 5.26-5.952 6.744-.997.484-.772 1.968.322 2.13 3.249.516 7.914-.065 12.29-3.356l.064.064c11.067 6.518 25.544 5.034 35.035-4.485 11.26-11.294 11.26-29.655 0-40.95-11.26-11.294-29.566-11.294-40.826 0-10.842 10.875-11.26 28.3-1.222 39.66l.289.193zm-.161-21.265c.032-1 .837-1.808 1.866-1.775l2.703.064a17.059 17.059 0 012.863-6.454l-1.866-1.968a1.806 1.806 0 01.064-2.582l2.027-1.936c.74-.71 1.866-.677 2.574.065l1.898 1.968a17.096 17.096 0 016.563-2.549l.064-2.775c.033-1 .837-1.807 1.866-1.775l2.799.065a1.81 1.81 0 011.77 1.871l-.065 2.775c2.252.485 4.44 1.42 6.402 2.84l1.995-1.936c.74-.71 1.866-.678 2.574.065l1.93 2.032a1.806 1.806 0 01-.064 2.582l-1.995 1.936a17.265 17.265 0 012.542 6.55l2.766.065a1.81 1.81 0 011.77 1.872l-.064 2.807c-.033 1-.837 1.807-1.866 1.775l-2.767-.065a17.467 17.467 0 01-2.799 6.454l1.898 1.969a1.806 1.806 0 01-.064 2.581l-2.027 1.936c-.74.71-1.866.678-2.574-.064l-1.866-1.969a17.362 17.362 0 01-6.563 2.582l-.064 2.71c-.032 1-.837 1.807-1.866 1.775l-2.799-.064a1.809 1.809 0 01-1.769-1.872l.064-2.678a17.407 17.407 0 01-6.499-2.84l-1.93 1.84c-.74.71-1.866.677-2.574-.065l-1.93-2.033a1.806 1.806 0 01.064-2.582l1.931-1.839a17.41 17.41 0 01-2.574-6.615l-2.67-.064a1.81 1.81 0 01-1.77-1.872l.032-2.807z"/></symbol><symbol viewBox="0 0 17 17" id="icon_phone" xmlns="http://www.w3.org/2000/svg"><path d="M12.925 11.246c-.556-.549-1.25-.549-1.801 0-.421.417-.842.835-1.256 1.26-.113.116-.209.14-.347.063-.272-.149-.562-.269-.824-.432-1.22-.767-2.243-1.754-3.148-2.865-.45-.552-.85-1.143-1.129-1.808-.056-.134-.046-.223.064-.332.42-.407.831-.825 1.245-1.242.577-.58.577-1.26-.003-1.843-.33-.333-.658-.658-.987-.99-.34-.34-.676-.683-1.02-1.02-.555-.54-1.248-.54-1.8.004-.424.418-.831.846-1.263 1.256-.4.378-.601.842-.644 1.383-.067.881.149 1.712.453 2.522.623 1.677 1.57 3.166 2.72 4.532a16.835 16.835 0 005.576 4.362c.976.474 1.988.838 3.088.898.757.043 1.415-.148 1.942-.739.361-.403.768-.771 1.15-1.157.566-.573.57-1.266.007-1.832-.672-.676-1.348-1.348-2.023-2.02zm-.676-2.82l1.305-.222a5.834 5.834 0 00-1.63-3.149 5.803 5.803 0 00-3.326-1.659l-.184 1.312c.98.138 1.872.58 2.576 1.285a4.502 4.502 0 011.259 2.433zm2.041-5.674A9.625 9.625 0 008.771 0l-.183 1.312a8.346 8.346 0 014.768 2.378 8.339 8.339 0 012.339 4.51L17 7.977a9.695 9.695 0 00-2.71-5.225z"/></symbol><symbol viewBox="0 0 103 101" id="icon_services" xmlns="http://www.w3.org/2000/svg"><path d="M51.5 72.838L31.692 61.65V37.842L51.5 48.992l19.808-11.15V61.65L51.5 72.84zM34.333 60.154L51.5 69.821l17.167-9.667v-17.8L51.5 52.008l-17.167-9.654v17.8z"/><path d="M52.82 51.156h-2.64V70.83h2.64V51.156zm17.656-8.959L51.513 31.31 32.537 42.145l-8.16-15.911h-5.89V23.61h7.514l7.632 14.875 17.88-10.205 17.88 10.257 7.62-14.927h7.5v2.624h-5.877l-8.16 15.963zm-9.732-23.833H42.256V0h18.488v18.364zM44.897 15.74h13.206V2.623H44.897V15.74z"/><path d="M19.808 34.104H0V15.74h19.808v18.364zM2.64 31.48h14.526V18.363H2.64V31.48zM103 34.104H83.192V15.74H103v18.364zM85.833 31.48h14.526V18.363H85.833V31.48zM60.744 101H42.256V82.636h18.488V101zm-15.847-2.623h13.206V85.26H44.897v13.117zM103 85.26H83.192V66.896H103V85.26zm-17.167-2.624h14.526V69.52H85.833v13.117zM19.808 85.26H0V66.896h19.808V85.26zM2.64 82.636h14.526V69.52H2.64v13.117zm50.18-65.584h-2.64v13.117h2.64V17.052z"/><path d="M25.988 77.39h-7.5v-2.624h5.902l7.91-14.914 2.337 1.22-8.65 16.318zm58.525 0h-7.488l-8.649-16.318 2.337-1.22 7.91 14.914h5.89v2.624zM52.82 70.831h-2.64v13.117h2.64V70.831zM23.77 55.09H13.204v-9.18H23.77v9.18zm-7.924-2.623h5.282v-3.934h-5.282v3.934zm73.949 2.623H79.23v-9.18h10.564v9.18zm-7.923-2.623h5.282v-3.934h-5.282v3.934zM77.91 95.753H67.346V85.26H77.91v10.493zm-7.923-2.623h5.282v-5.247h-5.282v5.247z"/></symbol><symbol viewBox="0 0 21 21" id="icon_skype" xmlns="http://www.w3.org/2000/svg"><path d="M20.396 12.73a9.78 9.78 0 00.232-2.12c0-5.454-4.485-9.876-10.016-9.876-.584 0-1.157.05-1.713.145A5.838 5.838 0 005.809 0C2.6 0 0 2.564 0 5.727c0 1.057.292 2.047.798 2.897a9.788 9.788 0 00-.202 1.986c0 5.454 4.484 9.876 10.016 9.876.626 0 1.24-.057 1.834-.166.817.434 1.752.68 2.745.68C18.4 21 21 18.436 21 15.273a5.64 5.64 0 00-.604-2.544zm-4.647 2.6c-.464.646-1.148 1.159-2.035 1.522-.879.36-1.932.543-3.13.543-1.439 0-2.645-.25-3.586-.742a4.68 4.68 0 01-1.65-1.443c-.425-.605-.64-1.206-.64-1.785 0-.361.14-.675.417-.932.275-.254.626-.383 1.046-.383.344 0 .64.102.882.303.23.192.428.477.587.845.178.401.371.74.576 1.006.196.257.479.472.84.64.363.17.852.256 1.454.256.828 0 1.507-.175 2.018-.518.499-.336.741-.74.741-1.233 0-.39-.127-.696-.387-.936-.272-.252-.632-.447-1.069-.582-.455-.14-1.073-.29-1.837-.448-1.036-.219-1.916-.478-2.617-.771a.141.141 0 01-.008-.004c-.718-.301-1.297-.719-1.72-1.241-.43-.531-.649-1.197-.649-1.98 0-.746.23-1.418.68-1.998.448-.576 1.102-1.024 1.944-1.331.832-.303 1.82-.457 2.94-.457.894 0 1.68.102 2.337.303.66.203 1.216.477 1.654.814.44.339.768.702.974 1.08.208.38.313.76.313 1.126 0 .353-.138.673-.411.953-.274.28-.62.424-1.029.424-.37 0-.66-.09-.862-.266-.188-.163-.382-.418-.598-.784-.25-.468-.552-.837-.899-1.097-.336-.252-.9-.38-1.672-.38-.718 0-1.302.142-1.736.422-.417.27-.62.58-.62.947 0 .225.065.413.2.574.142.172.343.322.596.448.264.13.535.234.807.308.278.076.745.189 1.386.335a25.036 25.036 0 012.214.571c.667.21 1.243.47 1.713.772.48.308.86.703 1.13 1.176.27.474.407 1.059.407 1.739a3.71 3.71 0 01-.701 2.204z"/></symbol><symbol viewBox="0 0 20 17" id="icon_telegram" xmlns="http://www.w3.org/2000/svg"><path d="M4.812 9.85L7.3 15.864l3.238-3.132L16.09 17 20 0 0 8.057 4.812 9.85zm9.473-4.973l-6.122 5.4-.762 2.78L5.992 9.65l8.293-4.773z"/></symbol><symbol viewBox="0 0 53 63" id="icon_telescope" xmlns="http://www.w3.org/2000/svg"><path d="M50.244 1.148l2.693 9.384a1.595 1.595 0 01-1.071 1.973l-11.443 3.366a1.57 1.57 0 01-1.949-1.085l-2.692-9.384a1.595 1.595 0 011.07-1.973L48.296.064a1.57 1.57 0 011.95 1.084zM30.545 6.945l3.71-1.534 2.927 10.197-3.946.718-2.69-9.381zM17.152 20.75l-2.58-1.008-5.137 1.511-1.6-5.56 5.142-1.511 1.645-2.253 1.21-.355L14.5 6.933l1.523-.448 1.332 4.644 11.824-3.477 2.53 8.817-14.557 4.282zM.69 14.066l-.305.089L0 12.818l3.935-1.16.31-.088.38 1.337-.308.092.988 3.44 1.458-.43 2.26 7.88-8.664-5.994 1.32-.39-.988-3.439zm9.236 10.442c-.367-1.28.36-2.62 1.625-2.993a2.381 2.381 0 012.957 1.646c.367 1.28-.36 2.62-1.626 2.993a2.381 2.381 0 01-2.956-1.646zm20.436-6.45l.882 3.133-5.145 1.515-2.954 6.302-3.733 1.105-2.672-.838-.626-2.176 1.733-2.407 1.61-.475-.763-2.728 11.668-3.431zm-10.95 9.103c.046.162.14.307.267.415a.838.838 0 001.282-.24.863.863 0 00-.08-.946.843.843 0 00-.893-.288.842.842 0 00-.505.409.861.861 0 00-.071.65z"/><path d="M20.59 5.14l.621 2.163-3.944 1.16-.62-2.163 3.943-1.16zm-6.494 1.912l.62 2.163-2.272.668-.62-2.163 2.272-.668zm1.556 23.823l2.34.939-4.496 11.464 5.343 2.45V31.98h2.52v13.763l5.457-2.492-4.866-11.403 2.309-1.012 10.26 24.034a1.29 1.29 0 01-.252 1.394 1.26 1.26 0 01-.886.388 1.245 1.245 0 01-.896-.36 1.279 1.279 0 01-.28-.41L27.648 45.21l-6.29 2.875v13.64c0 .338-.132.662-.369.901a1.251 1.251 0 01-1.78 0 1.283 1.283 0 01-.37-.901v-13.64l-6.106-2.805-4.264 10.88a1.264 1.264 0 01-.675.662c-.3.124-.637.125-.939.004a1.266 1.266 0 01-.681-.654 1.29 1.29 0 01-.044-.95l9.522-24.348z"/></symbol></svg>