<svg width="281" height="356" fill="none" xmlns="http://www.w3.org/2000/svg"><path d="M281 290v66H16.5v-52.5l135-127.5c14.333-13.667 24-25.333 29-35 5-10 7.5-19.833 7.5-29.5 0-14-4.833-24.667-14.5-32C164.167 71.833 150.333 68 132 68c-15.333 0-29.167 3-41.5 9-12.333 5.667-22.667 14.333-31 26L.5 65C14.167 44.667 33 28.833 57 17.5 81 5.833 108.5 0 139.5 0c26 0 48.667 4.333 68 13 19.667 8.333 34.833 20.333 45.5 36 11 15.333 16.5 33.5 16.5 54.5 0 19-4 36.833-12 53.5S234 192.667 211 214l-80.5 76H281z" fill="#131313"/></svg>