<svg width="617" height="537" fill="none" xmlns="http://www.w3.org/2000/svg"><path d="M262.188 9.634h-7.02L253.656 13h-1.386L258.03.4h1.314l5.76 12.6H263.7l-1.512-3.366zm-.486-1.08l-3.024-6.768-3.024 6.768h6.048zm11.541-.45c1.284.3 1.926 1.074 1.926 2.322 0 .828-.306 1.464-.918 1.908-.612.444-1.524.666-2.736.666h-4.302V3.532h4.176c1.08 0 1.926.21 2.538.63.612.42.918 1.02.918 1.8 0 .516-.144.96-.432 1.332-.276.36-.666.63-1.17.81zm-4.788-.36h2.844c.732 0 1.29-.138 1.674-.414.396-.276.594-.678.594-1.206 0-.528-.198-.924-.594-1.188-.384-.264-.942-.396-1.674-.396h-2.844v3.204zm3.006 4.248c.816 0 1.428-.132 1.836-.396.408-.264.612-.678.612-1.242s-.186-.978-.558-1.242c-.372-.276-.96-.414-1.764-.414h-3.132v3.294h3.006zm13.363-7.326h-3.582V13h-1.278V4.666h-3.582V3.532h8.442v1.134zm5.314 8.424c-.912 0-1.734-.204-2.466-.612a4.594 4.594 0 01-1.728-1.728c-.42-.732-.63-1.56-.63-2.484 0-.924.21-1.752.63-2.484a4.465 4.465 0 011.728-1.71c.732-.408 1.554-.612 2.466-.612.912 0 1.734.204 2.466.612a4.34 4.34 0 011.71 1.71c.42.732.63 1.56.63 2.484 0 .924-.21 1.752-.63 2.484a4.465 4.465 0 01-1.71 1.728c-.732.408-1.554.612-2.466.612zm0-1.134c.672 0 1.272-.15 1.8-.45.54-.312.96-.75 1.26-1.314.3-.564.45-1.206.45-1.926s-.15-1.362-.45-1.926c-.3-.564-.72-.996-1.26-1.296-.528-.312-1.128-.468-1.8-.468-.672 0-1.278.156-1.818.468-.528.3-.948.732-1.26 1.296-.3.564-.45 1.206-.45 1.926s.15 1.362.45 1.926a3.406 3.406 0 001.26 1.314c.54.3 1.146.45 1.818.45zm12.415-8.496c.888 0 1.692.204 2.412.612.72.396 1.284.96 1.692 1.692.408.732.612 1.566.612 2.502 0 .948-.204 1.788-.612 2.52a4.374 4.374 0 01-1.692 1.71c-.708.396-1.512.594-2.412.594-.768 0-1.464-.156-2.088-.468a4.03 4.03 0 01-1.512-1.404v5.274h-1.278V3.532h1.224v1.872a3.955 3.955 0 011.512-1.44c.636-.336 1.35-.504 2.142-.504zm-.09 8.496c.66 0 1.26-.15 1.8-.45.54-.312.96-.75 1.26-1.314.312-.564.468-1.206.468-1.926s-.156-1.356-.468-1.908a3.243 3.243 0 00-1.26-1.314 3.533 3.533 0 00-1.8-.468c-.672 0-1.278.156-1.818.468-.528.312-.948.75-1.26 1.314-.3.552-.45 1.188-.45 1.908s.15 1.362.45 1.926a3.406 3.406 0 001.26 1.314c.54.3 1.146.45 1.818.45zm7.552-8.424h1.278v7.524l6.318-7.524h1.134V13h-1.278V5.476l-6.3 7.524h-1.152V3.532zm16.808 4.536c.672.156 1.188.426 1.548.81.372.384.557.852.557 1.404 0 .552-.191 1.044-.575 1.476-.372.432-.882.768-1.53 1.008a6.416 6.416 0 01-2.142.342 7.182 7.182 0 01-2.016-.288 5.347 5.347 0 01-1.729-.882l.432-.954c.432.324.936.576 1.512.756.576.18 1.158.27 1.746.27.876 0 1.59-.162 2.142-.486.564-.336.847-.786.847-1.35 0-.504-.228-.894-.684-1.17-.456-.288-1.08-.432-1.872-.432h-1.62v-.936h1.548c.708 0 1.278-.132 1.71-.396.432-.276.648-.642.648-1.098 0-.504-.246-.9-.738-1.188-.48-.288-1.11-.432-1.89-.432-1.02 0-2.028.258-3.024.774l-.36-.99c1.128-.588 2.297-.882 3.509-.882.72 0 1.368.108 1.944.324.588.204 1.045.498 1.369.882.336.384.504.828.504 1.332 0 .48-.168.906-.504 1.278-.324.372-.768.648-1.332.828zm8.265-4.608c1.236 0 2.184.312 2.844.936.66.612.99 1.524.99 2.736V13h-1.224v-1.476c-.288.492-.714.876-1.278 1.152-.552.276-1.212.414-1.98.414-1.056 0-1.896-.252-2.52-.756-.624-.504-.936-1.17-.936-1.998 0-.804.288-1.452.864-1.944.588-.492 1.518-.738 2.79-.738h3.006v-.576c0-.816-.228-1.434-.684-1.854-.456-.432-1.122-.648-1.998-.648-.6 0-1.176.102-1.728.306a4.233 4.233 0 00-1.422.81l-.576-.954a4.99 4.99 0 011.728-.936 6.566 6.566 0 012.124-.342zm-.45 8.622c.72 0 1.338-.162 1.854-.486.516-.336.9-.816 1.152-1.44V8.608h-2.97c-1.62 0-2.43.564-2.43 1.692 0 .552.21.99.63 1.314.42.312 1.008.468 1.764.468zm17.55-.198v3.492h-1.206V13h-8.658V3.532h1.278v8.352h5.778V3.532h1.278v8.352h1.53zm2.441-8.352h1.278v7.524l6.318-7.524h1.134V13h-1.278V5.476l-6.3 7.524h-1.152V3.532zm19.664 0V13h-1.17V9.868h-3.33L367.597 13h-1.386l2.358-3.312c-.732-.204-1.296-.552-1.692-1.044-.396-.492-.594-1.116-.594-1.872 0-1.056.36-1.86 1.08-2.412.72-.552 1.704-.828 2.952-.828h3.978zm-6.714 3.276c0 1.404.894 2.106 2.682 2.106h2.862V4.666h-2.772c-1.848 0-2.772.714-2.772 2.142zm124.053 99.3c-1.248 0-2.376-.276-3.384-.828a6.165 6.165 0 01-2.358-2.286c-.564-.984-.846-2.082-.846-3.294 0-1.212.282-2.304.846-3.276a6.092 6.092 0 012.376-2.304c1.008-.552 2.136-.828 3.384-.828.936 0 1.8.156 2.592.468a5.373 5.373 0 012.016 1.368l-.846.846c-.984-.996-2.226-1.494-3.726-1.494-.996 0-1.902.228-2.718.684a5.064 5.064 0 00-1.926 1.872c-.456.792-.684 1.68-.684 2.664 0 .984.228 1.872.684 2.664a5.064 5.064 0 001.926 1.872c.816.456 1.722.684 2.718.684 1.512 0 2.754-.504 3.726-1.512l.846.846a5.526 5.526 0 01-2.034 1.386c-.792.312-1.656.468-2.592.468zm10.555-.018c-.912 0-1.734-.204-2.466-.612a4.594 4.594 0 01-1.728-1.728c-.42-.732-.63-1.56-.63-2.484 0-.924.21-1.752.63-2.484a4.465 4.465 0 011.728-1.71c.732-.408 1.554-.612 2.466-.612.912 0 1.734.204 2.466.612a4.34 4.34 0 011.71 1.71c.42.732.63 1.56.63 2.484 0 .924-.21 1.752-.63 2.484a4.465 4.465 0 01-1.71 1.728c-.732.408-1.554.612-2.466.612zm0-1.134c.672 0 1.272-.15 1.8-.45.54-.312.96-.75 1.26-1.314.3-.564.45-1.206.45-1.926s-.15-1.362-.45-1.926c-.3-.564-.72-.996-1.26-1.296-.528-.312-1.128-.468-1.8-.468-.672 0-1.278.156-1.818.468-.528.3-.948.732-1.26 1.296-.3.564-.45 1.206-.45 1.926s.15 1.362.45 1.926a3.406 3.406 0 001.26 1.314c.54.3 1.146.45 1.818.45zm11.443 1.134c-.912 0-1.734-.204-2.466-.612a4.594 4.594 0 01-1.728-1.728c-.42-.732-.63-1.56-.63-2.484 0-.924.21-1.752.63-2.484a4.465 4.465 0 011.728-1.71c.732-.408 1.554-.612 2.466-.612.912 0 1.734.204 2.466.612a4.34 4.34 0 011.71 1.71c.42.732.63 1.56.63 2.484 0 .924-.21 1.752-.63 2.484a4.465 4.465 0 01-1.71 1.728c-.732.408-1.554.612-2.466.612zm0-1.134c.672 0 1.272-.15 1.8-.45.54-.312.96-.75 1.26-1.314.3-.564.45-1.206.45-1.926s-.15-1.362-.45-1.926c-.3-.564-.72-.996-1.26-1.296-.528-.312-1.128-.468-1.8-.468-.672 0-1.278.156-1.818.468-.528.3-.948.732-1.26 1.296-.3.564-.45 1.206-.45 1.926s.15 1.362.45 1.926a3.406 3.406 0 001.26 1.314c.54.3 1.146.45 1.818.45zm12.128-8.19c.876 0 1.656.198 2.34.594.696.384 1.236.93 1.62 1.638.384.696.576 1.494.576 2.394 0 .924-.204 1.746-.612 2.466a4.194 4.194 0 01-1.674 1.656c-.72.396-1.548.594-2.484.594-1.572 0-2.79-.552-3.654-1.656-.864-1.104-1.296-2.628-1.296-4.572 0-2.028.384-3.582 1.152-4.662.78-1.08 1.992-1.812 3.636-2.196l4.248-.972.216 1.17-3.996.918c-1.356.3-2.352.834-2.988 1.602-.636.756-.984 1.878-1.044 3.366a4.237 4.237 0 011.602-1.71c.684-.42 1.47-.63 2.358-.63zm-.198 8.28c.66 0 1.248-.15 1.764-.45a3.186 3.186 0 001.224-1.296c.3-.552.45-1.176.45-1.872 0-.696-.144-1.308-.432-1.836a3.006 3.006 0 00-1.224-1.224c-.516-.3-1.11-.45-1.782-.45-.672 0-1.272.15-1.8.45a3.158 3.158 0 00-1.224 1.224c-.288.528-.432 1.14-.432 1.836 0 .696.144 1.32.432 1.872.3.552.714.984 1.242 1.296.528.3 1.122.45 1.782.45zm20.541-8.514V106h-13.068v-9.468h1.278v8.352h4.644v-8.352h1.278v8.352h4.59v-8.352h1.278zm1.458 8.352v3.186h-1.206V106h-1.602v-1.116h2.808zm10.471-3.222h-7.92c.072.984.45 1.782 1.134 2.394.684.6 1.548.9 2.592.9a4.19 4.19 0 001.62-.306 3.635 3.635 0 001.278-.936l.72.828c-.42.504-.948.888-1.584 1.152a5.26 5.26 0 01-2.07.396c-.972 0-1.836-.204-2.592-.612a4.558 4.558 0 01-1.746-1.728c-.42-.732-.63-1.56-.63-2.484 0-.924.198-1.752.594-2.484a4.45 4.45 0 011.656-1.71c.708-.408 1.5-.612 2.376-.612.876 0 1.662.204 2.358.612a4.323 4.323 0 011.638 1.71c.396.72.594 1.548.594 2.484l-.018.396zm-4.572-4.104c-.912 0-1.68.294-2.304.882-.612.576-.96 1.332-1.044 2.268h6.714c-.084-.936-.438-1.692-1.062-2.268-.612-.588-1.38-.882-2.304-.882zm7.419-1.026h1.278v4.194h5.958v-4.194h1.278V106h-1.278v-4.176h-5.958V106h-1.278v-9.468zm12.146 0h1.278v7.524l6.318-7.524h1.134V106h-1.278v-7.524l-6.3 7.524h-1.152v-9.468zm19.665 0V106h-1.17v-3.132h-3.33L585.992 106h-1.386l2.358-3.312c-.732-.204-1.296-.552-1.692-1.044-.396-.492-.594-1.116-.594-1.872 0-1.056.36-1.86 1.08-2.412.72-.552 1.704-.828 2.952-.828h3.978zm-6.714 3.276c0 1.404.894 2.106 2.682 2.106h2.862v-4.248h-2.772c-1.848 0-2.772.714-2.772 2.142zm-534.276 34.04v3.978h-1.242V135H39.458l-.018 2.826h-1.242l.018-3.978h.63c.828-.048 1.404-.702 1.728-1.962.324-1.272.522-3.072.594-5.4l.144-4.086h8.496v11.448h1.89zm-9.342-7.236c-.06 1.92-.21 3.504-.45 4.752-.228 1.236-.618 2.064-1.17 2.484h7.758v-10.296h-6.03l-.108 3.06zm15.395 8.478c-.912 0-1.734-.204-2.466-.612a4.594 4.594 0 01-1.728-1.728c-.42-.732-.63-1.56-.63-2.484 0-.924.21-1.752.63-2.484a4.465 4.465 0 011.728-1.71c.732-.408 1.554-.612 2.466-.612.912 0 1.734.204 2.466.612a4.34 4.34 0 011.71 1.71c.42.732.63 1.56.63 2.484 0 .924-.21 1.752-.63 2.484a4.465 4.465 0 01-1.71 1.728c-.732.408-1.554.612-2.466.612zm0-1.134c.672 0 1.272-.15 1.8-.45.54-.312.96-.75 1.26-1.314.3-.564.45-1.206.45-1.926s-.15-1.362-.45-1.926c-.3-.564-.72-.996-1.26-1.296-.528-.312-1.128-.468-1.8-.468-.672 0-1.278.156-1.818.468-.528.3-.948.732-1.26 1.296-.3.564-.45 1.206-.45 1.926s.15 1.362.45 1.926a3.406 3.406 0 001.26 1.314c.54.3 1.146.45 1.818.45zm10.976-3.168h-2.16V135h-1.278v-9.468h1.278v4.158h2.178l3.33-4.158h1.386l-3.726 4.59L73.73 135h-1.512l-3.492-4.212z" fill="#BDBDBD"/><path d="M83.249 125.532l-4.734 10.602c-.384.888-.828 1.518-1.332 1.89-.504.372-1.11.558-1.818.558-.456 0-.882-.072-1.278-.216a2.77 2.77 0 01-1.026-.648l.594-.954c.48.48 1.056.72 1.728.72.432 0 .798-.12 1.098-.36.312-.24.6-.648.864-1.224l.414-.918-4.23-9.45h1.332l3.564 8.046 3.564-8.046h1.26zm12.575 0V135h-1.17v-7.488l-3.834 6.336h-.576l-3.834-6.354V135h-1.17v-9.468h1.296l4.014 6.822 4.086-6.822h1.188zm11.917 5.13h-7.92c.072.984.45 1.782 1.134 2.394.684.6 1.548.9 2.592.9a4.19 4.19 0 001.62-.306 3.635 3.635 0 001.278-.936l.72.828c-.42.504-.948.888-1.584 1.152a5.26 5.26 0 01-2.07.396c-.972 0-1.836-.204-2.592-.612a4.559 4.559 0 01-1.746-1.728c-.42-.732-.63-1.56-.63-2.484 0-.924.198-1.752.594-2.484a4.451 4.451 0 011.656-1.71c.708-.408 1.5-.612 2.376-.612.876 0 1.662.204 2.358.612a4.323 4.323 0 011.638 1.71c.396.72.594 1.548.594 2.484l-.018.396zm-4.572-4.104c-.912 0-1.68.294-2.304.882-.612.576-.96 1.332-1.044 2.268h6.714c-.084-.936-.438-1.692-1.062-2.268-.612-.588-1.38-.882-2.304-.882zm7.419-1.026h1.278v4.194h5.958v-4.194h1.278V135h-1.278v-4.176h-5.958V135h-1.278v-9.468zm18.806 1.134h-3.582V135h-1.278v-8.334h-3.582v-1.134h8.442v1.134zm5.826 2.214c1.188.012 2.094.276 2.718.792.624.516.936 1.26.936 2.232 0 1.008-.336 1.782-1.008 2.322-.672.54-1.632.804-2.88.792l-3.744-.018v-9.468h1.278v3.312l2.7.036zm5.238-3.348h1.278V135h-1.278v-9.468zm-5.544 8.514c.876.012 1.536-.162 1.98-.522.456-.372.684-.912.684-1.62 0-.696-.222-1.212-.666-1.548-.444-.336-1.11-.51-1.998-.522l-2.394-.036v4.212l2.394.036zm267.692 395.636c0 1.668-.594 2.982-1.782 3.942-1.176.948-2.826 1.452-4.95 1.512v1.296h-1.242v-1.296c-2.124-.072-3.78-.582-4.968-1.53-1.176-.948-1.764-2.256-1.764-3.924 0-1.668.588-2.976 1.764-3.924 1.188-.948 2.844-1.458 4.968-1.53v-1.26h1.242v1.26c2.112.072 3.762.588 4.95 1.548 1.188.948 1.782 2.25 1.782 3.906zm-6.732 4.392c1.74-.072 3.084-.486 4.032-1.242s1.422-1.806 1.422-3.15c0-1.344-.48-2.394-1.44-3.15-.948-.756-2.286-1.164-4.014-1.224v8.766zm-6.696-4.392c0 1.344.474 2.394 1.422 3.15.96.744 2.304 1.158 4.032 1.242v-8.766c-1.752.072-3.102.486-4.05 1.242-.936.744-1.404 1.788-1.404 3.132zm19.404-3.222c1.236 0 2.184.312 2.844.936.66.612.99 1.524.99 2.736V536h-1.224v-1.476c-.288.492-.714.876-1.278 1.152-.552.276-1.212.414-1.98.414-1.056 0-1.896-.252-2.52-.756-.624-.504-.936-1.17-.936-1.998 0-.804.288-1.452.864-1.944.588-.492 1.518-.738 2.79-.738h3.006v-.576c0-.816-.228-1.434-.684-1.854-.456-.432-1.122-.648-1.998-.648-.6 0-1.176.102-1.728.306a4.233 4.233 0 00-1.422.81l-.576-.954a4.99 4.99 0 011.728-.936 6.566 6.566 0 012.124-.342zm-.45 8.622c.72 0 1.338-.162 1.854-.486.516-.336.9-.816 1.152-1.44v-1.548h-2.97c-1.62 0-2.43.564-2.43 1.692 0 .552.21.99.63 1.314.42.312 1.008.468 1.764.468zm7.686-8.55h1.278v7.524l6.318-7.524h1.134V536h-1.278v-7.524l-6.3 7.524h-1.152v-9.468zm4.302-1.368c-.816 0-1.464-.204-1.944-.612-.48-.408-.726-.984-.738-1.728h.918c.012.468.18.846.504 1.134.324.276.744.414 1.26.414s.936-.138 1.26-.414c.336-.288.51-.666.522-1.134h.918c-.012.744-.264 1.32-.756 1.728-.48.408-1.128.612-1.944.612zm15.831 1.368V536h-1.278v-8.334h-4.536l-.126 2.34c-.096 1.968-.324 3.48-.684 4.536-.36 1.056-1.002 1.584-1.926 1.584-.252 0-.558-.048-.918-.144l.09-1.098c.216.048.366.072.45.072.492 0 .864-.228 1.116-.684.252-.456.42-1.02.504-1.692.084-.672.156-1.56.216-2.664l.162-3.384h6.93zm7.611 3.348c1.188.012 2.094.276 2.718.792.624.516.936 1.26.936 2.232 0 1.008-.336 1.782-1.008 2.322-.672.54-1.632.804-2.88.792l-3.744-.018v-9.468h1.278v3.312l2.7.036zm5.238-3.348h1.278V536H448.8v-9.468zm-5.544 8.514c.876.012 1.536-.162 1.98-.522.456-.372.684-.912.684-1.62 0-.696-.222-1.212-.666-1.548-.444-.336-1.11-.51-1.998-.522l-2.394-.036v4.212l2.394.036zm-99.874-346.754c1.176 0 2.238.276 3.186.828.96.552 1.71 1.32 2.25 2.304.552.972.828 2.064.828 3.276 0 1.212-.276 2.31-.828 3.294a5.885 5.885 0 01-2.25 2.286c-.948.552-2.01.828-3.186.828-.984 0-1.884-.156-2.7-.468a5.23 5.23 0 01-2.052-1.386l.828-.846c.996 1.008 2.286 1.512 3.87 1.512.888 0 1.698-.204 2.43-.612.732-.42 1.32-.99 1.764-1.71a5.237 5.237 0 00.774-2.466h-6.498v-1.098h6.48a5.165 5.165 0 00-.828-2.34 4.619 4.619 0 00-1.746-1.62 4.848 4.848 0 00-2.376-.594c-1.584 0-2.874.504-3.87 1.512l-.828-.846a5.23 5.23 0 012.052-1.386c.816-.312 1.716-.468 2.7-.468zm21.691 11.556v4.104h-1.242V201h-10.998v-12.6h1.314v11.448h7.614V188.4h1.314v11.448h1.998zm13.251-11.448V201h-1.314v-11.448h-7.974V201h-1.314v-12.6h10.602zm138.044 182.152h-4.428V382h-1.314v-11.448h-4.428V369.4h10.17v1.152zm6.664 1.908c.888 0 1.692.204 2.412.612.72.396 1.284.96 1.692 1.692.408.732.612 1.566.612 2.502 0 .948-.204 1.788-.612 2.52a4.374 4.374 0 01-1.692 1.71c-.708.396-1.512.594-2.412.594-.768 0-1.464-.156-2.088-.468a4.03 4.03 0 01-1.512-1.404v5.274h-1.278v-12.96h1.224v1.872a3.955 3.955 0 011.512-1.44c.636-.336 1.35-.504 2.142-.504zm-.09 8.496c.66 0 1.26-.15 1.8-.45.54-.312.96-.75 1.26-1.314.312-.564.468-1.206.468-1.926s-.156-1.356-.468-1.908a3.243 3.243 0 00-1.26-1.314 3.533 3.533 0 00-1.8-.468c-.672 0-1.278.156-1.818.468-.528.312-.948.75-1.26 1.314-.3.552-.45 1.188-.45 1.908s.15 1.362.45 1.926a3.406 3.406 0 001.26 1.314c.54.3 1.146.45 1.818.45zm10.757-8.496c1.236 0 2.184.312 2.844.936.66.612.99 1.524.99 2.736V382h-1.224v-1.476c-.288.492-.714.876-1.278 1.152-.552.276-1.212.414-1.98.414-1.056 0-1.896-.252-2.52-.756-.624-.504-.936-1.17-.936-1.998 0-.804.288-1.452.864-1.944.588-.492 1.518-.738 2.79-.738h3.006v-.576c0-.816-.228-1.434-.684-1.854-.456-.432-1.122-.648-1.998-.648-.6 0-1.176.102-1.728.306a4.233 4.233 0 00-1.422.81l-.576-.954a4.99 4.99 0 011.728-.936 6.566 6.566 0 012.124-.342zm-.45 8.622c.72 0 1.338-.162 1.854-.486.516-.336.9-.816 1.152-1.44v-1.548h-2.97c-1.62 0-2.43.564-2.43 1.692 0 .552.21.99.63 1.314.42.312 1.008.468 1.764.468zm7.686-8.55h1.278v4.194h5.958v-4.194h1.278V382h-1.278v-4.176h-5.958V382h-1.278v-9.468zm16.561 4.536c.672.156 1.188.426 1.548.81.372.384.558.852.558 1.404a2.16 2.16 0 01-.576 1.476c-.372.432-.882.768-1.53 1.008a6.416 6.416 0 01-2.142.342 7.182 7.182 0 01-2.016-.288 5.341 5.341 0 01-1.728-.882l.432-.954c.432.324.936.576 1.512.756.576.18 1.158.27 1.746.27.876 0 1.59-.162 2.142-.486.564-.336.846-.786.846-1.35 0-.504-.228-.894-.684-1.17-.456-.288-1.08-.432-1.872-.432h-1.62v-.936h1.548c.708 0 1.278-.132 1.71-.396.432-.276.648-.642.648-1.098 0-.504-.246-.9-.738-1.188-.48-.288-1.11-.432-1.89-.432-1.02 0-2.028.258-3.024.774l-.36-.99c1.128-.588 2.298-.882 3.51-.882.72 0 1.368.108 1.944.324.588.204 1.044.498 1.368.882.336.384.504.828.504 1.332 0 .48-.168.906-.504 1.278-.324.372-.768.648-1.332.828zm8.266-4.608c1.236 0 2.184.312 2.844.936.66.612.99 1.524.99 2.736V382h-1.224v-1.476c-.288.492-.714.876-1.278 1.152-.552.276-1.212.414-1.98.414-1.056 0-1.896-.252-2.52-.756-.624-.504-.936-1.17-.936-1.998 0-.804.288-1.452.864-1.944.588-.492 1.518-.738 2.79-.738h3.006v-.576c0-.816-.228-1.434-.684-1.854-.456-.432-1.122-.648-1.998-.648-.6 0-1.176.102-1.728.306a4.233 4.233 0 00-1.422.81l-.576-.954a4.99 4.99 0 011.728-.936 6.566 6.566 0 012.124-.342zm-.45 8.622c.72 0 1.338-.162 1.854-.486.516-.336.9-.816 1.152-1.44v-1.548h-2.97c-1.62 0-2.43.564-2.43 1.692 0 .552.21.99.63 1.314.42.312 1.008.468 1.764.468zm11.124-3.294h-2.16V382h-1.278v-9.468h1.278v4.158h2.178l3.33-4.158h1.386l-3.726 4.59L581.44 382h-1.512l-3.492-4.212zm16.885 3.096v3.492h-1.206V382h-8.658v-9.468h1.278v8.352h5.778v-8.352h1.278v8.352h1.53zm2.44-8.352h1.278v7.524l6.318-7.524h1.134V382h-1.278v-7.524l-6.3 7.524h-1.152v-9.468zm12.393 0h1.278v7.524l6.318-7.524h1.134V382h-1.278v-7.524l-6.3 7.524h-1.152v-9.468zM74.99 475.502c.828.18 1.464.54 1.908 1.08.456.528.684 1.212.684 2.052 0 1.08-.402 1.914-1.206 2.502-.792.576-1.968.864-3.528.864h-5.796v-12.6h5.436c1.404 0 2.49.282 3.258.846.78.564 1.17 1.362 1.17 2.394 0 .696-.174 1.29-.522 1.782-.336.48-.804.84-1.404 1.08zm-6.606-5.004v4.572h4.014c1.02 0 1.806-.192 2.358-.576.552-.396.828-.966.828-1.71s-.276-1.308-.828-1.692c-.552-.396-1.338-.594-2.358-.594h-4.014zm4.446 10.404c1.128 0 1.98-.192 2.556-.576.576-.384.864-.984.864-1.8 0-1.572-1.14-2.358-3.42-2.358h-4.446v4.734h4.446zM85.338 469.4c1.608 0 2.868.384 3.78 1.152.912.768 1.368 1.824 1.368 3.168s-.456 2.4-1.368 3.168c-.912.756-2.172 1.134-3.78 1.134h-3.384V482h-1.332v-12.6h4.716zm-.036 7.452c1.248 0 2.202-.27 2.862-.81.66-.552.99-1.326.99-2.322 0-1.02-.33-1.8-.99-2.34-.66-.552-1.614-.828-2.862-.828h-3.348v6.3h3.348zm21.15-7.452V482h-1.278v-10.08l-4.95 8.478h-.63l-4.95-8.424V482h-1.278v-12.6h1.099l5.471 9.342 5.418-9.342h1.098zm13.173 3.366c.876 0 1.656.198 2.34.594.696.384 1.236.93 1.62 1.638.384.696.576 1.494.576 2.394 0 .924-.204 1.746-.612 2.466a4.194 4.194 0 01-1.674 1.656c-.72.396-1.548.594-2.484.594-1.572 0-2.79-.552-3.654-1.656-.864-1.104-1.296-2.628-1.296-4.572 0-2.028.384-3.582 1.152-4.662.78-1.08 1.992-1.812 3.636-2.196l4.248-.972.216 1.17-3.996.918c-1.356.3-2.352.834-2.988 1.602-.636.756-.984 1.878-1.044 3.366a4.237 4.237 0 011.602-1.71c.684-.42 1.47-.63 2.358-.63zm-.198 8.28c.66 0 1.248-.15 1.764-.45a3.186 3.186 0 001.224-1.296c.3-.552.45-1.176.45-1.872 0-.696-.144-1.308-.432-1.836a3.006 3.006 0 00-1.224-1.224c-.516-.3-1.11-.45-1.782-.45-.672 0-1.272.15-1.8.45a3.158 3.158 0 00-1.224 1.224c-.288.528-.432 1.14-.432 1.836 0 .696.144 1.32.432 1.872.3.552.714.984 1.242 1.296.528.3 1.122.45 1.782.45zm7.473-8.514h1.278v7.524l6.318-7.524h1.134V482h-1.278v-7.524l-6.3 7.524H126.9v-9.468zm16.807 4.536c.672.156 1.188.426 1.548.81.372.384.558.852.558 1.404a2.16 2.16 0 01-.576 1.476c-.372.432-.882.768-1.53 1.008a6.416 6.416 0 01-2.142.342 7.182 7.182 0 01-2.016-.288 5.341 5.341 0 01-1.728-.882l.432-.954c.432.324.936.576 1.512.756.576.18 1.158.27 1.746.27.876 0 1.59-.162 2.142-.486.564-.336.846-.786.846-1.35 0-.504-.228-.894-.684-1.17-.456-.288-1.08-.432-1.872-.432h-1.62v-.936h1.548c.708 0 1.278-.132 1.71-.396.432-.276.648-.642.648-1.098 0-.504-.246-.9-.738-1.188-.48-.288-1.11-.432-1.89-.432-1.02 0-2.028.258-3.024.774l-.36-.99c1.128-.588 2.298-.882 3.51-.882.72 0 1.368.108 1.944.324.588.204 1.044.498 1.368.882.336.384.504.828.504 1.332 0 .48-.168.906-.504 1.278-.324.372-.768.648-1.332.828zm5.008-4.536h1.278v4.194h5.958v-4.194h1.278V482h-1.278v-4.176h-5.958V482h-1.278v-9.468zm20.426 5.13h-7.92c.072.984.45 1.782 1.134 2.394.684.6 1.548.9 2.592.9a4.19 4.19 0 001.62-.306 3.635 3.635 0 001.278-.936l.72.828c-.42.504-.948.888-1.584 1.152a5.26 5.26 0 01-2.07.396c-.972 0-1.836-.204-2.592-.612a4.558 4.558 0 01-1.746-1.728c-.42-.732-.63-1.56-.63-2.484 0-.924.198-1.752.594-2.484a4.45 4.45 0 011.656-1.71c.708-.408 1.5-.612 2.376-.612.876 0 1.662.204 2.358.612a4.323 4.323 0 011.638 1.71c.396.72.594 1.548.594 2.484l-.018.396zm-4.572-4.104c-.912 0-1.68.294-2.304.882-.612.576-.96 1.332-1.044 2.268h6.714c-.084-.936-.438-1.692-1.062-2.268-.612-.588-1.38-.882-2.304-.882zm11.379 8.532c-.936 0-1.776-.204-2.52-.612a4.465 4.465 0 01-1.728-1.71c-.42-.744-.63-1.578-.63-2.502 0-.924.21-1.752.63-2.484a4.465 4.465 0 011.728-1.71c.744-.408 1.584-.612 2.52-.612.816 0 1.542.162 2.178.486a3.561 3.561 0 011.53 1.386l-.954.648a2.917 2.917 0 00-1.188-1.044 3.452 3.452 0 00-1.566-.36c-.684 0-1.302.156-1.854.468-.54.3-.966.732-1.278 1.296-.3.564-.45 1.206-.45 1.926 0 .732.15 1.38.45 1.944a3.4 3.4 0 001.278 1.296c.552.3 1.17.45 1.854.45.564 0 1.086-.114 1.566-.342.48-.228.876-.576 1.188-1.044l.954.648a3.679 3.679 0 01-1.53 1.404c-.648.312-1.374.468-2.178.468zm5.321-5.526h4.716v1.116h-4.716v-1.116zm16.108-4.032V482h-1.278v-8.334h-5.94V482h-1.278v-9.468h8.496zm8.51-.072c.888 0 1.692.204 2.412.612.72.396 1.284.96 1.692 1.692.408.732.612 1.566.612 2.502 0 .948-.204 1.788-.612 2.52a4.374 4.374 0 01-1.692 1.71c-.708.396-1.512.594-2.412.594-.768 0-1.464-.156-2.088-.468a4.03 4.03 0 01-1.512-1.404v5.274h-1.278v-12.96h1.224v1.872a3.955 3.955 0 011.512-1.44c.636-.336 1.35-.504 2.142-.504zm-.09 8.496c.66 0 1.26-.15 1.8-.45.54-.312.96-.75 1.26-1.314.312-.564.468-1.206.468-1.926s-.156-1.356-.468-1.908a3.243 3.243 0 00-1.26-1.314 3.533 3.533 0 00-1.8-.468c-.672 0-1.278.156-1.818.468-.528.312-.948.75-1.26 1.314-.3.552-.45 1.188-.45 1.908s.15 1.362.45 1.926a3.406 3.406 0 001.26 1.314c.54.3 1.146.45 1.818.45zm11.458 1.134c-.912 0-1.734-.204-2.466-.612a4.594 4.594 0 01-1.728-1.728c-.42-.732-.63-1.56-.63-2.484 0-.924.21-1.752.63-2.484a4.465 4.465 0 011.728-1.71c.732-.408 1.554-.612 2.466-.612.912 0 1.734.204 2.466.612a4.34 4.34 0 011.71 1.71c.42.732.63 1.56.63 2.484 0 .924-.21 1.752-.63 2.484a4.465 4.465 0 01-1.71 1.728c-.732.408-1.554.612-2.466.612zm0-1.134c.672 0 1.272-.15 1.8-.45.54-.312.96-.75 1.26-1.314.3-.564.45-1.206.45-1.926s-.15-1.362-.45-1.926c-.3-.564-.72-.996-1.26-1.296-.528-.312-1.128-.468-1.8-.468-.672 0-1.278.156-1.818.468-.528.3-.948.732-1.26 1.296-.3.564-.45 1.206-.45 1.926s.15 1.362.45 1.926a3.406 3.406 0 001.26 1.314c.54.3 1.146.45 1.818.45zm17.402-.072v3.492h-1.206V482h-8.658v-9.468h1.278v8.352h5.778v-8.352h1.278v8.352h1.53zm10.72-3.222h-7.92c.072.984.45 1.782 1.134 2.394.684.6 1.548.9 2.592.9a4.19 4.19 0 001.62-.306 3.635 3.635 0 001.278-.936l.72.828c-.42.504-.948.888-1.584 1.152a5.26 5.26 0 01-2.07.396c-.972 0-1.836-.204-2.592-.612a4.558 4.558 0 01-1.746-1.728c-.42-.732-.63-1.56-.63-2.484 0-.924.198-1.752.594-2.484a4.45 4.45 0 011.656-1.71c.708-.408 1.5-.612 2.376-.612.876 0 1.662.204 2.358.612a4.323 4.323 0 011.638 1.71c.396.72.594 1.548.594 2.484l-.018.396zm-4.572-4.104c-.912 0-1.68.294-2.304.882-.612.576-.96 1.332-1.044 2.268h6.714c-.084-.936-.438-1.692-1.062-2.268-.612-.588-1.38-.882-2.304-.882zm11.379 8.532c-.936 0-1.776-.204-2.52-.612a4.465 4.465 0 01-1.728-1.71c-.42-.744-.63-1.578-.63-2.502 0-.924.21-1.752.63-2.484a4.465 4.465 0 011.728-1.71c.744-.408 1.584-.612 2.52-.612.816 0 1.542.162 2.178.486a3.561 3.561 0 011.53 1.386l-.954.648a2.917 2.917 0 00-1.188-1.044 3.452 3.452 0 00-1.566-.36c-.684 0-1.302.156-1.854.468-.54.3-.966.732-1.278 1.296-.3.564-.45 1.206-.45 1.926 0 .732.15 1.38.45 1.944a3.4 3.4 0 001.278 1.296c.552.3 1.17.45 1.854.45.564 0 1.086-.114 1.566-.342.48-.228.876-.576 1.188-1.044l.954.648a3.679 3.679 0 01-1.53 1.404c-.648.312-1.374.468-2.178.468zm9.985 0c-.936 0-1.776-.204-2.52-.612a4.465 4.465 0 01-1.728-1.71c-.42-.744-.63-1.578-.63-2.502 0-.924.21-1.752.63-2.484a4.465 4.465 0 011.728-1.71c.744-.408 1.584-.612 2.52-.612.816 0 1.542.162 2.178.486a3.561 3.561 0 011.53 1.386l-.954.648a2.917 2.917 0 00-1.188-1.044 3.452 3.452 0 00-1.566-.36c-.684 0-1.302.156-1.854.468-.54.3-.966.732-1.278 1.296-.3.564-.45 1.206-.45 1.926 0 .732.15 1.38.45 1.944a3.4 3.4 0 001.278 1.296c.552.3 1.17.45 1.854.45.564 0 1.086-.114 1.566-.342.48-.228.876-.576 1.188-1.044l.954.648a3.679 3.679 0 01-1.53 1.404c-.648.312-1.374.468-2.178.468zm10.16-6.21c1.188.012 2.094.276 2.718.792.624.516.936 1.26.936 2.232 0 1.008-.336 1.782-1.008 2.322-.672.54-1.632.804-2.88.792l-3.744-.018v-9.468h1.278v3.312l2.7.036zm5.238-3.348h1.278V482h-1.278v-9.468zm-5.544 8.514c.876.012 1.536-.162 1.98-.522.456-.372.684-.912.684-1.62 0-.696-.222-1.212-.666-1.548-.444-.336-1.11-.51-1.998-.522l-2.394-.036v4.212l2.394.036zM.124 291.4h1.314v10.44l8.064-10.44h1.206V304H9.394v-10.422L1.33 304H.124v-12.6zm14.53 3.132h1.278v4.194h5.958v-4.194h1.278V304H21.89v-4.176h-5.958V304h-1.278v-9.468zm18.806 1.134h-3.582V304H28.6v-8.334h-3.582v-1.134h8.442v1.134zm9.689 3.996h-7.92c.072.984.45 1.782 1.134 2.394.684.6 1.548.9 2.592.9a4.19 4.19 0 001.62-.306 3.635 3.635 0 001.278-.936l.72.828c-.42.504-.948.888-1.584 1.152a5.26 5.26 0 01-2.07.396c-.972 0-1.836-.204-2.592-.612a4.558 4.558 0 01-1.746-1.728c-.42-.732-.63-1.56-.63-2.484 0-.924.198-1.752.594-2.484a4.45 4.45 0 011.656-1.71c.708-.408 1.5-.612 2.376-.612.876 0 1.662.204 2.358.612a4.323 4.323 0 011.638 1.71c.396.72.594 1.548.594 2.484l-.018.396zm-4.572-4.104c-.912 0-1.68.294-2.304.882-.612.576-.96 1.332-1.044 2.268h6.714c-.084-.936-.438-1.692-1.062-2.268-.612-.588-1.38-.882-2.304-.882zm12.297-1.098c.888 0 1.692.204 2.412.612.72.396 1.284.96 1.692 1.692.408.732.612 1.566.612 2.502 0 .948-.204 1.788-.612 2.52a4.374 4.374 0 01-1.692 1.71c-.708.396-1.512.594-2.412.594-.768 0-1.464-.156-2.088-.468a4.03 4.03 0 01-1.512-1.404v5.274h-1.278v-12.96h1.224v1.872a3.955 3.955 0 011.512-1.44c.636-.336 1.35-.504 2.142-.504zm-.09 8.496c.66 0 1.26-.15 1.8-.45.54-.312.96-.75 1.26-1.314.312-.564.468-1.206.468-1.926s-.156-1.356-.468-1.908a3.243 3.243 0 00-1.26-1.314 3.533 3.533 0 00-1.8-.468c-.672 0-1.278.156-1.818.468-.528.312-.948.75-1.26 1.314-.3.552-.45 1.188-.45 1.908s.15 1.362.45 1.926a3.406 3.406 0 001.26 1.314c.54.3 1.146.45 1.818.45zm18.982-3.708c0 1.476-.486 2.634-1.458 3.474-.972.84-2.346 1.296-4.122 1.368v3.402h-1.242v-3.384c-1.764-.072-3.132-.528-4.104-1.368-.96-.852-1.44-2.016-1.44-3.492 0-1.464.48-2.61 1.44-3.438.972-.828 2.34-1.278 4.104-1.35v-3.816h1.242v3.816c1.776.084 3.15.54 4.122 1.368.972.828 1.458 1.968 1.458 3.42zm-11.106 0c0 1.128.36 2.01 1.08 2.646.732.636 1.8.996 3.204 1.08v-7.38c-1.392.072-2.454.426-3.186 1.062-.732.624-1.098 1.488-1.098 2.592zm5.526 3.726c1.404-.072 2.472-.426 3.204-1.062.744-.636 1.116-1.524 1.116-2.664 0-1.116-.372-1.986-1.116-2.61-.732-.624-1.8-.972-3.204-1.044v7.38zm16.562-3.312h-7.92c.072.984.45 1.782 1.134 2.394.684.6 1.548.9 2.592.9a4.19 4.19 0 001.62-.306 3.635 3.635 0 001.278-.936l.72.828c-.42.504-.948.888-1.584 1.152a5.26 5.26 0 01-2.07.396c-.972 0-1.836-.204-2.592-.612a4.558 4.558 0 01-1.746-1.728c-.42-.732-.63-1.56-.63-2.484 0-.924.198-1.752.594-2.484a4.45 4.45 0 011.656-1.71c.708-.408 1.5-.612 2.376-.612.876 0 1.662.204 2.358.612a4.323 4.323 0 011.638 1.71c.396.72.594 1.548.594 2.484l-.018.396zm-4.572-4.104c-.912 0-1.68.294-2.304.882-.612.576-.96 1.332-1.044 2.268h6.714c-.084-.936-.438-1.692-1.062-2.268-.612-.588-1.38-.882-2.304-.882zm7.419-1.026h1.278v7.524l6.318-7.524h1.134V304h-1.278v-7.524l-6.3 7.524h-1.152v-9.468zm4.302-1.368c-.816 0-1.464-.204-1.944-.612-.48-.408-.726-.984-.738-1.728h.918c.012.468.18.846.504 1.134.324.276.744.414 1.26.414s.936-.138 1.26-.414c.336-.288.51-.666.522-1.134h.918c-.012.744-.264 1.32-.756 1.728-.48.408-1.128.612-1.944.612zm12.051 10.926c-.936 0-1.776-.204-2.52-.612a4.465 4.465 0 01-1.728-1.71c-.42-.744-.63-1.578-.63-2.502 0-.924.21-1.752.63-2.484a4.465 4.465 0 011.728-1.71c.744-.408 1.584-.612 2.52-.612.816 0 1.542.162 2.178.486a3.561 3.561 0 011.53 1.386l-.954.648a2.917 2.917 0 00-1.188-1.044 3.453 3.453 0 00-1.566-.36c-.684 0-1.302.156-1.854.468-.54.3-.966.732-1.278 1.296-.3.564-.45 1.206-.45 1.926 0 .732.15 1.38.45 1.944a3.4 3.4 0 001.278 1.296c.552.3 1.17.45 1.854.45.564 0 1.086-.114 1.566-.342.48-.228.876-.576 1.188-1.044l.954.648a3.679 3.679 0 01-1.53 1.404c-.648.312-1.374.468-2.178.468zm10.161-6.21c1.188.012 2.094.276 2.718.792.624.516.936 1.26.936 2.232 0 1.008-.336 1.782-1.008 2.322-.672.54-1.632.804-2.88.792l-3.744-.018v-9.468h1.278v3.312l2.7.036zm5.238-3.348h1.278V304h-1.278v-9.468zm-5.544 8.514c.876.012 1.536-.162 1.98-.522.456-.372.684-.912.684-1.62 0-.696-.222-1.212-.666-1.548-.444-.336-1.11-.51-1.998-.522l-2.394-.036v4.212l2.394.036z" fill="#BDBDBD"/></svg>