<svg width="218" height="218" viewBox="0 0 218 218" fill="none" xmlns="http://www.w3.org/2000/svg">
<path d="M99.3633 201.649V150.315C108.307 155.59 118.705 157.702 128.944 156.325C139.182 154.947 148.69 150.156 155.992 142.695C163.293 135.234 167.98 125.52 169.326 115.06C170.672 104.6 168.602 93.9791 163.436 84.844C158.27 75.7089 150.297 68.5707 140.755 64.5366C131.212 60.5025 120.633 59.7981 110.659 62.5326C100.685 65.2672 91.8724 71.2878 85.5893 79.6606C79.3062 88.0333 75.9035 98.2902 75.9089 108.84C75.9089 108.966 75.9089 109.092 75.9089 109.218V191.814C83.2521 196.168 91.1432 199.477 99.3633 201.649ZM122.818 84.8801C127.456 84.8801 131.991 86.2853 135.848 88.9181C139.705 91.5509 142.711 95.2929 144.487 99.671C146.262 104.049 146.726 108.867 145.821 113.515C144.916 118.162 142.683 122.432 139.402 125.782C136.122 129.133 131.943 131.415 127.393 132.34C122.844 133.264 118.128 132.79 113.842 130.976C109.556 129.163 105.893 126.092 103.316 122.152C100.739 118.211 99.3633 113.579 99.3633 108.84C99.3633 102.486 101.834 96.3912 106.233 91.8979C110.631 87.4045 116.597 84.8801 122.818 84.8801Z" fill="#3343D5"/>
<path d="M52.4545 108.463V108.84C52.4545 108.714 52.4545 108.589 52.4545 108.463Z" fill="#3343D5"/>
<path d="M172.547 58.0389L189.123 41.1051C180.428 32.1902 170.094 25.118 158.715 20.2949C147.336 15.4717 135.137 12.9927 122.818 13C71.0889 13 29 55.9963 29 108.84C28.9804 132.166 37.3239 154.691 52.4544 172.16L52.4545 108.84C52.4476 94.6234 56.5697 80.7241 64.2992 68.9018C72.0287 57.0794 83.0179 47.8655 95.8758 42.4264C108.734 36.9873 122.882 35.5674 136.531 38.3466C150.179 41.1258 162.713 47.979 172.547 58.0389Z" fill="#3343D5"/>
<path d="M172.547 159.641C166.025 166.327 158.275 171.631 149.741 175.249C141.207 178.866 132.057 180.726 122.818 180.72V204.68C135.137 204.687 147.335 202.207 158.713 197.383C170.091 192.559 180.424 185.485 189.117 176.569L172.547 159.641Z" fill="#3343D5"/>
</svg>
