<svg width="110" height="110" viewBox="0 0 110 110" fill="none" xmlns="http://www.w3.org/2000/svg">
<path d="M55 0C24.5 0 0 24.5 0 55C0 85.5 24.5 110 55 110C85.5 110 110 85.5 110 55C110 24.5 85.5 0 55 0ZM63 56L81.75 74.75C82.25 75.25 82.5 76 82.5 76.5C82.5 77 82.25 77.75 81.75 78.25L78.25 81.75C77.75 82.25 77 82.5 76.5 82.5C75.75 82.5 75.25 82.25 74.75 81.75L56 63C55.5 62.5 54.75 62.5 54.25 63L35.5 81.75C35 82.25 34.25 82.5 33.75 82.5C33 82.5 32.5 82.25 32 81.75L28.5 78.25C28 77.75 27.75 77 27.75 76.5C27.75 76 28 75.25 28.5 74.75L47.25 56C47.75 55.5 47.75 54.75 47.25 54.25L28.5 35.5C28 35 27.75 34.25 27.75 33.75C27.75 33.25 28 32.5 28.5 32L32 28.5C32.5 28 33.25 27.75 33.75 27.75C34.25 27.75 35 28 35.5 28.5L54.25 47.25C54.75 47.75 55.5 47.75 56 47.25L74.75 28.5C75.25 28 76 27.75 76.5 27.75C77.25 27.75 77.75 28 78.25 28.5L81.75 32C82.25 32.5 82.5 33.25 82.5 33.75C82.5 34.25 82.25 35 81.75 35.5L63 54.25C62.5 54.5 62.5 55.5 63 56Z" fill="#990A2C"/>
</svg>
