<svg width="30" height="30" viewBox="0 0 30 30" fill="none" xmlns="http://www.w3.org/2000/svg">
<path d="M10.3134 15C10.3134 17.5841 12.416 19.6864 15.0001 19.6864C17.5842 19.6864 19.6865 17.5841 19.6865 15C19.6865 12.4159 17.5842 10.3137 15.0001 10.3137C12.416 10.3137 10.3134 12.4159 10.3134 15ZM17.3432 15C17.3432 16.292 16.2921 17.3433 15.0001 17.3433C13.708 17.3433 12.6567 16.292 12.6567 15C12.6567 13.708 13.708 12.6567 15.0001 12.6567C16.2921 12.6567 17.3432 13.708 17.3432 15ZM26.4819 11.4853C24.5439 11.4853 22.9671 13.0618 22.9671 15C22.9671 16.9382 24.5439 18.5147 26.4819 18.5147C28.4201 18.5147 29.9969 16.9382 29.9969 15C29.9969 13.0618 28.4201 11.4853 26.4819 11.4853ZM26.4819 16.1717C25.836 16.1717 25.3102 15.6461 25.3102 15C25.3102 14.3541 25.836 13.8284 26.4819 13.8284C27.128 13.8284 27.6535 14.3541 27.6535 15C27.6535 15.6461 27.128 16.1717 26.4819 16.1717ZM3.51803 11.4853C1.58006 11.4853 0.00326975 13.0618 0.00326975 15C0.00326975 16.9382 1.58006 18.5147 3.51803 18.5147C5.45624 18.5147 7.03303 16.9382 7.03303 15C7.03303 13.0618 5.45624 11.4853 3.51803 11.4853ZM3.51803 16.1717C2.87212 16.1717 2.34637 15.6461 2.34637 15C2.34637 14.3541 2.87212 13.8284 3.51803 13.8284C4.16418 13.8284 4.6897 14.3541 4.6897 15C4.6897 15.6461 4.16418 16.1717 3.51803 16.1717ZM0.397639 10.0445C-0.451755 6.587 0.0655266 3.72026 1.89295 1.8931C3.91355 -0.12747 7.20515 -0.546782 11.1614 0.713212C12.4251 1.11559 13.7142 1.67612 14.9998 2.37558C16.2857 1.67612 17.575 1.11559 18.8385 0.713212C22.7948 -0.546553 26.0864 -0.12747 28.107 1.8931C29.9344 3.72026 30.4517 6.587 29.6023 10.0445C28.9415 9.62678 28.1919 9.3377 27.3887 9.21228C27.6256 8.14248 27.7055 7.14273 27.6185 6.27366C27.5039 5.12697 27.1109 4.21052 26.4501 3.54997C25.7895 2.88942 24.873 2.4962 23.7263 2.38153C23.4974 2.35864 23.2592 2.3472 23.0131 2.3472C21.9733 2.3472 20.7911 2.55045 19.5494 2.94595C18.8245 3.17689 18.0884 3.46689 17.3482 3.81158C19.0152 4.9434 20.646 6.29449 22.1759 7.82434C22.7939 8.44209 23.3821 9.07678 23.939 9.72337C23.2244 10.069 22.5901 10.556 22.0726 11.1475C21.5808 10.5817 21.0628 10.0248 20.519 9.48121C18.7728 7.73507 16.8957 6.24414 14.9998 5.08027C13.1042 6.24414 11.2271 7.73485 9.48096 9.48121C8.93736 10.0248 8.41893 10.5814 7.92683 11.147C7.40932 10.5558 6.7753 10.0688 6.06072 9.72314C6.61783 9.07655 7.20629 8.44209 7.82406 7.82411C9.35393 6.29449 10.9847 4.9434 12.6517 3.81158C11.9115 3.46689 11.1754 3.17667 10.4505 2.94595C8.91515 2.45683 7.47066 2.26183 6.27359 2.38153C5.12687 2.4962 4.21041 2.88942 3.54985 3.54997C2.88906 4.21075 2.49606 5.1272 2.38139 6.27366C2.29441 7.14273 2.37429 8.14248 2.61119 9.21228C1.80803 9.3377 1.05843 9.62701 0.397639 10.0445ZM29.6025 19.9555C30.4517 23.413 29.9344 26.2798 28.1072 28.1069C26.8513 29.3628 25.1042 29.9998 23.0124 30C21.738 30 20.3361 29.7638 18.8385 29.2868C17.575 28.8844 16.286 28.3239 15.0001 27.6242C13.7142 28.3239 12.4251 28.8844 11.1617 29.2868C9.6643 29.7636 8.26191 30 6.98771 30C4.89547 30 3.14884 29.3628 1.89295 28.1069C0.0655266 26.2798 -0.451755 23.413 0.397639 19.9555C1.05843 20.3732 1.80803 20.6625 2.61119 20.7877C2.37429 21.8578 2.29441 22.8573 2.38139 23.7264C2.49606 24.873 2.88906 25.7895 3.54985 26.45C4.21041 27.1108 5.12687 27.5038 6.27359 27.6185C7.47066 27.738 8.91515 27.543 10.4505 27.0541C11.1756 26.8231 11.9115 26.5331 12.6517 26.1884C10.9847 25.0566 9.35393 23.7055 7.82406 22.1757C7.20629 21.5579 6.61783 20.9235 6.06095 20.2769C6.77553 19.931 7.40954 19.4444 7.92705 18.853C8.41916 19.4186 8.93736 19.9752 9.48096 20.5188C11.2274 22.2649 13.1042 23.7559 15.0001 24.9197C16.8957 23.7559 18.7728 22.2652 20.519 20.5188C21.0628 19.9752 21.581 19.4186 22.0729 18.8528C22.5904 19.4442 23.2244 19.931 23.939 20.2769C23.3821 20.9235 22.7939 21.5579 22.1759 22.1759C20.6462 23.7055 19.0152 25.0566 17.3484 26.1884C18.0887 26.5331 18.8245 26.8231 19.5496 27.0541C21.085 27.5432 22.5295 27.7382 23.7266 27.6185C24.873 27.5038 25.7895 27.1108 26.4503 26.45C27.1109 25.7895 27.5041 24.873 27.6188 23.7264C27.7055 22.8573 27.6256 21.8578 27.389 20.7877C28.1921 20.6623 28.9415 20.373 29.6025 19.9555Z" fill="#3343D5"/>
</svg>
