<svg width="108" height="106" viewBox="0 0 108 106" fill="none" xmlns="http://www.w3.org/2000/svg">
<path d="M60.5598 61.2051C59.7313 61.2051 59.0598 61.8766 59.0598 62.7051C59.0598 63.5335 59.7313 64.2051 60.5598 64.2051V61.2051ZM84.4391 62.7051V64.2051L84.4465 64.2051L84.4391 62.7051ZM78.453 20.14L77.0439 20.6543L77.5211 21.9617L78.8605 21.5836L78.453 20.14ZM52.4265 2.00023L52.4203 0.500224L52.412 0.500304L52.4265 2.00023ZM25.6191 24.4389L25.3693 25.9179L26.8189 26.1628L27.0928 24.7183L25.6191 24.4389ZM22.073 24.1458L22.0303 25.6452L22.0534 25.6458L22.0765 25.6458L22.073 24.1458ZM2 43.4254L0.500125 43.4061L0.499875 43.4254L0.500125 43.4448L2 43.4254ZM22.073 62.7051V61.2051H22.0516L22.0303 61.2057L22.073 62.7051ZM47.5465 64.2051C48.3749 64.2051 49.0465 63.5335 49.0465 62.7051C49.0465 61.8766 48.3749 61.2051 47.5465 61.2051V64.2051ZM60.5497 12.0274C59.7924 11.6916 58.9062 12.0333 58.5704 12.7906C58.2346 13.548 58.5763 14.4341 59.3336 14.7699L60.5497 12.0274ZM69.4413 23.4944L70.8567 22.9978L70.8519 22.9841L70.8468 22.9704L69.4413 23.4944ZM81.2184 29.6822L81.6135 31.1292L81.6154 31.1287L81.2184 29.6822ZM91.7591 31.7339L90.8487 32.926L90.8567 32.9321L91.7591 31.7339ZM95.6956 37.2703L94.2676 37.7294L94.2713 37.7408L94.2751 37.7521L95.6956 37.2703ZM84.4066 53.0652V54.5653L84.4087 54.5652L84.4066 53.0652ZM54.0531 53.0652H52.5531V54.5652H54.0531V53.0652ZM55.5531 53.3909C55.5531 52.5625 54.8816 51.8909 54.0531 51.8909C53.2247 51.8909 52.5531 52.5625 52.5531 53.3909H55.5531ZM52.5531 104C52.5531 104.828 53.2247 105.5 54.0531 105.5C54.8816 105.5 55.5531 104.828 55.5531 104H52.5531ZM45.3377 68.9254C45.3377 68.0969 44.6661 67.4254 43.8377 67.4254C43.0093 67.4254 42.3377 68.0969 42.3377 68.9254H45.3377ZM42.3377 96.0862C42.3377 96.9146 43.0093 97.5862 43.8377 97.5862C44.6661 97.5862 45.3377 96.9146 45.3377 96.0862H42.3377ZM35.0897 68.9254C35.0897 68.0969 34.4182 67.4254 33.5897 67.4254C32.7613 67.4254 32.0897 68.0969 32.0897 68.9254H35.0897ZM32.0897 88.1399C32.0897 88.9683 32.7613 89.6399 33.5897 89.6399C34.4182 89.6399 35.0897 88.9683 35.0897 88.1399H32.0897ZM24.8743 68.9254C24.8743 68.0969 24.2027 67.4254 23.3743 67.4254C22.5459 67.4254 21.8743 68.0969 21.8743 68.9254H24.8743ZM21.8743 80.2261C21.8743 81.0545 22.5459 81.7261 23.3743 81.7261C24.2027 81.7261 24.8743 81.0545 24.8743 80.2261H21.8743ZM55.5531 19.7492C55.5531 18.9208 54.8816 18.2492 54.0531 18.2492C53.2247 18.2492 52.5531 18.9208 52.5531 19.7492H55.5531ZM45.3377 20.0793C45.3377 19.2508 44.6661 18.5793 43.8377 18.5793C43.0093 18.5793 42.3377 19.2508 42.3377 20.0793H45.3377ZM42.3377 50.9528C42.3377 51.7812 43.0093 52.4528 43.8377 52.4528C44.6661 52.4528 45.3377 51.7812 45.3377 50.9528H42.3377ZM35.0897 28.221C35.0897 27.3926 34.4182 26.721 33.5897 26.721C32.7613 26.721 32.0897 27.3926 32.0897 28.221H35.0897ZM32.0897 50.9528C32.0897 51.7812 32.7613 52.4528 33.5897 52.4528C34.4182 52.4528 35.0897 51.7812 35.0897 50.9528H32.0897ZM24.8743 32.9758C24.8743 32.1474 24.2027 31.4758 23.3743 31.4758C22.5459 31.4758 21.8743 32.1474 21.8743 32.9758H24.8743ZM21.8743 50.9528C21.8743 51.7812 22.5459 52.4528 23.3743 52.4528C24.2027 52.4528 24.8743 51.7812 24.8743 50.9528H21.8743ZM14.6264 39.6802C14.6264 38.8518 13.9548 38.1802 13.1264 38.1802C12.2979 38.1802 11.6264 38.8518 11.6264 39.6802H14.6264ZM11.6264 48.1802C11.6264 49.0086 12.2979 49.6802 13.1264 49.6802C13.9548 49.6802 14.6264 49.0086 14.6264 48.1802H11.6264ZM60.5598 64.2051H84.4391V61.2051H60.5598V64.2051ZM84.4465 64.2051C87.7524 64.1888 91.0164 63.4646 94.0194 62.081L92.764 59.3563C90.1501 60.5606 87.3091 61.191 84.4318 61.2051L84.4465 64.2051ZM94.0194 62.081C97.0224 60.6975 99.6946 58.6867 101.857 56.1839L99.5866 54.2227C97.7043 56.4017 95.3779 58.152 92.764 59.3563L94.0194 62.081ZM101.857 56.1839C104.019 53.681 105.621 50.7441 106.555 47.5703L103.677 46.7231C102.864 49.4866 101.469 52.0437 99.5866 54.2227L101.857 56.1839ZM106.555 47.5703C107.49 44.3966 107.735 41.0595 107.274 37.7832L104.303 38.201C104.704 41.0539 104.491 43.9597 103.677 46.7231L106.555 47.5703ZM107.274 37.7832C106.813 34.5068 105.657 31.3671 103.884 28.5748L101.351 30.1831C102.895 32.6143 103.902 35.3481 104.303 38.201L107.274 37.7832ZM103.884 28.5748C102.11 25.7825 99.7605 23.4023 96.992 21.5942L95.3516 24.106C97.7616 25.68 99.8074 27.752 101.351 30.1831L103.884 28.5748ZM96.992 21.5942C94.2234 19.7861 91.1002 18.592 87.8323 18.0922L87.3787 21.0577C90.223 21.4928 92.9415 22.5321 95.3516 24.106L96.992 21.5942ZM87.8323 18.0922C84.5643 17.5924 81.2274 17.7984 78.0456 18.6964L78.8605 21.5836C81.6299 20.802 84.5343 20.6227 87.3787 21.0577L87.8323 18.0922ZM79.8621 19.6258C77.8089 13.9999 74.0723 9.14451 69.1615 5.72178L67.4461 8.18297C71.8504 11.2527 75.2021 15.6077 77.0439 20.6543L79.8621 19.6258ZM69.1615 5.72178C64.2506 2.29904 58.4045 0.475588 52.4203 0.500247L52.4327 3.50022C57.799 3.47811 63.0417 5.11327 67.4461 8.18297L69.1615 5.72178ZM52.412 0.500304C45.694 0.564938 39.2061 2.95791 34.0525 7.27166L35.9781 9.57213C40.5997 5.70372 46.4173 3.55812 52.4409 3.50016L52.412 0.500304ZM34.0525 7.27166C28.8989 11.5854 25.3981 17.5532 24.1454 24.1594L27.0928 24.7183C28.2165 18.7929 31.3565 13.4406 35.9781 9.57213L34.0525 7.27166ZM25.8689 22.9598C24.6136 22.7478 23.3425 22.6428 22.0694 22.6458L22.0765 25.6458C23.1798 25.6432 24.2814 25.7342 25.3693 25.9179L25.8689 22.9598ZM22.1157 22.6464C19.3288 22.5671 16.554 23.0435 13.9529 24.0479L15.0336 26.8465C17.2632 25.9855 19.6416 25.5772 22.0303 25.6452L22.1157 22.6464ZM13.9529 24.0479C11.3518 25.0523 8.97638 26.5645 6.96486 28.4966L9.04299 30.6602C10.7675 29.0038 12.8039 27.7074 15.0336 26.8465L13.9529 24.0479ZM6.96486 28.4966C4.95334 30.4286 3.34591 32.7418 2.23608 35.3014L4.98849 36.4948C5.94017 34.2999 7.31844 32.3166 9.04299 30.6602L6.96486 28.4966ZM2.23608 35.3014C1.12625 37.861 0.536164 40.616 0.500125 43.4061L3.49987 43.4448C3.53078 41.0522 4.03682 38.6897 4.98849 36.4948L2.23608 35.3014ZM0.500125 43.4448C0.536164 46.2348 1.12625 48.9898 2.23608 51.5495L4.98849 50.356C4.03682 48.1612 3.53078 45.7987 3.49987 43.4061L0.500125 43.4448ZM2.23608 51.5495C3.34591 54.1091 4.95334 56.4223 6.96486 58.3543L9.04299 56.1907C7.31844 54.5343 5.94017 52.5509 4.98849 50.356L2.23608 51.5495ZM6.96486 58.3543C8.97638 60.2863 11.3518 61.7986 13.9529 62.803L15.0336 60.0044C12.8039 59.1434 10.7675 57.847 9.04299 56.1907L6.96486 58.3543ZM13.9529 62.803C16.554 63.8074 19.3288 64.2838 22.1157 64.2045L22.0303 61.2057C19.6416 61.2737 17.2632 60.8653 15.0336 60.0044L13.9529 62.803ZM22.073 64.2051H47.5465V61.2051H22.073V64.2051ZM59.3336 14.7699C61.3262 15.6535 63.1224 16.9267 64.6168 18.5148L66.8017 16.459C65.0334 14.5798 62.9078 13.0731 60.5497 12.0274L59.3336 14.7699ZM64.6168 18.5148C66.1112 20.103 67.2737 21.9742 68.0358 24.0184L70.8468 22.9704C69.9452 20.552 68.5699 18.3382 66.8017 16.459L64.6168 18.5148ZM68.0259 23.9911C68.9693 26.6794 70.8951 28.9107 73.4162 30.2353L74.8116 27.5795C72.9624 26.608 71.5491 24.971 70.8567 22.9978L68.0259 23.9911ZM73.4162 30.2353C75.9374 31.5599 78.8664 31.8794 81.6135 31.1292L80.8232 28.2351C78.8087 28.7853 76.6607 28.5511 74.8116 27.5795L73.4162 30.2353ZM81.6154 31.1287C83.1888 30.6968 84.8405 30.6343 86.4419 30.946L87.0151 28.0013C84.96 27.6013 82.8404 27.6815 80.8213 28.2357L81.6154 31.1287ZM86.4419 30.946C88.0434 31.2578 89.5514 31.9353 90.8487 32.926L92.6695 30.5418C91.0052 29.2707 89.0702 28.4013 87.0151 28.0013L86.4419 30.946ZM90.8567 32.9321C92.4609 34.1402 93.6525 35.8159 94.2676 37.7294L97.1236 36.8112C96.3191 34.3087 94.7605 32.1165 92.6615 30.5357L90.8567 32.9321ZM94.2751 37.7521C94.8083 39.324 94.9599 41.0005 94.7172 42.6427L97.685 43.0812C97.9972 40.9682 97.8022 38.8111 97.1161 36.7884L94.2751 37.7521ZM94.7172 42.6427C94.4746 44.285 93.8447 45.8456 92.8799 47.1956L95.3206 48.94C96.5623 47.2026 97.3728 45.1943 97.685 43.0812L94.7172 42.6427ZM92.8799 47.1956C91.9151 48.5455 90.6431 49.6458 89.1692 50.4056L90.5439 53.0721C92.4415 52.0939 94.0788 50.6774 95.3206 48.94L92.8799 47.1956ZM89.1692 50.4056C87.6954 51.1655 86.0621 51.5629 84.4045 51.5653L84.4087 54.5652C86.5433 54.5623 88.6464 54.0504 90.5439 53.0721L89.1692 50.4056ZM84.4066 51.5652H54.0531V54.5652H84.4066V51.5652ZM52.5531 53.3909V104H55.5531V53.3909H52.5531ZM42.3377 68.9254V96.0862H45.3377V68.9254H42.3377ZM32.0897 68.9254V88.1399H35.0897V68.9254H32.0897ZM21.8743 68.9254V80.2261H24.8743V68.9254H21.8743ZM52.5531 19.7492V53.0652H55.5531V19.7492H52.5531ZM42.3377 20.0793V50.9528H45.3377V20.0793H42.3377ZM32.0897 28.221V50.9528H35.0897V28.221H32.0897ZM21.8743 32.9758V50.9528H24.8743V32.9758H21.8743ZM11.6264 39.6802V48.1802H14.6264V39.6802H11.6264Z" fill="#272727"/>
</svg>
