<svg width="36" height="35" viewBox="0 0 36 35" fill="none" xmlns="http://www.w3.org/2000/svg">
<path d="M20.0286 26.8413C12.935 26.059 9.38821 22.4616 9.38821 16.0491V2.5516C6.1288 4.53799 3.60815 7.5355 2.21036 11.0874C0.81257 14.6392 0.614281 18.5507 1.64571 22.2257C2.67714 25.9007 4.88173 29.1377 7.92355 31.4436C10.9654 33.7494 14.6776 34.9976 18.4946 34.9979C19.0096 34.9979 19.5192 34.9759 20.0237 34.9319L20.0286 26.8413Z" fill="#000105"/>
<path d="M17.1046 8.40593C18.5961 8.12991 20.1332 8.2352 21.5731 8.71203C23.013 9.18887 24.3091 10.0218 25.3411 11.1335C26.3731 12.2451 27.1074 13.5995 27.476 15.0709C27.8446 16.5422 27.8355 18.0829 27.4494 19.5498C29.4856 18.5731 30.5056 16.7803 30.5095 14.1714V4.77046C27.2651 1.70119 22.9668 -0.00629694 18.5007 1.74509e-05C18.031 1.74509e-05 17.5657 0.0184083 17.1046 0.0551899V8.40593Z" fill="#000105"/>
<path d="M27.7401 26.8415V34.9981H35.9953V23.1095C34.2633 25.1745 31.5115 26.4185 27.7401 26.8415Z" fill="#000105"/>
</svg>
