<svg width="122" height="30" viewBox="0 0 122 30" fill="none" xmlns="http://www.w3.org/2000/svg">
<path d="M34.5612 8.63371H31.316V6.93695C31.316 6.50931 31.4746 6.15065 31.8208 5.84716C32.1525 5.54368 32.5708 5.39193 33.0756 5.39193C33.6669 5.39193 34.1573 5.4885 34.5467 5.66783V2.42605L34.2294 2.32949C33.9987 2.26051 33.6525 2.19154 33.2054 2.12257C32.7727 2.0398 32.3256 2.01221 31.8929 2.01221C28.8352 2.01221 27.3064 3.6124 27.3064 6.8128V8.64751H25.2439V12.041H27.3064V22.0698H31.3016V12.041H34.5467L34.5612 8.63371Z" fill="#2E2E2E"/>
<path d="M44.91 22.0561H48.8907V13.4343C48.8907 11.8617 48.3138 10.5512 47.16 9.50278C46.0061 8.45438 44.5061 7.93018 42.6888 7.93018C41.9821 7.93018 41.2898 8.04053 40.6119 8.23366C39.9485 8.42679 39.4004 8.64751 38.9821 8.88202C38.5783 9.11653 38.1889 9.37863 37.8427 9.68212C37.4965 9.9856 37.2658 10.2063 37.1648 10.3305C37.0639 10.4546 36.9773 10.5512 36.9196 10.6202L39.1263 12.7308L39.4581 12.3997C39.6888 12.1514 40.0638 11.9169 40.5975 11.6824C41.1456 11.4479 41.7369 11.3237 42.386 11.3237C43.1792 11.3237 43.7994 11.5168 44.2321 11.8755C44.6792 12.2479 44.8956 12.717 44.8956 13.2964L40.309 14.0827C38.9821 14.3172 37.9292 14.8138 37.1648 15.5587C36.4148 16.3174 36.0254 17.2555 36.0254 18.3866C36.0254 19.4902 36.4869 20.4145 37.3812 21.187C38.2898 21.9595 39.4581 22.3319 40.9004 22.3319C41.6504 22.3319 42.3715 22.1802 43.0638 21.8767C43.7561 21.5732 44.2177 21.3249 44.4196 21.1318C44.6215 20.9387 44.7802 20.7869 44.8956 20.649L44.91 22.0561ZM41.9388 19.2281C40.6696 19.2281 40.0206 18.7591 40.0206 17.821C40.0206 16.952 40.5687 16.4278 41.6504 16.2622L44.8956 15.6966V16.1243C44.8956 17.1037 44.6359 17.8624 44.1023 18.4142C43.5686 18.966 42.8475 19.2281 41.9388 19.2281Z" fill="#2E2E2E"/>
<path d="M51.2567 15.1311C51.2567 17.0623 52.0211 18.7453 53.5788 20.18C55.1221 21.6146 56.9538 22.3319 59.074 22.3319C59.824 22.3319 60.5451 22.2354 61.223 22.0285C61.9009 21.8215 62.449 21.6008 62.8672 21.3525C63.2999 21.1042 63.6893 20.8283 64.0499 20.511C64.4249 20.1938 64.6557 19.973 64.7566 19.8351C64.8576 19.6971 64.9297 19.6006 64.9874 19.5178L62.622 17.1175L62.2326 17.5865C61.973 17.89 61.5403 18.1935 60.949 18.497C60.3576 18.8005 59.7374 18.9522 59.074 18.9522C58.0355 18.9522 57.1413 18.5798 56.3769 17.8348C55.6269 17.0899 55.2374 16.1933 55.2374 15.1449C55.2374 14.0965 55.6269 13.186 56.3769 12.4411C57.1269 11.6962 58.0355 11.3237 59.074 11.3237C59.7374 11.3237 60.3576 11.503 60.949 11.8341C61.5403 12.1652 61.9297 12.4411 62.1028 12.648C62.2759 12.8687 62.4057 13.0343 62.4778 13.1584L64.9874 10.7581L64.7711 10.4684C64.6268 10.2753 64.3816 10.027 64.0355 9.75109C63.7038 9.47519 63.3143 9.21309 62.8816 8.9372C62.449 8.6613 61.9009 8.42679 61.223 8.23366C60.5451 8.04053 59.824 7.93018 59.074 7.93018C56.9538 7.93018 55.1221 8.6613 53.5644 10.096C52.0211 11.5306 51.2567 13.2136 51.2567 15.1311Z" fill="#2E2E2E"/>
<path d="M69.7395 6.66105C69.7395 7.21285 69.5809 7.65428 69.2635 7.98536C68.9462 8.33023 68.5568 8.49576 68.1097 8.49576H66.7828V11.8893H69.2924V17.5314C69.2924 20.7318 70.8068 22.3319 73.8645 22.3319C74.8453 22.3457 75.7395 22.2078 76.5328 21.9181V18.6625L76.3597 18.7177C76.2299 18.7729 76.0424 18.8281 75.7972 18.8832C75.552 18.9384 75.3068 18.9522 75.0472 18.9522C74.528 18.9522 74.1097 18.8005 73.778 18.497C73.4462 18.1935 73.2876 17.8348 73.2876 17.3934V11.8893H76.2299V8.49576H73.2876V4.12281H69.7395V6.66105Z" fill="#2E2E2E"/>
<path d="M82.591 15.1449C82.591 14.1102 82.9372 13.2412 83.6439 12.5238C84.3362 11.8203 85.1727 11.4616 86.1391 11.4616C87.091 11.4616 87.9275 11.8203 88.6343 12.5238C89.3266 13.2412 89.6871 14.1102 89.6871 15.1449C89.6871 16.1795 89.3266 17.0485 88.6343 17.7521C87.9275 18.4556 87.091 18.8005 86.1391 18.8005C85.1727 18.8005 84.3362 18.4556 83.6439 17.7521C82.9372 17.0485 82.591 16.1795 82.591 15.1449ZM93.8121 15.1311C93.8121 13.2136 93.0477 11.5306 91.5189 10.096C89.99 8.6613 88.2016 7.94397 86.1391 7.94397C84.0622 7.94397 82.2737 8.6613 80.7449 10.096C79.216 11.5306 78.4516 13.2136 78.4516 15.1311C78.4516 17.0623 79.216 18.7453 80.7449 20.18C82.2737 21.6146 84.0622 22.3319 86.1391 22.3319C88.2016 22.3319 89.99 21.6146 91.5189 20.18C93.0477 18.7453 93.8121 17.0623 93.8121 15.1311Z" fill="#2E2E2E"/>
<path d="M104.299 8.06812H103.707C102.914 8.06812 102.164 8.24746 101.443 8.57853C100.722 8.9234 100.26 9.1993 100.044 9.40622C99.8421 9.61314 99.669 9.77868 99.5536 9.90283V8.20607H95.5729V22.0561H99.5536V15.4208C99.5536 14.2344 99.8709 13.3239 100.477 12.6894C101.082 12.0548 101.919 11.7375 102.957 11.7375C103.549 11.7513 103.996 11.8065 104.284 11.9031L104.299 8.06812Z" fill="#2E2E2E"/>
<path d="M111.386 22.8975C110.91 23.9459 110.074 24.4563 108.877 24.4563C108.285 24.4563 107.795 24.3736 107.406 24.1805V27.5602L107.694 27.6567C107.896 27.7395 108.199 27.8085 108.631 27.8775C109.05 27.9602 109.482 27.9878 109.915 27.9878C112.338 27.9878 114.199 26.2911 115.526 22.8975L121.28 8.20607H117.156L113.752 17.3934L110.362 8.20607H106.223L111.833 21.9181L111.386 22.8975Z" fill="#2E2E2E"/>
<path d="M11.0126 29.5256V21.4913C12.4124 22.3169 14.0397 22.6475 15.6422 22.4318C17.2447 22.2162 18.7328 21.4664 19.8755 20.2987C21.0183 19.131 21.7519 17.6106 21.9626 15.9736C22.1732 14.3365 21.8491 12.6741 21.0406 11.2444C20.2321 9.81463 18.9843 8.69742 17.4908 8.06604C15.9973 7.43466 14.3416 7.32442 12.7805 7.7524C11.2194 8.18038 9.8402 9.12268 8.85683 10.4331C7.87346 11.7435 7.34089 13.3488 7.34174 15C7.34174 15.0197 7.34174 15.0394 7.34174 15.0591V27.9863C8.49103 28.6678 9.72607 29.1857 11.0126 29.5256ZM14.6835 11.25C15.4095 11.25 16.1192 11.47 16.7229 11.882C17.3266 12.2941 17.7971 12.8797 18.0749 13.565C18.3527 14.2502 18.4254 15.0042 18.2838 15.7316C18.1421 16.459 17.7925 17.1272 17.2792 17.6517C16.7658 18.1761 16.1117 18.5333 15.3996 18.678C14.6875 18.8227 13.9494 18.7484 13.2787 18.4646C12.6079 18.1807 12.0346 17.7001 11.6313 17.0834C11.2279 16.4667 11.0126 15.7417 11.0126 15C11.0126 14.0055 11.3994 13.0516 12.0878 12.3484C12.7762 11.6451 13.7099 11.25 14.6835 11.25Z" fill="#3343D5"/>
<path d="M3.67088 14.941V15C3.67088 14.9803 3.67088 14.9606 3.67088 14.941Z" fill="#3343D5"/>
<path d="M22.4666 7.04908L25.061 4.39877C23.7001 3.00348 22.0827 1.89662 20.3018 1.14174C18.5209 0.38687 16.6116 -0.00113406 14.6835 1.7816e-05C6.58737 1.7816e-05 5.4279e-06 6.72939 5.4279e-06 15C-0.00307229 18.6507 1.30279 22.1762 3.67087 24.9103L3.67088 15C3.6698 12.7749 4.31496 10.5996 5.5247 8.74924C6.73445 6.89892 8.45438 5.45684 10.4668 4.60556C12.4792 3.75428 14.6936 3.53206 16.8297 3.96703C18.9658 4.402 20.9275 5.47461 22.4666 7.04908Z" fill="#3343D5"/>
<path d="M22.4666 22.951C21.4459 23.9974 20.2329 24.8275 18.8972 25.3937C17.5615 25.9598 16.1295 26.2509 14.6835 26.25V30C16.6115 30.0011 18.5208 29.6129 20.3015 28.8579C22.0823 28.1028 23.6994 26.9958 25.0601 25.6003L22.4666 22.951Z" fill="#3343D5"/>
</svg>
