<svg width="114" height="28" viewBox="0 0 114 28" fill="none" xmlns="http://www.w3.org/2000/svg">
<path d="M32.2572 8.05814H29.2283V6.47449C29.2283 6.07537 29.3764 5.74061 29.6995 5.45736C30.0091 5.1741 30.3995 5.03248 30.8706 5.03248C31.4225 5.03248 31.8802 5.1226 32.2437 5.28998V2.26432L31.9475 2.1742C31.7322 2.10982 31.4091 2.04544 30.9918 1.98107C30.5879 1.90382 30.1706 1.87807 29.7668 1.87807C26.9129 1.87807 25.486 3.37158 25.486 6.35862V8.07101H23.561V11.2383H25.486V20.5985H29.2149V11.2383H32.2437L32.2572 8.05814Z" fill="white"/>
<path d="M41.916 20.5857H45.6314V12.5387C45.6314 11.0709 45.093 9.84778 44.016 8.86927C42.9391 7.89076 41.5391 7.4015 39.843 7.4015C39.1834 7.4015 38.5372 7.50451 37.9045 7.68476C37.2853 7.86501 36.7738 8.07101 36.3834 8.28989C36.0065 8.50877 35.643 8.7534 35.3199 9.03665C34.9968 9.3199 34.7815 9.5259 34.6872 9.64178C34.593 9.75766 34.5122 9.84778 34.4584 9.91216L36.518 11.8821L36.8276 11.5731C37.043 11.3413 37.393 11.1224 37.8911 10.9035C38.4026 10.6847 38.9545 10.5688 39.5603 10.5688C40.3007 10.5688 40.8795 10.749 41.2834 11.0838C41.7007 11.4314 41.9026 11.8692 41.9026 12.4099L37.6218 13.1438C36.3834 13.3627 35.4007 13.8262 34.6872 14.5215C33.9872 15.2296 33.6238 16.1051 33.6238 17.1609C33.6238 18.1909 34.0545 19.0535 34.8892 19.7745C35.7372 20.4955 36.8276 20.8432 38.1738 20.8432C38.8738 20.8432 39.5468 20.7015 40.193 20.4183C40.8391 20.135 41.2699 19.9033 41.4584 19.723C41.6468 19.5428 41.7949 19.4011 41.9026 19.2724L41.916 20.5857ZM39.143 17.9463C37.9584 17.9463 37.3526 17.5085 37.3526 16.633C37.3526 15.8219 37.8641 15.3326 38.8738 15.1781L41.9026 14.6502V15.0493C41.9026 15.9635 41.6603 16.6716 41.1622 17.1866C40.6641 17.7016 39.9911 17.9463 39.143 17.9463Z" fill="white"/>
<path d="M47.8396 14.1223C47.8396 15.9249 48.5531 17.4956 50.0069 18.8346C51.4473 20.1737 53.1569 20.8432 55.1358 20.8432C55.8358 20.8432 56.5088 20.753 57.1415 20.5599C57.7742 20.3668 58.2858 20.1608 58.6761 19.929C59.08 19.6973 59.4435 19.4398 59.78 19.1436C60.13 18.8475 60.3454 18.6415 60.4396 18.5128C60.5338 18.384 60.6011 18.2939 60.655 18.2166L58.4473 15.9764L58.0838 16.4141C57.8415 16.6974 57.4377 16.9806 56.8858 17.2639C56.3338 17.5471 55.755 17.6887 55.1358 17.6887C54.1665 17.6887 53.3319 17.3411 52.6185 16.6459C51.9185 15.9506 51.555 15.1137 51.555 14.1352C51.555 13.1567 51.9185 12.3069 52.6185 11.6117C53.3185 10.9164 54.1665 10.5688 55.1358 10.5688C55.755 10.5688 56.3338 10.7362 56.8858 11.0452C57.4377 11.3542 57.8011 11.6117 57.9627 11.8048C58.1242 12.0108 58.2454 12.1653 58.3127 12.2812L60.655 10.0409L60.4531 9.77053C60.3184 9.59028 60.0896 9.35853 59.7665 9.10102C59.4569 8.84352 59.0935 8.59889 58.6896 8.34139C58.2858 8.08389 57.7742 7.86501 57.1415 7.68476C56.5088 7.50451 55.8358 7.4015 55.1358 7.4015C53.1569 7.4015 51.4473 8.08389 49.9935 9.4229C48.5531 10.7619 47.8396 12.3327 47.8396 14.1223Z" fill="white"/>
<path d="M65.0903 6.21699C65.0903 6.732 64.9422 7.144 64.646 7.45301C64.3499 7.77488 63.9864 7.92939 63.5691 7.92939H62.3307V11.0967H64.673V16.3626C64.673 19.3496 66.0864 20.8432 68.9403 20.8432C69.8556 20.856 70.6903 20.7273 71.4306 20.4569V17.4184L71.2691 17.4699C71.1479 17.5214 70.9729 17.5729 70.7441 17.6244C70.5153 17.6759 70.2864 17.6887 70.0441 17.6887C69.5595 17.6887 69.1691 17.5471 68.8595 17.2639C68.5499 16.9806 68.4018 16.6459 68.4018 16.2339V11.0967H71.1479V7.92939H68.4018V3.84796H65.0903V6.21699Z" fill="white"/>
<path d="M77.085 14.1352C77.085 13.1696 77.4081 12.3584 78.0677 11.6889C78.7138 11.0323 79.4946 10.6975 80.3965 10.6975C81.285 10.6975 82.0658 11.0323 82.7254 11.6889C83.3715 12.3584 83.7081 13.1696 83.7081 14.1352C83.7081 15.1008 83.3715 15.912 82.7254 16.5686C82.0658 17.2252 81.285 17.5471 80.3965 17.5471C79.4946 17.5471 78.7138 17.2252 78.0677 16.5686C77.4081 15.912 77.085 15.1008 77.085 14.1352ZM87.558 14.1223C87.558 12.3327 86.8446 10.7619 85.4177 9.4229C83.9907 8.08389 82.3215 7.41438 80.3965 7.41438C78.4581 7.41438 76.7889 8.08389 75.3619 9.4229C73.935 10.7619 73.2216 12.3327 73.2216 14.1223C73.2216 15.9249 73.935 17.4956 75.3619 18.8346C76.7889 20.1737 78.4581 20.8432 80.3965 20.8432C82.3215 20.8432 83.9907 20.1737 85.4177 18.8346C86.8446 17.4956 87.558 15.9249 87.558 14.1223Z" fill="white"/>
<path d="M97.3456 7.53026H96.7937C96.0533 7.53026 95.3533 7.69763 94.6803 8.00664C94.0072 8.32852 93.5764 8.58602 93.3745 8.77915C93.186 8.97227 93.0245 9.12677 92.9168 9.24265V7.65901H89.2014V20.5857H92.9168V14.3927C92.9168 13.2854 93.213 12.4357 93.7783 11.8434C94.3437 11.2512 95.1245 10.955 96.0937 10.955C96.6456 10.9679 97.0629 11.0194 97.3322 11.1095L97.3456 7.53026Z" fill="white"/>
<path d="M103.961 21.371C103.516 22.3496 102.736 22.8259 101.618 22.8259C101.066 22.8259 100.609 22.7487 100.245 22.5684V25.7228L100.514 25.813C100.703 25.8902 100.986 25.9546 101.389 26.019C101.78 26.0962 102.184 26.122 102.588 26.122C104.849 26.122 106.586 24.5383 107.824 21.371L113.195 7.65901H109.345L106.168 16.2339L103.005 7.65901H99.1414L104.378 20.4569L103.961 21.371Z" fill="white"/>
<path d="M10.2784 27.5572V20.0585C11.5849 20.8291 13.1038 21.1376 14.5994 20.9364C16.0951 20.7351 17.4839 20.0353 18.5505 18.9454C19.6171 17.8556 20.3018 16.4366 20.4984 14.9086C20.695 13.3807 20.3925 11.8292 19.6379 10.4947C18.8833 9.16031 17.7187 8.11757 16.3247 7.52829C14.9308 6.93901 13.3855 6.83611 11.9285 7.23556C10.4714 7.63501 9.18418 8.51448 8.26637 9.73755C7.34856 10.9606 6.8515 12.4589 6.85229 14C6.85229 14.0184 6.85229 14.0368 6.85229 14.0551V26.1205C7.92497 26.7566 9.07767 27.2399 10.2784 27.5572ZM13.7046 10.5C14.3822 10.5 15.0446 10.7053 15.608 11.0899C16.1714 11.4744 16.6106 12.0211 16.8699 12.6606C17.1292 13.3002 17.1971 14.0039 17.0649 14.6828C16.9327 15.3618 16.6064 15.9854 16.1272 16.4749C15.6481 16.9644 15.0376 17.2977 14.373 17.4328C13.7084 17.5678 13.0195 17.4985 12.3934 17.2336C11.7674 16.9687 11.2323 16.5201 10.8558 15.9445C10.4794 15.3689 10.2784 14.6922 10.2784 14C10.2784 13.0717 10.6394 12.1815 11.2819 11.5251C11.9244 10.8688 12.7959 10.5 13.7046 10.5Z" fill="#3343D5"/>
<path d="M3.42615 13.9449V14C3.42615 13.9816 3.42615 13.9633 3.42615 13.9449Z" fill="#3343D5"/>
<path d="M20.9688 6.57913L23.3902 4.1055C22.1201 2.80324 20.6105 1.77016 18.9483 1.06561C17.2862 0.361064 15.5041 -0.0010727 13.7046 2.38671e-06C6.14821 2.38671e-06 5.06604e-06 6.28075 5.06604e-06 14C-0.00286747 17.4073 1.21593 20.6978 3.42614 23.2496L3.42615 14C3.42515 11.9233 4.02729 9.89291 5.15639 8.16594C6.28548 6.43898 7.89075 5.09304 9.769 4.29851C11.6472 3.50398 13.714 3.29657 15.7077 3.70255C17.7014 4.10852 19.5324 5.10962 20.9688 6.57913Z" fill="#3343D5"/>
<path d="M20.9688 21.4209C20.0162 22.3976 18.884 23.1723 17.6374 23.7008C16.3908 24.2292 15.0542 24.5008 13.7046 24.5V28C15.5041 28.001 17.286 27.6387 18.9481 26.934C20.6101 26.2293 22.1195 25.1961 23.3894 23.8936L20.9688 21.4209Z" fill="#3343D5"/>
</svg>
