<svg width="296" height="133" viewBox="0 0 296 133" fill="none" xmlns="http://www.w3.org/2000/svg">
<path d="M15.9242 32.2769C15.9242 26.581 17.823 21.7481 21.707 17.8214C25.5477 13.8946 30.2516 11.9097 35.7755 11.9097C41.2993 11.9097 46.0032 13.8946 49.844 17.8214C53.7279 21.7481 55.6268 26.581 55.6268 32.2769C55.6268 37.9729 53.7279 42.8058 49.844 46.6894C46.0032 50.6161 41.2993 52.5579 35.7755 52.5579C30.2516 52.5579 25.5477 50.6161 21.707 46.6894C17.823 42.8058 15.9242 37.9729 15.9242 32.2769ZM2.2009 32.2338C2.2009 41.1229 5.43753 48.7606 11.9108 55.0607C18.384 61.3607 26.3677 64.5107 35.7755 64.5107C45.1833 64.5107 53.1669 61.3607 59.6402 55.0607C66.1134 48.7606 69.3501 41.1229 69.3501 32.2338C69.3501 23.3447 66.1134 15.7501 59.6402 9.45007C53.1669 3.15002 45.1833 0 35.7755 0C26.3677 0 18.384 3.15002 11.9108 9.45007C5.43753 15.7501 2.2009 23.3447 2.2009 32.2338Z" fill="white" fill-opacity="0.02"/>
<path d="M108.319 52.5579C104.521 52.5579 101.285 51.1771 98.6091 48.3723C95.9335 45.5675 94.5957 42.1154 94.5957 37.9729V1.29453H81.3471V37.9729C81.3471 45.5243 83.8933 51.8243 89.0287 56.9162C94.121 62.008 100.551 64.5539 108.276 64.5539C116.001 64.5539 122.431 62.008 127.566 56.9162C132.658 51.8243 135.248 45.5243 135.248 37.9729V1.29453H121.999V37.9729C121.999 42.1154 120.661 45.6106 117.986 48.3723C115.31 51.1771 112.073 52.5579 108.319 52.5579Z" fill="white" fill-opacity="0.02"/>
<path d="M150.74 63.1731H164.032V41.5113H175.511L187.422 63.1731H201.577L188.328 39.7421L189.45 39.138C190.227 38.7927 191.133 38.1455 192.255 37.1962C193.334 36.2468 194.413 35.1249 195.449 33.7872C196.485 32.4927 197.391 30.7235 198.168 28.566C198.944 26.4084 199.333 24.1214 199.333 21.6186C199.333 15.9227 197.348 11.133 193.334 7.20622C189.321 3.27948 184.229 1.29453 178.101 1.29453H150.697L150.74 63.1731ZM186.084 21.6186C186.084 23.8625 185.307 25.7611 183.711 27.3146C182.114 28.868 180.086 29.6016 177.669 29.6016H163.989V13.2474H177.669C180.086 13.2474 182.114 14.0672 183.711 15.6207C185.307 17.2172 186.084 19.2022 186.084 21.6186Z" fill="white" fill-opacity="0.02"/>
<path d="M32.7115 113.539C32.7115 115.869 31.8052 117.768 29.9927 119.235C28.1802 120.745 25.7204 121.479 22.5269 121.479C19.765 121.479 17.0894 120.875 14.5864 119.623C12.0402 118.415 10.4003 117.422 9.66671 116.689C8.93308 115.955 8.37207 115.351 7.98367 114.877L0 122.816L0.992565 123.895C1.55358 124.586 2.50299 125.449 3.84079 126.441C5.13544 127.477 6.68902 128.469 8.41522 129.418C10.1414 130.411 12.3855 131.274 15.0611 131.964C17.7367 132.655 20.5418 133 23.39 133C30.7263 133 36.466 131.188 40.6088 127.563C44.7517 123.938 46.8232 119.278 46.8232 113.539C46.8232 109.483 45.7874 106.16 43.6728 103.485C41.6014 100.853 39.0553 98.9539 36.0344 97.7888C33.0136 96.6669 30.0359 95.6312 27.0582 94.7682C24.0805 93.9052 21.5343 92.8696 19.4629 91.6182C17.3915 90.3668 16.3126 88.6839 16.3126 86.6127C16.3126 84.8003 17.0894 83.2038 18.643 81.9092C20.1965 80.6147 22.2248 79.9674 24.7278 79.9674C26.8424 79.9674 28.8707 80.4852 30.8558 81.4346C32.8409 82.427 34.1787 83.2038 34.7829 83.8079C35.3871 84.412 35.8618 84.8866 36.207 85.3182L44.1475 76.9037L43.3708 76.0407C42.896 75.4366 42.0761 74.703 40.9541 73.8831C39.832 73.0633 38.4942 72.2434 36.9838 71.4667C35.4734 70.69 33.5314 69.9995 31.1579 69.3954C28.8275 68.7913 26.3677 68.5324 23.8215 68.5324C17.4346 68.5324 12.2129 70.3016 8.19945 73.84C4.18603 77.3784 2.15775 81.6503 2.15775 86.6558C2.15775 90.712 3.23662 94.0347 5.30806 96.71C7.42266 99.3422 9.9688 101.241 12.9465 102.406C15.9242 103.528 18.9019 104.52 21.9227 105.383C24.9436 106.246 27.4897 107.282 29.5612 108.577C31.6326 109.828 32.7115 111.468 32.7115 113.539Z" fill="white" fill-opacity="0.02"/>
<path d="M72.0257 70.1682H58.7339V132.816H72.0257V114.355L79.9662 105.552L98.0913 132.816H113.541L88.8129 95.7999L111.771 70.1682H96.3219L72.0257 97.1376V70.1682Z" fill="white" fill-opacity="0.02"/>
<path d="M121.481 132.816H134.773V69.7838H121.481V132.816Z" fill="white" fill-opacity="0.02"/>
<path d="M192.644 132.816V119.753H163.946V69.7838H150.654V132.816H192.644Z" fill="white" fill-opacity="0.02"/>
<path d="M244.775 132.816V119.753H216.077V69.7838H202.785V132.816H244.775Z" fill="white" fill-opacity="0.02"/>
<path d="M281.888 113.539C281.888 115.869 280.982 117.768 279.17 119.235C277.357 120.745 274.897 121.479 271.704 121.479C268.942 121.479 266.266 120.875 263.763 119.623C261.217 118.415 259.577 117.422 258.844 116.689C258.11 115.955 257.549 115.351 257.161 114.877L249.177 122.816L250.169 123.895C250.73 124.586 251.68 125.449 253.018 126.441C254.312 127.477 255.866 128.469 257.592 129.418C259.318 130.411 261.562 131.274 264.238 131.964C266.914 132.655 269.719 133 272.567 133C279.903 133 285.643 131.188 289.786 127.563C293.929 123.938 296 119.278 296 113.539C296 109.483 294.964 106.16 292.85 103.485C290.778 100.853 288.232 98.9539 285.211 97.7888C282.19 96.6669 279.213 95.6312 276.235 94.7682C273.257 93.9052 270.711 92.8696 268.64 91.6182C266.568 90.3668 265.489 88.6839 265.489 86.6127C265.489 84.8003 266.266 83.2038 267.82 81.9092C269.373 80.6147 271.402 79.9674 273.905 79.9674C276.019 79.9674 278.048 80.4852 280.033 81.4346C282.018 82.427 283.356 83.2038 283.96 83.8079C284.564 84.412 285.039 84.8866 285.384 85.3182L293.324 76.9037L292.548 76.0407C292.073 75.4366 291.253 74.703 290.131 73.8831C289.009 73.0633 287.671 72.2434 286.161 71.4667C284.65 70.69 282.708 69.9995 280.335 69.3954C278.004 68.7913 275.545 68.5324 272.998 68.5324C266.611 68.5324 261.39 70.3016 257.376 73.84C253.363 77.3784 251.335 81.6503 251.335 86.6558C251.335 90.712 252.413 94.0347 254.485 96.71C256.599 99.3422 259.146 101.241 262.123 102.406C265.101 103.528 268.079 104.52 271.1 105.383C274.12 106.246 276.667 107.282 278.738 108.577C280.809 109.828 281.888 111.468 281.888 113.539Z" fill="white" fill-opacity="0.02"/>
</svg>
