<svg width="960" height="254" viewBox="0 0 960 254" fill="none" xmlns="http://www.w3.org/2000/svg">
<path d="M51.2058 2.02959C61.6836 2.02959 70.7531 3.7773 78.4142 7.27271C86.1881 10.7681 92.1593 15.7294 96.3278 22.1564C100.496 28.5835 102.581 36.1944 102.581 44.9893C102.581 53.6715 100.496 61.2825 96.3278 67.8223C92.1593 74.2493 86.1881 79.2106 78.4142 82.706C70.7531 86.0886 61.6836 87.78 51.2058 87.78H27.3774V120.423H0V2.02959H51.2058ZM49.6849 65.4544C57.9094 65.4544 64.1622 63.7067 68.4435 60.2113C72.7247 56.6031 74.8653 51.5292 74.8653 44.9893C74.8653 38.3368 72.7247 33.2628 68.4435 29.7674C64.1622 26.1592 57.9094 24.3551 49.6849 24.3551H27.3774V65.4544H49.6849Z" fill="white" fill-opacity="0.02"/>
<path d="M122.126 2.02959H149.504V98.0971H208.821V120.423H122.126V2.02959Z" fill="white" fill-opacity="0.02"/>
<path d="M303.015 95.0527H248.092L237.614 120.423H209.561L262.287 2.02959H289.327L342.223 120.423H313.493L303.015 95.0527ZM294.397 74.2493L275.638 28.9217L256.879 74.2493H294.397Z" fill="white" fill-opacity="0.02"/>
<path d="M373.059 24.3551H335.204V2.02959H438.292V24.3551H400.436V120.423H373.059V24.3551Z" fill="white" fill-opacity="0.02"/>
<path d="M480.399 24.0169V55.3064H535.154V77.2937H480.399V120.423H453.022V2.02959H542.421V24.0169H480.399Z" fill="white" fill-opacity="0.02"/>
<path d="M617.09 122.452C604.809 122.452 593.712 119.802 583.797 114.503C573.996 109.203 566.278 101.931 560.645 92.6848C555.124 83.3261 552.364 72.8399 552.364 61.2261C552.364 49.6123 555.124 39.1825 560.645 29.9365C566.278 20.5778 573.996 13.2487 583.797 7.94924C593.712 2.64975 604.809 0 617.09 0C629.37 0 640.411 2.64975 650.213 7.94924C660.015 13.2487 667.732 20.5778 673.365 29.9365C678.998 39.1825 681.815 49.6123 681.815 61.2261C681.815 72.8399 678.998 83.3261 673.365 92.6848C667.732 101.931 660.015 109.203 650.213 114.503C640.411 119.802 629.37 122.452 617.09 122.452ZM617.09 99.1119C624.075 99.1119 630.384 97.5333 636.017 94.3761C641.65 91.1062 646.044 86.596 649.199 80.8455C652.466 75.095 654.1 68.5552 654.1 61.2261C654.1 53.897 652.466 47.3572 649.199 41.6067C646.044 35.8562 641.65 31.4023 636.017 28.2452C630.384 24.9753 624.075 23.3403 617.09 23.3403C610.104 23.3403 603.795 24.9753 598.162 28.2452C592.529 31.4023 588.079 35.8562 584.811 41.6067C581.657 47.3572 580.079 53.897 580.079 61.2261C580.079 68.5552 581.657 75.095 584.811 80.8455C588.079 86.596 592.529 91.1062 598.162 94.3761C603.795 97.5333 610.104 99.1119 617.09 99.1119Z" fill="white" fill-opacity="0.02"/>
<path d="M777.763 120.423L754.948 87.4417H729.768V120.423H702.39V2.02959H753.596C764.074 2.02959 773.143 3.7773 780.805 7.27271C788.578 10.7681 794.55 15.7294 798.718 22.1564C802.887 28.5835 804.971 36.1944 804.971 44.9893C804.971 53.7843 802.83 61.3952 798.549 67.8223C794.381 74.1366 788.409 78.985 780.636 82.3677L807.168 120.423H777.763ZM777.256 44.9893C777.256 38.3368 775.115 33.2628 770.834 29.7674C766.553 26.1592 760.3 24.3551 752.075 24.3551H729.768V65.6236H752.075C760.3 65.6236 766.553 63.8195 770.834 60.2113C775.115 56.6031 777.256 51.5292 777.256 44.9893Z" fill="white" fill-opacity="0.02"/>
<path d="M934.313 120.423L934.144 49.3868L899.33 107.907H886.994L852.349 50.909V120.423H826.662V2.02959H849.307L893.584 75.6024L937.186 2.02959H959.662L960 120.423H934.313Z" fill="white" fill-opacity="0.02"/>
<path d="M27.3774 155.565V186.854H82.1321V208.842H27.3774V253.97H0V133.577H89.399V155.565H27.3774Z" fill="white" fill-opacity="0.02"/>
<path d="M180.889 226.6H125.966L115.488 253.97H87.4344L140.161 133.577H167.201L220.096 253.97H191.367L180.889 226.6ZM172.27 205.797L153.512 160.469L134.753 205.797H172.27Z" fill="white" fill-opacity="0.02"/>
<path d="M287.333 254C275.278 254 264.35 251.407 254.548 246.22C244.859 240.92 237.198 233.648 231.564 224.402C226.044 215.043 223.284 204.5 223.284 192.774C223.284 181.047 226.044 170.561 231.564 161.315C237.198 151.956 244.859 144.684 254.548 139.497C264.35 134.198 275.334 131.548 287.502 131.548C297.755 131.548 306.993 133.352 315.217 136.96C323.555 140.568 330.54 145.755 336.173 152.52L318.597 168.757C310.598 159.511 300.684 154.888 288.854 154.888C281.531 154.888 274.996 156.523 269.251 159.793C263.505 162.95 258.998 167.404 255.731 173.154C252.576 178.905 250.999 185.445 250.999 192.774C250.999 200.103 252.576 206.643 255.731 212.393C258.998 218.144 263.505 222.654 269.251 225.924C274.996 229.081 281.531 230.66 288.854 230.66C300.684 230.66 310.598 225.98 318.597 216.622L336.173 232.858C330.54 239.736 323.555 244.98 315.217 248.588C306.88 252.196 297.586 254 287.333 254Z" fill="white" fill-opacity="0.02"/>
<path d="M378.01 155.903H340.155V133.577H443.243V155.903H405.388V253.97H378.01V155.903Z" fill="white" fill-opacity="0.02"/>
<path d="M513.612 254C501.332 254 490.235 251.35 480.32 246.051C470.518 240.751 462.801 233.479 457.168 224.233C451.647 214.874 448.887 204.388 448.887 192.774C448.887 181.16 451.647 170.73 457.168 161.484C462.801 152.126 470.518 144.797 480.32 139.497C490.235 134.198 501.332 131.548 513.612 131.548C525.893 131.548 536.934 134.198 546.736 139.497C556.537 144.797 564.255 152.126 569.888 161.484C575.521 170.73 578.338 181.16 578.338 192.774C578.338 204.388 575.521 214.874 569.888 224.233C564.255 233.479 556.537 240.751 546.736 246.051C536.934 251.35 525.893 254 513.612 254ZM513.612 230.66C520.598 230.66 526.907 229.081 532.54 225.924C538.173 222.654 542.567 218.144 545.722 212.393C548.989 206.643 550.623 200.103 550.623 192.774C550.623 185.445 548.989 178.905 545.722 173.154C542.567 167.404 538.173 162.95 532.54 159.793C526.907 156.523 520.598 154.888 513.612 154.888C506.627 154.888 500.318 156.523 494.685 159.793C489.052 162.95 484.601 167.404 481.334 173.154C478.18 178.905 476.602 185.445 476.602 192.774C476.602 200.103 478.18 206.643 481.334 212.393C484.601 218.144 489.052 222.654 494.685 225.924C500.318 229.081 506.627 230.66 513.612 230.66Z" fill="white" fill-opacity="0.02"/>
<path d="M674.286 253.97L651.471 218.989H626.291V253.97H598.913V133.577H650.119C660.597 133.577 669.666 135.325 677.327 138.821C685.101 142.316 691.073 147.277 695.241 153.704C699.41 160.131 701.494 167.742 701.494 176.537C701.494 185.332 699.353 192.943 695.072 199.37C690.904 205.684 684.932 210.533 677.159 213.916L703.691 253.97H674.286ZM673.779 176.537C673.779 169.885 671.638 164.811 667.357 161.315C663.075 157.707 656.823 155.903 648.598 155.903H626.291V197.171H648.598C656.823 197.171 663.075 195.367 667.357 191.759C671.638 188.151 673.779 183.077 673.779 176.537Z" fill="white" fill-opacity="0.02"/>
<path d="M778.317 210.025V253.97H750.94V209.687L705.142 133.577H734.209L765.812 186.178L797.414 133.577H824.284L778.317 210.025Z" fill="white" fill-opacity="0.02"/>
</svg>
