<svg width="88" height="105" viewBox="0 0 88 105" fill="none" xmlns="http://www.w3.org/2000/svg">
<path d="M60.6412 84.3732H27.3359L26.1908 83.2353V36.0342C26.197 25.8432 29.7793 15.9733 36.3206 8.12477L43.1069 0H44.8702L51.6565 8.12477C58.1978 15.9733 61.7801 25.8432 61.7863 36.0342V83.2429L60.6412 84.3732ZM28.4885 82.0974H59.4962V36.0342C59.489 26.3749 56.093 17.0204 49.8931 9.58132L43.9924 2.51102L38.0916 9.58132C31.8889 17.0193 28.4903 26.374 28.4809 36.0342L28.4885 82.0974Z" fill="#272727"/>
<path d="M43.9924 55.561C41.4423 55.561 38.9496 54.8095 36.8293 53.4016C34.7091 51.9937 33.0565 49.9926 32.0807 47.6513C31.1048 45.3101 30.8495 42.7338 31.347 40.2483C31.8445 37.7628 33.0724 35.4798 34.8755 33.6878C36.6787 31.8959 38.976 30.6756 41.477 30.1812C43.9781 29.6868 46.5704 29.9405 48.9264 30.9103C51.2823 31.8801 53.2959 33.5224 54.7126 35.6295C56.1293 37.7366 56.8855 40.2138 56.8855 42.748C56.8815 46.145 55.5218 49.4017 53.1047 51.8037C50.6877 54.2058 47.4106 55.557 43.9924 55.561ZM43.9924 32.2108C41.8953 32.2108 39.8453 32.8288 38.1016 33.9867C36.358 35.1445 34.9989 36.7902 34.1964 38.7156C33.3939 40.641 33.1839 42.7597 33.5931 44.8037C34.0022 46.8477 35.012 48.7253 36.4949 50.1989C37.9777 51.6726 39.867 52.6761 41.9238 53.0827C43.9806 53.4893 46.1125 53.2806 48.05 52.4831C49.9874 51.6855 51.6434 50.335 52.8085 48.6021C53.9736 46.8693 54.5954 44.832 54.5954 42.748C54.5934 39.954 53.4756 37.275 51.4876 35.2993C49.4996 33.3236 46.8039 32.2128 43.9924 32.2108Z" fill="#272727"/>
<path d="M43.9924 48.1645C42.6532 48.1645 41.3441 47.7699 40.2306 47.0305C39.1171 46.2911 38.2493 45.2402 37.7368 44.0106C37.2243 42.7811 37.0902 41.4281 37.3515 40.1228C37.6127 38.8176 38.2576 37.6186 39.2046 36.6775C40.1515 35.7365 41.358 35.0956 42.6714 34.836C43.9849 34.5763 45.3463 34.7096 46.5835 35.2189C47.8207 35.7282 48.8782 36.5906 49.6222 37.6972C50.3662 38.8038 50.7634 40.1047 50.7634 41.4356C50.7613 43.2196 50.0473 44.93 48.7779 46.1914C47.5086 47.4529 45.7875 48.1625 43.9924 48.1645ZM43.9924 36.9825C43.1061 36.9825 42.2398 37.2437 41.5029 37.733C40.766 38.2223 40.1917 38.9178 39.8525 39.7315C39.5134 40.5452 39.4247 41.4405 39.5975 42.3043C39.7704 43.1682 40.1972 43.9616 40.8239 44.5844C41.4505 45.2072 42.249 45.6313 43.1182 45.8031C43.9874 45.9749 44.8884 45.8867 45.7071 45.5497C46.5259 45.2127 47.2257 44.6419 47.7181 43.9096C48.2105 43.1773 48.4733 42.3163 48.4733 41.4356C48.4713 40.2552 47.9985 39.1237 47.1586 38.289C46.3187 37.4543 45.1802 36.9845 43.9924 36.9825Z" fill="#272727"/>
<path d="M51.6489 50.6148C51.4223 49.5875 50.9907 48.6158 50.3797 47.7572C49.7687 46.8985 48.9907 46.1703 48.0916 45.6156L49.2901 43.6811C50.4489 44.3984 51.4513 45.3392 52.238 46.4481C53.0247 47.5569 53.5797 48.8112 53.8702 50.1369L51.6489 50.6148Z" fill="#272727"/>
<path d="M36.3206 50.3645L34.0992 49.8031C34.7481 47.2788 36.3572 45.1032 38.5878 43.7342L39.8015 45.6687C38.0732 46.727 36.8254 48.4104 36.3206 50.3645Z" fill="#272727"/>
<path d="M45.1374 47.0266H42.8473V54.4231H45.1374V47.0266Z" fill="#272727"/>
<path d="M86.8321 91.6256H70.0382L68.8931 90.4877V66.6671C68.9035 61.4031 70.7577 56.3068 74.1374 52.2534L77.5649 48.1493H79.3282L82.7557 52.2534C86.1349 56.3071 87.989 61.4032 88 66.6671V90.4877L86.8321 91.6256ZM71.1679 89.3498H85.6718V66.6671C85.6675 61.9244 83.9992 57.3316 80.9542 53.6796L78.4122 50.6452L75.8702 53.6796C72.8252 57.3316 71.157 61.9244 71.1527 66.6671L71.1679 89.3498Z" fill="#272727"/>
<path d="M67.4885 69.072C66.8777 69.0759 66.2761 68.9238 65.7414 68.6302C65.2067 68.3366 64.7569 67.9114 64.4351 67.3954L62.145 63.8223C60.4374 61.1652 59.5339 58.0765 59.542 54.9238V51.8438H61.8321V54.9238C61.8392 57.6457 62.6342 60.3081 64.1221 62.5934L66.4122 66.1665C66.5698 66.4172 66.8063 66.6092 67.0849 66.7127C67.3635 66.8162 67.6688 66.8255 67.9532 66.739C68.2377 66.6526 68.4855 66.4752 68.6582 66.2346C68.8309 65.9939 68.9188 65.7033 68.9084 65.4078H71.1985C71.2103 66.1932 70.9597 66.9604 70.4859 67.5891C70.0121 68.2178 69.3419 68.6726 68.5801 68.8823C68.2275 68.998 67.8598 69.0619 67.4885 69.072Z" fill="#272727"/>
<path d="M71.1756 88.1132H68.8855C68.8907 85.0813 67.8081 82.1468 65.8321 79.8367L64.0611 77.7809C63.895 77.5818 63.6709 77.4388 63.4197 77.3714C63.1685 77.304 62.9025 77.3156 62.6582 77.4046C62.4139 77.4936 62.2033 77.6555 62.0554 77.8683C61.9074 78.081 61.8294 78.334 61.8321 78.5926H59.542C59.5461 77.8736 59.7713 77.173 60.1872 76.5848C60.6032 75.9965 61.1901 75.5486 61.8693 75.301C62.5486 75.0534 63.2877 75.0181 63.9878 75.1996C64.6878 75.3811 65.3153 75.7709 65.7863 76.3167L67.5573 78.3726C69.8902 81.0888 71.173 84.5421 71.1756 88.1132Z" fill="#272727"/>
<path d="M17.9542 91.6256H1.14504L0 90.4877V66.6671C0.0109788 61.4032 1.86513 56.3071 5.24427 52.2534L8.67176 48.1493H10.4351L13.8626 52.2534C17.2423 56.3068 19.0965 61.4031 19.1069 66.6671V90.4877L17.9542 91.6256ZM2.29008 89.3498H16.7939V66.6671C16.7896 61.9244 15.1213 57.3316 12.0763 53.6796L9.53435 50.6452L6.99237 53.6796C3.95288 57.3337 2.29007 61.9263 2.29008 66.6671V89.3498Z" fill="#272727"/>
<path d="M20.4962 69.072C20.1345 69.072 19.7747 69.0209 19.4275 68.9202C18.6629 68.7133 17.9893 68.2597 17.5126 67.6308C17.0358 67.0018 16.783 66.2332 16.7939 65.4458H19.084C19.0735 65.7412 19.1615 66.0318 19.3342 66.2725C19.5069 66.5132 19.7547 66.6905 20.0392 66.7769C20.3236 66.8634 20.6288 66.8541 20.9074 66.7506C21.1861 66.6471 21.4225 66.4551 21.5802 66.2044L23.8702 62.6313C25.3871 60.3415 26.2061 57.6651 26.229 54.9238V51.8438H28.5191V54.9238C28.4973 58.0853 27.562 61.174 25.8244 63.8223L23.5343 67.3954C23.2139 67.9092 22.7665 68.333 22.2348 68.6265C21.703 68.92 21.1045 69.0733 20.4962 69.072Z" fill="#272727"/>
<path d="M19.084 88.1132H16.7939C16.795 84.5359 18.0808 81.0765 20.4198 78.3574L22.1908 76.3016C22.6683 75.7466 23.3067 75.3518 24.0186 75.1712C24.7305 74.9906 25.4812 75.033 26.1679 75.2926C26.8534 75.5352 27.4466 75.9826 27.8661 76.5734C28.2857 77.1642 28.5111 77.8695 28.5114 78.5926H26.2214C26.2211 78.3352 26.1401 78.0844 25.9896 77.8749C25.8391 77.6655 25.6266 77.508 25.3817 77.4243C25.1337 77.3274 24.8616 77.3097 24.603 77.3736C24.3445 77.4375 24.1124 77.5799 23.9389 77.7809L22.1374 79.8367C20.1614 82.1468 19.0787 85.0813 19.084 88.1132Z" fill="#272727"/>
<path d="M34.8702 88.9022H32.5802V97.2925H34.8702V88.9022Z" fill="#272727"/>
<path d="M55.3969 88.9022H53.1069V97.2925H55.3969V88.9022Z" fill="#272727"/>
<path d="M45.1374 94.7966H42.8473V105H45.1374V94.7966Z" fill="#272727"/>
<path d="M76.9542 95.0242H74.6641V104.545H76.9542V95.0242Z" fill="#272727"/>
<path d="M82.6565 95.4794H80.3664V100.463H82.6565V95.4794Z" fill="#272727"/>
<path d="M13.313 95.0242H11.0229V104.545H13.313V95.0242Z" fill="#272727"/>
<path d="M7.61069 95.4794H5.32061V100.463H7.61069V95.4794Z" fill="#272727"/>
<path d="M51.7481 63.5113H36.2366V65.7872H51.7481V63.5113Z" fill="#272727"/>
<path d="M51.7481 70.9913H36.2366V73.2671H51.7481V70.9913Z" fill="#272727"/>
<path d="M86.4504 79.5257H70.0687V81.8015H86.4504V79.5257Z" fill="#272727"/>
<path d="M86.4504 83.0077H70.0687V85.2836H86.4504V83.0077Z" fill="#272727"/>
<path d="M17.458 79.5257H1.52672V81.8015H17.458V79.5257Z" fill="#272727"/>
<path d="M17.458 83.0077H1.52672V85.2836H17.458V83.0077Z" fill="#272727"/>
</svg>
