<svg width="27" height="35" viewBox="0 0 27 35" fill="none" xmlns="http://www.w3.org/2000/svg">
<path d="M26.0277 19.236C25.4012 18.6274 24.5678 18.2923 23.6814 18.2923C22.7947 18.2923 21.9616 18.6274 21.3348 19.236L18.9353 21.5655C18.9238 19.3967 17.5585 17.5334 15.6192 16.7331L16.7655 15.6204H19.7219C21.8637 15.6204 23.606 13.9288 23.606 11.8494V3.77098C23.606 1.69163 21.8637 0 19.7219 0H7.27807C5.13635 0 3.39398 1.69163 3.39398 3.77098V11.8491C3.39398 13.9288 5.13635 15.6204 7.27807 15.6204H10.2345L11.3806 16.7331C9.44153 17.5334 8.07624 19.3967 8.06468 21.5655L5.66552 19.236C5.03871 18.6274 4.20534 18.2923 3.31862 18.2923C2.43217 18.2923 1.5988 18.6274 0.971987 19.236C0.345174 19.8445 0 20.6536 0 21.5142C0 22.3749 0.345174 23.1842 0.971987 23.7925L7.91891 30.5371V33.9746C7.91891 34.541 8.39171 35 8.97506 35H18.0249C18.6083 35 19.0811 34.541 19.0811 33.9746V30.5371L26.0277 23.7928C26.6546 23.1842 27 22.3749 27 21.5142C27 20.6536 26.6548 19.8445 26.0277 19.236ZM7.27807 13.5696C6.30114 13.5696 5.50627 12.7979 5.50627 11.8491V3.77098C5.50627 2.82249 6.30114 2.05078 7.27807 2.05078H19.7219C20.6989 2.05078 21.4937 2.82249 21.4937 3.77098V11.8491C21.4937 12.7979 20.6989 13.5696 19.7219 13.5696H16.3279C16.048 13.5696 15.7792 13.6775 15.5812 13.87L13.5 15.8906L11.4188 13.87C11.2205 13.6775 10.952 13.5696 10.6718 13.5696H7.27807ZM13.5 18.3662C15.3326 18.3662 16.8236 19.8138 16.8236 21.593C16.8236 23.3725 15.3326 24.8201 13.5 24.8201C11.6671 24.8201 10.1762 23.3725 10.1762 21.593C10.1762 19.8138 11.6671 18.3662 13.5 18.3662ZM24.5343 22.3426L17.2782 29.3873C17.0802 29.5796 16.9688 29.8405 16.9688 30.1126V32.9492H10.0312V30.1123C10.0312 29.8405 9.91982 29.5796 9.72179 29.3873L2.46572 22.3426C2.23772 22.1212 2.1123 21.8272 2.1123 21.5145C2.1123 21.2016 2.23772 20.9073 2.46572 20.6862C2.69373 20.4648 2.99655 20.3431 3.31862 20.3431C3.64096 20.3431 3.94378 20.4648 4.17179 20.6862L10.2325 26.5707C10.4306 26.763 10.6993 26.8708 10.9793 26.8708H16.0205C16.3007 26.8708 16.5692 26.763 16.7672 26.5707L22.8282 20.6862C23.0559 20.4651 23.359 20.3431 23.6814 20.3431C24.0035 20.3431 24.3063 20.4648 24.5343 20.6862C24.762 20.9073 24.8877 21.2016 24.8877 21.5142C24.8877 21.8272 24.762 22.1212 24.5343 22.3426Z" fill="#3343D5"/>
<path d="M12.5002 10.777C12.7703 10.777 13.0407 10.6769 13.247 10.4769L17.2466 6.59348C17.6591 6.1932 17.6591 5.54405 17.2466 5.14351C16.8343 4.74297 16.1654 4.74297 15.7528 5.14351L12.5002 8.30166L11.2472 7.08508C10.8349 6.6848 10.166 6.6848 9.75342 7.08508C9.34114 7.48562 9.34114 8.13477 9.75342 8.53531L11.7532 10.4769C11.9595 10.6769 12.2299 10.777 12.5002 10.777Z" fill="#3343D5"/>
</svg>
