<svg width="443" height="433" viewBox="0 0 443 433" fill="none" xmlns="http://www.w3.org/2000/svg">
<g opacity="0.15">
<path d="M402.5 375.8C393.337 375.789 384.553 372.145 378.074 365.666C371.595 359.187 367.951 350.403 367.94 341.24H370.07C370.219 349.744 373.702 357.849 379.769 363.809C385.835 369.77 394 373.11 402.505 373.11C411.01 373.11 419.175 369.77 425.241 363.809C431.308 357.849 434.791 349.744 434.94 341.24V224H437.07V341.24C437.059 350.404 433.414 359.19 426.932 365.669C420.451 372.149 411.664 375.792 402.5 375.8Z" fill="white"/>
<path d="M370.06 288.69H367.93V287H370.06V288.69ZM370.06 284.13H367.93V281.3H370.06V284.13ZM370.06 278.46H367.93V275.63H370.06V278.46ZM370.06 272.79H367.93V270H370.06V272.79ZM370.06 267.12H367.93V264.29H370.06V267.12ZM370.06 261.45H367.93V258.61H370.06V261.45ZM370.06 255.78H367.93V252.95H370.06V255.78ZM370.06 250.11H367.93V247.27H370.06V250.11ZM370.06 244.44H367.93V241.61H370.06V244.44ZM370.06 238.77H367.93V235.94H370.06V238.77ZM370.06 233.1H367.93V230.27H370.06V233.1ZM370.06 227.43H367.93V224.6H370.06V227.43ZM370.06 221.76H367.93V218.93H370.06V221.76ZM370.06 216.09H367.93V213.26H370.06V216.09ZM370.06 210.42H367.93V207.59H370.06V210.42ZM370.06 204.75H367.93V201.92H370.06V204.75ZM370.06 199.08H367.93V196.24H370.06V199.08ZM370.06 193.41H367.93V190.58H370.06V193.41ZM370.06 187.74H367.93V184.91H370.06V187.74ZM370.06 182.07H367.93V179.23H370.06V182.07ZM370.06 176.4H367.93V173.57H370.06V176.4ZM370.06 170.73H367.93V167.9H370.06V170.73ZM370.06 165.06H367.93V162.23H370.06V165.06ZM370.06 159.39H367.93V156.56H370.06V159.39ZM370.06 153.72H367.93V150.9H370.06V153.72ZM370.06 148.05H367.93V145.22H370.06V148.05ZM370.06 142.38H367.93V139.55H370.06V142.38ZM370.06 136.71H367.93V133.88H370.06V136.71ZM370.06 131.04H367.93V128.21H370.06V131.04ZM370.06 125.37H367.93V122.53H370.06V125.37ZM370.06 119.7H367.93V116.87H370.06V119.7ZM370.06 114.03H367.93V111.2H370.06V114.03ZM370.06 108.36H367.93V105.53H370.06V108.36ZM370.06 102.69H367.93V99.87H370.06V102.69ZM370.06 97.02H367.93V94.21H370.06V97.02ZM370.06 91.35H367.93V88.54H370.06V91.35ZM370.06 85.68H367.93V82.87H370.06V85.68ZM370.06 80.01H367.93V77.2H370.06V80.01ZM370.06 74.34H367.93V71.53H370.06V74.34ZM370.06 68.67H367.93V65.86H370.06V68.67ZM370.06 63H367.93V60.19H370.06V63ZM370.06 57.33H367.93V54.52H370.06V57.33ZM370.06 51.66H367.93V48.85H370.06V51.66ZM370.06 45.99H367.93V43.18H370.06V45.99ZM370.06 40.32H367.93V37.51H370.06V40.32ZM298.25 37H296.12C296.12 36 296.12 35.05 296.23 34.09L298.35 34.25C298.29 35.13 298.25 36.05 298.25 37ZM367.86 34.78C367.8 33.87 367.71 32.95 367.58 32.05L369.68 31.75C369.82 32.75 369.92 33.68 369.98 34.65L367.86 34.78ZM298.68 31.52L296.58 31.19C296.73 30.19 296.92 29.27 297.15 28.33L299.22 28.83C299 29.68 298.83 30.58 298.68 31.49V31.52ZM367.09 29.34C366.89 28.45 366.65 27.56 366.38 26.68L368.38 26.05C368.67 26.98 368.92 27.93 369.13 28.87L367.09 29.34ZM300 26.15L298 25.49C298.3 24.57 298.64 23.64 299 22.75L301 23.57C300.57 24.41 300.25 25.28 300 26.15ZM365.5 24.06C365.16 23.21 364.79 22.37 364.38 21.55L366.29 20.61C366.72 21.48 367.12 22.37 367.48 23.27L365.5 24.06ZM302.11 21.06L300.22 20.06C300.66 19.2 301.15 18.34 301.66 17.52L303.47 18.64C303 19.45 302.5 20.26 302.08 21.07L302.11 21.06ZM363.11 19.13C362.64 18.35 362.11 17.57 361.61 16.83L363.34 15.6C363.9 16.39 364.44 17.21 364.93 18.04L363.11 19.13ZM305 16.4L303.29 15.14C303.86 14.36 304.48 13.59 305.11 12.86L306.72 14.25C306.09 14.93 305.51 15.66 305 16.4ZM359.89 14.66C359.31 13.96 358.69 13.27 358.05 12.66L359.57 11.17C360.25 11.86 360.91 12.59 361.57 13.34L359.89 14.66ZM308.59 12.24L307.09 10.73C307.77 10.05 308.5 9.39 309.24 8.73L310.62 10.35C309.88 11 309.2 11.59 308.56 12.23L308.59 12.24ZM356 10.73C355.31 10.13 354.59 9.55 353.86 9L355.13 7.29C355.91 7.87 356.67 8.49 357.4 9.12L356 10.73ZM312.73 8.73L311.51 7C312.3 6.43 313.11 5.89 313.94 5.39L315 7.16C314.26 7.63 313.49 8.15 312.75 8.68L312.73 8.73ZM351.59 7.5C350.82 7.01 350.02 6.55 349.21 6.13L350.21 4.25C351.07 4.7 351.92 5.19 352.74 5.7L351.59 7.5ZM317.44 5.83L316.44 3.93C317.3 3.5 318.2 3.09 319.09 2.72L319.89 4.72C319.1 5 318.26 5.42 317.44 5.83ZM346.73 4.9C345.89 4.54 345.03 4.21 344.16 3.9L344.83 1.9C345.75 2.21 346.67 2.56 347.56 2.9L346.73 4.9ZM322.53 3.76L321.89 1.76C322.81 1.47 323.76 1.21 324.7 0.99L325.18 3C324.29 3.23 323.4 3.48 322.53 3.76ZM341.53 3.16C340.64 2.94 339.74 2.75 338.84 2.6L339.19 0.5C340.19 0.66 341.1 0.86 342.05 1.09L341.53 3.16ZM327.88 2.52L327.56 0.42C328.56 0.28 329.49 0.17 330.46 0.1L330.61 2.22C329.7 2.28 328.78 2.38 327.88 2.51V2.52ZM336.11 2.26C335.21 2.18 334.28 2.14 333.36 2.13V0C334.36 0 335.36 0.05 336.27 0.14L336.11 2.26Z" fill="white"/>
<path d="M155.06 235.62H152.93V232.79H155.06V235.62ZM155.06 229.95H152.93V227.12H155.06V229.95ZM155.06 224.28H152.93V221.45H155.06V224.28ZM155.06 218.61H152.93V215.77H155.06V218.61ZM155.06 212.94H152.93V210.1H155.06V212.94ZM155.06 207.27H152.93V204.44H155.06V207.27ZM155.06 201.6H152.93V198.76H155.06V201.6ZM155.06 195.93H152.93V193.1H155.06V195.93ZM155.06 190.26H152.93V187.43H155.06V190.26ZM155.06 184.59H152.93V181.76H155.06V184.59ZM155.06 178.92H152.93V176.09H155.06V178.92ZM155.06 173.25H152.93V170.42H155.06V173.25ZM155.06 167.58H152.93V164.75H155.06V167.58ZM155.06 161.91H152.93V159.08H155.06V161.91ZM155.06 156.24H152.93V153.41H155.06V156.24ZM155.06 150.57H152.93V147.74H155.06V150.57ZM155.06 144.9H152.93V142.07H155.06V144.9ZM155.06 139.23H152.93V136.4H155.06V139.23ZM155.06 133.56H152.93V130.73H155.06V133.56ZM155.06 127.89H152.93V125.06H155.06V127.89ZM155.06 122.22H152.93V119.39H155.06V122.22ZM155.06 116.55H152.93V113.72H155.06V116.55ZM155.06 110.88H152.93V108.05H155.06V110.88ZM155.06 105.21H152.93V102.38H155.06V105.21ZM155.06 99.54H152.93V96.72H155.06V99.54ZM155.06 93.87H152.93V91H155.06V93.87ZM155.06 88.2H152.93V85.38H155.06V88.2ZM155.06 82.53H152.93V79.71H155.06V82.53ZM155.06 76.86H152.93V74H155.06V76.86ZM155.06 71.19H152.93V68.37H155.06V71.19ZM155.06 65.52H152.93V62.7H155.06V65.52ZM226.17 61.92H224.04C224.04 61.2533 224.023 60.62 223.99 60.02L226.11 59.9C226.157 60.5867 226.18 61.2667 226.18 61.94L226.17 61.92ZM155.11 59.92L153 59.81C153.06 58.81 153.15 57.86 153.28 56.91L155.39 57.2C155.26 58.1 155.17 59 155.12 59.93L155.11 59.92ZM223.73 57.29C223.61 56.39 223.45 55.48 223.26 54.58L225.34 54.13C225.54 55.08 225.71 56.04 225.84 57L223.73 57.29ZM155.86 54.48L153.79 54C154 53.05 154.25 52.1 154.53 51.18L156.53 51.8C156.3 52.7 156.07 53.6 155.87 54.49L155.86 54.48ZM222.57 51.93C222.31 51.06 222 50.18 221.67 49.33L223.67 48.55C224.02 49.45 224.35 50.38 224.67 51.31L222.57 51.93ZM157.47 49.23L155.47 48.45C155.83 47.55 156.22 46.65 156.65 45.78L158.56 46.72C158.19 47.54 157.81 48.39 157.48 49.24L157.47 49.23ZM220.57 46.82C220.17 46 219.73 45.19 219.27 44.4L221.1 43.32C221.59 44.15 222.1 45.02 222.48 45.89L220.57 46.82ZM159.9 44.31L158.07 43.22C158.57 42.39 159.07 41.56 159.66 40.77L161.41 42C160.88 42.75 160.37 43.52 159.9 44.31ZM217.77 42.1C217.25 41.36 216.68 40.62 216.1 39.92L217.74 38.56C218.36 39.31 218.96 40.09 219.51 40.88L217.77 42.1ZM163.08 39.82L161.45 38.46C162.07 37.72 162.73 36.99 163.45 36.3L164.97 37.79C164.29 38.44 163.67 39.13 163.08 39.83V39.82ZM214.26 37.82C213.63 37.17 212.95 36.53 212.26 35.93L213.66 34.33C214.39 34.97 215.1 35.65 215.78 36.33L214.26 37.82ZM166.92 35.82L165.52 34.22C166.25 33.59 167.01 32.97 167.8 32.39L169.06 34.1C168.34 34.73 167.62 35.31 166.93 35.9L166.92 35.82ZM210.12 34.17C209.39 33.62 208.63 33.1 207.85 32.62L209 30.9C209.82 31.42 210.63 31.97 211.41 32.55L210.12 34.17ZM171.33 32.55L170.21 30.75C171.03 30.24 171.89 29.75 172.75 29.31L173.75 31.2C172.93 31.7 172.12 32.16 171.35 32.64L171.33 32.55ZM205.46 31.25C204.65 30.83 203.82 30.43 202.97 30.08L203.8 28.08C204.7 28.46 205.58 28.88 206.44 29.33L205.46 31.25ZM176.2 30.03L175.38 28.03C176.28 27.65 177.19 27.31 178.11 27.03L178.77 29.03C177.93 29.44 177.07 29.76 176.22 30.12L176.2 30.03ZM200.4 29.1C199.54 28.81 198.65 28.56 197.76 28.34L198.26 26.27C199.2 26.5 200.15 26.77 201.06 27.08L200.4 29.1ZM181.4 28.32L180.9 26.25C181.84 26.02 182.8 25.83 183.76 25.68L184.09 27.78C183.23 28 182.33 28.19 181.44 28.41L181.4 28.32ZM195.05 27.8C194.15 27.66 193.24 27.54 192.32 27.47L192.49 25.35C193.49 25.43 194.43 25.55 195.39 25.7L195.05 27.8ZM186.83 27.46L186.67 25.34C187.61 25.27 188.58 25.23 189.53 25.23L189.59 27.36C188.66 27.45 187.75 27.48 186.86 27.55L186.83 27.46Z" fill="white"/>
<path d="M11.07 375.36H8.94V376.78H11.07V375.36Z" fill="white"/>
<path d="M11.06 372.44H8.94V369.52H11.07L11.06 372.44ZM11.06 366.6H8.94V363.68H11.07L11.06 366.6ZM11.06 360.76H8.94V357.84H11.07L11.06 360.76ZM11.06 354.92H8.94V352H11.07L11.06 354.92ZM11.06 349.08H8.94V346.16H11.07L11.06 349.08ZM11.06 343.24H8.94V340.32H11.07L11.06 343.24ZM11.06 337.4H8.94V334.48H11.07L11.06 337.4ZM11.06 331.56H8.94V328.64H11.07L11.06 331.56ZM11.06 325.72H8.94V322.8H11.07L11.06 325.72ZM11.06 319.88H8.94V317H11.07L11.06 319.88ZM11.06 314.04H8.94V311.12H11.07L11.06 314.04ZM11.06 308.2H8.94V305.3H11.07L11.06 308.2ZM11.06 302.36H8.94V299.44H11.07L11.06 302.36ZM11.06 296.52H8.94V293.6H11.07L11.06 296.52ZM11.06 290.68H8.94V287.76H11.07L11.06 290.68ZM11.06 284.84H8.94V282H11.07L11.06 284.84Z" fill="white"/>
<path d="M11.07 277.62H8.94V279.04H11.07V277.62Z" fill="white"/>
<path d="M326.69 166.42H324.56V71.18C324.56 62.1308 320.965 53.4523 314.566 47.0535C308.168 40.6548 299.489 37.06 290.44 37.06C281.391 37.06 272.712 40.6548 266.314 47.0535C259.915 53.4523 256.32 62.1308 256.32 71.18V148.18H254.2V71.18C254.2 61.5672 258.019 52.3482 264.816 45.5509C271.613 38.7537 280.832 34.935 290.445 34.935C300.058 34.935 309.277 38.7537 316.074 45.5509C322.871 52.3482 326.69 61.5672 326.69 71.18V166.42Z" fill="white"/>
<path d="M207.06 337.45H204.93V334.62H207.06V337.45ZM207.06 331.78H204.93V329H207.06V331.78ZM207.06 326.11H204.93V323.28H207.06V326.11ZM207.06 320.44H204.93V317.6H207.06V320.44ZM207.06 314.77H204.93V311.94H207.06V314.77ZM207.06 309.1H204.93V306.27H207.06V309.1ZM207.06 303.43H204.93V300.6H207.06V303.43ZM207.06 297.76H204.93V294.93H207.06V297.76ZM207.06 292.09H204.93V289.25H207.06V292.09ZM207.06 286.42H204.93V283.6H207.06V286.42ZM207.06 280.75H204.93V277.92H207.06V280.75ZM207.06 275.08H204.93V272.25H207.06V275.08ZM207.06 269.41H204.93V266.58H207.06V269.41ZM207.06 263.74H204.93V260.91H207.06V263.74ZM207.06 258.07H204.93V255.23H207.06V258.07ZM207.06 252.4H204.93V249.57H207.06V252.4ZM207.06 246.73H204.93V243.9H207.06V246.73ZM207.06 241.11L205 241C205.047 240.015 205.151 239.033 205.31 238.06L207.41 238.4C207.251 239.303 207.144 240.215 207.09 241.13L207.06 241.11ZM207.93 235.77L205.93 235.19C206.209 234.242 206.543 233.31 206.93 232.4L208.93 233.21C208.57 234.051 208.259 234.913 208 235.79L207.93 235.77ZM210 230.77L208.14 229.77C208.622 228.91 209.153 228.079 209.73 227.28L211.45 228.52C210.924 229.248 210.44 230.006 210 230.79V230.77ZM213.16 226.38L211.63 225C212.293 224.27 212.998 223.579 213.74 222.93L215.14 224.53C214.459 225.117 213.811 225.741 213.2 226.4L213.16 226.38ZM217.24 222.82L216.03 221.07C216.84 220.512 217.682 220.002 218.55 219.54L219.55 221.42C218.767 221.85 218.009 222.324 217.28 222.84L217.24 222.82ZM222.02 220.28L221.25 218.28C222.169 217.921 223.107 217.613 224.06 217.36L224.6 219.42C223.734 219.665 222.883 219.959 222.05 220.3L222.02 220.28ZM227.25 218.91L226.95 216.8C227.924 216.661 228.906 216.577 229.89 216.55L229.95 218.68C229.059 218.713 228.171 218.797 227.29 218.93L227.25 218.91ZM232.84 218.58L232.66 216.46C233.56 216.381 234.455 216.251 235.34 216.07L235.77 218.15C234.816 218.352 233.851 218.499 232.88 218.59L232.84 218.58ZM238.62 217.4L237.96 215.4C238.819 215.116 239.66 214.782 240.48 214.4L241.37 216.33C240.488 216.741 239.583 217.102 238.66 217.41L238.62 217.4ZM243.98 214.92L242.87 213.11C243.642 212.636 244.387 212.119 245.1 211.56L246.41 213.23C245.64 213.842 244.835 214.41 244 214.93L243.98 214.92ZM248.63 211.29L247.14 209.78C247.784 209.148 248.392 208.481 248.96 207.78L250.62 209.11C250.012 209.876 249.361 210.608 248.67 211.3L248.63 211.29ZM252.33 206.7L250.53 205.56C251.011 204.795 251.449 204.004 251.84 203.19L253.75 204.11C253.339 205.002 252.879 205.87 252.37 206.71L252.33 206.7ZM254.89 201.38L252.89 200.69C253.184 199.835 253.427 198.963 253.62 198.08L255.7 198.54C255.499 199.504 255.242 200.456 254.93 201.39L254.89 201.38ZM256.16 195.62L254.04 195.41C254.121 194.606 254.161 193.798 254.16 192.99H256.29C256.304 193.871 256.274 194.752 256.2 195.63L256.16 195.62Z" fill="white"/>
<path d="M163.5 432.51C151.951 432.497 140.879 427.903 132.713 419.737C124.547 411.571 119.953 400.499 119.94 388.95V177.7H122.07V388.95C122.239 399.828 126.679 410.203 134.431 417.836C142.183 425.468 152.626 429.746 163.505 429.746C174.384 429.746 184.827 425.468 192.579 417.836C200.331 410.203 204.771 399.828 204.94 388.95H207.07C207.057 400.501 202.462 411.574 194.293 419.74C186.125 427.907 175.051 432.499 163.5 432.51Z" fill="white"/>
<path d="M44.06 200.54H41.94V197.71H44.07L44.06 200.54ZM44.06 194.87H41.94V192H44.07L44.06 194.87ZM44.06 189.2H41.94V186.36H44.07L44.06 189.2ZM44.06 183.53H41.94V180.7H44.07L44.06 183.53ZM44.06 177.86H41.94V175H44.07L44.06 177.86ZM44.06 172.19H41.94V169.36H44.07L44.06 172.19ZM44.06 166.52H41.94V163.69H44.07L44.06 166.52ZM44.06 160.85H41.94V158H44.07L44.06 160.85ZM44.06 155.18H41.94V152.35H44.07L44.06 155.18ZM44.06 149.51H41.94V146.68H44.07L44.06 149.51ZM44.06 143.84H41.94V141H44.07L44.06 143.84ZM44.06 138.17H41.94V135.34H44.07L44.06 138.17ZM44.06 132.5H41.94V129.67H44.07L44.06 132.5ZM44.06 126.83H41.94V126.19C41.94 125.43 41.96 124.68 42 123.94L44.12 124.06C44.08 124.767 44.06 125.48 44.06 126.2V126.83ZM119.91 124.91C119.91 123.99 119.82 123.07 119.72 122.16L121.83 121.94C121.93 122.94 122 123.88 122.03 124.84L119.91 124.91ZM44.37 121.31L42.26 121.04C42.38 120.04 42.54 119.12 42.74 118.17L44.82 118.59C44.64 119.5 44.49 120.42 44.37 121.32V121.31ZM119.37 119.43C119.21 118.53 119.01 117.63 118.78 116.74L120.84 116.21C121.08 117.15 121.29 118.11 121.46 119.05L119.37 119.43ZM45.51 115.92L43.51 115.35C43.77 114.42 44.07 113.49 44.4 112.58L46.4 113.3C46 114.17 45.72 115 45.47 115.93L45.51 115.92ZM118.01 114.1C117.72 113.24 117.39 112.37 117.01 111.52L119.01 110.7C119.38 111.59 119.73 112.51 120.01 113.42L118.01 114.1ZM47.39 110.74L45.45 109.87C45.84 108.99 46.28 108.11 46.73 107.26L48.6 108.26C48.13 109.08 47.72 109.91 47.35 110.75L47.39 110.74ZM115.84 109C115.42 108.18 114.97 107.37 114.5 106.59L116.32 105.49C116.82 106.31 117.32 107.17 117.73 108.03L115.84 109ZM50 105.89L48.21 104.75C48.73 103.93 49.29 103.12 49.86 102.35L51.57 103.62C51 104.35 50.45 105.12 50 105.89ZM113 104.32C112.47 103.57 111.91 102.84 111.33 102.13L112.97 100.78C113.58 101.53 114.18 102.3 114.74 103.09L113 104.32ZM53.25 101.46L51.64 100.07C52.27 99.34 52.94 98.62 53.64 97.93L55.15 99.43C54.47 100.09 53.84 100.77 53.24 101.46H53.25ZM109.51 100.06C108.88 99.4 108.22 98.75 107.51 98.13L109 96.57C109.71 97.22 110.41 97.91 111.08 98.57L109.51 100.06ZM57.13 97.56L55.73 96C56.46 95.37 57.22 94.75 57.99 94.17L59.27 95.87C58.54 96.38 57.82 97 57.13 97.56ZM105.42 96.36C104.7 95.79 103.95 95.25 103.19 94.74L104.38 93C105.18 93.54 105.97 94.12 106.73 94.71L105.42 96.36ZM61.53 94.26L60.38 92.47C61.2 91.94 62.04 91.47 62.88 90.99L63.88 92.86C63.11 93.29 62.31 93.76 61.53 94.26ZM100.85 93.26C100.06 92.81 99.24 92.37 98.41 91.98L99.33 90.06C100.2 90.48 101.07 90.94 101.91 91.42L100.85 93.26ZM66.37 91.63L65.49 89.69C66.37 89.29 67.28 88.92 68.18 88.59L68.91 90.59C68.06 90.9 67.2 91.25 66.37 91.63ZM95.88 90.89C95.03 90.55 94.16 90.25 93.28 89.97L93.91 87.97C94.84 88.26 95.76 88.58 96.66 88.97L95.88 90.89ZM71.54 89.73L70.96 87.73C71.89 87.46 72.84 87.23 73.79 87.03L74.22 89.11C73.32 89.25 72.42 89.48 71.54 89.73ZM90.62 89.25C89.73 89.04 88.82 88.87 87.92 88.73L88.25 86.63C89.25 86.78 90.17 86.97 91.11 87.19L90.62 89.25ZM76.93 88.6L76.65 86.49C77.65 86.36 78.58 86.27 79.55 86.21L79.68 88.33C78.75 88.39 77.83 88.48 76.93 88.6ZM85.18 88.39C84.27 88.31 83.34 88.27 82.43 88.26V86.13C83.43 86.13 84.38 86.19 85.34 86.27L85.18 88.39Z" fill="white"/>
<path d="M10 285.22C15.5228 285.22 20 280.743 20 275.22C20 269.697 15.5228 265.22 10 265.22C4.47715 265.22 0 269.697 0 275.22C0 280.743 4.47715 285.22 10 285.22Z" fill="white"/>
<path d="M120.94 136.61C126.463 136.61 130.94 132.133 130.94 126.61C130.94 121.087 126.463 116.61 120.94 116.61C115.417 116.61 110.94 121.087 110.94 126.61C110.94 132.133 115.417 136.61 120.94 136.61Z" fill="white"/>
<path d="M325.69 175.11C331.213 175.11 335.69 170.633 335.69 165.11C335.69 159.587 331.213 155.11 325.69 155.11C320.167 155.11 315.69 159.587 315.69 165.11C315.69 170.633 320.167 175.11 325.69 175.11Z" fill="white"/>
<path d="M162.36 411.77C171.197 411.77 178.36 404.607 178.36 395.77C178.36 386.933 171.197 379.77 162.36 379.77C153.523 379.77 146.36 386.933 146.36 395.77C146.36 404.607 153.523 411.77 162.36 411.77Z" fill="white"/>
<path d="M188.36 79.77C197.197 79.77 204.36 72.6066 204.36 63.77C204.36 54.9334 197.197 47.77 188.36 47.77C179.523 47.77 172.36 54.9334 172.36 63.77C172.36 72.6066 179.523 79.77 188.36 79.77Z" fill="white"/>
<path d="M206.06 396.77C211.583 396.77 216.06 392.293 216.06 386.77C216.06 381.247 211.583 376.77 206.06 376.77C200.537 376.77 196.06 381.247 196.06 386.77C196.06 392.293 200.537 396.77 206.06 396.77Z" fill="white"/>
<path d="M120.94 184.99C124.966 184.99 128.23 181.726 128.23 177.7C128.23 173.674 124.966 170.41 120.94 170.41C116.914 170.41 113.65 173.674 113.65 177.7C113.65 181.726 116.914 184.99 120.94 184.99Z" fill="white"/>
<path d="M10 244.15C14.0262 244.15 17.29 240.886 17.29 236.86C17.29 232.834 14.0262 229.57 10 229.57C5.97384 229.57 2.71 232.834 2.71 236.86C2.71 240.886 5.97384 244.15 10 244.15Z" fill="white"/>
<path d="M153.94 269.36C157.966 269.36 161.23 266.096 161.23 262.07C161.23 258.044 157.966 254.78 153.94 254.78C149.914 254.78 146.65 258.044 146.65 262.07C146.65 266.096 149.914 269.36 153.94 269.36Z" fill="white"/>
<path d="M153.94 244.57C158.883 244.57 162.89 240.563 162.89 235.62C162.89 230.677 158.883 226.67 153.94 226.67C148.997 226.67 144.99 230.677 144.99 235.62C144.99 240.563 148.997 244.57 153.94 244.57Z" fill="white"/>
<path d="M225.05 70.52C229.993 70.52 234 66.5129 234 61.57C234 56.6271 229.993 52.62 225.05 52.62C220.107 52.62 216.1 56.6271 216.1 61.57C216.1 66.5129 220.107 70.52 225.05 70.52Z" fill="white"/>
<path d="M225.05 94.41C228.8 94.41 231.84 91.37 231.84 87.62C231.84 83.87 228.8 80.83 225.05 80.83C221.3 80.83 218.26 83.87 218.26 87.62C218.26 91.37 221.3 94.41 225.05 94.41Z" fill="white"/>
<path d="M297.23 110.57C300.98 110.57 304.02 107.53 304.02 103.78C304.02 100.03 300.98 96.99 297.23 96.99C293.48 96.99 290.44 100.03 290.44 103.78C290.44 107.53 293.48 110.57 297.23 110.57Z" fill="white"/>
<path d="M369.05 297.73C374.319 297.73 378.59 293.459 378.59 288.19C378.59 282.921 374.319 278.65 369.05 278.65C363.781 278.65 359.51 282.921 359.51 288.19C359.51 293.459 363.781 297.73 369.05 297.73Z" fill="white"/>
<path d="M369.05 348.73C372.8 348.73 375.84 345.69 375.84 341.94C375.84 338.19 372.8 335.15 369.05 335.15C365.3 335.15 362.26 338.19 362.26 341.94C362.26 345.69 365.3 348.73 369.05 348.73Z" fill="white"/>
<path d="M435.93 231.49C439.68 231.49 442.72 228.45 442.72 224.7C442.72 220.95 439.68 217.91 435.93 217.91C432.18 217.91 429.14 220.95 429.14 224.7C429.14 228.45 432.18 231.49 435.93 231.49Z" fill="white"/>
<path d="M206.35 344.74C210.376 344.74 213.64 341.476 213.64 337.45C213.64 333.424 210.376 330.16 206.35 330.16C202.324 330.16 199.06 333.424 199.06 337.45C199.06 341.476 202.324 344.74 206.35 344.74Z" fill="white"/>
<path d="M10 383.74C14.0262 383.74 17.29 380.476 17.29 376.45C17.29 372.424 14.0262 369.16 10 369.16C5.97384 369.16 2.71 372.424 2.71 376.45C2.71 380.476 5.97384 383.74 10 383.74Z" fill="white"/>
<path d="M255.2 192.27C259.226 192.27 262.49 189.006 262.49 184.98C262.49 180.954 259.226 177.69 255.2 177.69C251.174 177.69 247.91 180.954 247.91 184.98C247.91 189.006 251.174 192.27 255.2 192.27Z" fill="white"/>
<path d="M115 301.39C104.379 301.377 94.1978 297.152 86.6879 289.642C79.1781 282.132 74.9532 271.951 74.94 261.33V233.54C74.7919 225.168 71.3622 217.189 65.3893 211.321C59.4164 205.453 51.3781 202.165 43.005 202.165C34.6319 202.165 26.5936 205.453 20.6207 211.321C14.6479 217.189 11.2182 225.168 11.07 233.54H8.94C8.94 229.067 9.82112 224.637 11.533 220.504C13.245 216.371 15.7542 212.616 18.9174 209.452C22.0806 206.289 25.8359 203.78 29.9689 202.068C34.1018 200.356 38.5315 199.475 43.005 199.475C47.4785 199.475 51.9082 200.356 56.0411 202.068C60.1741 203.78 63.9294 206.289 67.0926 209.452C70.2558 212.616 72.765 216.371 74.477 220.504C76.1889 224.637 77.07 229.067 77.07 233.54V261.32C77.2316 271.274 81.2994 280.766 88.396 287.749C95.4926 294.731 105.049 298.644 115.005 298.644C124.961 298.644 134.517 294.731 141.614 287.749C148.711 280.766 152.778 271.274 152.94 261.32H155.07C155.059 271.944 150.834 282.13 143.322 289.642C135.81 297.154 125.624 301.379 115 301.39Z" fill="white"/>
<path d="M261.15 150C251.314 149.989 241.883 146.077 234.928 139.122C227.973 132.167 224.061 122.736 224.05 112.9V87.62H226.18V112.91C226.18 117.506 227.085 122.058 228.844 126.304C230.603 130.55 233.181 134.409 236.431 137.659C239.681 140.909 243.54 143.487 247.786 145.246C252.032 147.005 256.584 147.91 261.18 147.91C265.776 147.91 270.328 147.005 274.574 145.246C278.82 143.487 282.679 140.909 285.929 137.659C289.179 134.409 291.757 130.55 293.516 126.304C295.275 122.058 296.18 117.506 296.18 112.91V103.62H298.31V112.91C298.297 122.755 294.375 132.192 287.407 139.147C280.439 146.102 270.995 150.005 261.15 150Z" fill="white"/>
</g>
</svg>
