<svg width="297" height="66" viewBox="0 0 297 66" fill="none" xmlns="http://www.w3.org/2000/svg">
<path d="M15.1435 61.5556V50.3778H16.6655V55.1556H23.2461V50.3778H24.7682V61.5556H23.2461V56.4889H16.6655V61.5556H15.1435Z" fill="#393B3D"/>
<path d="M28.3897 61.5556V50.3778H32.4634C33.6273 50.3778 34.5375 50.6296 35.1941 51.1333C35.8507 51.6222 36.179 52.3185 36.179 53.2222C36.179 54.4519 35.6119 55.2741 34.4778 55.6889V55.7333C35.1941 55.8815 35.7537 56.2 36.1566 56.6889C36.5595 57.1778 36.7609 57.7556 36.7609 58.4222C36.7609 59.3852 36.3953 60.1481 35.6641 60.7111C34.9479 61.2741 33.9556 61.5556 32.6872 61.5556H28.3897ZM29.9117 55.2222H32.3067C33.0528 55.2222 33.6198 55.0593 34.0078 54.7333C34.4107 54.3926 34.6121 53.9185 34.6121 53.3111C34.6121 52.1259 33.8138 51.5333 32.2172 51.5333H29.9117V55.2222ZM29.9117 60.3778H32.4858C33.396 60.3778 34.075 60.2074 34.5226 59.8667C34.9703 59.5111 35.1941 59.0222 35.1941 58.4C35.1941 57.7481 34.9554 57.2519 34.4778 56.9111C34.0153 56.5556 33.3438 56.3778 32.4634 56.3778H29.9117V60.3778Z" fill="#393B3D"/>
<path d="M38.8857 55.9778C38.8857 54.2 39.4155 52.7778 40.4749 51.7111C41.5493 50.6444 42.8774 50.1111 44.4591 50.1111C45.9513 50.1111 47.1078 50.6074 47.9285 51.6C48.7492 52.5778 49.1595 53.8 49.1595 55.2667C49.1595 55.4444 49.1446 55.6963 49.1148 56.0222H40.4749C40.5048 57.4 40.9375 58.4815 41.7731 59.2667C42.6088 60.0519 43.6309 60.4444 44.8396 60.4444C46.1378 60.4444 47.2794 60 48.2642 59.1111L48.9581 60.2667C48.4358 60.7407 47.7942 61.1185 47.0331 61.4C46.287 61.6815 45.541 61.8222 44.7948 61.8222C43.1087 61.8222 41.6985 61.2741 40.5645 60.1778C39.4453 59.0815 38.8857 57.6815 38.8857 55.9778ZM40.5421 54.8222H47.6151C47.5703 53.7111 47.2495 52.8593 46.6526 52.2667C46.0558 51.6593 45.3097 51.3556 44.4143 51.3556C43.4444 51.3556 42.6013 51.6593 41.8851 52.2667C41.1688 52.8741 40.7211 53.7259 40.5421 54.8222Z" fill="#393B3D"/>
<path d="M51.2576 55.9778C51.2576 54.2741 51.8246 52.8741 52.9587 51.7778C54.0928 50.6667 55.4954 50.1111 57.1667 50.1111C57.9427 50.1111 58.7037 50.2519 59.4498 50.5333C60.1959 50.8 60.8077 51.1926 61.2852 51.7111L60.5018 52.8444C60.0989 52.4296 59.599 52.0963 59.0021 51.8444C58.4202 51.5926 57.8233 51.4667 57.2115 51.4667C55.958 51.4667 54.9135 51.8889 54.0779 52.7333C53.2422 53.5778 52.8244 54.6593 52.8244 55.9778C52.8244 57.2815 53.2422 58.3556 54.0779 59.2C54.9284 60.0296 55.9879 60.4444 57.2562 60.4444C57.9128 60.4444 58.5694 60.3111 59.226 60.0444C59.8825 59.763 60.4272 59.3852 60.8599 58.9111L61.5538 60.0444C61.0614 60.5926 60.4197 61.0296 59.6288 61.3556C58.8529 61.6667 58.0322 61.8222 57.1667 61.8222C55.4805 61.8222 54.0704 61.2815 52.9363 60.2C51.8172 59.1037 51.2576 57.6963 51.2576 55.9778Z" fill="#393B3D"/>
<path d="M66.9479 61.5556V51.7111H62.8518V50.3778H72.5885V51.7111H68.47V61.5556H66.9479Z" fill="#393B3D"/>
<path d="M74.9263 61.5556V50.3778H76.4035V57.7111C76.4035 58.7333 76.3812 59.2889 76.3364 59.3778H76.3811C76.4408 59.2741 76.8288 58.7185 77.5451 57.7111L83.0737 50.3778H84.5286V61.5556H83.0289V54.2C83.0289 54.0074 83.0289 53.7852 83.0289 53.5333C83.0438 53.2815 83.0588 53.0667 83.0737 52.8889C83.0886 52.6963 83.096 52.5926 83.096 52.5778H83.0513C83.0513 52.6074 82.9841 52.7111 82.8498 52.8889C82.7305 53.0667 82.5663 53.2889 82.3574 53.5556C82.1634 53.8222 82.0142 54.037 81.9098 54.2L76.3811 61.5556H74.9263Z" fill="#393B3D"/>
<path d="M88.1506 61.5556V50.3778H89.6726V60.2222H95.8951V50.3778H97.4396V60.2222H99.0064V64.2222H97.5739V61.5556H88.1506Z" fill="#393B3D"/>
<path d="M101.484 61.5556V50.3778H102.962V57.7111C102.962 58.7333 102.939 59.2889 102.894 59.3778H102.939C102.999 59.2741 103.387 58.7185 104.103 57.7111L109.632 50.3778H111.087V61.5556H109.587V54.2C109.587 54.0074 109.587 53.7852 109.587 53.5333C109.602 53.2815 109.617 53.0667 109.632 52.8889C109.647 52.6963 109.654 52.5926 109.654 52.5778H109.609C109.609 52.6074 109.542 52.7111 109.408 52.8889C109.288 53.0667 109.124 53.2889 108.915 53.5556C108.721 53.8222 108.572 54.037 108.468 54.2L102.939 61.5556H101.484Z" fill="#393B3D"/>
<path d="M113.948 55.9111C113.948 54.2667 114.522 52.8889 115.671 51.7778C116.82 50.6667 118.223 50.1111 119.879 50.1111C121.535 50.1111 122.938 50.6667 124.087 51.7778C125.251 52.8889 125.833 54.2667 125.833 55.9111C125.833 57.5852 125.251 58.9926 124.087 60.1333C122.938 61.2593 121.535 61.8222 119.879 61.8222C118.223 61.8222 116.82 61.2593 115.671 60.1333C114.522 58.9926 113.948 57.5852 113.948 55.9111ZM115.514 55.9111C115.514 57.2148 115.932 58.2963 116.768 59.1556C117.618 60.0148 118.655 60.4444 119.879 60.4444C121.103 60.4444 122.14 60.0148 122.99 59.1556C123.841 58.2963 124.266 57.2148 124.266 55.9111C124.266 54.6519 123.841 53.6 122.99 52.7556C122.14 51.8963 121.103 51.4667 119.879 51.4667C118.655 51.4667 117.618 51.8963 116.768 52.7556C115.932 53.6 115.514 54.6519 115.514 55.9111Z" fill="#393B3D"/>
<path d="M128.676 61.5556V50.3778H130.198V55.1556H136.779V50.3778H138.301V61.5556H136.779V56.4889H130.198V61.5556H128.676Z" fill="#393B3D"/>
<path d="M141.922 61.5556V50.3778H143.444V55.1556H150.025V50.3778H151.547V61.5556H150.025V56.4889H143.444V61.5556H141.922Z" fill="#393B3D"/>
<path d="M154.184 58.5556C154.184 55.963 156.467 54.6667 161.033 54.6667H161.704V54.3556C161.704 52.4296 160.779 51.4667 158.929 51.4667C157.78 51.4667 156.713 51.8222 155.728 52.5333L155.034 51.3778C155.482 50.9926 156.071 50.6889 156.802 50.4667C157.534 50.2296 158.272 50.1111 159.018 50.1111C160.376 50.1111 161.413 50.4815 162.13 51.2222C162.861 51.9481 163.226 53.0074 163.226 54.4V61.5556H161.772V60.2444L161.839 59.3111H161.794C161.481 60.0222 160.981 60.6222 160.294 61.1111C159.623 61.5852 158.854 61.8222 157.989 61.8222C156.959 61.8222 156.064 61.5333 155.303 60.9556C154.557 60.3778 154.184 59.5778 154.184 58.5556ZM155.728 58.4222C155.728 58.9852 155.952 59.4815 156.4 59.9111C156.847 60.3407 157.467 60.5556 158.257 60.5556C159.287 60.5556 160.115 60.1259 160.742 59.2667C161.384 58.4074 161.704 57.4444 161.704 56.3778V55.8667H161.055C160.578 55.8667 160.16 55.8741 159.802 55.8889C159.459 55.9037 159.003 55.963 158.436 56.0667C157.884 56.1556 157.429 56.2815 157.071 56.4444C156.713 56.6074 156.4 56.8593 156.131 57.2C155.862 57.5407 155.728 57.9481 155.728 58.4222Z" fill="#393B3D"/>
<path d="M165.59 61.5556L168.298 57.7111L168.813 57.0444V57C168.097 56.8519 167.485 56.4963 166.978 55.9333C166.471 55.3556 166.217 54.637 166.217 53.7778C166.217 52.6815 166.575 51.8444 167.291 51.2667C168.022 50.6741 168.992 50.3778 170.201 50.3778H174.163V61.5556H172.641V57.2667H170.313L167.358 61.5556H165.59ZM170.38 56.0889H172.641V51.5333H170.492C168.686 51.5333 167.784 52.2815 167.784 53.7778C167.784 54.5037 168.022 55.0741 168.5 55.4889C168.992 55.8889 169.619 56.0889 170.38 56.0889Z" fill="#393B3D"/>
<path d="M183.41 61.5556V50.3778H192.833V61.5556H191.311V51.7111H184.932V61.5556H183.41Z" fill="#393B3D"/>
<path d="M195.094 61.6444V60.2889C196.019 60.1407 196.698 59.5407 197.131 58.4889C197.563 57.4222 197.78 55.8444 197.78 53.7556V50.3778H204.674V61.5556H203.152V51.6889H199.257V53.7556C199.257 56.3926 198.921 58.3407 198.25 59.6C197.593 60.8444 196.541 61.5259 195.094 61.6444Z" fill="#393B3D"/>
<path d="M207.343 58.5556C207.343 55.963 209.626 54.6667 214.193 54.6667H214.864V54.3556C214.864 52.4296 213.939 51.4667 212.089 51.4667C210.94 51.4667 209.873 51.8222 208.888 52.5333L208.194 51.3778C208.642 50.9926 209.231 50.6889 209.962 50.4667C210.693 50.2296 211.432 50.1111 212.178 50.1111C213.536 50.1111 214.573 50.4815 215.289 51.2222C216.021 51.9481 216.386 53.0074 216.386 54.4V61.5556H214.931V60.2444L214.998 59.3111H214.954C214.64 60.0222 214.14 60.6222 213.454 61.1111C212.782 61.5852 212.014 61.8222 211.148 61.8222C210.119 61.8222 209.224 61.5333 208.463 60.9556C207.716 60.3778 207.343 59.5778 207.343 58.5556ZM208.888 58.4222C208.888 58.9852 209.112 59.4815 209.559 59.9111C210.007 60.3407 210.626 60.5556 211.417 60.5556C212.447 60.5556 213.275 60.1259 213.902 59.2667C214.543 58.4074 214.864 57.4444 214.864 56.3778V55.8667H214.215C213.737 55.8667 213.32 55.8741 212.962 55.8889C212.618 55.9037 212.163 55.963 211.596 56.0667C211.044 56.1556 210.589 56.2815 210.231 56.4444C209.873 56.6074 209.559 56.8593 209.291 57.2C209.022 57.5407 208.888 57.9481 208.888 58.4222Z" fill="#393B3D"/>
<path d="M222.492 61.5556V51.7111H218.396V50.3778H228.133V51.7111H224.015V61.5556H222.492Z" fill="#393B3D"/>
<path d="M229.251 55.9111C229.251 54.237 229.811 52.8741 230.93 51.8222C232.064 50.7704 233.526 50.2074 235.317 50.1333V46H236.794V50.1333C238.585 50.2074 240.04 50.7704 241.159 51.8222C242.293 52.8741 242.86 54.237 242.86 55.9111C242.86 57.6148 242.293 59.0074 241.159 60.0889C240.04 61.1556 238.585 61.7259 236.794 61.8V66H235.317V61.8C233.526 61.7259 232.064 61.1556 230.93 60.0889C229.811 59.0074 229.251 57.6148 229.251 55.9111ZM236.794 60.4889C238.152 60.4148 239.242 59.9704 240.062 59.1556C240.898 58.3259 241.316 57.2444 241.316 55.9111C241.316 54.5926 240.898 53.5407 240.062 52.7556C239.242 51.9704 238.152 51.5407 236.794 51.4667V60.4889ZM230.796 55.9111C230.796 57.2444 231.206 58.3259 232.027 59.1556C232.862 59.9704 233.959 60.4148 235.317 60.4889V51.4667C233.959 51.5407 232.862 51.9704 232.027 52.7556C231.206 53.5407 230.796 54.5926 230.796 55.9111Z" fill="#393B3D"/>
<path d="M244.989 55.9111C244.989 54.2667 245.563 52.8889 246.712 51.7778C247.861 50.6667 249.264 50.1111 250.92 50.1111C252.577 50.1111 253.979 50.6667 255.128 51.7778C256.292 52.8889 256.874 54.2667 256.874 55.9111C256.874 57.5852 256.292 58.9926 255.128 60.1333C253.979 61.2593 252.577 61.8222 250.92 61.8222C249.264 61.8222 247.861 61.2593 246.712 60.1333C245.563 58.9926 244.989 57.5852 244.989 55.9111ZM246.556 55.9111C246.556 57.2148 246.973 58.2963 247.809 59.1556C248.66 60.0148 249.697 60.4444 250.92 60.4444C252.144 60.4444 253.181 60.0148 254.032 59.1556C254.882 58.2963 255.307 57.2148 255.307 55.9111C255.307 54.6519 254.882 53.6 254.032 52.7556C253.181 51.8963 252.144 51.4667 250.92 51.4667C249.697 51.4667 248.66 51.8963 247.809 52.7556C246.973 53.6 246.556 54.6519 246.556 55.9111Z" fill="#393B3D"/>
<path d="M259.717 66V50.3778H261.172V51.5556L261.105 52.4222H261.15C261.493 51.6963 262.008 51.1333 262.694 50.7333C263.396 50.3185 264.187 50.1111 265.067 50.1111C266.574 50.1111 267.768 50.6519 268.648 51.7333C269.529 52.8 269.969 54.2074 269.969 55.9556C269.969 57.7185 269.499 59.1407 268.559 60.2222C267.619 61.2889 266.41 61.8222 264.933 61.8222C264.142 61.8222 263.418 61.6296 262.762 61.2444C262.105 60.8444 261.59 60.2963 261.217 59.6H261.172C261.217 59.8667 261.239 60.1926 261.239 60.5778V66H259.717ZM261.195 56C261.195 57.2 261.516 58.2444 262.157 59.1333C262.814 60.0222 263.687 60.4667 264.776 60.4667C265.806 60.4667 266.671 60.0667 267.372 59.2667C268.074 58.4519 268.424 57.3556 268.424 55.9778C268.424 54.6296 268.089 53.5481 267.417 52.7333C266.761 51.9037 265.903 51.4889 264.843 51.4889C263.814 51.4889 262.948 51.8667 262.247 52.6222C261.545 53.3778 261.195 54.5037 261.195 56Z" fill="#393B3D"/>
<path d="M272.473 61.5556L273.39 50.3778H275.002L278.382 57.2667L279.076 58.8444H279.12C279.359 58.2667 279.591 57.7407 279.814 57.2667L283.217 50.3778H284.806L285.746 61.5556H284.246L283.687 54.3333V52.4H283.642C283.478 52.8741 283.239 53.4148 282.926 54.0222L279.792 60.2667H278.404L275.293 54.0667L274.554 52.4H274.51C274.539 53.2889 274.539 53.9333 274.51 54.3333L273.95 61.5556H272.473Z" fill="#393B3D"/>
<path d="M287.957 58.5556C287.957 55.963 290.24 54.6667 294.806 54.6667H295.478V54.3556C295.478 52.4296 294.553 51.4667 292.702 51.4667C291.553 51.4667 290.487 51.8222 289.502 52.5333L288.808 51.3778C289.255 50.9926 289.845 50.6889 290.576 50.4667C291.307 50.2296 292.046 50.1111 292.792 50.1111C294.15 50.1111 295.187 50.4815 295.903 51.2222C296.634 51.9481 297 53.0074 297 54.4V61.5556H295.545V60.2444L295.612 59.3111H295.567C295.254 60.0222 294.754 60.6222 294.068 61.1111C293.396 61.5852 292.628 61.8222 291.762 61.8222C290.733 61.8222 289.837 61.5333 289.076 60.9556C288.33 60.3778 287.957 59.5778 287.957 58.5556ZM289.502 58.4222C289.502 58.9852 289.726 59.4815 290.173 59.9111C290.621 60.3407 291.24 60.5556 292.031 60.5556C293.061 60.5556 293.889 60.1259 294.515 59.2667C295.157 58.4074 295.478 57.4444 295.478 56.3778V55.8667H294.829C294.351 55.8667 293.934 55.8741 293.575 55.8889C293.232 55.9037 292.777 55.963 292.21 56.0667C291.658 56.1556 291.203 56.2815 290.845 56.4444C290.487 56.6074 290.173 56.8593 289.905 57.2C289.636 57.5407 289.502 57.9481 289.502 58.4222Z" fill="#393B3D"/>
<path d="M1 61.4971V50.3193H2.47728V57.6526C2.47728 58.6749 2.45489 59.2304 2.41012 59.3193H2.45489C2.51458 59.2156 2.90256 58.66 3.61882 57.6526L9.14741 50.3193H10.6023V61.4971H9.10266V54.1415C9.10266 53.9489 9.10266 53.7267 9.10266 53.4749C9.11758 53.223 9.13249 53.0082 9.14741 52.8304C9.16233 52.6378 9.1698 52.5341 9.1698 52.5193H9.12504C9.12504 52.5489 9.05788 52.6526 8.92358 52.8304C8.80421 53.0082 8.64007 53.2304 8.43116 53.4971C8.23718 53.7638 8.08795 53.9786 7.9835 54.1415L2.45489 61.4971H1Z" fill="#393B3D"/>
<path d="M27.4153 21.5211C25.6254 24.6717 21.8711 27.1566 16.5452 27.1566C9.51676 27.0235 5.89341 22.2755 5.89341 16.2406C5.89341 9.71768 9.99696 5.32467 16.6762 5.32467C21.2599 5.32467 24.9706 7.9871 26.8041 10.7383V3.01723C25.0142 1.73039 21.4782 0.22168 16.6762 0.22168C6.54823 0.22168 0 6.83338 0 16.1963C0 26.2247 6.63554 32.2152 16.5889 32.2596C21.8711 32.2596 25.8873 30.2184 27.4153 28.3547V21.5211Z" fill="#1BAB36"/>
<path d="M33.0481 31.7715H44.3547C52.1689 31.7715 57.1456 28.2216 57.1456 21.388C57.1456 14.5544 52.8674 11.3595 44.4857 11.3595H38.505V5.81278H54.7446V0.709791H33.0481V31.7715ZM44.3111 16.4625C49.0258 16.4625 51.4705 17.5275 51.4705 21.2549C51.4705 25.3816 48.6765 26.6685 44.3111 26.6685H38.505V16.4625H44.3111Z" fill="#1BAB36"/>
<path d="M82.6598 13.2232H68.6029V5.81278H84.275V0.709791H63.1461V31.7715H84.7552V26.6685H68.6029V18.3262H82.6598V13.2232Z" fill="#1BAB36"/>
<path d="M101.412 22.098C110.361 22.098 115.163 18.4593 115.163 11.2264C115.163 4.21532 111.06 0.709791 101.412 0.709791H91.2404V31.7715H96.6972V22.098H101.412ZM101.892 5.81278C107.218 5.81278 109.488 7.27712 109.488 11.0933C109.488 15.3088 106.869 16.995 101.805 16.995H96.6972V5.81278H101.892Z" fill="#1BAB36"/>
<path fill-rule="evenodd" clip-rule="evenodd" d="M156.324 37.4549H161.822V29.9252C164.022 31.3461 167.252 32.0228 170.552 32.0228C180.243 32.0228 186.635 24.9182 186.635 15.6486C186.635 6.64955 181.137 0.22168 172.339 0.22168C168.077 0.22168 163.953 2.04855 161.822 4.48437V0.898297H156.324V37.4549ZM180.793 15.8516C180.793 9.69434 177.15 5.29632 170.758 5.29632C167.115 5.29632 163.747 7.12319 161.822 9.49135V24.5799C164.572 26.4068 167.115 26.9481 170.07 26.9481C176.669 26.9481 180.793 22.2794 180.793 15.8516Z" fill="#0DB7B5"/>
<path fill-rule="evenodd" clip-rule="evenodd" d="M224.757 37.4549H229.912V31.3461H254.931V37.4549H260.086V26.2715H254.931V0.898297H233.829L233.348 8.95005C232.798 17.2725 230.668 23.7003 228.606 26.2715H224.757V37.4549ZM238.985 5.97294L238.641 11.0476C237.953 18.8287 235.891 24.377 234.448 26.2715H249.432V5.97294H238.985Z" fill="#0DB7B5"/>
<path d="M141.955 0.898297H149.172L135.631 15.4456L150.478 31.3461H142.849L128.895 15.7839L141.955 0.898297Z" fill="#0DB7B5"/>
<path d="M122.091 31.3461H127.59V0.898297H122.091V31.3461Z" fill="#0DB7B5"/>
<path fill-rule="evenodd" clip-rule="evenodd" d="M209.432 26.9481C213.419 26.9481 216.924 25.5949 218.917 23.768L220.636 28.0307C217.611 30.7372 213.144 32.0228 209.02 32.0228C198.984 32.0228 192.455 25.7302 192.455 16.1222C192.455 7.25851 198.228 0.22168 208.401 0.22168C216.374 0.22168 222.766 5.76995 222.766 14.16C222.766 15.6486 222.629 16.8665 222.423 17.8138H198.641C199.122 23.565 203.383 26.9481 209.432 26.9481ZM217.062 13.4157C216.787 8.40876 213.487 5.29632 208.126 5.29632C202.49 5.29632 198.916 8.74707 198.297 13.4157H217.062Z" fill="#0DB7B5"/>
<path fill-rule="evenodd" clip-rule="evenodd" d="M264.008 16.1222C264.008 25.2566 270.607 32.0228 280.504 32.0228C290.402 32.0228 297 25.2566 297 16.1222C297 6.98786 290.402 0.22168 280.504 0.22168C270.607 0.22168 264.008 6.98786 264.008 16.1222ZM269.85 16.1222C269.85 9.69433 274.456 5.29632 280.504 5.29632C286.69 5.29632 291.158 9.762 291.158 16.1222C291.158 22.6177 286.69 26.9481 280.504 26.9481C274.318 26.9481 269.85 22.4824 269.85 16.1222Z" fill="#0DB7B5"/>
</svg>
