<svg width="809" height="1103" viewBox="0 0 809 1103" fill="none" xmlns="http://www.w3.org/2000/svg">
<g opacity="0.2">
<mask id="mask0" mask-type="alpha" maskUnits="userSpaceOnUse" x="-413" y="-119" width="1222" height="1222">
<path d="M809 491.96V502.933C809 510.141 809 520.954 807.639 534.97C805.103 575.426 798.339 615.505 787.457 654.551C770.791 715.443 744.658 773.337 710.016 826.113C665.138 894.726 607.008 953.681 539.037 999.518C500.142 1025.47 458.45 1046.97 414.747 1063.59C367.878 1081.28 319.004 1093.12 269.235 1098.83C216.636 1104.85 163.484 1104.13 111.069 1096.67C84.0156 1092.75 57.2594 1087 30.985 1079.45C17.611 1076.01 4.55737 1071.44 -9.05688 1066.8L-28.5974 1059.27L-38.3676 1055.42L-47.9776 1051.1C-154.552 1003.98 -245.519 927.5 -310.252 830.599C-343.405 780.956 -369.093 726.714 -386.492 669.609C-395.169 640.748 -401.779 611.305 -406.273 581.505C-410.499 551.839 -412.746 521.924 -413 491.96C-412.753 461.885 -410.478 431.862 -406.193 402.094C-401.699 372.293 -395.089 342.851 -386.412 313.99C-368.957 256.992 -343.244 202.86 -310.092 153.321C-245.355 56.4224 -154.389 -20.0548 -47.8175 -67.1794L-38.2074 -71.5045L-28.5974 -75.349L-9.05688 -82.958C4.23703 -87.283 17.2106 -92.1688 30.985 -95.6129C57.2594 -103.158 84.0156 -108.912 111.069 -112.833C163.487 -120.262 216.639 -120.961 269.235 -114.916C319.004 -109.202 367.878 -97.3658 414.747 -79.6741C458.45 -63.0476 500.142 -41.5538 539.037 -15.5986C607.006 30.2404 665.136 89.1951 710.016 157.806C744.617 210.641 770.696 268.59 787.297 329.528C798.179 368.575 804.942 408.654 807.478 449.109C808.76 463.045 808.52 473.858 808.84 481.147L809 491.96ZM809 491.96V480.987C809 473.778 809 462.965 807.558 448.949C804.753 408.518 797.72 368.493 786.576 329.528C769.739 268.829 743.472 211.152 708.735 158.607C663.716 90.4085 605.532 31.8896 537.596 -13.5161C498.755 -39.2256 457.143 -60.4778 413.546 -76.8708C366.867 -94.152 318.237 -105.612 268.754 -110.991C216.474 -116.751 163.672 -115.809 111.63 -108.188C84.7588 -104.203 58.1898 -98.3957 32.1063 -90.8072C18.8123 -87.3631 5.91879 -82.7978 -7.21497 -78.0722L-26.5152 -70.9438L-36.6057 -66.859L-46.1357 -62.5339C-151.363 -15.3275 -241.014 60.808 -304.647 157.005C-353.773 231.128 -385.881 315.21 -398.665 403.215C-402.726 432.625 -404.839 462.271 -404.992 491.96C-404.862 521.676 -402.748 551.35 -398.665 580.784C-394.316 610.116 -387.893 639.103 -379.445 667.526C-362.448 724.057 -337.247 777.785 -304.647 826.994C-240.906 923.25 -151.109 999.391 -45.7353 1046.53L-36.2053 1050.86L-26.5152 1054.7L-7.13486 1062.31C5.9989 1066.64 18.8924 1071.52 32.1863 1075.05C58.2698 1082.64 84.8388 1088.44 111.71 1092.43C163.751 1100.05 216.554 1100.99 268.834 1095.23C318.357 1089.75 367.016 1078.19 413.706 1060.79C457.303 1044.4 498.915 1023.14 537.756 997.435C605.692 952.03 663.876 893.511 708.895 825.312C743.632 772.767 769.899 715.09 786.737 654.391C797.772 615.414 804.697 575.389 807.398 534.97C808.76 521.034 808.52 510.221 808.84 502.933L809 491.96Z" fill="white"/>
<path d="M710.417 491.96V501.171C710.417 507.258 710.418 516.228 709.296 527.922C707.102 561.855 701.358 595.465 692.158 628.2C678.288 679.355 656.451 728.008 627.451 772.37C589.751 829.82 540.96 879.161 483.94 917.501C451.369 939.319 416.447 957.401 379.831 971.405C340.523 986.268 299.53 996.222 257.783 1001.04C213.682 1006.1 169.115 1005.51 125.164 999.278C102.44 996.002 79.965 991.185 57.894 984.861C46.6823 981.977 35.7107 977.892 24.5791 974.288C13.4474 970.684 2.556 966.279 -8.09515 961.073C-98.9988 920.943 -176.279 855.251 -230.531 771.992C-284.782 688.734 -313.666 591.498 -313.666 492.12C-313.666 392.742 -284.782 295.506 -230.531 212.248C-176.279 128.989 -98.9988 63.2971 -8.09515 23.1674C2.556 18.1215 13.6877 14.277 24.5791 9.95189C35.4705 5.62679 46.6021 1.94244 57.894 -0.620575C79.965 -6.94495 102.44 -11.7617 125.164 -15.0376C169.115 -21.271 213.682 -21.8631 257.783 -16.7996C299.524 -12.0336 340.516 -2.13385 379.831 12.6751C416.447 26.6792 451.369 44.7609 483.94 66.5786C540.905 105.037 589.614 154.488 627.21 212.03C656.211 256.393 678.047 305.045 691.918 356.2C701.009 388.947 706.646 422.556 708.736 456.478C709.857 468.172 709.617 477.222 709.857 483.31L710.417 491.96ZM710.417 491.96V482.749C710.417 476.662 710.418 467.691 709.216 455.997C706.929 422.136 701.105 388.608 691.838 355.96C677.715 305.099 655.691 256.774 626.57 212.751C588.835 155.622 540.071 106.606 483.14 68.581C450.54 47.0485 415.616 29.262 379.03 15.5585C339.928 0.992882 299.177 -8.6916 257.703 -13.2755C213.921 -18.0797 169.704 -17.2722 126.125 -10.8727C103.609 -7.50329 81.3477 -2.60624 59.4957 3.78461C48.364 6.66801 37.5527 10.7528 26.5812 14.4372C15.6097 18.1215 4.79834 22.4466 -5.45239 27.6527C-95.1028 67.7189 -171.238 132.887 -224.662 215.287C-278.086 297.686 -306.515 393.793 -306.515 492C-306.515 590.207 -278.086 686.314 -224.662 768.713C-171.238 851.113 -95.1028 916.281 -5.45239 956.347C5.11868 961.393 16.0902 965.238 26.5812 969.563C37.0722 973.888 48.364 977.572 59.4957 980.215C81.3234 986.575 103.558 991.446 126.045 994.792C169.623 1001.19 213.841 1002 257.623 997.195C299.097 992.611 339.848 982.927 378.95 968.361C415.536 954.658 450.46 936.871 483.059 915.339C539.991 877.313 588.755 828.298 626.49 771.169C655.61 727.146 677.635 678.82 691.758 627.96C701.025 595.312 706.849 561.783 709.136 527.922C710.257 516.228 710.097 507.178 710.338 501.171L710.417 491.96Z" fill="white"/>
<path d="M615.517 491.96L614.076 521.275C614.076 526 614.076 531.447 613.035 537.294L610.152 556.276C609.03 563.084 608.229 570.533 606.548 578.302L600.301 602.811C589.203 644.35 571.55 683.853 548.006 719.829C514.637 771.069 470.394 814.332 418.422 846.544C366.45 878.755 308.023 899.126 247.291 906.208C238.562 907.65 229.673 907.41 220.784 908.131L207.41 908.852H200.683C198.2 908.852 196.118 908.852 193.875 908.852C137.704 908.061 82.2299 896.279 30.5844 874.171L4.39697 861.676C-4.57242 857.591 -12.5808 851.985 -20.5892 847.099L-33.1624 839.49C-37.1666 836.687 -41.1708 833.643 -45.0148 830.76C-53.0232 824.752 -61.0316 819.226 -68.6396 812.818C-99.1971 786.786 -126.131 756.777 -148.723 723.593C-171.03 689.426 -188.57 652.374 -200.858 613.463C-212.333 573.93 -218.474 533.041 -219.117 491.88C-218.481 450.719 -212.34 409.829 -200.858 370.297C-188.563 331.414 -171.023 294.389 -148.723 260.247C-126.121 227.071 -99.1884 197.064 -68.6396 171.022C-61.1117 164.615 -52.6228 159.088 -45.0148 153.081C-41.0106 150.198 -37.0064 147.154 -33.1624 144.351L-20.5892 136.822C-12.1003 131.936 -4.09192 126.41 4.63724 122.165L30.8246 109.67C82.4479 87.4515 137.922 75.5606 194.116 74.6686C196.438 74.6686 198.52 74.6686 201.003 74.6686H207.73L221.104 75.3895C229.993 76.1103 238.803 75.87 247.532 77.3117C308.262 84.4831 366.668 104.943 418.599 137.238C470.53 169.534 514.712 212.871 548.006 264.172C571.633 300.133 589.367 339.636 600.541 381.19L606.788 405.699C608.47 413.708 609.191 420.917 610.392 427.725L613.275 446.707C614.076 452.554 613.996 457.92 614.316 462.726L615.517 491.96ZM615.517 491.96L613.996 462.646C613.996 457.92 613.996 452.554 612.875 446.627L609.911 427.645C608.71 420.836 607.989 413.388 606.227 405.619L599.901 381.11C588.598 339.672 570.755 300.305 547.045 264.492C516.359 217.944 476.656 178.019 430.283 147.074C375.108 111.213 312.352 88.6741 246.971 81.2363C238.402 79.8747 229.433 80.1951 220.624 79.5544L207.249 78.9136H200.522C198.52 78.9136 196.118 78.9136 193.956 78.9136C138.435 80.3026 83.7239 92.547 32.9068 114.956L7.19992 127.451C-1.36905 131.776 -9.21729 137.302 -17.546 142.188L-29.8789 149.797C-33.803 152.6 -37.8873 155.564 -41.4911 158.527C-49.4995 164.454 -57.5079 169.981 -64.5553 176.388C-94.4924 202.16 -120.883 231.786 -143.037 264.492C-164.831 298.137 -181.94 334.595 -193.891 372.86C-205.007 411.685 -210.905 451.818 -211.429 492.201C-210.92 532.61 -205.022 572.772 -193.891 611.621C-181.946 649.914 -164.838 686.399 -143.037 720.069C-120.87 752.766 -94.4812 782.39 -64.5553 808.173C-57.1876 814.58 -49.0991 820.027 -41.4911 826.034C-37.567 828.917 -33.4827 831.961 -29.8789 834.764L-17.546 842.373C-9.53763 847.259 -1.52924 852.786 7.19992 857.111L32.9068 869.605C83.7736 892.035 138.541 904.279 194.116 905.648C196.278 905.648 198.681 905.648 200.763 905.648H207.41L220.704 905.007C229.513 904.366 238.322 905.007 246.971 903.325C312.434 895.815 375.25 873.164 430.443 837.167C476.815 806.22 516.517 766.295 547.206 719.749C570.915 683.936 588.758 644.569 600.061 603.131L606.388 578.622C608.069 570.613 608.87 563.485 610.071 556.596L613.035 537.614C613.916 531.767 613.755 526.401 614.156 521.595L615.517 491.96Z" fill="white"/>
<path d="M522.782 491.96L521.661 514.707C521.661 518.391 521.661 522.716 520.86 527.121L518.617 541.859C517.737 547.145 517.176 552.992 515.815 558.999L511.01 577.821C502.344 610.099 488.583 640.787 470.247 668.728C444.355 708.597 410.016 742.284 369.661 767.406C329.305 792.527 283.921 808.468 236.722 814.1C229.995 815.221 223.028 815.061 216.141 815.621C209.165 816.237 202.161 816.477 195.159 816.342C151.46 815.695 108.311 806.498 68.1456 789.27L47.7242 779.579C40.9171 776.295 34.6706 771.569 28.0236 768.125L18.1733 762.198L8.88354 755.39C2.79718 750.745 -3.60953 746.42 -9.53574 741.454C-58.1608 700.969 -93.9467 647.2 -112.524 586.712C-121.471 555.93 -126.265 524.091 -126.779 492.04C-126.272 459.988 -121.478 428.148 -112.524 397.368C-102.936 367.028 -89.2489 338.141 -71.841 311.507C-54.2095 285.677 -33.2013 262.322 -9.37555 242.065C-3.44934 237.1 2.95737 232.774 9.04373 228.129L18.3335 221.321L28.1838 215.394C34.7506 211.629 41.0773 207.384 47.8844 203.94L68.3058 194.249C108.496 177.011 151.673 167.814 195.399 167.177C197.161 167.177 198.843 167.177 200.765 167.177H205.97L216.301 167.738C223.188 168.298 230.075 168.138 236.802 169.26C284.016 174.88 329.415 190.815 369.785 215.937C410.155 241.059 444.507 274.753 470.407 314.631C488.743 342.572 502.504 373.26 511.17 405.538L516.055 424.601C517.336 430.608 517.977 436.374 518.858 441.741L521.1 456.478C521.741 460.963 521.661 465.208 521.901 468.893L522.782 491.96ZM522.782 491.96L521.581 469.213C521.581 465.529 521.581 461.204 520.7 456.798L518.377 442.061C517.496 436.775 516.856 431.008 515.494 425.001L510.529 405.938C501.742 373.749 487.873 343.168 469.446 315.352C445.619 279.262 414.792 248.322 378.791 224.364C335.945 196.48 287.194 178.957 236.402 173.184C229.755 172.143 222.788 172.383 215.9 171.903L205.57 171.422H195.239C152.187 172.558 109.773 182.109 70.388 199.535L50.5272 209.387C43.8802 212.751 37.7939 217.396 31.3871 220.84L21.8571 226.687L12.7276 233.415C6.80136 238.061 0.55481 242.306 -5.13113 247.271C-28.3122 267.238 -48.7506 290.184 -65.9148 315.512C-82.8044 341.598 -96.0602 369.864 -105.316 399.531C-113.915 429.629 -118.467 460.739 -118.85 492.04C-118.467 523.341 -113.915 554.451 -105.316 584.549C-96.0602 614.216 -82.8044 642.482 -65.9148 668.568C-48.7459 693.916 -28.3084 716.888 -5.13113 736.889C0.55481 741.854 6.80136 746.099 12.7276 750.745L21.697 757.473L31.227 763.32C37.6337 767.084 43.8001 771.329 50.367 774.773L70.3079 784.545C109.846 802.007 152.43 811.532 195.639 812.578C202.503 812.783 209.374 812.623 216.221 812.097C223.028 811.617 229.915 812.097 236.642 810.816C287.463 805.058 336.243 787.534 379.111 759.635C415.032 735.628 445.776 704.662 469.526 668.568C487.997 640.707 501.894 610.072 510.689 577.821L515.654 558.759C517.016 552.752 517.576 546.985 518.537 541.698L520.86 526.961C521.5 522.476 521.42 518.311 521.741 514.546L522.782 491.96Z" fill="white"/>
<path d="M430.845 491.96L430.044 507.979C430.044 510.622 430.044 513.586 429.484 516.869L427.882 527.442C427.241 531.206 426.841 535.451 425.88 539.696L422.436 553.312C416.273 576.427 406.459 598.409 393.366 618.429C374.823 646.942 350.255 671.042 321.392 689.031C292.529 707.021 260.073 718.463 226.311 722.552C221.506 723.353 216.541 723.273 211.576 723.673C206.571 724.13 201.545 724.317 196.52 724.234C165.178 723.833 134.218 717.303 105.384 705.011C85.249 696.211 66.3927 684.734 49.3255 670.891C14.2824 641.772 -11.4924 603.049 -24.8321 559.48C-31.321 537.299 -34.7958 514.347 -35.163 491.239C-34.7562 468.267 -31.2818 445.451 -24.8321 423.399C-11.4797 379.836 14.2928 341.117 49.3255 311.988C66.3932 298.146 85.2494 286.669 105.384 277.868C134.243 265.566 165.231 259.035 196.6 258.645C201.598 258.566 206.597 258.753 211.576 259.206C216.541 259.606 221.426 259.206 226.231 260.327C260.007 264.405 292.479 275.841 321.356 293.832C350.234 311.822 374.814 335.928 393.366 364.45C406.459 384.47 416.273 406.452 422.436 429.567L425.88 443.183C426.841 447.508 427.241 451.593 427.882 455.437L429.484 466.01C429.964 469.213 429.484 472.257 430.044 474.9L430.845 491.96ZM430.845 491.96L429.964 475.941C429.964 473.298 429.964 470.335 429.324 467.051L427.882 456.318C427.241 452.554 426.761 448.309 425.8 444.064L422.276 430.448C415.957 407.445 406.008 385.599 392.805 365.731C375.757 339.899 353.665 317.778 327.857 300.695C297.229 280.873 262.408 268.451 226.151 264.412C221.426 263.691 216.461 263.851 211.495 263.531C206.587 263.266 201.668 263.266 196.76 263.531C165.994 264.334 135.684 271.164 107.547 283.635C88.1936 292.528 70.1205 303.977 53.8102 317.675C37.3138 331.932 22.7729 348.306 10.5649 366.372C-1.42499 384.954 -10.8279 405.082 -17.3843 426.203C-30.1438 469.167 -30.1438 514.914 -17.3843 557.878C-10.7902 579.062 -1.33295 599.245 10.7251 617.868C22.9441 635.926 37.4838 652.299 53.9704 666.566C70.2411 680.195 88.2592 691.589 107.547 700.446C135.623 712.953 165.877 719.837 196.6 720.71C201.482 720.97 206.373 720.97 211.255 720.71C216.14 720.71 221.025 720.71 225.83 719.829C262.116 715.805 296.966 703.382 327.617 683.546C353.514 666.281 375.637 643.937 392.645 617.868C405.786 598.198 415.733 576.572 422.116 553.793L425.64 540.177C426.601 535.852 427.001 531.767 427.722 527.922L429.404 517.35C429.884 514.146 429.804 511.103 430.044 508.46L430.845 491.96Z" fill="white"/>
</mask>
<g mask="url(#mask0)">
<rect x="1" y="555" width="816" height="595" fill="#C4C4C4"/>
</g>
</g>
<circle cx="259" cy="809" r="21" fill="#74EE87"/>
<circle cx="546.5" cy="993.5" r="31.5" fill="#C9F157"/>
<circle cx="556.5" cy="694.5" r="22.5" fill="#75D7F6"/>
</svg>
