<svg xmlns="http://www.w3.org/2000/svg" viewBox="0 0 695 696.21"><defs><style>.cls-1,.cls-3{fill:#fff;}.cls-1,.cls-2{opacity:0.15;}</style></defs><title>Ресурс 1</title><g id="Слой_2" data-name="Слой 2"><g id="Слой_1-2" data-name="Слой 1"><path class="cls-1" d="M570.35,342.28c0-2.32,0-4.65-.17-7l27.29-1.06a.36.36,0,1,0,0-.73l-27.29,1.06c0-2.55-.28-5.12-.48-7.7l27.23-2.13.14,0a.39.39,0,0,0,.11-.09.38.38,0,0,0,.07-.12.36.36,0,0,0,0-.14.36.36,0,0,0-.36-.34l-27.23,2.13c-.2-2.55-.45-5.12-.76-7.67l27.15-3.22a.36.36,0,0,0,.23-.14.33.33,0,0,0,0-.48.36.36,0,0,0-.24-.09l-27.15,3.22c-.25-2.07-.48-4.14-.78-6.22l27-4.26a1.8,1.8,0,1,0-.28-3.58h-.28L567.4,308c-.25-1.6-.5-3.16-.81-4.76L593.32,298a1.79,1.79,0,0,0-.34-3.56h-.34l-26.75,5.24c-.42-2-.84-4.09-1.35-6.1l26.5-6.36a.36.36,0,0,0,0-.7l-26.47,6.36c-.59-2.49-1.29-5-2-7.45L588.84,278a.37.37,0,0,0,.19-.13.36.36,0,0,0,0-.44.37.37,0,0,0-.19-.13l-26.59,7.5c-.65-2.24-1.32-4.48-2-6.69l25.91-8.4a1.09,1.09,0,0,0-.34-2.1h-.34L559.56,276c-.64-2-1.32-3.95-2-5.94l25.55-9.44a1.09,1.09,0,0,0-.36-2.1h-.36l-25.72,9.58c-.81-2.18-1.62-4.37-2.52-6.53l25.21-10.39a.36.36,0,0,0,.2-.48.36.36,0,0,0-.34-.22L554,260.88q-1.2-2.8-2.49-5.74l24.77-11.34a1.79,1.79,0,0,0-.76-3.42,1.76,1.76,0,0,0-.76.17L550,252c-.9-1.88-1.82-3.75-2.8-5.6l24.23-12.35a.37.37,0,0,0,.14-.48.33.33,0,0,0-.12-.14.34.34,0,0,0-.18-.05h-.17l-24.23,12.35c-1.15-2.27-2.38-4.54-3.64-6.78L567,225.68a.36.36,0,0,0,.11-.09.36.36,0,0,0,.08-.27.36.36,0,0,0,0-.14.37.37,0,0,0-.31-.17h-.17l-23.76,13.3q-1.88-3.36-3.89-6.66l23.28-14.28a.36.36,0,0,0,0-.5.37.37,0,0,0-.13-.12.36.36,0,0,0-.18,0h-.2l-23.2,14.2c-1.34-2.18-2.8-4.37-4.12-6.5L557,209.29a.44.44,0,0,0-.13-.63.37.37,0,0,0-.18,0h-.2L533.9,223.72q-2.13-3.19-4.4-6.33l22-16a.36.36,0,0,0,0-.57.36.36,0,0,0-.21-.07h-.2l-22,16c-1.51-2.07-3.11-4.09-4.71-6.13l21.38-16.8a.36.36,0,0,0,0-.5.34.34,0,0,0-.14,0,.34.34,0,0,0-.14,0,.36.36,0,0,0-.22,0l-21.38,16.8c-1.29-1.62-2.63-3.25-4-4.85l21-17.64a1.83,1.83,0,0,0-2.35-2.8l-20.7,17.67c-1.37-1.57-2.8-3.14-4.17-4.68l20-18.45a.37.37,0,0,0,.1-.18.47.47,0,0,0-.6-.43l-20,18.45c-1.74-1.88-3.47-3.75-5.3-5.6l19.22-19.21,16.81-16.8,18.32-18.34h11.57a.36.36,0,1,0,0-.73h-11l10.65-10.31a4.79,4.79,0,1,0-.5-.5l-11.21,11.2H550.2a.36.36,0,1,0,0,.73H561l-17.57,17.56-3.87-3.78a.36.36,0,0,0-.25,0,.34.34,0,0,0-.25,0,.36.36,0,0,0,0,.5c1.29,1.23,2.58,2.49,3.84,3.78l-35.58,35.68c-1.82-1.82-3.7-3.56-5.6-5.29l18.49-20a.36.36,0,0,0,0-.5.33.33,0,0,0-.25,0,.39.39,0,0,0-.28,0l-18.46,20c-1.71-1.6-3.47-3.11-5.24-4.62l17.68-20.69a1.08,1.08,0,0,0,.27-.37,1.1,1.1,0,0,0,.09-.45,1.1,1.1,0,0,0-.79-1,1.1,1.1,0,0,0-.46,0,1.09,1.09,0,0,0-.76.49l-17.68,20.69c-1.79-1.51-3.59-3-5.41-4.42l16.81-21.37a.36.36,0,0,0,0-.5.36.36,0,0,0-.22,0,.36.36,0,0,0-.28,0l-16.81,21.37c-2-1.6-4-3.19-6.11-4.71l16-22a.36.36,0,0,0,0-.5h-.22a.37.37,0,0,0-.16,0,.35.35,0,0,0-.12.1l-16,22c-1.9-1.37-3.81-2.8-5.6-4l15.1-22.6a1.07,1.07,0,0,0,.24-.4,1.09,1.09,0,0,0,0-.46,1.09,1.09,0,0,0-2.07-.34l-15.07,22.57c-1.54-1-3.14-2-4.71-2.94l14.06-23.21a1.8,1.8,0,0,0-3.08-1.88l-14.2,23.19c-1.79-1.09-3.61-2.1-5.43-3.14l13.31-23.72a.36.36,0,0,0,0-.5h-.17a.36.36,0,0,0-.17,0,.37.37,0,0,0-.13.12L460.61,156c-2.24-1.26-4.51-2.49-6.78-3.64l12.35-24.22a.37.37,0,0,0,0-.27.36.36,0,0,0-.18-.2h-.17a.36.36,0,0,0-.2,0,.36.36,0,0,0-.14.15L453,152c-2.07-1-4.15-2.1-6.28-3.08l11.37-24.67a1.09,1.09,0,0,0-.53-1.43,1.13,1.13,0,0,0-.45,0,1.06,1.06,0,0,0-1,.62l-11.54,24.59c-2.13-1-4.26-1.88-6.42-2.8L448.56,120a.3.3,0,1,0-.53-.25L437.64,145c-2.38-1-4.79-1.88-7.2-2.8l9.44-25.54a.37.37,0,0,0,0-.27.29.29,0,0,0-.54,0L429.74,142q-3.62-1.32-7.31-2.52l8.4-25.9a.3.3,0,1,0-.56-.2l-8.4,25.9c-2-.64-4-1.29-6-1.85l7.4-26.21a1.79,1.79,0,0,0-1.23-2.21h-.5a1.79,1.79,0,0,0-1.74,1.32l-7.4,26.24c-2-.53-4-1.09-6.05-1.6l6.36-26.46a.3.3,0,1,0-.59-.14l-6.36,26.49q-3.42-.81-6.84-1.49l5.32-26.74a1.09,1.09,0,0,0-.84-1.26h-.22a1.09,1.09,0,0,0-1.06.87l-5.32,26.71c-2.27-.45-4.57-.78-6.86-1.15l4.26-26.94a.36.36,0,0,0-.07-.28.36.36,0,0,0-.11-.1.35.35,0,0,0-.5.26L389,131.61c-2.55-.39-5.1-.73-7.65-1l3.22-27.11a.36.36,0,0,0-.31-.39.36.36,0,0,0-.36.31l-3.22,27.11q-3.84-.45-7.65-.76l2.16-27.22a.36.36,0,0,0-.09-.27.39.39,0,0,0-.11-.09.35.35,0,0,0-.5.3l-2.16,27.22c-2.07-.17-4.17-.34-6.25-.45L367.15,102a1.77,1.77,0,1,0-3.53-.14l-1.07,27.27c-2.1,0-4.17-.14-6.27-.14V101.62a.36.36,0,0,0-.73,0v27.19c-2.58,0-5.13,0-7.7.17l-1.32-27.19a.35.35,0,0,0-.7,0l1.06,27.27c-2.55,0-5.13.28-7.68.48l-2.16-27.22a.36.36,0,0,0-.36-.34.36.36,0,0,0-.25.13.38.38,0,0,0-.07.12.36.36,0,0,0,0,.14l2.13,27.22q-3.84.31-7.68.76l-3.19-27.14a.36.36,0,0,0-.36-.31.37.37,0,0,0-.31.39l3.19,27.11c-2.3.28-4.62.56-6.92.9l-4.29-26.94a1.07,1.07,0,0,0-1.07-.9h-.17a1.07,1.07,0,0,0-.88.81,1.07,1.07,0,0,0,0,.42l4.37,26.88c-2.3.36-4.59.73-6.89,1.18L309,106.07a.37.37,0,0,0-.12-.2.27.27,0,0,0-.44.07.36.36,0,0,0-.05.27L313.67,133c-2,.39-4.09.87-6.11,1.34l-6.36-26.52a1.79,1.79,0,0,0-1.74-1.37h-.56a1.8,1.8,0,0,0-1.12.8,1.79,1.79,0,0,0-.22,1.36l6.36,26.49c-2,.5-4,1.06-6.05,1.62l-7.37-26.1a.36.36,0,0,0-.13-.18.36.36,0,0,0-.21-.07.36.36,0,0,0-.25.45l7.4,26.21q-3.7,1.06-7.37,2.24l-8.4-25.9a.3.3,0,1,0-.56.2l8.4,25.9c-2.44.81-4.87,1.62-7.31,2.52l-9.41-25.54a.36.36,0,0,0-.34-.22.35.35,0,0,0-.13.07.36.36,0,0,0-.09.12.34.34,0,0,0,0,.14.36.36,0,0,0,0,.14l9.41,25.54c-2.41.9-4.82,1.79-7.2,2.8l-10.39-25.2a.36.36,0,0,0-.34-.22.36.36,0,0,0-.2.48l10.39,25.2q-3.22,1.34-6.42,2.8L256,123.38a1.1,1.1,0,0,0-.22-.42,1.09,1.09,0,0,0-.37-.29,1.1,1.1,0,0,0-.46-.1,1.09,1.09,0,0,0-.91,1.7l11.37,24.67c-1.68.78-3.33,1.62-5,2.46l-12.8-24.28a1.79,1.79,0,0,0-1.6-1,1.75,1.75,0,0,0-.81.2,1.79,1.79,0,0,0-.79,2.41L256.74,153c-1.85,1-3.67,2-5.6,3l-13.28-23.75a.37.37,0,0,0-.31-.2h-.17a.36.36,0,0,0,0,.5l13.28,23.75q-3.36,1.88-6.64,3.89L229.82,137a.37.37,0,0,0-.13-.12.37.37,0,0,0-.18,0h-.2a.36.36,0,0,0,0,.5l14.2,23.19c-2.19,1.34-4.37,2.8-6.53,4.12L221.92,142a.37.37,0,0,0-.13-.12.36.36,0,0,0-.18,0h-.2a.36.36,0,0,0,0,.5l14.82,22.85c-2.13,1.43-4.23,2.8-6.33,4.4l-16-22a.36.36,0,0,0-.12-.1.37.37,0,0,0-.16,0h-.22a.36.36,0,0,0,0,.5l16,22c-2.07,1.51-4.09,3.11-6.14,4.71l-16.81-21.37a.36.36,0,0,0-.12-.1.37.37,0,0,0-.16,0h-.22a.36.36,0,0,0,0,.5L222.73,175q-2.8,2.16-5.41,4.42l-17.68-20.69a1.09,1.09,0,0,0-.36-.28,1,1,0,0,0-1,.07,1.09,1.09,0,0,0-.48,1.06,1.1,1.1,0,0,0,.24.55l17.68,20.69c-1.76,1.51-3.5,3.05-5.24,4.62l-18.49-20a.36.36,0,0,0-.25,0,.33.33,0,0,0-.25,0,.36.36,0,0,0,0,.5l17.62,19a8.66,8.66,0,0,0-9.44,1.54l-12.8-12.68-18.21-18.2,1.37-1.37a.36.36,0,0,0,0-.5.39.39,0,0,0-.25,0,.33.33,0,0,0-.25,0l-1.37,1.37-4-4,31.13-31-2-2-31.1,31.08L155,142.17a4.82,4.82,0,1,0-.5.5l7.09,7.08-31.1,31.08,2,2,31.1-31.08,3.95,3.95L165.44,158a.36.36,0,0,0,.5.5l2.19-2.18,30.82,30.8a8.65,8.65,0,0,0-1.54,9.41l-19-17.5a.72.72,0,0,0-.45.07.36.36,0,0,0-.13.16.36.36,0,0,0,0,.21.35.35,0,0,0,.1.18L198,198c-1.43,1.54-2.8,3.11-4.17,4.71L173.17,185a1.82,1.82,0,1,0-2.33,2.8l20.7,17.67c-1.35,1.6-2.8,3.22-3.95,4.85l-21.38-16.8a.33.33,0,0,0-.22,0,.36.36,0,0,0-.21.07.36.36,0,0,0-.13.17.36.36,0,0,0,.11.4L187.15,211c-1.6,2-3.19,4.06-4.71,6.1l-22-16h-.22a.36.36,0,0,0-.34.24.36.36,0,0,0,0,.22.37.37,0,0,0,.12.18l22,16c-1.23,1.68-2.41,3.42-3.59,5.15l-22.64-15.12a1.8,1.8,0,1,0-2,3l22.58,15.09c-1.15,1.76-2.21,3.53-3.33,5.32l-23.25-14.45h-.2a.36.36,0,0,0-.17,0,.4.4,0,0,0-.13.63l23.2,14.2q-2,3.3-3.89,6.64l-23.76-13.33h-.17a.34.34,0,0,0-.31.2.37.37,0,0,0,0,.48l23.76,13.3c-1.26,2.24-2.49,4.51-3.64,6.78l-24.23-12.35h-.17a.37.37,0,0,0-.33.27.36.36,0,0,0,.16.4l24.54,12.29c-1.18,2.3-2.33,4.59-3.39,6.92l-24.63-11.4h-.14a.36.36,0,0,0-.36.29.37.37,0,0,0,.22.41l24.68,11.4c-1,2.13-1.88,4.26-2.8,6.41L132.8,249.9a1,1,0,0,0-.42,0,1.09,1.09,0,0,0-1,.87A1.09,1.09,0,0,0,132,252l25.21,10.39c-.87,2.16-1.68,4.34-2.49,6.53l-25.55-9.44a.36.36,0,0,0,0,.7l25.55,9.44c-.73,2-1.4,3.92-2.07,5.91l-25.91-8.4a1.8,1.8,0,1,0-1.12,3.42l25.94,8.4c-.62,2-1.23,4-1.79,6l-26.22-7.39a.36.36,0,0,0-.22.08.36.36,0,0,0-.12.2.36.36,0,0,0,.25.45l26.22,7.39c-.7,2.46-1.37,5-2,7.45l-26.47-6.36a.37.37,0,0,0-.34.28.37.37,0,0,0,0,.26.37.37,0,0,0,.21.16l26.5,6.36q-.9,3.75-1.65,7.53L119.18,296a.36.36,0,0,0,0,.7L145.91,302c-.5,2.52-.9,5.07-1.32,7.59l-27.65-4.37a.36.36,0,0,0,0,.73l27,4.28c-.34,2.3-.64,4.59-.92,6.92l-27.15-3.22a1.08,1.08,0,1,0,0,2.16l26.78,3.14q-.39,3.47-.67,6.94L114.7,324a.36.36,0,0,0-.36.34.36.36,0,0,0,.09.27.39.39,0,0,0,.11.09l.14,0,27.23,2.16c-.2,2.55-.36,5.13-.48,7.67L114,333.52a.36.36,0,1,0,0,.73l27.29,1.06c0,2.58-.17,5.13-.2,7.7H114a.36.36,0,1,0,0,.73h27.29c0,2.58,0,5.15.2,7.7L114.2,352.5a.36.36,0,0,0-.24.12.37.37,0,0,0-.1.25.39.39,0,0,0,.36.34l27.29-1.06c0,2.07.22,4.17.36,6.24l-27.26,2.13a1.8,1.8,0,1,0,.28,3.58L142.13,362c.17,2.07.42,4.14.65,6.22l-27.15,3.22a.37.37,0,0,0-.31.39.35.35,0,0,0,0,.13.33.33,0,0,0,.09.11.35.35,0,0,0,.13.06h.14l27.15-3.22c.25,2.07.48,4.14.78,6.22l-27,4.26a1.8,1.8,0,1,0,.56,3.56l27-4.26c.34,2.07.67,4.12,1.07,6.19l-26.73,5.29a.36.36,0,0,0,.14.7l26.73-5.29q.76,3.78,1.63,7.5l-26.5,6.36a.37.37,0,0,0-.21.16.35.35,0,0,0,.38.51l26.47-6.36c.59,2.49,1.29,5,2,7.45l-26.25,7.39a.36.36,0,0,0-.22.17.36.36,0,0,0,.42.53l26.22-7.39c.7,2.46,1.46,4.93,2.24,7.36l-25.92,8.4a.35.35,0,0,0-.12.07.37.37,0,0,0,0,.52.38.38,0,0,0,.11.09l.14,0,.14,0,25.94-8.4c.78,2.44,1.63,4.87,2.49,7.28l-25.55,9.41a.37.37,0,0,0-.2.2.37.37,0,0,0,0,.14.35.35,0,0,0,0,.14.33.33,0,0,0,.06.13.34.34,0,0,0,.25.12l.14,0,25.55-9.41c.81,2.18,1.6,4.37,2.47,6.52l-25.21,10.39a1.09,1.09,0,0,0,.81,2l25.21-10.39q1.07,2.55,2.21,5.07l-24.71,11.4a1.8,1.8,0,0,0,1.51,3.28l24.77-11.34c.78,1.68,1.63,3.33,2.47,5l-24.26,12.35a1.09,1.09,0,0,0-.36,1.4,1.09,1.09,0,0,0,1.34.53L165,441.78c1.06,2.07,2.18,4.12,3.33,6.13l-23.76,13.3a.36.36,0,0,0,0,.48.37.37,0,0,0,.48.14l23.73-13.3c1.15,2,2.3,4,3.5,6l-23.2,14.2a1.09,1.09,0,0,0,1.12,1.85l23.09-14.17c1.23,2,2.44,3.95,3.75,5.91l-22.58,15.09a.37.37,0,0,0-.22.23.35.35,0,0,0,0,.16.36.36,0,0,0,.18.27.36.36,0,0,0,.32,0,.37.37,0,0,0,.13-.09l22.61-15.09c1.15,1.74,2.35,3.44,3.59,5.12l-22,16a1.79,1.79,0,0,0,2.1,2.8l22-16c1.09,1.48,2.24,2.8,3.39,4.4l-21.38,16.8a1.09,1.09,0,0,0,1.35,1.71L187.88,477q2.19,2.73,4.45,5.38L171.63,500a.37.37,0,0,0-.12.11.36.36,0,0,0-.06.15.36.36,0,0,0,0,.16.37.37,0,0,0,.08.14.37.37,0,0,0,.13.09.35.35,0,0,0,.16,0,.36.36,0,0,0,.15,0,.37.37,0,0,0,.12-.1l20.7-17.67c1.6,1.85,3.19,3.7,4.87,5.6a9,9,0,0,0-.53,1l-19.22,17.75a.35.35,0,0,0,.25.61.37.37,0,0,0,.25-.1l18.07-16.8a9.27,9.27,0,0,0,1.6,8.4l-14,14a1.09,1.09,0,0,0,1.54,1.51l14-14a9.3,9.3,0,1,0,.59-15,211.54,211.54,0,0,1-14.76-17.92,1.6,1.6,0,0,0-.87-1.26,208.94,208.94,0,0,1-20.17-34.22,1.83,1.83,0,0,0-.14-.78,1.79,1.79,0,0,0-.39-.48,210.51,210.51,0,0,1-16.39-54.52,1.76,1.76,0,0,0,0-.31,1.46,1.46,0,0,0,0-.34Q146.27,368,145.66,360v-.17a1.09,1.09,0,0,0,0-.14,212.17,212.17,0,0,1,9.47-81.21,1.79,1.79,0,0,0,.22-.39,1.9,1.9,0,0,0,0-.48,209.16,209.16,0,0,1,24.49-50.83,1.73,1.73,0,0,0,.59-.53,1.89,1.89,0,0,0,.28-.7,209.75,209.75,0,0,1,14.2-18.71,1.9,1.9,0,0,0,.5-.39,1.71,1.71,0,0,0,.31-.53c1.63-1.88,3.25-3.75,5-5.6a8.69,8.69,0,0,0,10.59-.93l3.42,3.42a4.82,4.82,0,0,0,6.64,6.66l7.4,7.39a179.41,179.41,0,0,0,0,253l-6.81,6.8a4.82,4.82,0,1,0,.5.5l6.81-6.78A178.23,178.23,0,0,0,355.63,522.7v9.89a4.79,4.79,0,0,0,0,9.52v8.77a4.88,4.88,0,1,0,.73,0v-8.71a4.82,4.82,0,1,0,0-9.63V522.7a178.11,178.11,0,0,0,122.79-49.17,4.82,4.82,0,0,0,5.77.53l4.48,4.48a4.82,4.82,0,0,0,6.33,6.33l3.64,3.64a8.66,8.66,0,0,0,12.16,12.15l15.52,15.51a1.09,1.09,0,0,0,1.54-1.54l-15.52-15.51a8.59,8.59,0,0,0,1.77-6.27l17.37,16a1.79,1.79,0,1,0,2.44-2.63l-20-18.57c1.43-1.54,2.8-3.14,4.12-4.73l20.7,17.67a.34.34,0,0,0,.5,0,.36.36,0,0,0,0-.5l-20.7-17.67c1.34-1.6,2.8-3.16,4-4.79l21.35,16.8a1.79,1.79,0,0,0,1.32.38,1.79,1.79,0,0,0,1.2-.66,1.79,1.79,0,0,0-.28-2.52l-21.38-16.8c1.29-1.65,2.58-3.3,3.81-5l22,16a.36.36,0,0,0,.13.08.37.37,0,0,0,.15,0,.36.36,0,0,0,.15,0,.37.37,0,0,0,.11-.1.36.36,0,0,0,.06-.29.36.36,0,0,0-.06-.14.38.38,0,0,0-.12-.1l-22-16q2.27-3.14,4.4-6.33l22.61,15.09a.37.37,0,0,0,.24,0,.36.36,0,0,0,.16-.59l-22.58-15.07c1.43-2.16,2.8-4.34,4.12-6.52l23.2,14.2a.38.38,0,0,0,.14.08.37.37,0,0,0,.16,0,.35.35,0,0,0,.15-.06.36.36,0,0,0,.14-.42.36.36,0,0,0-.22-.22L539,455.27q2-3.3,3.89-6.64l23.73,13.3a.37.37,0,0,0,.14.08.37.37,0,0,0,.31,0,.36.36,0,0,0,.11-.12.37.37,0,0,0,0-.31.36.36,0,0,0-.22-.22L543.23,448c1.26-2.24,2.49-4.51,3.64-6.78l24.23,12.35a.36.36,0,0,0,.34-.64L547.21,440.6c1.07-2.07,2.1-4.17,3.11-6.27L575,445.7a1.09,1.09,0,0,0,1.6-.45,1.1,1.1,0,0,0,.1-.46,1.09,1.09,0,0,0-.81-1l-24.68-11.4q1.46-3.19,2.8-6.41l25.21,10.42a.36.36,0,0,0,.48-.2.36.36,0,0,0-.2-.48l-25.21-10.39c.9-2.16,1.71-4.34,2.52-6.53l25.55,9.41a1.09,1.09,0,0,0,.76-2l-25.55-9.41c.78-2.18,1.54-4.4,2.24-6.61l25.91,8.4a.36.36,0,0,0,.15.05.37.37,0,0,0,.38-.25.37.37,0,0,0,0-.16.38.38,0,0,0-.06-.15.37.37,0,0,0-.12-.11.38.38,0,0,0-.16-.05L560,409.46c.79-2.44,1.54-4.9,2.24-7.36l26.22,7.39a.36.36,0,0,0,.2-.7l-26.22-7.42c.62-2.24,1.26-4.48,1.82-6.75L590.71,401a1.09,1.09,0,0,0,.51-2.1l-26.5-6.39c.53-2.27,1-4.54,1.48-6.8L592.93,391a.36.36,0,0,0,.31,0,.36.36,0,0,0,.12-.1.36.36,0,0,0,.06-.3.36.36,0,0,0-.07-.14.37.37,0,0,0-.12-.1.37.37,0,0,0-.16,0L566.34,385c.45-2.3.81-4.59,1.18-6.89l27,4.28a1.09,1.09,0,0,0,.34-2.13l-27-4.4c.36-2.3.64-4.62.92-6.92l27.12,3.22a.35.35,0,0,0,.08-.7l-27.12-3.22q.46-3.82.76-7.64l27.23,2.13.14,0a.36.36,0,0,0,.13-.07.39.39,0,0,0,.09-.11.34.34,0,0,0,0-.14.36.36,0,0,0,0-.14.38.38,0,0,0-.07-.12A.39.39,0,0,0,597,362l-.14,0-27.23-2.13c.2-2.55.36-5.12.48-7.7l27.29,1.06a.35.35,0,0,0,0-.7l-27.29-1.06c0-2.32.14-4.65.17-7h27.32a1.09,1.09,0,1,0,0-2.16ZM521.88,473.48a1.89,1.89,0,0,0-.48.39,1.94,1.94,0,0,0-.34.67q-4.68,5.88-9.83,11.51a1.94,1.94,0,0,0-.45.34,8.66,8.66,0,0,0-9.92.5l-3.42-3.42a4.79,4.79,0,0,0-6.78-6.78l-4.26-4.26a4.81,4.81,0,0,0-.53-5.77,179.16,179.16,0,0,0,0-246.59,4.76,4.76,0,0,0,0-6.36l4.71-4.7a4.79,4.79,0,1,0,6.78-6.78l7.85-7.84c3.7,3.72,7.17,7.56,10.56,11.48a1.69,1.69,0,0,0,.31.56,1.78,1.78,0,0,0,.5.39,209.5,209.5,0,0,1,30.51,47.6,1.71,1.71,0,0,0,.14.79,1.8,1.8,0,0,0,.45.59,210.57,210.57,0,0,1,14.85,46,1.58,1.58,0,0,0,0,.5,1.75,1.75,0,0,0,.22.56c.48,2.44.87,4.87,1.23,7.31a2.61,2.61,0,0,0,0,.28,2,2,0,0,0,0,.31,211,211,0,0,1-42.08,162.67ZM478.65,213.8a4.79,4.79,0,0,0,0,6.16l-29.47,29.51A131.7,131.7,0,0,0,356.33,211V192.24H396a.37.37,0,0,0,.26-.11.36.36,0,0,0-.26-.62H356.33V169.28a4.73,4.73,0,0,0,4.51-4.34A177.24,177.24,0,0,1,478.65,213.8ZM351.29,164.91a4.79,4.79,0,0,0,1.37,3,4.84,4.84,0,0,0,3,1.37v22.4H316a.36.36,0,0,0,0,.73h39.64v18.71a131.7,131.7,0,0,0-93.15,38.39l-12.33-12.24-12-12,11.54-11.54a.34.34,0,0,0,0-.5.33.33,0,0,0-.25,0,.36.36,0,0,0-.25,0l-11.54,11.54-7.93-7.93A177.41,177.41,0,0,1,351.29,164.91Zm-87.88,86.61,4.4,4.4c-1.26,1.26-2.52,2.58-3.73,3.92a.36.36,0,0,0-.1.12.35.35,0,0,0,0,.15.37.37,0,0,0,0,.16.36.36,0,0,0,.23.21.36.36,0,0,0,.16,0,.35.35,0,0,0,.15-.06.37.37,0,0,0,.11-.12c1.2-1.32,2.46-2.63,3.73-3.89l19.08,19.07L275.87,287a.36.36,0,0,0,.5.5L287.92,276l18.77,18.76L295.15,306.3a.36.36,0,0,0-.06.24.36.36,0,0,0,.11.22.36.36,0,0,0,.46,0l11.54-11.54L326,314l-11.54,11.54a.36.36,0,0,0,.51.5l11.54-11.54,16.81,16.8a17.45,17.45,0,0,0,12.44,29.57v24.53H334.09a.36.36,0,0,0,0,.73h21.63v15H334.09a.37.37,0,0,0-.26.11.36.36,0,0,0,.26.62h21.63v15H334.09a.35.35,0,0,0-.14,0,.36.36,0,0,0-.12.08.34.34,0,0,0-.08.12.36.36,0,0,0,0,.28.35.35,0,0,0,.08.12.36.36,0,0,0,.12.08.35.35,0,0,0,.14,0h21.63v49.2h-3.59a.36.36,0,1,0,0,.73h3.39v6.24a130.23,130.23,0,0,1-92.11-222.18Zm93,222.06v-6.22H358a.36.36,0,0,0,0-.73h-1.65v-49.2h23.39a.36.36,0,0,0,0-.73H356.36v-15h23.39a.36.36,0,0,0,0-.73H356.36v-15h23.39l.14,0a.37.37,0,0,0,.2-.2.36.36,0,0,0,0-.28.36.36,0,0,0-.08-.12.38.38,0,0,0-.12-.08l-.14,0H356.36V360.76a17.42,17.42,0,0,0,12-29.54l28.91-28.79h11.54a.36.36,0,1,0,0-.73H398l5.13-5.12h11.57a.36.36,0,1,0,0-.73H403.88l5.13-5.12h11.57a.36.36,0,0,0,0-.73H409.73l5.13-5.12h11.57a.37.37,0,0,0,.26-.11.36.36,0,0,0-.26-.62H415.59l32.55-32.54a130.22,130.22,0,0,1-91.83,222.06ZM263.91,251a129.48,129.48,0,0,1,91.72-37.89v6.22h-5a.36.36,0,0,0-.24.12.33.33,0,0,0,0,.49.37.37,0,0,0,.25.1h5V325.84a17.46,17.46,0,0,0-11.93,4.87l-16.81-16.8,11.54-11.54a.36.36,0,0,0-.25-.62.39.39,0,0,0-.25,0l-11.49,11.87-18.77-18.76,11.54-11.54a.28.28,0,1,0-.25-.51.4.4,0,0,0-.25,0L307.17,294.4,288.4,275.63l11.54-11.54a.36.36,0,0,0-.5-.5l-11.54,11.54-19.08-19.07c1.26-1.23,2.52-2.46,3.81-3.64a.36.36,0,0,0-.5-.5c-1.29,1.18-2.58,2.41-3.84,3.64Zm92.45-37.89A129.43,129.43,0,0,1,447.67,251l-33.09,33.07H403a.36.36,0,1,0,0,.73h10.73l-5.13,5.12H397.1a.36.36,0,1,0,0,.73h10.82l-5.13,5.13H391.35a.36.36,0,0,0,0,.73h10.81l-5.21,5.1H385.47a.36.36,0,1,0,0,.73h10.81l-28.41,28.42a17.4,17.4,0,0,0-11.54-4.85V220a.37.37,0,0,0,.26-.11.36.36,0,0,0-.26-.62Zm0,308.76v-14h29.25a.36.36,0,1,0,0-.73H356.36V475.77h3.56l.62,17.08a1.12,1.12,0,0,0,1.12,1,1.09,1.09,0,0,0,1-1.12L362,475.49l3-.2,1.34,17.28a1.12,1.12,0,0,0,1.15,1,1.06,1.06,0,0,0,.73-.37,1.06,1.06,0,0,0,.25-.78l-1.35-17.28,3.73-.36,2,17.19a.38.38,0,0,0,0,.17.36.36,0,0,0,.2.26.36.36,0,0,0,.16,0,.36.36,0,0,0,.29-.14.36.36,0,0,0,.07-.15.35.35,0,0,0,0-.17l-2-17.19q2.23-.25,4.45-.59l2.8,17.05a.37.37,0,0,0,0,.14.38.38,0,0,0,.23.17h.15a.36.36,0,0,0,.13,0,.37.37,0,0,0,.11-.1.37.37,0,0,0,.06-.13.37.37,0,0,0,0-.14L376.81,474c1.49-.22,2.94-.48,4.43-.76l3.36,16.8a.36.36,0,0,0,.7,0l-3.36-16.8c1.48-.28,2.8-.64,4.37-1l4,16.8a.36.36,0,0,0,0,.15.36.36,0,0,0,.1.12.39.39,0,0,0,.14.06.36.36,0,0,0,.16,0,.37.37,0,0,0,.14-.07.36.36,0,0,0,.14-.27.35.35,0,0,0,0-.15l-4-16.8,3.64-1,4.68,16.63a1.09,1.09,0,0,0,2.07-.59l-4.65-16.77,3.59-1.09,5.32,16.41a.35.35,0,0,0,.67-.22L397,469.14c1.43-.48,2.8-.93,4.26-1.46l6,16.19a.36.36,0,0,0,.33.25.35.35,0,0,0,.14,0,.36.36,0,0,0,.22-.45l-6-16.21c1.4-.5,2.8-1,4.2-1.62l6.58,15.93a.36.36,0,0,0,.67,0,.36.36,0,0,0,0-.28l-6.58-15.93c1.15-.48,2.3-1,3.42-1.51l7.23,15.68a1.09,1.09,0,0,0,2-.9l-7.23-15.65c1.12-.53,2.24-1.12,3.36-1.68l7.84,15.37a.34.34,0,1,0,.62-.31l-7.84-15.37c1.32-.67,2.63-1.4,4-2.13l8.4,15.07a.36.36,0,0,0,.62-.36l-8.4-15.09c1.29-.73,2.6-1.48,3.87-2.27l9,14.73a.35.35,0,0,0,.08.13.36.36,0,0,0,.13.08.37.37,0,0,0,.16,0,.37.37,0,0,0,.15,0,.36.36,0,0,0,.12-.11.38.38,0,0,0,.06-.15.37.37,0,0,0-.09-.3l-9-14.73,3.19-2,9.58,14.37a1.09,1.09,0,0,0,1.79-1.2l-9.61-14.36,3.08-2.16,10.17,14a.36.36,0,0,0,.51-.5l-10.17-14c1.21-.87,2.38-1.79,3.56-2.8l10.73,13.58a.36.36,0,0,0,.1.12.38.38,0,0,0,.14.06.37.37,0,0,0,.3-.07.37.37,0,0,0,.1-.12.37.37,0,0,0,0-.15.36.36,0,0,0-.12-.28l-10.73-13.58,3.45-2.8,11.21,13.16a.36.36,0,0,0,.51-.5l-11.21-13.19c1.12-1,2.24-2,3.36-3L457,453.29a.36.36,0,0,0,.5-.5l-11.77-12.71c1.09-1,2.18-2,3.25-3.08l12.41,12.46a.36.36,0,0,0,.56-.27.37.37,0,0,0-.06-.24l-12.19-12.1c1.06-1.06,2.07-2.16,3.08-3.25l12.72,11.76a.37.37,0,0,0,.12.1.36.36,0,0,0,.15,0,.35.35,0,0,0,.16,0,.37.37,0,0,0,.13-.09.36.36,0,0,0,.08-.14.37.37,0,0,0,0-.16.35.35,0,0,0-.06-.15.37.37,0,0,0-.12-.11L453.27,433.1c1-1.09,2-2.24,3-3.36l13.17,11.2a.36.36,0,0,0,.5-.51l-13.17-11.2q1.46-1.71,2.8-3.44l13.59,10.72a.36.36,0,0,0,.45-.56L460,425.23l2.8-3.56,14,10.17a.37.37,0,0,0,.13.08.36.36,0,0,0,.41-.13.37.37,0,0,0,.06-.14.36.36,0,0,0,0-.15.37.37,0,0,0-.18-.24l-14-10.17c.87-1.2,1.74-2.44,2.58-3.67L480.11,427a.36.36,0,0,0,.5,0,.34.34,0,0,0,0-.5l-14.34-9.58c.84-1.23,1.63-2.52,2.41-3.78l14.74,9a.36.36,0,0,0,.44-.16.35.35,0,0,0,0-.24.36.36,0,0,0-.12-.22l-14.71-9c.78-1.29,1.51-2.58,2.27-3.86l15.07,8.4a.35.35,0,0,0,.5-.48l-15.07-8.4c.62-1.09,1.21-2.18,1.79-3.3L489,412.71a1.08,1.08,0,1,0,1-1.93L474.62,403c.45-.92.92-1.82,1.37-2.8l15.63,7.23a1.09,1.09,0,0,0,.9-2l-15.66-7.23c.5-1.15,1-2.27,1.51-3.44l15.91,6.61a.36.36,0,0,0,.28-.67l-15.91-6.58c.56-1.37,1.09-2.8,1.63-4.17l16.19,6a.36.36,0,0,0,.3,0,.37.37,0,0,0,.13-.08.39.39,0,0,0,.09-.13.37.37,0,0,0,0-.31.37.37,0,0,0-.11-.12.36.36,0,0,0-.14-.06l-16.19-6c.42-1.18.81-2.38,1.23-3.56l16.05,4.93a1.09,1.09,0,0,0,1.31-.22,1.1,1.1,0,0,0,.24-.41,1.09,1.09,0,0,0-.88-1.42l-16.42-5.32q.56-1.79,1.06-3.61l16.61,4.68a.36.36,0,0,0,.43-.26.36.36,0,0,0-.23-.44l-16.61-4.7c.39-1.43.78-2.8,1.15-4.34l16.81,4a.38.38,0,0,0,.15,0,.36.36,0,0,0,.15,0,.37.37,0,0,0,.12-.1.36.36,0,0,0,.07-.14.35.35,0,0,0,0-.15.37.37,0,0,0-.06-.14.36.36,0,0,0-.12-.1.36.36,0,0,0-.15,0l-16.81-4c.34-1.46.7-2.8,1-4.37l16.81,3.36a.35.35,0,0,0,.36-.55.36.36,0,0,0-.23-.15l-16.81-3.36c.28-1.46.53-2.94.76-4.42l17.06,2.8a.36.36,0,0,0,0-.7l-17.06-2.8c.22-1.46.39-2.94.59-4.42l17.2,2a.35.35,0,0,0,.08-.7l-17.17-2c0-1.23.28-2.49.36-3.75l17.26,1.37A1.09,1.09,0,0,0,505,354l-17.29-1.37c0-1.26.17-2.49.22-3.75l17.31.7a.36.36,0,0,0,.36-.34.36.36,0,0,0-.34-.36l-17.31-.7v-4.48h17.31a.36.36,0,0,0,0-.73H488v-3.75l17.31-.67a1.09,1.09,0,0,0,0-2.16l-17.29.7c0-1.26-.17-2.49-.25-3.75L505,332l.14,0a.37.37,0,0,0,.11-.09.36.36,0,0,0,.07-.12.35.35,0,0,0,0-.14.37.37,0,0,0-.12-.24.36.36,0,0,0-.25-.1l-17.26,1.34a34,34,0,0,0-.34-3.75l17.17-2a1.09,1.09,0,0,0,0-2.16l-17.2,2c-.14-1.26-.31-2.49-.51-3.72l17.06-2.8a.36.36,0,0,0,.31-.42.37.37,0,0,0-.36-.31l-17.09,2.8c-.22-1.48-.48-2.94-.76-4.42l16.81-3.36a.37.37,0,0,0,.19-.13.36.36,0,0,0-.19-.57L486,317.16c-.28-1.46-.64-2.8-1-4.37l16.81-4a.36.36,0,0,0,.19-.13.36.36,0,0,0-.19-.57l-16.81,4c-.36-1.46-.76-2.8-1.15-4.34L500.5,303a.37.37,0,0,0,.19-.57.36.36,0,0,0-.19-.13l-16.61,4.7c-.42-1.43-.84-2.8-1.29-4.31L499,297.42a.37.37,0,0,0,.19-.13.36.36,0,0,0,0-.44.37.37,0,0,0-.19-.13L482.6,302c-.48-1.43-.92-2.8-1.46-4.26l16.19-6a.36.36,0,0,0,.1-.63.37.37,0,0,0-.21-.07l-16.19,6c-.53-1.4-1-2.8-1.6-4.17l15.91-6.58a.37.37,0,0,0,.19-.13.36.36,0,0,0-.19-.57h-.14l-17,6.69c-.56-1.37-1.21-2.8-1.82-4.09L492.07,281a.36.36,0,0,0-.14-.7h-.14l-15.66,7.23c-.62-1.34-1.32-2.8-2-4l15.27-7.79a.37.37,0,0,0,.14-.17.36.36,0,0,0-.31-.5h-.17l-15.41,7.78c-.56-1.12-1.15-2.21-1.77-3.3l15.07-8.4a1.09,1.09,0,0,0-1.06-1.88l-15.07,8.4c-.62-1.09-1.26-2.18-1.9-3.25l14.88-8.93a.36.36,0,0,0,.15-.41.36.36,0,0,0-.13-.19.35.35,0,0,0-.22-.07h-.2l-14.74,9c-.78-1.29-1.57-2.55-2.41-3.78l14.23-9.6a.36.36,0,0,0,.12-.39.36.36,0,0,0-.12-.18.36.36,0,0,0-.2-.08h-.2l-14.34,9.58c-.84-1.23-1.71-2.44-2.58-3.64l14-10.17a.37.37,0,0,0,.12-.18.36.36,0,0,0,0-.22.36.36,0,0,0-.13-.18.37.37,0,0,0-.21-.07h-.2l-14,10.17c-.87-1.2-1.79-2.38-2.8-3.56l13.59-10.72a.36.36,0,0,0-.45-.56L459.52,261c-.92-1.18-1.88-2.32-2.8-3.44l13.17-11.2a.37.37,0,0,0,0-.51l-.14,0-.14,0a.37.37,0,0,0-.22,0L456.21,257c-1-1.12-2-2.27-3-3.36L466,241.92a.28.28,0,1,0-.25-.5.39.39,0,0,0-.25,0l-12.72,11.76c-1-1.09-2-2.18-3.08-3.25l12.24-12.24,17.29-17.28a4.79,4.79,0,0,0,6.16,0,178.29,178.29,0,0,1,0,245.61,4.79,4.79,0,0,0-6.75,6.75,177.41,177.41,0,0,1-122.23,49.12ZM229.23,217.36l8,8-11.54,11.54a.36.36,0,0,0-.06.24.37.37,0,0,0,.1.22.36.36,0,0,0,.22.1.37.37,0,0,0,.24-.06l11.54-11.54L262,250c-1.07,1.06-2.07,2.16-3.08,3.25L246.18,241.5a.33.33,0,0,0-.25,0,.29.29,0,0,0-.25.5l12.72,11.76c-1,1.12-2,2.24-3,3.36l-13.19-11.2a.33.33,0,0,0-.22,0l-.14,0-.14,0a.36.36,0,0,0-.1.25.37.37,0,0,0,.1.25l13.19,11.2c-1,1.15-1.93,2.3-2.8,3.44l-13.59-10.72a.33.33,0,0,0-.22,0,.34.34,0,0,0-.14,0,.34.34,0,0,0-.14,0,.36.36,0,0,0,0,.5l13.62,10.72-2.8,3.56-14-10.17h-.22a.36.36,0,0,0-.34.46.37.37,0,0,0,.12.18l14,10.17c-.87,1.2-1.74,2.44-2.55,3.67l-14.37-9.61h-.2a.37.37,0,0,0-.17,0,.35.35,0,0,0-.14.11.36.36,0,0,0,0,.5l14.37,9.6c-.84,1.26-1.62,2.52-2.41,3.81l-14.76-9H228a.4.4,0,0,0-.31.67l15,8.9q-1,1.6-1.9,3.22l-15.1-8.4a1,1,0,0,0-.53-.14,1.09,1.09,0,0,0-.53,2l15.13,8.4c-.59,1.09-1.2,2.21-1.76,3.33L222.56,275h-.17a.33.33,0,0,0-.34.2.36.36,0,0,0,.17.48l15.41,7.87c-.67,1.34-1.34,2.8-2,4L220,280.31h-.14a.36.36,0,0,0-.23.08.37.37,0,0,0-.13.21.37.37,0,0,0,0,.24.36.36,0,0,0,.18.17l15.72,7.25c-.62,1.34-1.2,2.8-1.76,4.09l-16-6.72a.36.36,0,0,0-.19.13.36.36,0,0,0,.19.57l16,6.64c-.56,1.37-1.09,2.8-1.6,4.2l-16.67-5.94a.37.37,0,0,0-.21.07.35.35,0,0,0-.1.45.36.36,0,0,0,.2.18l16.28,6q-.76,2.1-1.46,4.23l-16.64-5.32a.36.36,0,0,0-.11.7l16.5,5.35c-.39,1.2-.78,2.38-1.12,3.58l-16.81-4.7h-.28a1.08,1.08,0,1,0-.31,2.13l16.81,4.7c-.34,1.2-.67,2.41-1,3.61l-16.81-4a.36.36,0,0,0-.19.57.35.35,0,0,0,.19.13l16.81,4.06q-.5,2.18-1,4.37l-17-3.39a.36.36,0,0,0-.22.08.34.34,0,0,0-.07.46.36.36,0,0,0,.23.15l17,3.39c-.28,1.46-.5,2.8-.76,4.42l-17.17-2.8a.36.36,0,0,0,0,.7l17.17,2.8c-.22,1.48-.42,2.94-.59,4.42l-17.28-2a.36.36,0,0,0-.36.36.36.36,0,0,0,.36.36l17.28,2c-.17,1.49-.34,3-.45,4.45l-17.9-1.46a.36.36,0,0,0-.36.34.37.37,0,0,0,.09.27.39.39,0,0,0,.11.09l.14,0,17.34,1.37c0,1.23-.2,2.49-.28,3.72l-17.37-.67a1.09,1.09,0,0,0-.92,1.08,1.09,1.09,0,0,0,.92,1.08l17.4.67V343H206.14a.36.36,0,1,0,0,.73h17.12v4.48l-17.37.7a.36.36,0,0,0-.34.36.39.39,0,0,0,.36.34l17.37-.7c0,1.26.14,2.49.22,3.75L206.17,354a1.07,1.07,0,1,0,.17,2.13l17.34-1.37a27.7,27.7,0,0,0,.31,3l-17.29,2a1.06,1.06,0,0,0-1,1.2,1.06,1.06,0,0,0,.4.73,1.07,1.07,0,0,0,.81.22l17.29-2c.14,1.23.31,2.49.5,3.72l-17.14,2.8a.37.37,0,0,0-.24.15.35.35,0,0,0-.06.13.35.35,0,0,0,0,.15.34.34,0,0,0,0,.13.36.36,0,0,0,.23.17h.14l17.17-2.8c.2,1.23.39,2.49.62,3.73l-17,3.36a1.09,1.09,0,0,0,.42,2.13l17-3.36c.25,1.23.5,2.44.81,3.67L210,378a.36.36,0,0,0-.28.42.37.37,0,0,0,.45.25l16.81-4c.36,1.46.76,2.8,1.15,4.34l-16.81,4.7a.36.36,0,1,0,.2.7l16.81-4.7c.39,1.43.84,2.8,1.29,4.28l-16.3,5.27a.36.36,0,0,0-.22.45.36.36,0,0,0,.45.22l16.5-5.35q.7,2.13,1.46,4.23l-16.28,6a.34.34,0,0,0-.13.07.35.35,0,0,0-.09.12.36.36,0,0,0,0,.14.36.36,0,0,0,0,.14.36.36,0,0,0,.45.22l16.28-6c.5,1.4,1,2.8,1.6,4.17l-16,6.78a.38.38,0,0,0-.12.08.36.36,0,0,0-.08.4.36.36,0,0,0,.08.12.35.35,0,0,0,.12.08l.14,0a.35.35,0,0,0,.14,0l16-6.64c.56,1.37,1.15,2.8,1.79,4.09l-15.72,7.25a.36.36,0,0,0-.17.48.37.37,0,0,0,.21.18.37.37,0,0,0,.27,0l15.69-7.25c.64,1.34,1.32,2.8,2,4l-15.44,7.87a.37.37,0,0,0-.13.48.37.37,0,0,0,.2.17.36.36,0,0,0,.27,0l15.41-7.87,1.76,3.33-15.13,8.4a1.09,1.09,0,0,0,1.07,1.88l15.1-8.4q.93,1.62,1.9,3.22l-14.76,9a.38.38,0,0,0-.13.09.37.37,0,0,0-.08.13.35.35,0,0,0,0,.16.37.37,0,0,0,0,.15.36.36,0,0,0,.11.11.36.36,0,0,0,.31,0,.34.34,0,0,0,.14-.08l14.76-9c.78,1.26,1.57,2.55,2.41,3.78L231,426.32a.36.36,0,0,0,.5.5l14.32-9.58q1.23,1.85,2.55,3.67l-14,10.17a.36.36,0,0,0,0,.5.36.36,0,0,0,.5,0l14-10.17c.87,1.21,1.79,2.38,2.8,3.56L238.11,435.7a.36.36,0,0,0-.09.23.36.36,0,0,0,.54.33L252,425.65q1.18,1.46,2.38,2.8l-13.17,11.2a1.12,1.12,0,0,0-.33.33,1.1,1.1,0,0,0-.16.43,1.08,1.08,0,0,0,0,.46,1.09,1.09,0,0,0,1,.79,1.09,1.09,0,0,0,.83-.36l13.2-11.2c.81,1,1.65,1.88,2.49,2.8l-12.64,11.82a.36.36,0,0,0,.5.5l12.72-11.76c1,1.09,2,2.18,3.08,3.25l-12.24,12.24a.37.37,0,0,0,0,.46.36.36,0,0,0,.22.11.36.36,0,0,0,.24-.06l12.24-12.21c1.07,1.06,2.16,2.07,3.25,3.08L254,453a.36.36,0,0,0,.5.5l11.77-12.71c1.09,1,2.21,2,3.36,3L258.39,457a.37.37,0,0,0,0,.52.37.37,0,0,0,.27.09.37.37,0,0,0,.25-.13l11.21-13.16c1.15,1,2.3,1.93,3.45,2.8l-10.73,13.58a.36.36,0,0,0,0,.25.36.36,0,0,0,.6.2l10.73-13.58c1.18.92,2.35,1.85,3.53,2.8l-10.17,14a.36.36,0,0,0,.5.5l10.17-14c1.2.87,2.44,1.74,3.67,2.58l-9.58,14.25a.36.36,0,0,0,.5.5l9.67-14.51c1.23.84,2.52,1.62,3.78,2.41l-9,14.73a.34.34,0,0,0-.08.14.37.37,0,0,0,0,.16.35.35,0,0,0,.06.15.36.36,0,0,0,.12.11.36.36,0,0,0,.31,0,.36.36,0,0,0,.13-.08.35.35,0,0,0,.08-.13l9-14.7c1.07.67,2.16,1.29,3.25,1.9l-8.4,15.09a1.08,1.08,0,0,0,.81,1.6,1.08,1.08,0,0,0,1.07-.54l8.4-15.06,3.33,1.76-7.85,15.37a.36.36,0,0,0,.17.48.37.37,0,0,0,.48-.17L296,461.52c1.35.67,2.8,1.34,4,2l-7.23,15.65a.37.37,0,0,0,0,.27.37.37,0,0,0,.18.2.37.37,0,0,0,.27,0,.37.37,0,0,0,.2-.18l7.26-15.65,3.45,1.51-6.61,15.93a1.09,1.09,0,0,0,2,.84l6.61-15.93,3.53,1.34-6,16.19a.38.38,0,0,0,0,.15.37.37,0,0,0,.1.29.38.38,0,0,0,.13.08.37.37,0,0,0,.31,0,.37.37,0,0,0,.18-.25l6-16.19,3.56,1.21-5.32,16.44a1.09,1.09,0,0,0-.05.42,1.08,1.08,0,0,0,.74.94,1.05,1.05,0,0,0,.42.05,1.07,1.07,0,0,0,.94-.74l5.32-16.41,2.8.87-4.62,16.72a1.08,1.08,0,0,0,2.07.59l4.71-16.63,3.64,1-4,16.8a.36.36,0,0,0,.53.39.36.36,0,0,0,.17-.22l4-16.8c1.46.34,2.8.7,4.37,1l-3.36,16.8a.36.36,0,0,0,.57.19.35.35,0,0,0,.13-.19l3.36-16.8c1.46.28,2.94.53,4.43.76l-2.8,17.08a.37.37,0,0,0,.57.19.36.36,0,0,0,.13-.19l2.8-17.05c1.48.22,2.94.39,4.45.59l-2,17.19a.37.37,0,0,0,.06.32.36.36,0,0,0,.58,0,.36.36,0,0,0,.06-.32l2-17.19,4.45.42-1.29,17.47a.38.38,0,0,0,0,.14.37.37,0,0,0,.07.12.38.38,0,0,0,.11.09.35.35,0,0,0,.14,0,.34.34,0,0,0,.15,0,.36.36,0,0,0,.13-.07.34.34,0,0,0,.09-.12.32.32,0,0,0,0-.14l1.35-17.28c1.49,0,3,.22,4.48.28l-.7,17.31a.36.36,0,0,0,.34.36.36.36,0,0,0,.36-.34l.67-17.31h4.48V493a.34.34,0,0,0,.22.31V507H326.39l-.14,0a.37.37,0,0,0-.12.08.37.37,0,0,0-.08.12.36.36,0,0,0,0,.14.35.35,0,0,0,0,.14.37.37,0,0,0,.08.12.35.35,0,0,0,.12.08l.14,0h29.25v14a177.47,177.47,0,0,1-125.9-52.06l7.68-7.65a.28.28,0,0,0-.25-.5.39.39,0,0,0-.25,0l-7.68,7.67a178.69,178.69,0,0,1,0-251.86Zm-14-15.12-3.45-3.42a8.68,8.68,0,0,0,.93-10.59,209.72,209.72,0,0,1,46.62-32.51,1.83,1.83,0,0,0,1.29-.62A210.12,210.12,0,0,1,306,138.31a1.82,1.82,0,0,0,.62,0,1.9,1.9,0,0,0,.48-.22,212.79,212.79,0,0,1,48.61-5.6v11.2a4.82,4.82,0,0,0,0,9.52v6.41a4.73,4.73,0,0,0-4.34,4.51,178.13,178.13,0,0,0-122.09,52.22L221.92,209l.28-.23a4.83,4.83,0,0,0-6.84-6.83Zm289.65-8.4-7.93,7.78a4.79,4.79,0,1,0-6.78,6.78l-4.71,4.68a4.79,4.79,0,0,0-6.36,0A178,178,0,0,0,360.85,164a4.73,4.73,0,0,0-4.51-4.4v-6.33a4.83,4.83,0,1,0,0-9.66v-11.2c2.49,0,5,0,7.45.17h.59a212.17,212.17,0,0,1,48.27,7.59,1.68,1.68,0,0,0,.36.2,1.87,1.87,0,0,0,.45,0,209.45,209.45,0,0,1,52,22.63,1.67,1.67,0,0,0,.53.5,2,2,0,0,0,.67.25,210.32,210.32,0,0,1,38.16,30.16Z"/><path class="cls-1" d="M310.92,82.16l-5.6,1a.36.36,0,0,1-.27-.06.35.35,0,0,1-.1-.49.36.36,0,0,1,.22-.15l5.6-1a.36.36,0,0,1,.14.7Z"/><path class="cls-1" d="M534.93,148l-4.29-3.84a.36.36,0,0,1,0-.5.32.32,0,0,1,.14,0,.32.32,0,0,1,.14,0,.37.37,0,0,1,.25,0c1.48,1.29,2.8,2.6,4.29,3.86a.36.36,0,0,1,0,.5.35.35,0,0,1-.13.08.36.36,0,0,1-.15,0,.38.38,0,0,1-.14,0,.37.37,0,0,1-.12-.09Z"/><path class="cls-1" d="M299.63,84.35,294,85.61a.35.35,0,0,1-.43-.4.36.36,0,0,1,.05-.14.36.36,0,0,1,.1-.11.36.36,0,0,1,.14-.06l5.6-1.29a.36.36,0,1,1,0,.73Z"/><path class="cls-1" d="M526.28,140.41l-4.45-3.67a.37.37,0,0,1,0-.51l.14,0,.14,0a.34.34,0,0,1,.22,0c1.48,1.18,3,2.41,4.45,3.67a.36.36,0,0,1,0,.5.35.35,0,0,1-.11.08.33.33,0,0,1-.28,0,.35.35,0,0,1-.11-.08Z"/><path class="cls-1" d="M322.3,80.48l-5.6.78a.34.34,0,0,1-.15,0,.34.34,0,0,1-.23-.17.35.35,0,0,1,0-.14.37.37,0,0,1,0-.14.35.35,0,0,1,.06-.13.37.37,0,0,1,.11-.1.36.36,0,0,1,.14,0l5.6-.78a.36.36,0,0,1,0,.73Z"/><path class="cls-1" d="M333.73,79.28l-5.6.53a.36.36,0,0,1-.39-.31.37.37,0,0,1,.2-.35l.14,0,5.74-.53a.36.36,0,0,1,.36.34.38.38,0,0,1,0,.16.37.37,0,0,1-.1.13.36.36,0,0,1-.15.07.37.37,0,0,1-.17,0Z"/><path class="cls-1" d="M277.39,90.17l-5.6,1.76a.35.35,0,0,1-.22-.67l5.6-1.76a.34.34,0,0,1,.21.07.34.34,0,0,1,.12.19.36.36,0,0,1,0,.23.36.36,0,0,1-.13.19Z"/><path class="cls-1" d="M240.07,104.9a.35.35,0,0,1-.49-.44.37.37,0,0,1,.18-.21l5.21-2.46h.14a.37.37,0,0,1,.2.09.37.37,0,0,1,.11.19.36.36,0,0,1-.17.38Z"/><path class="cls-1" d="M229.79,110.14a.36.36,0,0,1-.34-.64l5.1-2.8h.17a.33.33,0,0,1,.18.05.34.34,0,0,1,.13.14.36.36,0,0,1-.14.48Z"/><path class="cls-1" d="M255.76,98c-1.76.73-3.53,1.46-5.29,2.21a.36.36,0,1,1-.28-.67l5.32-2.24a.37.37,0,0,1,.2.06.37.37,0,0,1,.13.16.36.36,0,0,1,0,.25.36.36,0,0,1-.13.22Z"/><path class="cls-1" d="M266.49,93.78l-5.41,2a.36.36,0,0,1-.28,0,.37.37,0,0,1-.2-.2.39.39,0,0,1,0-.14.37.37,0,0,1,0-.14.36.36,0,0,1,.09-.12.37.37,0,0,1,.13-.07c1.77-.67,3.59-1.34,5.41-2a.36.36,0,0,1,0,.7Z"/><path class="cls-1" d="M345.21,78.58l-5.74.28a.34.34,0,0,1-.15,0,.33.33,0,0,1-.13-.07.33.33,0,0,1-.09-.12.35.35,0,0,1,0-.14.38.38,0,0,1,0-.14.37.37,0,0,1,.07-.12.36.36,0,0,1,.11-.09l.14,0,5.77-.28a.36.36,0,0,1,.36.34.37.37,0,0,1-.2.35l-.14,0Z"/><path class="cls-1" d="M288.45,87l-5.6,1.51a.36.36,0,1,1-.2-.7l5.6-1.51a.36.36,0,0,1,0,.7Z"/><path class="cls-1" d="M468.2,103.28c-1.74-.81-3.5-1.62-5.24-2.38a.36.36,0,0,1-.18-.2.37.37,0,0,1,.35-.5h.14l5.24,2.38a.37.37,0,0,1,.14.21.36.36,0,0,1-.44.44Z"/><path class="cls-1" d="M508,126.38l-4.73-3.17a.41.41,0,0,1,.31-.67h.2l4.76,3.28a.36.36,0,0,1,.12.1.38.38,0,0,1,.07.14.36.36,0,0,1,0,.15.36.36,0,0,1-.06.14.36.36,0,0,1-.11.1.37.37,0,0,1-.3,0,.36.36,0,0,1-.13-.08Z"/><path class="cls-1" d="M356.73,78.41H351a.36.36,0,1,1,0-.73h5.77a.36.36,0,1,1,0,.73Z"/><path class="cls-1" d="M446.94,94.45l-5.43-2a.36.36,0,0,1-.22-.45.36.36,0,0,1,.34-.25h0L447,93.64a.36.36,0,0,1,.22.45.34.34,0,0,1,0,.14.33.33,0,0,1-.07.12.33.33,0,0,1-.11.08l-.14,0Z"/><path class="cls-1" d="M478.51,108.4l-5.13-2.6a.35.35,0,0,1,0-.62.36.36,0,0,1,.2,0h.17c1.71.84,3.42,1.71,5.15,2.63a.36.36,0,0,1-.34.64Z"/><path class="cls-1" d="M498.46,119.94c-1.6-1-3.25-2-4.87-3.05a.36.36,0,0,1,0-.5.36.36,0,0,1,.13-.12.36.36,0,0,1,.18,0h.2c1.63,1,3.28,2,4.9,3.05a.33.33,0,0,1,.08.11.33.33,0,0,1,0,.28.34.34,0,0,1-.08.11.37.37,0,0,1-.09.13.36.36,0,0,1-.14.08.36.36,0,0,1-.31,0Z"/><path class="cls-1" d="M488.6,113.94l-5-2.8a.37.37,0,0,1-.14-.17.36.36,0,0,1,.31-.5h.17l5,2.8a.36.36,0,0,1,0,.5.36.36,0,0,1-.34.17Z"/><path class="cls-1" d="M436,90.73,430.44,89a.36.36,0,0,1,0-.7h0L436,90a.37.37,0,0,1-.22.7Z"/><path class="cls-1" d="M517.42,133.18c-1.51-1.18-3.08-2.35-4.59-3.47a.36.36,0,0,1-.12-.18.37.37,0,0,1,0-.22.36.36,0,0,1,.34-.24h.22l4.62,3.47a.36.36,0,0,1,0,.5.36.36,0,0,1-.48.14Z"/><path class="cls-1" d="M379.73,79.44l-5.6-.45L374,79a.36.36,0,0,1-.11-.09.37.37,0,0,1-.07-.12.36.36,0,0,1,0-.14.36.36,0,0,1,.36-.34h0l5.74.48.14,0a.37.37,0,0,1,.2.35.37.37,0,0,1-.17.28.37.37,0,0,1-.16.05.36.36,0,0,1-.17,0Z"/><path class="cls-1" d="M368.21,78.66l-5.74-.25a.36.36,0,0,1,0-.73l5.77.2a.36.36,0,1,1,0,.73Z"/><path class="cls-1" d="M219.82,115.82a.37.37,0,0,1-.14.08.37.37,0,0,1-.16,0,.37.37,0,0,1-.15-.06.35.35,0,0,1-.11-.11.36.36,0,0,1,.19-.53c1.6-1,3.28-1.93,5-2.8h.17a.37.37,0,0,1,.18,0,.4.4,0,0,1,.13.63Z"/><path class="cls-1" d="M402.56,82.5l-5.6-1a.36.36,0,1,1,0-.73l5.6,1a.36.36,0,0,1,.28.42.36.36,0,0,1-.09.2.37.37,0,0,1-.19.11Z"/><path class="cls-1" d="M413.77,84.76l-5.6-1.2a.35.35,0,0,1,.08-.7h0l5.6,1.2a.36.36,0,0,1,.22.15.34.34,0,0,1-.08.47.36.36,0,0,1-.23.08Z"/><path class="cls-1" d="M425,87.51l-5.6-1.43a.37.37,0,0,1,.08-.73h0l5.6,1.43a.36.36,0,0,1-.2.7Z"/><path class="cls-1" d="M391.13,80.73l-5.6-.7a.35.35,0,0,1,.06-.7h0l5.6.7a.36.36,0,0,1,0,.73Z"/><path class="cls-1" d="M135.85,491.7a.37.37,0,0,1,.31.17q1.6,2.35,3.28,4.71a.36.36,0,0,1,0,.26.36.36,0,0,1-.62.16c-1.12-1.57-2.21-3.16-3.28-4.73a.36.36,0,0,1,0-.5Z"/><path class="cls-1" d="M90.33,339.76a.36.36,0,0,1,.36.36v5.77a.36.36,0,0,1-.36.36h0a.36.36,0,0,1-.36-.36v-5.77a.36.36,0,0,1,.36-.36Z"/><path class="cls-1" d="M90.44,351.27a.36.36,0,0,1,.36.34,43.72,43.72,0,0,0,.25,5.74.37.37,0,0,1,0,.14.36.36,0,0,1-.07.12.36.36,0,0,1-.25.13.39.39,0,0,1-.36-.34c0-1.9-.17-3.84-.25-5.77a.36.36,0,0,1,.34-.36Z"/><path class="cls-1" d="M91,362.78a.37.37,0,0,1,.36.34c.14,1.88.31,3.81.5,5.6a.36.36,0,0,1,0,.14.37.37,0,0,1-.07.13.38.38,0,0,1-.11.09l-.14,0a.33.33,0,0,1-.15,0,.33.33,0,0,1-.22-.18.34.34,0,0,1,0-.14c-.17-1.93-.34-3.86-.48-5.74a.37.37,0,0,1,.34-.25Z"/><path class="cls-1" d="M91.08,328.64c0,1.93-.2,3.86-.25,5.6a.36.36,0,0,1-.36.36.36.36,0,0,1-.34-.36c0-1.88.14-3.84.25-5.77a.36.36,0,0,1,.12-.24.37.37,0,0,1,.25-.1h0a.37.37,0,0,1,.17,0,.38.38,0,0,1,.13.12.37.37,0,0,1,.06.17.36.36,0,0,1,0,.18Z"/><path class="cls-1" d="M92.12,374.23a.36.36,0,0,1,.36.31c.22,1.93.48,3.84.73,5.6a.36.36,0,0,1-.31.42.34.34,0,0,1-.26-.07.34.34,0,0,1-.09-.11.34.34,0,0,1,0-.13c-.25-1.88-.5-3.78-.73-5.6a.36.36,0,0,1,.08-.28.37.37,0,0,1,.26-.14Z"/><path class="cls-1" d="M93.74,385.63a.36.36,0,0,1,.36.31c.31,1.85.64,3.78,1,5.6a.36.36,0,0,1-.07.27.36.36,0,0,1-.24.15.32.32,0,0,1-.14,0,.33.33,0,0,1-.13-.05.34.34,0,0,1-.1-.1.34.34,0,0,1,0-.13c-.34-1.9-.67-3.81-1-5.6a.37.37,0,0,1,0-.14.36.36,0,0,1,.06-.13.37.37,0,0,1,.11-.1.35.35,0,0,1,.14,0Z"/><path class="cls-1" d="M92.18,311.76a.36.36,0,0,1-.31-.39c.22-1.93.48-3.84.76-5.6a.36.36,0,0,1,.36-.31h0a.36.36,0,0,1,.31.39c-.25,1.88-.53,3.78-.76,5.6a.33.33,0,0,1,0,.13.33.33,0,0,1-.2.17Z"/><path class="cls-1" d="M92,317.16c-.2,1.93-.36,3.87-.5,5.6a.36.36,0,0,1-.13.25.35.35,0,0,1-.12.07l-.14,0-.14,0a.38.38,0,0,1-.11-.09.37.37,0,0,1-.07-.12.36.36,0,0,1,0-.14c.14-1.88.31-3.81.5-5.74a.36.36,0,0,1,.36-.31h0a.37.37,0,0,1,.32.15A.37.37,0,0,1,92,317a.36.36,0,0,1,0,.18Z"/><path class="cls-1" d="M149.55,510.13a.36.36,0,0,1,.28,0c1.21,1.48,2.46,3,3.67,4.42a.36.36,0,0,1-.5.5c-1.23-1.46-2.47-2.8-3.7-4.42a.36.36,0,0,1,0-.5.33.33,0,0,1,.25,0Z"/><path class="cls-1" d="M142.52,501.06a.36.36,0,0,1,.28.14c1.15,1.51,2.3,3.05,3.47,4.56a.36.36,0,0,1-.5.5c-1.18-1.51-2.35-3.05-3.47-4.56a.36.36,0,0,1,0-.5.34.34,0,0,1,.1-.09l.13,0Z"/><path class="cls-1" d="M210.09,121.93a.36.36,0,0,1-.5-.5c1.63-1.06,3.25-2.13,4.85-3.11h.2a.36.36,0,0,1,.22.07.37.37,0,0,1,.13.19.37.37,0,0,1,0,.23.37.37,0,0,1-.15.18C213.34,119.8,211.72,120.86,210.09,121.93Z"/><path class="cls-1" d="M93.8,300.36a.35.35,0,0,1-.14,0,.37.37,0,0,1-.11-.1.36.36,0,0,1-.06-.13.37.37,0,0,1,0-.14c.31-1.88.64-3.78,1-5.6a.36.36,0,0,1,.36-.31h0a.36.36,0,0,1,.28.42c-.34,1.9-.7,3.81-1,5.6a.36.36,0,0,1-.34.31Z"/><path class="cls-1" d="M164.57,527.44a.39.39,0,0,1,.25,0,4.76,4.76,0,1,1-.39.39.37.37,0,0,1,.14-.39Z"/><path class="cls-1" d="M157,518.9a.36.36,0,0,1,.28,0c1.26,1.43,2.55,2.8,3.87,4.26a.36.36,0,0,1-.5.5c-1.29-1.4-2.61-2.8-3.87-4.28a.36.36,0,0,1,0-.5.36.36,0,0,1,.22,0Z"/><path class="cls-1" d="M129.6,482a.37.37,0,0,1,.18,0,.37.37,0,0,1,.13.12c1,1.62,2,3.28,3.05,4.84a.37.37,0,1,1-.62.39c-1-1.6-2-3.22-3.08-4.87a.36.36,0,0,1,0-.5Z"/><path class="cls-1" d="M118.4,462a.38.38,0,0,1,.2,0,.36.36,0,0,1,.14.15c.87,1.74,1.76,3.44,2.63,5.1a.35.35,0,0,1-.62.34c-.87-1.65-1.76-3.39-2.63-5.12a.36.36,0,0,1,.17-.48Z"/><path class="cls-1" d="M123.81,472.13a.37.37,0,0,1,.31.2l2.8,5a.35.35,0,0,1-.48.5c-1-1.65-1.93-3.33-2.8-5a.37.37,0,0,1,0-.48Z"/><path class="cls-1" d="M113.47,451.58a.36.36,0,0,1,.2.06.36.36,0,0,1,.14.16c.78,1.74,1.6,3.5,2.41,5.21a.37.37,0,0,1,0,.24.36.36,0,0,1-.62.06c-.81-1.74-1.62-3.5-2.41-5.24a.36.36,0,0,1,.17-.48Z"/><path class="cls-1" d="M124.56,213.61a.36.36,0,0,1-.48,0,.37.37,0,0,1-.14-.48c.93-1.65,1.9-3.33,2.8-5a.36.36,0,0,1,.13-.12.37.37,0,0,1,.18,0h.2a.37.37,0,0,1,.09.24.36.36,0,0,1-.09.24A52.85,52.85,0,0,1,124.56,213.61Z"/><path class="cls-1" d="M114.17,234.16a.37.37,0,0,1-.48.17.33.33,0,0,1-.19-.2.33.33,0,0,1,0-.14.34.34,0,0,1,0-.14c.78-1.74,1.6-3.5,2.44-5.24a.36.36,0,0,1,.14-.15.37.37,0,0,1,.2-.05h.14a.37.37,0,0,1,.17.48C115.76,230.66,115,232.43,114.17,234.16Z"/><path class="cls-1" d="M119.13,223.77a.36.36,0,0,1-.64-.31c.87-1.74,1.76-3.47,2.8-5.12a.33.33,0,0,1,.13-.14.34.34,0,0,1,.18-.05h.17a.36.36,0,0,1,.11.09.36.36,0,0,1,0,.41C120.89,220.3,120,222,119.13,223.77Z"/><path class="cls-1" d="M109.66,244.75a.36.36,0,0,1-.48.2.37.37,0,0,1-.2-.2.37.37,0,0,1,0-.28c.7-1.76,1.46-3.56,2.21-5.32a.37.37,0,0,1,.13-.16.37.37,0,0,1,.2-.06h.14a.36.36,0,0,1,.12.08.37.37,0,0,1,.11.26.37.37,0,0,1,0,.14C111.2,241.19,110.36,243,109.66,244.75Z"/><path class="cls-1" d="M133.22,198.26h.2a.37.37,0,0,1,.15.09.36.36,0,0,1,.09.14.35.35,0,0,1,0,.17.38.38,0,0,1-.06.16q-1.6,2.44-3.11,4.87a.34.34,0,0,1-.5,0,.36.36,0,0,1,0-.5c1-1.6,2-3.25,3.11-4.87l.11-.06Z"/><path class="cls-1" d="M95.82,396.94a.36.36,0,0,1,.36.28c.39,1.85.78,3.72,1.23,5.6a.36.36,0,0,1-.06.27.35.35,0,0,1-.49.1.36.36,0,0,1-.15-.22c-.42-1.88-.84-3.78-1.23-5.6a.36.36,0,0,1,.28-.42Z"/><path class="cls-1" d="M191.49,135.37a.36.36,0,0,1-.13.09.35.35,0,0,1-.15,0,.37.37,0,0,1-.15,0,.38.38,0,0,1-.12-.1.36.36,0,0,1-.07-.14.35.35,0,0,1,0-.16.36.36,0,0,1,.06-.14.37.37,0,0,1,.12-.1c1.51-1.2,3.05-2.38,4.54-3.53a.33.33,0,0,1,.22,0,.37.37,0,0,1,.16,0,.38.38,0,0,1,.12.61Z"/><path class="cls-1" d="M109.35,441.22c.7,1.76,1.43,3.53,2.19,5.32a.36.36,0,0,1-.67.28c-.76-1.79-1.49-3.58-2.18-5.32a.37.37,0,0,1,0-.28.38.38,0,0,1,.08-.12.36.36,0,0,1,.12-.08h0a.37.37,0,0,1,.28,0,.36.36,0,0,1,.12.08.34.34,0,0,1,.08.12Z"/><path class="cls-1" d="M200.65,128.42a.36.36,0,0,1-.5-.5l4.71-3.31h.2a.38.38,0,0,1,.17,0,.38.38,0,0,1,.14.11.36.36,0,0,1,0,.5A46.2,46.2,0,0,0,200.65,128.42Z"/><path class="cls-1" d="M98.4,408.17a.37.37,0,0,1,.36.28c.48,1.85,1,3.73,1.46,5.6a.36.36,0,0,1,0,.15.35.35,0,0,1,0,.14.36.36,0,0,1-.09.11.36.36,0,0,1-.13.07.36.36,0,0,1-.29,0,.36.36,0,0,1-.11-.1.37.37,0,0,1-.06-.13c-.5-1.85-1-3.73-1.48-5.6a.36.36,0,0,1,.25-.45Z"/><path class="cls-1" d="M95.9,289a.36.36,0,0,1-.28-.42c.39-1.85.81-3.75,1.26-5.6a.36.36,0,0,1,.31-.17h0a.36.36,0,0,1,.28.42c-.45,1.88-.84,3.78-1.23,5.6a.37.37,0,0,1-.14.13.37.37,0,0,1-.19,0Z"/><path class="cls-1" d="M105.15,255.75a.36.36,0,0,1-.23-.45c.62-1.79,1.29-3.61,2-5.43a.36.36,0,0,1,.13-.16.36.36,0,0,1,.2-.06h0a.36.36,0,0,1,.2.45c-.67,1.79-1.35,3.61-2,5.4a.37.37,0,0,1-.12.17.36.36,0,0,1-.19.08Z"/><path class="cls-1" d="M98.51,277.82a.36.36,0,0,1-.25-.45c.48-1.88,1-3.75,1.48-5.6a.36.36,0,0,1,.25-.14h0a.36.36,0,0,1,.25.45c-.5,1.82-1,3.7-1.48,5.6a.36.36,0,0,1-.25.14Z"/><path class="cls-1" d="M105.34,430.43c.64,1.82,1.29,3.64,1.93,5.4a.36.36,0,0,1-.2.45.36.36,0,0,1-.14,0,.36.36,0,0,1-.26-.12.34.34,0,0,1-.07-.13c-.64-1.76-1.32-3.58-2-5.4a.36.36,0,0,1,.22-.45h0l.14,0a.37.37,0,0,1,.26.12.37.37,0,0,1,.07.13Z"/><path class="cls-1" d="M101.48,419.26a.37.37,0,0,1,.34.25c.56,1.82,1.12,3.67,1.71,5.6a.36.36,0,0,1,0,.27.37.37,0,0,1-.2.18.37.37,0,0,1-.45-.22c-.59-1.82-1.15-3.67-1.71-5.6a.36.36,0,0,1,0-.28.36.36,0,0,1,.22-.17Z"/><path class="cls-1" d="M101.59,266.7a.36.36,0,0,1-.25-.45c.56-1.82,1.12-3.67,1.74-5.6a.36.36,0,0,1,.13-.18.36.36,0,0,1,.21-.07h0a.37.37,0,0,1,.2.18.36.36,0,0,1,0,.27c-.59,1.82-1.18,3.67-1.74,5.6a.36.36,0,0,1-.12.17.37.37,0,0,1-.19.08Z"/><path class="cls-1" d="M457.64,98.63l-5.35-2.16a.35.35,0,0,1-.12-.08.36.36,0,0,1-.08-.12.37.37,0,0,1,0-.14.39.39,0,0,1,0-.14.37.37,0,0,1,.13-.16.36.36,0,0,1,.2-.06h0l5.35,2.16a.36.36,0,0,1,0,.67.37.37,0,0,1-.28,0Z"/><path class="cls-1" d="M139.75,188.74h.2a.36.36,0,0,1,0,.5c-1.06,1.51-2.18,3.08-3.31,4.71a.36.36,0,0,1-.23.22.35.35,0,0,1-.16,0,.36.36,0,0,1-.2-.63c1.12-1.62,2.24-3.22,3.31-4.73a.35.35,0,0,1,.18-.11A.34.34,0,0,1,139.75,188.74Z"/><path class="cls-1" d="M173.59,150.38a.36.36,0,0,1,0-.5c1.4-1.32,2.8-2.63,4.23-3.89a.36.36,0,0,1,.25,0,.35.35,0,0,1,.14,0l.14,0a.36.36,0,0,1,0,.5c-1.4,1.26-2.8,2.58-4.23,3.89a.36.36,0,0,1-.27.12.36.36,0,0,1-.14,0,.36.36,0,0,1-.12-.09Z"/><path class="cls-1" d="M182.13,142.65a.36.36,0,0,1,0-.5c1.46-1.26,2.8-2.52,4.4-3.72a.36.36,0,0,1,.22,0,.39.39,0,0,1,.28,0,.36.36,0,0,1,0,.5c-1.46,1.2-2.8,2.46-4.4,3.72a.36.36,0,0,1-.5,0Z"/><path class="cls-1" d="M161.63,162a.34.34,0,0,1,.25,0,.36.36,0,0,1,0,.5c-1.29,1.37-2.61,2.8-3.87,4.26a.36.36,0,0,1-.56.09.37.37,0,0,1-.09-.13.36.36,0,0,1,0-.16.34.34,0,0,1,0-.15.36.36,0,0,1,.1-.12l3.89-4.26a.36.36,0,0,1,.25,0Z"/><path class="cls-1" d="M154,170.59a.34.34,0,0,1,.22,0,.36.36,0,0,1,0,.5q-1.88,2.21-3.7,4.42a.36.36,0,0,1-.5-.5c1.23-1.49,2.46-3,3.73-4.43a.33.33,0,0,1,.25,0Z"/><path class="cls-1" d="M146.67,179.53h.22a.36.36,0,0,1,0,.5c-1.21,1.51-2.38,3.05-3.5,4.56a.37.37,0,0,1-.24.14.37.37,0,0,1-.27-.07.38.38,0,0,1-.14-.24.37.37,0,0,1,.07-.27c1.15-1.51,2.32-3.05,3.53-4.59a.33.33,0,0,1,.16-.06A.34.34,0,0,1,146.67,179.53Z"/><path class="cls-1" d="M432.34,440.07h.22a.36.36,0,0,1,.23.64c-1.51,1.2-3.05,2.38-4.6,3.47a.36.36,0,0,1-.47-.11.36.36,0,0,1,0-.48C429.32,442.45,430.86,441.24,432.34,440.07Z"/><path class="cls-1" d="M441,432.51a.4.4,0,0,1,.5.62c-1.37,1.32-2.8,2.63-4.26,3.89a.34.34,0,0,1-.11.08.33.33,0,0,1-.14,0,.33.33,0,0,1-.25-.11.36.36,0,0,1,0-.5C438.2,435.14,439.63,433.82,441,432.51Z"/><path class="cls-1" d="M423,446.76h.2a.36.36,0,0,1,.18,0,.4.4,0,0,1,.13.63c-1.6,1-3.25,2.07-4.9,3.05a.35.35,0,0,1-.61-.25.36.36,0,0,1,.1-.25C419.82,448.8,421.44,447.8,423,446.76Z"/><path class="cls-1" d="M451.9,265.11a.33.33,0,0,1,.28,0c1.23,1.51,2.41,3,3.53,4.56a.37.37,0,0,1,.08.13.37.37,0,0,1,0,.3.35.35,0,0,1-.1.11.36.36,0,0,1-.14.06.36.36,0,0,1-.15,0,.37.37,0,0,1-.24-.18c-1.12-1.51-2.3-3.05-3.53-4.54a.27.27,0,1,1,.31-.45Z"/><path class="cls-1" d="M413.15,452.56h.17a.36.36,0,0,1,.2,0,.36.36,0,0,1,0,.62c-1.68.87-3.42,1.74-5.18,2.58a.36.36,0,0,1-.24,0,.36.36,0,0,1-.06-.62C409.73,454.29,411.47,453.45,413.15,452.56Z"/><path class="cls-1" d="M386.4,462.83c1.85-.48,3.7-1,5.6-1.54a.36.36,0,0,1,.19.13.36.36,0,0,1-.19.57c-1.85.56-3.7,1.09-5.6,1.57a.36.36,0,0,1-.45-.25.37.37,0,0,1,0-.2.38.38,0,0,1,.09-.18.37.37,0,0,1,.17-.1.36.36,0,0,1,.2,0Z"/><path class="cls-1" d="M456.07,415.2a.36.36,0,0,1,.28-.14h.22a.36.36,0,0,1,0,.5c-1.12,1.57-2.3,3.11-3.47,4.62a.36.36,0,0,1-.5,0,.36.36,0,0,1,0-.5C453.8,418.31,455,416.77,456.07,415.2Z"/><path class="cls-1" d="M475.71,373.53a.37.37,0,0,1,.25.45c-.48,1.88-1,3.75-1.54,5.6a.34.34,0,0,1-.07.12.33.33,0,0,1-.11.09.34.34,0,0,1-.14,0l-.14,0a.36.36,0,0,1-.22-.17.37.37,0,0,1,0-.28c.56-1.79,1.07-3.67,1.54-5.6a.37.37,0,0,1,.45-.22Z"/><path class="cls-1" d="M462.32,405.6a.36.36,0,0,1,.31-.17h.17a.36.36,0,0,1,0,.5c-1,1.62-2,3.28-3,4.9a.36.36,0,0,1-.51-.5A48.56,48.56,0,0,0,462.32,405.6Z"/><path class="cls-1" d="M472.35,384.57a.37.37,0,0,1,.13.07.35.35,0,0,1,.09.12.38.38,0,0,1,0,.14.36.36,0,0,1,0,.14c-.64,1.79-1.35,3.61-2.07,5.4a.39.39,0,0,1-.08.12.36.36,0,0,1-.12.08l-.14,0a.37.37,0,0,1-.26-.11.36.36,0,0,1-.08-.4c.73-1.76,1.4-3.58,2-5.38a.37.37,0,0,1,.07-.13.35.35,0,0,1,.12-.09.37.37,0,0,1,.14,0l.14,0Z"/><path class="cls-1" d="M469.8,294.56a.36.36,0,0,1,.2.06.36.36,0,0,1,.14.16c.76,1.76,1.46,3.58,2.13,5.35a.35.35,0,0,1,0,.14.38.38,0,0,1,0,.14.36.36,0,0,1-.09.12.41.41,0,0,1-.27.1.35.35,0,0,1-.14,0,.36.36,0,0,1-.12-.09.37.37,0,0,1-.07-.13c-.64-1.76-1.37-3.58-2.13-5.35a.36.36,0,0,1,0-.28.36.36,0,0,1,.2-.2Z"/><path class="cls-1" d="M473.58,305.37a.37.37,0,0,1,.34.25c.59,1.82,1.12,3.7,1.63,5.6a.36.36,0,0,1-.25.45.34.34,0,0,1-.14,0,.34.34,0,0,1-.14,0,.34.34,0,0,1-.11-.1.33.33,0,0,1-.06-.13c-.5-1.85-1-3.7-1.62-5.6a.36.36,0,0,1,.07-.31.36.36,0,0,1,.13-.1.38.38,0,0,1,.16,0Z"/><path class="cls-1" d="M464.67,284.2a.36.36,0,0,1,.18.06.37.37,0,0,1,.13.14c.9,1.68,1.79,3.39,2.63,5.15a.36.36,0,0,1,0,.24.36.36,0,0,1-.42.2.36.36,0,0,1-.2-.13c-.84-1.74-1.71-3.47-2.61-5.12a.37.37,0,0,1,0-.27.36.36,0,0,1,.16-.21Z"/><path class="cls-1" d="M375.13,465.16c1.9-.31,3.81-.64,5.6-1a.36.36,0,0,1,.36.28.36.36,0,0,1-.28.42c-1.88.39-3.78.73-5.6,1a.36.36,0,0,1-.43-.19.36.36,0,0,1,0-.16.35.35,0,0,1,0-.16.36.36,0,0,1,.11-.13.36.36,0,0,1,.32-.06Z"/><path class="cls-1" d="M458.73,274.43a.36.36,0,0,1,.18,0,.36.36,0,0,1,.13.12q1.6,2.39,3.11,4.87a.36.36,0,0,1-.5.5c-1-1.62-2-3.25-3.08-4.84a.35.35,0,0,1-.08-.11.33.33,0,0,1,.08-.39Z"/><path class="cls-1" d="M467.67,395.43a.37.37,0,0,1,.14-.15.35.35,0,0,1,.2,0h.14a.36.36,0,0,1,.17.48c-.81,1.71-1.65,3.47-2.55,5.18a.36.36,0,0,1-.09.12.35.35,0,0,1-.13.08.36.36,0,0,1-.15,0,.37.37,0,0,1-.14,0,.37.37,0,0,1-.11-.09.35.35,0,0,1-.07-.13.35.35,0,0,1,0-.15.37.37,0,0,1,0-.14A54.47,54.47,0,0,0,467.67,395.43Z"/><path class="cls-1" d="M397.38,459.47c1.79-.64,3.59-1.32,5.35-2a.36.36,0,0,1,.19.13.36.36,0,0,1-.19.57c-1.79.73-3.61,1.43-5.41,2.07a.37.37,0,0,1-.25,0,.36.36,0,0,1,0-.63Z"/><path class="cls-1" d="M401.24,228.7c-1.74-.7-3.56-1.37-5.38-2a.36.36,0,0,1-.19-.13.37.37,0,0,1-.07-.22.36.36,0,0,1,.07-.22.37.37,0,0,1,.19-.13h0c1.85.64,3.67,1.32,5.41,2a.37.37,0,0,1,.2.48.38.38,0,0,1-.09.14.36.36,0,0,1-.14.09Z"/><path class="cls-1" d="M411.72,233.4c-1.68-.84-3.42-1.68-5.18-2.49a.36.36,0,0,1-.06-.58.37.37,0,0,1,.2-.09h.14c1.77.81,3.53,1.65,5.21,2.49a.36.36,0,0,1,.17.48.38.38,0,0,1-.08.12.37.37,0,0,1-.12.08l-.14,0-.14,0Z"/><path class="cls-1" d="M390.4,225c-1.82-.53-3.67-1-5.6-1.48a.36.36,0,0,1-.19-.57.37.37,0,0,1,.19-.13h0c1.88.45,3.75,1,5.6,1.48a.36.36,0,0,1,0,.7Z"/><path class="cls-1" d="M379.22,222.29c-1.85-.36-3.75-.67-5.6-1a.36.36,0,0,1-.31-.39.36.36,0,0,1,.36-.31h0c1.9.28,3.84.59,5.6,1a.36.36,0,0,1,.28.42.38.38,0,0,1-.12.19.39.39,0,0,1-.21.09Z"/><path class="cls-1" d="M363.73,466.42a44.8,44.8,0,0,0,5.6-.5.36.36,0,1,1,0,.73c-1.91.22-3.84.39-5.74.5a.39.39,0,0,1-.39-.34.36.36,0,0,1,.53-.39Z"/><path class="cls-1" d="M440.38,253.09a.36.36,0,0,1-.5,0c-1.4-1.29-2.8-2.58-4.29-3.84a.36.36,0,0,1,0-.5l.14,0,.14,0a.39.39,0,0,1,.22,0c1.46,1.23,2.8,2.55,4.32,3.84a.37.37,0,0,1,0,.5Z"/><path class="cls-1" d="M421.7,239.09c-1.62-1-3.31-2-4.93-3a.37.37,0,0,1-.09-.24.36.36,0,0,1,.09-.24.34.34,0,0,1,.13-.14.33.33,0,0,1,.18-.05h.17c1.65.92,3.3,1.93,5,3a.36.36,0,0,1,0,.5.35.35,0,0,1-.09.12.37.37,0,0,1-.13.07.37.37,0,0,1-.29,0Z"/><path class="cls-1" d="M431.11,245.67c-1.51-1.18-3.08-2.33-4.62-3.39a.36.36,0,0,1-.15-.18.37.37,0,0,1,0-.23.36.36,0,0,1,.35-.26h.2c1.57,1.09,3.14,2.24,4.65,3.42a.4.4,0,0,1-.42.65Z"/><path class="cls-1" d="M367.88,220.64c-1.93-.2-3.84-.34-5.6-.42a.37.37,0,0,1-.24-.12.33.33,0,0,1,0-.49.36.36,0,0,1,.25-.1h0c1.9,0,3.84.25,5.74.42a.36.36,0,0,1,0,.73Z"/><path class="cls-1" d="M327.76,222.51c1.88-.42,3.78-.81,5.6-1.18a.37.37,0,0,1,.08.73c-1.88.34-3.75.73-5.6,1.15a.36.36,0,0,1-.24-.07.37.37,0,0,1-.14-.21.36.36,0,0,1,0-.25.36.36,0,0,1,.19-.17Z"/><path class="cls-1" d="M339.11,220.44c1.88-.25,3.81-.48,5.6-.64a.36.36,0,1,1,0,.73c-1.9.17-3.84.39-5.6.64a.34.34,0,0,1-.26-.07.34.34,0,0,1-.09-.11.33.33,0,0,1,0-.13.36.36,0,0,1,0-.16.38.38,0,0,1,.08-.14.36.36,0,0,1,.14-.09A.36.36,0,0,1,339.11,220.44Z"/><path class="cls-1" d="M281,244.35h.22a.36.36,0,0,1,.16,0,.43.43,0,0,1,.23.35.36.36,0,0,1-.1.25c-1.51,1.15-3.05,2.35-4.48,3.56a.36.36,0,0,1-.51-.5C277.95,246.74,279.46,245.53,281,244.35Z"/><path class="cls-1" d="M316.64,225.62c1.82-.62,3.7-1.18,5.6-1.68a.37.37,0,0,1,.19.13.36.36,0,0,1-.19.57c-1.82.5-3.67,1.06-5.6,1.68a.37.37,0,0,1-.15.05.36.36,0,0,1-.16,0,.37.37,0,0,1-.14-.09.36.36,0,0,1-.08-.14.37.37,0,0,1,.31-.48Z"/><path class="cls-1" d="M290.5,237.83h.2a.35.35,0,0,1,.22.07.36.36,0,0,1,.13.19.36.36,0,0,1-.16.41c-1.62,1-3.22,2-4.79,3.14a.36.36,0,0,1-.5-.5C287.28,239.9,288.9,238.84,290.5,237.83Z"/><path class="cls-1" d="M300.61,232.2h.17a.36.36,0,0,1,.39.28.36.36,0,0,1-.22.42,57.06,57.06,0,0,0-5.07,2.8.4.4,0,0,1-.48-.62C297.19,234,298.9,233.07,300.61,232.2Z"/><path class="cls-1" d="M311.2,227.58a.36.36,0,0,1,.19.13.36.36,0,0,1-.19.57c-1.76.67-3.56,1.4-5.32,2.18a.36.36,0,0,1-.28,0,.36.36,0,0,1,0-.67C307.62,229,309.41,228.25,311.2,227.58Z"/><path class="cls-1" d="M479.27,350.82a.35.35,0,0,1,.14,0,.37.37,0,0,1,.11.09.36.36,0,0,1,.07.12.36.36,0,0,1,0,.14,50.19,50.19,0,0,1-.5,5.74.36.36,0,0,1,0,.13.34.34,0,0,1-.09.11.33.33,0,0,1-.12.06.35.35,0,0,1-.14,0l-.14,0a.34.34,0,0,1-.11-.09.36.36,0,0,1-.09-.27c.22-1.9.36-3.84.51-5.6a.36.36,0,0,1,0-.17.37.37,0,0,1,.08-.15.36.36,0,0,1,.14-.1.37.37,0,0,1,.17,0Z"/><path class="cls-1" d="M251.42,409.85a.36.36,0,0,1-.51,0c-1-1.62-2-3.28-3-5a.36.36,0,0,1,0-.5h.17a.35.35,0,0,1,.18,0,.34.34,0,0,1,.13.13c1,1.65,1.93,3.3,3,4.93a.36.36,0,0,1,0,.36Z"/><path class="cls-1" d="M340.76,465.77c1.88.22,3.81.42,5.6.56l.14,0a.34.34,0,0,1,.11.09.36.36,0,0,1,.07.12.35.35,0,0,1,0,.14.33.33,0,0,1,0,.14.34.34,0,0,1-.09.12.33.33,0,0,1-.27.08c-1.93-.14-3.87-.34-5.74-.56a.36.36,0,0,1-.19-.13.37.37,0,0,1-.07-.22.36.36,0,0,1,.26-.35Z"/><path class="cls-1" d="M329.38,463.84c1.88.39,3.75.78,5.6,1.09a.36.36,0,0,1,.28.42.33.33,0,0,1,0,.14.35.35,0,0,1-.1.11.33.33,0,0,1-.28.05c-1.88-.31-3.78-.67-5.6-1.09a.37.37,0,0,1-.19-.13.36.36,0,0,1,0-.44.37.37,0,0,1,.19-.13Z"/><path class="cls-1" d="M250.74,278.6a.36.36,0,0,1-.5,0,.33.33,0,0,1-.08-.39.32.32,0,0,1,.08-.11c1-1.6,2-3.25,3.14-4.85a.36.36,0,0,1,.31-.14h.2a.36.36,0,0,1,0,.5C252.79,275.38,251.75,277,250.74,278.6Z"/><path class="cls-1" d="M258.08,419.23a.36.36,0,0,1-.5,0c-1.18-1.51-2.32-3.08-3.42-4.65a.36.36,0,0,1,0-.5h.2a.37.37,0,0,1,.17,0,.35.35,0,0,1,.14.11c1.09,1.57,2.24,3.11,3.42,4.62a.37.37,0,0,1,0,.39Z"/><path class="cls-1" d="M232.51,333l-.14,0a.38.38,0,0,1-.11-.09.38.38,0,0,1-.07-.12.35.35,0,0,1,0-.14c.17-1.9.36-3.84.62-5.6a.36.36,0,0,1,.36-.31h0a.36.36,0,0,1,.31.39c-.25,1.88-.45,3.81-.62,5.6a.36.36,0,0,1-.34.31Z"/><path class="cls-1" d="M232.51,338.36v5.74a.37.37,0,0,1-.36.36h0a.37.37,0,0,1-.37-.36v-5.8a.37.37,0,0,1,.12-.24.37.37,0,0,1,.25-.1h0a.35.35,0,0,1,.15,0,.37.37,0,0,1,.12.09.38.38,0,0,1,.08.13.37.37,0,0,1,0,.15Z"/><path class="cls-1" d="M318.51,460.9c1.79.56,3.67,1.12,5.6,1.62a.36.36,0,1,1-.2.7c-1.85-.5-3.73-1-5.6-1.62a.36.36,0,0,1-.1-.63.36.36,0,0,1,.21-.07Z"/><path class="cls-1" d="M234.69,366.84a.36.36,0,0,1-.06.32.38.38,0,0,1-.13.11.37.37,0,0,1-.33,0,.38.38,0,0,1-.13-.11.36.36,0,0,1-.06-.32c-.36-1.88-.7-3.78-1-5.6a.37.37,0,0,1,0-.14.37.37,0,0,1,.06-.13.37.37,0,0,1,.24-.14h0a.36.36,0,0,1,.36.31Q234.14,364.15,234.69,366.84Z"/><path class="cls-1" d="M277.95,439.14a.37.37,0,0,1,.22,0c1.49,1.2,3,2.38,4.54,3.5a.36.36,0,0,1-.5.5c-1.54-1.15-3.08-2.33-4.57-3.53a.36.36,0,0,1,0-.5.34.34,0,0,1,.31,0Z"/><path class="cls-1" d="M269.35,431.47a.37.37,0,0,1,.25,0c1.37,1.35,2.8,2.66,4.2,3.92a.36.36,0,0,1-.5.5c-1.43-1.29-2.8-2.6-4.23-3.95a.36.36,0,0,1,0-.5h.14a.36.36,0,0,1,.14,0Z"/><path class="cls-1" d="M287.22,446h.2c1.57,1.06,3.22,2.1,4.85,3.08a.35.35,0,0,1-.5.48c-1.65-1-3.28-2-4.87-3.08a.36.36,0,0,1,0-.5.34.34,0,0,1,.17,0,.33.33,0,0,1,.16.06Z"/><path class="cls-1" d="M307.48,456.9c1.76.73,3.56,1.46,5.35,2.1a.36.36,0,0,1-.25.67c-1.79-.67-3.61-1.37-5.38-2.13a.37.37,0,0,1-.18-.16.36.36,0,0,1,.32-.54Z"/><path class="cls-1" d="M297.08,451.91h.17c1.68.92,3.42,1.79,5.13,2.6a.36.36,0,0,1,.14.07.37.37,0,0,1,.1.13.36.36,0,0,1,0,.15.38.38,0,0,1,0,.16.35.35,0,0,1-.1.13.37.37,0,0,1-.14.07.39.39,0,0,1-.16,0,.36.36,0,0,1-.14-.07c-1.71-.84-3.45-1.71-5.15-2.63a.36.36,0,0,1-.14-.48.35.35,0,0,1,.14-.11A.37.37,0,0,1,297.08,451.91Z"/><path class="cls-1" d="M479.18,334.3a.36.36,0,0,1-.36-.34c-.14-1.9-.34-3.84-.56-5.6a.36.36,0,0,1,.08-.26.36.36,0,0,1,.23-.14h0a.36.36,0,0,1,.37.31c.22,1.88.42,3.81.56,5.74a.37.37,0,0,1-.11.19.36.36,0,0,1-.2.09Z"/><path class="cls-1" d="M232.23,349.51a.36.36,0,0,1,.25.1.37.37,0,0,1,.12.24c0,1.9.25,3.81.42,5.6a.36.36,0,0,1,0,.14.35.35,0,0,1-.07.12.34.34,0,0,1-.11.09.35.35,0,0,1-.14,0,.33.33,0,0,1-.27-.08.35.35,0,0,1-.09-.12.33.33,0,0,1,0-.14c-.2-1.9-.34-3.84-.42-5.74a.37.37,0,0,1,.14-.19.36.36,0,0,1,.22-.06Z"/><path class="cls-1" d="M447.89,261.3c-1.26-1.43-2.58-2.8-3.92-4.2a.28.28,0,0,1,.25-.5.33.33,0,0,1,.25,0c1.35,1.37,2.8,2.8,4,4.23a.36.36,0,0,1-.53.48Z"/><path class="cls-1" d="M265.56,427.47a.36.36,0,0,1,.08.12.34.34,0,0,1,0,.14.38.38,0,0,1,0,.14.37.37,0,0,1-.08.12.38.38,0,0,1-.12.08l-.14,0-.14,0A.37.37,0,0,1,265,428c-1.32-1.4-2.61-2.8-3.84-4.31a.36.36,0,0,1,0-.5.36.36,0,0,1,.22,0,.36.36,0,0,1,.28,0C263,424.64,264.27,426.07,265.56,427.47Z"/><path class="cls-1" d="M245.2,288.65a.36.36,0,0,1-.09.12.35.35,0,0,1-.13.08.36.36,0,0,1-.15,0,.36.36,0,0,1-.32-.27.35.35,0,0,1,0-.15.37.37,0,0,1,0-.14c.84-1.71,1.76-3.44,2.8-5.12a.37.37,0,0,1,.13-.14.36.36,0,0,1,.18-.06h.17a.37.37,0,0,1,.14.48C246.93,285.24,246,286.95,245.2,288.65Z"/><path class="cls-1" d="M479.15,345.42v-5.74a.37.37,0,0,1,.36-.36h0a.37.37,0,0,1,.36.36v5.77a.39.39,0,0,1-.36.36.37.37,0,0,1-.15,0,.36.36,0,0,1-.12-.09.34.34,0,0,1-.08-.13.37.37,0,0,1,0-.15Z"/><path class="cls-1" d="M478,362.27a.37.37,0,0,1,.14,0,.36.36,0,0,1,.17.37c-.31,1.9-.64,3.84-1,5.6a.36.36,0,0,1-.7-.14c.36-1.85.73-3.75,1-5.6a.36.36,0,0,1,.39-.28Z"/><path class="cls-1" d="M257.24,269.14a.36.36,0,0,1-.5,0,.36.36,0,0,1,0-.5c1.15-1.54,2.35-3.05,3.59-4.54a.35.35,0,0,1,.14,0l.14,0a.37.37,0,0,1,.32.21.37.37,0,0,1,0,.2.36.36,0,0,1-.08.18C259.68,266,258.39,267.63,257.24,269.14Z"/><path class="cls-1" d="M240.91,389.38a.36.36,0,0,1-.28,0,.36.36,0,0,1-.2-.2c-.7-1.79-1.37-3.61-2-5.4a.36.36,0,0,1,.22-.45h0a.37.37,0,0,1,.34.25c.62,1.79,1.29,3.61,2,5.38a.37.37,0,0,1-.08.42Z"/><path class="cls-1" d="M234,321.56a.36.36,0,0,1-.22-.15.37.37,0,0,1-.06-.27c.34-1.88.73-3.78,1.18-5.6a.36.36,0,0,1,.13-.2.37.37,0,0,1,.23-.08h0a.36.36,0,0,1,.28.42c-.42,1.88-.81,3.75-1.15,5.6a.36.36,0,0,1-.39.28Z"/><path class="cls-1" d="M236.54,310.3a.37.37,0,0,1-.22-.17.36.36,0,0,1,0-.28c.51-1.82,1.07-3.7,1.68-5.6a.36.36,0,0,1,.13-.18.36.36,0,0,1,.21-.07h0a.36.36,0,0,1,.22.45c-.59,1.82-1.18,3.67-1.68,5.6a.36.36,0,0,1-.12.17.37.37,0,0,1-.19.08Z"/><path class="cls-1" d="M245.67,399.86a.37.37,0,0,1-.27,0,.36.36,0,0,1-.2-.18c-.87-1.68-1.71-3.44-2.49-5.21a.36.36,0,0,1,0-.27.37.37,0,0,1,.18-.2H243a.36.36,0,0,1,.2.06.36.36,0,0,1,.13.16c.78,1.76,1.63,3.5,2.49,5.18a.36.36,0,0,1-.17.45Z"/><path class="cls-1" d="M237.27,378.52a.37.37,0,0,1-.45-.25c-.53-1.82-1-3.7-1.49-5.6a.37.37,0,0,1,.06-.27.36.36,0,0,1,.22-.15h0a.36.36,0,0,1,.36.28c.45,1.88,1,3.73,1.49,5.6a.36.36,0,0,1-.2.39Z"/><path class="cls-1" d="M476.58,316.43a.37.37,0,0,1,.36.28c.42,1.88.79,3.78,1.09,5.6a.37.37,0,0,1,0,.14.36.36,0,0,1-.06.13.36.36,0,0,1-.11.1.37.37,0,0,1-.14,0,.36.36,0,0,1-.27-.05.37.37,0,0,1-.15-.23c-.31-1.88-.7-3.78-1.09-5.6a.36.36,0,0,1,0-.16.36.36,0,0,1,.07-.14.36.36,0,0,1,.28-.13Z"/><path class="cls-1" d="M240.57,299.16a.36.36,0,0,1-.06.14.37.37,0,0,1-.12.11.36.36,0,0,1-.15,0,.36.36,0,0,1-.15,0,.35.35,0,0,1-.13-.09.36.36,0,0,1-.08-.13.36.36,0,0,1,0-.31c.7-1.79,1.43-3.58,2.19-5.35a.37.37,0,0,1,.13-.16.36.36,0,0,1,.2-.06h.14a.36.36,0,0,1,.2.48C242,295.6,241.27,297.39,240.57,299.16Z"/><path class="cls-1" d="M516.47,232.46a4.82,4.82,0,1,0-6.73-1.06A4.81,4.81,0,0,0,516.47,232.46Z"/><path class="cls-1" d="M201.78,461a4.82,4.82,0,1,0-6.73-1.06A4.82,4.82,0,0,0,201.78,461Z"/><path class="cls-1" d="M531.77,258.89a4.82,4.82,0,1,1,1.48-1.17,4.81,4.81,0,0,1-1.48,1.17Z"/><path class="cls-1" d="M185.19,435.39a4.82,4.82,0,1,0-6.48-2.11A4.82,4.82,0,0,0,185.19,435.39Z"/><path class="cls-1" d="M542.64,287.37a4.82,4.82,0,1,1,1.65-.92,4.81,4.81,0,0,1-1.65.92Z"/><path class="cls-1" d="M172.83,407.53a4.84,4.84,0,1,1,2.82-2.41A4.83,4.83,0,0,1,172.83,407.53Z"/><path class="cls-1" d="M549.14,317.22a4.82,4.82,0,1,1,1.79-.66,4.82,4.82,0,0,1-1.79.66Z"/><path class="cls-1" d="M169,372.44a4.84,4.84,0,1,1-.67-1.78,4.81,4.81,0,0,1,.67,1.78Z"/><path class="cls-1" d="M550.79,347.68a4.84,4.84,0,1,1,3.4-1.42,4.82,4.82,0,0,1-3.4,1.42Z"/><path class="cls-1" d="M161.79,347.68a4.82,4.82,0,1,0-4.82-4.82A4.82,4.82,0,0,0,161.79,347.68Z"/><path class="cls-1" d="M543.65,372.44a4.82,4.82,0,1,1,0,1.9A4.83,4.83,0,0,1,543.65,372.44Z"/><path class="cls-1" d="M170.21,314.21a4.83,4.83,0,1,0-5.54,4A4.83,4.83,0,0,0,170.21,314.21Z"/><path class="cls-1" d="M545.84,404.4a4.82,4.82,0,1,0-6.07,3.1A4.82,4.82,0,0,0,545.84,404.4Z"/><path class="cls-1" d="M172.83,278.18a4.85,4.85,0,1,1-3.68.3,4.81,4.81,0,0,1,3.68-.3Z"/><path class="cls-1" d="M527.4,435.39a4.81,4.81,0,1,1,1.81.52,4.82,4.82,0,0,1-1.81-.52Z"/><path class="cls-1" d="M185.19,250.29a4.85,4.85,0,1,1-3.68-.29,4.81,4.81,0,0,1,3.68.29Z"/><path class="cls-1" d="M510.81,461a4.82,4.82,0,1,1,1.71.79,4.82,4.82,0,0,1-1.71-.79Z"/><path class="cls-1" d="M202.84,231.4a4.82,4.82,0,1,0-6.73,1.07A4.81,4.81,0,0,0,202.84,231.4Z"/><path class="cls-1" d="M239.15,181.66a4.82,4.82,0,1,1-1.28,1.38,4.81,4.81,0,0,1,1.28-1.38Z"/><path class="cls-1" d="M265.82,165.22a4.82,4.82,0,1,1-1.49,1.16,4.83,4.83,0,0,1,1.49-1.16Z"/><path class="cls-1" d="M294.7,153.37a4.84,4.84,0,1,1-2.81,2.4,4.86,4.86,0,0,1,2.81-2.4Z"/><path class="cls-1" d="M325.13,146.06a4.82,4.82,0,1,1-2.49,1.26,4.81,4.81,0,0,1,2.49-1.26Z"/><path class="cls-1" d="M386,155.61a4.87,4.87,0,1,1,3.63-.84,4.85,4.85,0,0,1-3.63.84Z"/><path class="cls-1" d="M414.92,162.56a4.88,4.88,0,1,1,3.68-.31,4.85,4.85,0,0,1-3.68.31Z"/><path class="cls-1" d="M442.4,174a4.85,4.85,0,1,1,3.69.28,4.85,4.85,0,0,1-3.69-.28Z"/><path class="cls-1" d="M467.78,189.5a4.85,4.85,0,1,1,3.6.86,4.86,4.86,0,0,1-3.6-.86Z"/><path class="cls-1" d="M283.92,414.67a.36.36,0,0,1,.25,0,.33.33,0,0,1,.25,0,.36.36,0,0,1,0,.5l-15.89,15.88a.36.36,0,0,1-.5-.5Z"/><path class="cls-1" d="M434.55,414.89a.39.39,0,0,1,.25,0l11.79,11.79c.78-.84,1.6-1.71,2.35-2.58a.35.35,0,0,1,.14,0l.14,0a.36.36,0,0,1,.22,0,.36.36,0,0,1,0,.5c-.79.9-1.62,1.79-2.44,2.8a.17.17,0,0,1-.14.31.36.36,0,0,1-.14,0l-1.09,1.2a.37.37,0,0,1-.53-.5l1-1.15-11.82-11.82a.36.36,0,0,1,0-.5.4.4,0,0,1,.23,0Z"/><path class="cls-1" d="M457.7,337c-.65-1.29-1.35-2.6-2.07-3.92a.28.28,0,0,1,.06-.39.28.28,0,0,1,.39.06h0c.73,1.32,1.43,2.63,2.07,3.95a.28.28,0,0,1,0,.22.28.28,0,0,1-.14.16.28.28,0,0,1-.38-.13Z"/><path class="cls-1" d="M430.58,302.29c-1.12-1-2.27-1.93-3.39-2.8a.28.28,0,0,1-.08-.2.27.27,0,0,1,.28-.28.28.28,0,0,1,.2.08c1.15.92,2.3,1.88,3.42,2.8a.28.28,0,0,1-.37.39Z"/><path class="cls-1" d="M423.68,296.83c-1.18-.87-2.41-1.74-3.61-2.58a.28.28,0,0,1-.08-.2.28.28,0,0,1,.47-.2c1.23.84,2.44,1.71,3.61,2.58a.28.28,0,0,1-.19.46.28.28,0,0,1-.2-.07Z"/><path class="cls-1" d="M388.19,279a.28.28,0,0,1-.13-.14.28.28,0,0,1,0-.19.28.28,0,0,1,.11-.16.28.28,0,0,1,.18-.05c1.4.42,2.8.87,4.26,1.34a.28.28,0,0,1-.11.43.27.27,0,0,1-.17,0C391,279.89,389.59,279.44,388.19,279Z"/><path class="cls-1" d="M416.37,291.74c-1.26-.79-2.52-1.54-3.81-2.27a.28.28,0,0,1-.08-.2.25.25,0,0,1,.26-.26.28.28,0,0,1,.18.07c1.29.73,2.55,1.51,3.81,2.3a.28.28,0,0,1,.06.17.28.28,0,0,1-.06.17.28.28,0,0,1-.18.08.28.28,0,0,1-.19-.05Z"/><path class="cls-1" d="M453.38,329.29c-.76-1.23-1.54-2.49-2.38-3.75a.26.26,0,0,1,.18-.46.28.28,0,0,1,.18.07c.84,1.26,1.63,2.52,2.38,3.75a.3.3,0,0,1,.06.11.28.28,0,0,1,0,.12.28.28,0,0,1-.13.19l-.11,0h-.12a.28.28,0,0,1-.1-.06.27.27,0,0,1-.07-.1Z"/><path class="cls-1" d="M400.68,283.53c-1.35-.59-2.8-1.15-4.09-1.65l-.1-.06a.28.28,0,0,1-.09-.2.3.3,0,0,1,.07-.2l.09-.07.11,0,.11,0c1.37.53,2.8,1.09,4.12,1.68a.28.28,0,0,1,0,.15.28.28,0,0,1,0,.15.28.28,0,0,1-.08.13.29.29,0,0,1-.14.07Z"/><path class="cls-1" d="M294.11,292.18a.28.28,0,0,1-.08-.2.28.28,0,0,1,.08-.2c1.23-.78,2.52-1.57,3.81-2.32a.24.24,0,0,1,.4.18.28.28,0,0,1-.07.18c-1.29.76-2.55,1.51-3.78,2.33l-.08.06-.1,0h-.1l-.09-.05Z"/><path class="cls-1" d="M408.7,287.34c-1.32-.7-2.66-1.37-4-2l-.09-.07a.3.3,0,0,1-.05-.1.29.29,0,0,1,0-.11.26.26,0,0,1,0-.11.27.27,0,0,1,.07-.09l.1-.05h.11l.11,0c1.32.62,2.66,1.29,4,2a.28.28,0,0,1,0,.34.28.28,0,0,1-.28.17Z"/><path class="cls-1" d="M448.48,321.89c-.87-1.2-1.74-2.38-2.66-3.56a.28.28,0,0,1,.42-.36h0c.9,1.18,1.82,2.38,2.8,3.56a.28.28,0,0,1,0,.1.29.29,0,0,1,0,.11.26.26,0,0,1,0,.1.29.29,0,0,1-.07.08l-.1,0h-.11l-.1,0-.08-.07Z"/><path class="cls-1" d="M314.31,281.77a.28.28,0,0,1,0,.21.28.28,0,0,1-.14.15c-1.37.53-2.8,1.12-4.09,1.71a.28.28,0,0,1-.19,0,.28.28,0,0,1-.13-.14.28.28,0,0,1,0-.19.27.27,0,0,1,.11-.15c1.34-.59,2.8-1.18,4.12-1.71a.28.28,0,0,1,.34.14Z"/><path class="cls-1" d="M277.11,305.54a.28.28,0,0,1,0,.39l-1.88,1.82L273.94,309a.28.28,0,0,1-.39,0,.31.31,0,0,1,0-.39l1.29-1.32,1.88-1.82a.28.28,0,0,1,.39,0Z"/><path class="cls-1" d="M306.19,285.32a.28.28,0,0,1,0,.36q-2,1-4,2a.28.28,0,0,1-.36,0,.28.28,0,0,1,0-.36c1.32-.7,2.66-1.37,4-2a.28.28,0,0,1,.17-.06.28.28,0,0,1,.17.06Z"/><path class="cls-1" d="M270.89,311.9a.28.28,0,0,1,.08.2.28.28,0,0,1-.08.2c-1,1.09-2,2.21-2.8,3.36a.28.28,0,0,1-.39-.39c1-1.15,1.93-2.27,2.8-3.36a.28.28,0,0,1,.39,0Z"/><path class="cls-1" d="M280,302.91a.28.28,0,0,1,0-.39c1.12-1,2.27-2,3.39-2.8a.28.28,0,0,1,.18-.07.28.28,0,0,1,.18.07h0a.28.28,0,0,1,.08.2.28.28,0,0,1-.08.2l-3.39,2.8-.08.06-.1,0-.1,0-.08-.06Z"/><path class="cls-1" d="M443,314.89c-.92-1.12-1.93-2.24-2.8-3.33a.28.28,0,0,1,.2-.45.28.28,0,0,1,.19.06h0a42.38,42.38,0,0,1,2.8,3.36.28.28,0,0,1,0,.39.31.31,0,0,1-.39,0Z"/><path class="cls-1" d="M286.83,297.28a.28.28,0,0,1,0-.39q1.76-1.34,3.61-2.6a.28.28,0,0,1,.36,0h0a.28.28,0,0,1,.08.2.28.28,0,0,1-.08.2c-1.23.84-2.44,1.71-3.59,2.6a.28.28,0,0,1-.2.08A.28.28,0,0,1,286.83,297.28Z"/><path class="cls-1" d="M315.71,495.65l-.09-.06a.29.29,0,0,1-.07-.09.28.28,0,0,1,0-.11.27.27,0,0,1,0-.11.27.27,0,0,1,.06-.09l.09-.07.11,0,.11,0c1.37.5,2.8,1,4.17,1.46a.25.25,0,0,1,0,.14.25.25,0,0,1,0,.14.28.28,0,0,1-.14.15.29.29,0,0,1-.2,0C318.51,496.66,317.14,496.16,315.71,495.65Z"/><path class="cls-1" d="M258.34,448.44c-.78-1.26-1.54-2.55-2.27-3.84a.26.26,0,0,1,.34-.39c.73,1.29,1.48,2.55,2.24,3.81a.28.28,0,0,1,.08.2.28.28,0,0,1-.08.2.28.28,0,0,1-.31,0Z"/><path class="cls-1" d="M244.16,362.75c.34-1.43.67-2.8,1.06-4.31a.28.28,0,0,1,.34-.2.26.26,0,0,1,0,.14.26.26,0,0,1,0,.14c-.39,1.43-.76,2.8-1.07,4.28a.29.29,0,0,1,0,.13.28.28,0,0,1-.05.12.27.27,0,0,1-.1.09.28.28,0,0,1-.13,0,.29.29,0,0,1-.13,0,.28.28,0,0,1-.14-.34Z"/><path class="cls-1" d="M263.3,455.83c-.87-1.2-1.74-2.41-2.55-3.64a.28.28,0,0,1-.08-.2.25.25,0,0,1,.26-.26.28.28,0,0,1,.18.07h0c.81,1.23,1.68,2.44,2.55,3.61a.28.28,0,0,1,0,.39.29.29,0,0,1-.18.08.28.28,0,0,1-.19-.05Z"/><path class="cls-1" d="M281.42,475.41c-1.12-1-2.24-1.93-3.33-3a.28.28,0,0,1-.05-.19.29.29,0,0,1,.08-.18.28.28,0,0,1,.37,0c1.09,1,2.21,2,3.31,2.94a.28.28,0,0,1,0,.17.28.28,0,0,1-.07.16.28.28,0,0,1-.33.06Z"/><path class="cls-1" d="M274.84,469.3c-1-1-2.07-2.1-3.05-3.17a.27.27,0,0,1-.06-.19.28.28,0,0,1,.45-.2h0q1.46,1.6,3.08,3.19a.24.24,0,0,1,.06.08.26.26,0,0,1,0,.1.25.25,0,0,1-.08.18.31.31,0,0,1-.21.08A.31.31,0,0,1,274.84,469.3Z"/><path class="cls-1" d="M248.48,428.45a.27.27,0,0,1,0-.22.3.3,0,0,1,.07-.09l.1-.06a.28.28,0,0,1,.15,0,.28.28,0,0,1,.15,0h0c.5,1.37,1.06,2.8,1.63,4.12a.28.28,0,0,1,0,.21.28.28,0,0,1-.51,0C249.6,431.25,249,429.85,248.48,428.45Z"/><path class="cls-1" d="M247,424.27c-.48-1.4-.9-2.8-1.32-4.26a.29.29,0,0,1,0-.17.28.28,0,0,1,.27-.17.29.29,0,0,1,.16.06h0c.39,1.43.84,2.8,1.29,4.23a.27.27,0,0,1,0,.11.27.27,0,0,1,0,.11.26.26,0,0,1-.07.09l-.1.06h-.12l-.11,0a.27.27,0,0,1-.09-.08.29.29,0,0,1,0-.11Z"/><path class="cls-1" d="M288.42,480.92c-1.2-.87-2.38-1.79-3.56-2.8a.28.28,0,0,1-.08-.2.27.27,0,0,1,.28-.28.28.28,0,0,1,.2.08c1.15.93,2.33,1.82,3.53,2.8a.28.28,0,0,1,.07.18.25.25,0,0,1-.24.26.28.28,0,0,1-.19-.05Z"/><path class="cls-1" d="M244.58,415.73c-.34-1.43-.67-2.8-1-4.34a.28.28,0,0,1,0-.11.27.27,0,0,1,0-.1.26.26,0,0,1,.08-.08l.1,0a.28.28,0,0,1,.25,0c.31,1.46.62,2.8,1,4.34a.28.28,0,0,1-.2.34.29.29,0,0,1-.28,0Z"/><path class="cls-1" d="M242.87,407c-.22-1.46-.45-2.8-.64-4.42a.29.29,0,0,1,0-.11.27.27,0,0,1,.05-.1.26.26,0,0,1,.08-.07l.11,0,.11,0,.11,0a.27.27,0,0,1,0,.17c.17,1.48.39,2.94.62,4.4a.28.28,0,0,1-.56,0Z"/><path class="cls-1" d="M268.84,462.83c-1-1.12-1.9-2.27-2.8-3.44a.26.26,0,0,1,.18-.46.28.28,0,0,1,.18.07h0c.9,1.15,1.85,2.3,2.8,3.42a.28.28,0,0,1,0,.39l-.08.06-.1,0h-.1l-.09-.05Z"/><path class="cls-1" d="M241.55,380.34a38.19,38.19,0,0,1,.39-4.42.27.27,0,0,1,0-.11.3.3,0,0,1,.07-.09l.1-.05h.28a.28.28,0,0,1,0,.11.27.27,0,0,1,0,.11c-.14,1.43-.28,2.8-.39,4.42a.28.28,0,0,1-.48.2.28.28,0,0,1-.08-.2Z"/><path class="cls-1" d="M241.27,389.24v-4.45a.28.28,0,0,1,.28-.28l.1,0,.1,0a.28.28,0,0,1,0,.2v4.54a.24.24,0,1,1-.48,0Z"/><path class="cls-1" d="M241.7,398.15c0-1.46-.22-3-.28-4.45a.28.28,0,0,1,0-.16.27.27,0,0,1,.12-.11.28.28,0,0,1,.17,0,.29.29,0,0,1,.15.08.31.31,0,0,1,0,.2c0,1.49.17,3,.28,4.43a.28.28,0,1,1-.56,0Z"/><path class="cls-1" d="M242.51,371.52c.22-1.46.45-2.8.73-4.4a.28.28,0,0,1,0-.1.3.3,0,0,1,.08-.08l.1,0h.25a.28.28,0,0,1,0,.13.28.28,0,0,1,0,.13c-.28,1.46-.5,2.8-.73,4.37a.28.28,0,0,1-.56,0Z"/><path class="cls-1" d="M253.94,440.71c-.67-1.32-1.35-2.8-2-4a.28.28,0,0,1,.45-.31c.62,1.32,1.29,2.8,2,4a.28.28,0,0,1,.07.18.28.28,0,0,1-.07.18.27.27,0,0,1-.1.08.28.28,0,0,1-.13,0,.29.29,0,0,1-.22-.13Z"/><path class="cls-1" d="M307.56,492.21a.26.26,0,0,1,.36-.36c1.35.62,2.8,1.23,4.06,1.79a.28.28,0,0,1,0,.31.28.28,0,0,1-.15.14.28.28,0,0,1-.21,0C310.28,493.44,308.9,492.85,307.56,492.21Z"/><path class="cls-1" d="M303.55,490.25c-1.32-.67-2.63-1.37-3.92-2.1a.28.28,0,0,1-.1-.17.28.28,0,0,1,.18-.31.28.28,0,0,1,.19,0c1.29.73,2.61,1.43,3.89,2.1a.28.28,0,0,1,.11.18.28.28,0,0,1-.45.26Z"/><path class="cls-1" d="M295.79,485.88c-1.26-.76-2.49-1.57-3.75-2.41a.28.28,0,0,1,.39-.39c1.23.81,2.49,1.62,3.73,2.41a.28.28,0,0,1,.05.17.28.28,0,0,1-.06.17.28.28,0,0,1-.33.08Z"/><path class="cls-1" d="M324.12,498.45l-.12,0a.28.28,0,0,1-.09-.08.29.29,0,0,1,0-.11.28.28,0,0,1,0-.12.26.26,0,0,1,.06-.11.28.28,0,0,1,.1-.07l.12,0,.12,0c1.43.42,2.8.78,4.29,1.15a.28.28,0,0,1,0,.25.28.28,0,0,1-.34.2Z"/><path class="cls-1" d="M437.08,308.37c-1-1-2.1-2.07-3.17-3.11a.28.28,0,0,1-.08-.2.27.27,0,0,1,.28-.28.28.28,0,0,1,.2.08c.87.81,1.74,1.65,2.61,2.49l.59.59a.28.28,0,0,1,0,.39.28.28,0,0,1-.09.08l-.11,0-.12,0-.1-.06Z"/><path class="cls-1" d="M260.07,326a.28.28,0,0,1,.06.17.28.28,0,0,1-.06.17c-.79,1.23-1.57,2.49-2.35,3.75a.27.27,0,0,1-.36-.39q1.13-1.93,2.35-3.78a.28.28,0,0,1,.36.08Z"/><path class="cls-1" d="M265.28,318.73a.28.28,0,0,1,0,.36c-.9,1.18-1.79,2.38-2.63,3.56a.28.28,0,0,1-.39,0,.28.28,0,0,1,0-.39c.84-1.2,1.74-2.41,2.63-3.58a.29.29,0,0,1,.21-.05.28.28,0,0,1,.18.11Z"/><path class="cls-1" d="M438.39,467.34a.28.28,0,0,1-.08-.2.28.28,0,0,1,.08-.2c1-1.09,2-2.18,3-3.28a.28.28,0,0,1,.2-.08.28.28,0,0,1,.2.08h0a.28.28,0,0,1,0,.36c-1,1.09-2,2.21-3,3.28a.28.28,0,0,1-.39,0Z"/><path class="cls-1" d="M444.28,460.7a.28.28,0,0,1-.08-.2.28.28,0,0,1,.08-.2c.92-1.15,1.85-2.32,2.8-3.5a.28.28,0,0,1,.39,0h0a.28.28,0,0,1,0,.36c-.9,1.18-1.82,2.35-2.8,3.5a.28.28,0,0,1-.39,0Z"/><path class="cls-1" d="M462.07,429.85c.53-1.34,1-2.8,1.54-4.14a.26.26,0,0,1,.06-.1l.09-.07.11,0,.11,0h0a.28.28,0,0,1,0,.28c-.51,1.4-1,2.8-1.54,4.17a.29.29,0,0,1-.06.1l-.09.07-.11,0-.11,0a.28.28,0,0,1,0-.15.28.28,0,0,1,0-.15Z"/><path class="cls-1" d="M255.51,333.6a.31.31,0,0,1,0,.34c-.7,1.29-1.4,2.6-2,3.92a.28.28,0,0,1-.18.07.23.23,0,0,1-.25-.25.28.28,0,0,1,.07-.18c.64-1.32,1.34-2.66,2-3.95a.28.28,0,0,1,.19,0,.28.28,0,0,1,.17.1Z"/><path class="cls-1" d="M246.46,354.15c.45-1.43.92-2.8,1.43-4.23a.28.28,0,0,1,.34-.17h0a.28.28,0,0,1,0,.14.29.29,0,0,1,0,.14c-.48,1.37-1,2.8-1.4,4.2a.28.28,0,0,1-.13.17.28.28,0,0,1-.21,0,.28.28,0,0,1-.05-.14.28.28,0,0,1,0-.14Z"/><path class="cls-1" d="M406.73,490.56a.28.28,0,0,1,0,.36c-1.32.64-2.8,1.29-4,1.9a.28.28,0,0,1-.22-.5c1.34-.62,2.8-1.23,4-1.88a.28.28,0,0,1,.14,0,.28.28,0,0,1,.11.09Z"/><path class="cls-1" d="M398.33,494.14a.28.28,0,0,1,.15,0,.28.28,0,0,1,.15,0h0a.29.29,0,0,1,0,.11.28.28,0,0,1-.09.2l-.1.06c-1.37.56-2.8,1.09-4.18,1.57a.28.28,0,0,1-.17-.18.3.3,0,0,1,0-.13.28.28,0,0,1,0-.12C395.53,495.21,397,494.67,398.33,494.14Z"/><path class="cls-1" d="M390,497.11a.28.28,0,0,1,.28,0h0a.28.28,0,0,1,0,.22.29.29,0,0,1-.07.09l-.1.06c-1.43.45-2.8.87-4.29,1.26a.27.27,0,0,1-.12.13.28.28,0,1,1-.05-.51.27.27,0,0,1,.15.1C387.12,498,388.55,497.56,390,497.11Z"/><path class="cls-1" d="M465,421.47c.42-1.43.84-2.8,1.2-4.26a.28.28,0,0,1,.34-.2h0a.29.29,0,0,1,0,.14.28.28,0,0,1,0,.14c-.36,1.4-.79,2.8-1.2,4.29a.2.2,0,1,1-.38,0A.28.28,0,0,1,465,421.47Z"/><path class="cls-1" d="M414.52,486.3a.28.28,0,0,1,.07.18.27.27,0,0,1-.07.18c-1.23.76-2.55,1.48-3.87,2.21a.28.28,0,0,1-.36,0,.28.28,0,0,1,0-.36c1.32-.73,2.61-1.46,3.87-2.21a.28.28,0,0,1,.36,0Z"/><path class="cls-1" d="M432,473.25c1.07-1,2.16-2,3.22-3a.28.28,0,0,1,.39.39c-1.06,1-2.18,2.07-3.25,3a.28.28,0,0,1-.18.07.27.27,0,0,1-.18-.46Z"/><path class="cls-1" d="M429,476.05a.28.28,0,0,1,.08.2.28.28,0,0,1-.08.2c-1.15,1-2.33,1.9-3.47,2.8a.28.28,0,0,1-.47-.2.28.28,0,0,1,.08-.2c1.15-.87,2.3-1.82,3.47-2.8a.28.28,0,0,1,.39,0Z"/><path class="cls-1" d="M422,481.46a.28.28,0,0,1,0,.39c-1.18.84-2.44,1.68-3.7,2.49a.28.28,0,0,1-.2.08.27.27,0,0,1-.28-.28.28.28,0,0,1,.08-.2c1.26-.81,2.49-1.65,3.67-2.49a.27.27,0,0,1,.09-.07l.12,0,.11,0A.27.27,0,0,1,422,481.46Z"/><path class="cls-1" d="M469.8,388.35v-4.42a.28.28,0,0,1,0-.15.28.28,0,0,1,.43,0,.29.29,0,0,1,0,.2v4.45a.28.28,0,0,1-.28.28.28.28,0,0,1-.15-.12A.28.28,0,0,1,469.8,388.35Z"/><path class="cls-1" d="M466.8,362c-.34-1.4-.7-2.8-1.09-4.31a.28.28,0,0,1,0-.17.28.28,0,0,1,.11-.13.28.28,0,0,1,.32,0c.39,1.46.79,2.8,1.12,4.31a.3.3,0,0,1-.34.35.28.28,0,0,1-.13-.07Z"/><path class="cls-1" d="M464.42,353.43c-.45-1.4-.92-2.8-1.46-4.2a.28.28,0,0,1,0-.19.28.28,0,0,1,.48-.09h0c.5,1.4,1,2.8,1.46,4.2a.28.28,0,0,1-.17.34.28.28,0,0,1-.31-.06Z"/><path class="cls-1" d="M469.66,395.38c0-1.48.14-3,.17-4.42a.28.28,0,0,1,.28-.28.28.28,0,0,1,.2,0,.29.29,0,0,1,0,.2,33.9,33.9,0,0,1-.2,4.45.28.28,0,0,1,0,.11.29.29,0,0,1-.07.08l-.1.05h-.11a.29.29,0,0,1-.09-.08.28.28,0,0,1,0-.11Z"/><path class="cls-1" d="M469.52,379.47a37.6,37.6,0,0,0-.42-4.42.28.28,0,0,1,.06-.21.26.26,0,0,1,.08-.07l.11,0,.11,0,.11,0a.3.3,0,0,1,0,.17c.17,1.43.31,2.8.42,4.43a.28.28,0,1,1-.56,0Z"/><path class="cls-1" d="M468.51,370.68c-.23-1.43-.48-2.8-.76-4.37a.29.29,0,0,1,0-.18.28.28,0,0,1,.12-.13.28.28,0,0,1,.18,0,.28.28,0,0,1,.16.08.24.24,0,0,1,0,.14c.28,1.48.56,3,.79,4.4a.28.28,0,0,1-.28.28.28.28,0,0,1-.28-.28Z"/><path class="cls-1" d="M467.19,412.9c.31-1.46.62-2.8.87-4.34a.28.28,0,0,1,0-.1.26.26,0,0,1,.08-.08l.1,0h.25a.26.26,0,0,1,0,.25c-.25,1.43-.56,2.8-.87,4.37a.27.27,0,0,1-.12.18l-.1,0h-.11a.28.28,0,0,1-.14-.28Z"/><path class="cls-1" d="M468.76,404.2c.2-1.46.39-2.94.53-4.4a.29.29,0,0,1,.1-.19l.1-.05h.28a.27.27,0,0,1,0,.11.27.27,0,0,1,0,.11c-.14,1.46-.34,2.8-.53,4.43a.28.28,0,0,1-.31.22.29.29,0,0,1-.11-.09.28.28,0,0,1-.05-.13Z"/><path class="cls-1" d="M300,596.18a.29.29,0,0,1,0,.13.29.29,0,0,1,0,.13.28.28,0,0,1-.34.2l-4.31-1a.28.28,0,0,1-.17-.13.28.28,0,0,1,.31-.4Z"/><path class="cls-1" d="M291.42,594.14a.28.28,0,0,1,0,.25.28.28,0,0,1-.13.17.28.28,0,0,1-.21,0l-4.09-.92a.28.28,0,0,1,.14-.53Z"/><path class="cls-1" d="M335,601.39h.17a.25.25,0,0,1,0,.22.28.28,0,0,1,0,.1.26.26,0,0,1-.07.09l-.1.05h-.11l-4.43-.39-.11,0a.26.26,0,0,1-.08-.07.28.28,0,0,1,0-.4l.1-.05h.11Z"/><path class="cls-1" d="M98,369.64a.28.28,0,0,1,0,.17c.14,1.48.31,2.94.5,4.42a.28.28,0,0,1,0,.11.29.29,0,0,1-.05.1l-.08.07-.11,0h-.11l-.1-.05a.3.3,0,0,1-.07-.08.29.29,0,0,1,0-.11l-.5-4.42a.28.28,0,0,1,0-.11.28.28,0,0,1,.05-.1l.09-.07.11,0a.28.28,0,0,1,.31.08Z"/><path class="cls-1" d="M326.22,600.53h.17a.28.28,0,0,1,0,.11.29.29,0,0,1,0,.11.3.3,0,0,1,0,.1.28.28,0,0,1-.07.09l-.1.05h-.11l-4.4-.53-.1,0a.26.26,0,0,1-.09-.07.28.28,0,0,1,0-.31.28.28,0,0,1,.07-.08l.1-.05h.11Z"/><path class="cls-1" d="M96.8,351.89a.34.34,0,0,1,0,.2q0,2.21.17,4.42a.28.28,0,0,1-.56,0q0-2.21-.2-4.45a.36.36,0,0,1,.45-.27.28.28,0,0,1,.14.11Z"/><path class="cls-1" d="M343.9,602.07a.28.28,0,0,1,.2,0,.27.27,0,0,1,0,.11.38.38,0,0,1-.12.3l-.1.05h-.11l-4.43-.25-.1,0-.08-.06a.25.25,0,0,1-.05-.09.25.25,0,0,1,0-.11.28.28,0,0,1,.28-.25Z"/><path class="cls-1" d="M352.78,602.07a.28.28,0,0,1,.2,0,.3.3,0,0,1,0,.2.28.28,0,0,1-.28.28h-4.45a.28.28,0,0,1-.2-.08.28.28,0,0,1,0-.4.28.28,0,0,1,.2-.08Z"/><path class="cls-1" d="M97.19,360.76a.28.28,0,0,1,0,.17q.14,2.24.34,4.45a.28.28,0,0,1-.06.21l-.09.07-.11,0h-.11l-.1-.05a.28.28,0,0,1-.07-.08.28.28,0,0,1,0-.11q-.2-2.21-.34-4.45a.28.28,0,0,1,0-.11.29.29,0,0,1,.05-.1l.09-.07.11,0a.28.28,0,0,1,.17,0A.28.28,0,0,1,97.19,360.76Z"/><path class="cls-1" d="M308.71,597.92h.14a.29.29,0,0,1,0,.13.29.29,0,0,1,0,.13.28.28,0,0,1-.12.18l-.1,0h-.11l-4.34-.84a.29.29,0,0,1-.13,0,.29.29,0,0,1-.12,0,.28.28,0,0,1-.08-.1.28.28,0,0,1,0-.26.28.28,0,0,1,.08-.1A.29.29,0,0,1,304,597a.29.29,0,0,1,.13,0Z"/><path class="cls-1" d="M253.69,581.29l4.09,1.71a.3.3,0,0,1-.36.45l-4.09-1.71a.28.28,0,0,1-.14-.15.28.28,0,0,1,0-.21.27.27,0,0,1,.08-.14.28.28,0,0,1,.42.05Z"/><path class="cls-1" d="M282.88,591.79a.25.25,0,0,1,0,.14.25.25,0,0,1,0,.14.28.28,0,0,1-.34.2L278.28,591l-.11,0a.26.26,0,0,1-.08-.09.27.27,0,0,1,0-.11.29.29,0,0,1,0-.11.29.29,0,0,1,.06-.1l.09-.07.11,0,.11,0Z"/><path class="cls-1" d="M237.63,573.75l4,2a.28.28,0,0,1,0,.31.28.28,0,0,1-.36,0l-4-1.82a.28.28,0,0,1,0-.36.28.28,0,0,1,.36-.11Z"/><path class="cls-1" d="M266,586.22a.29.29,0,0,1,.06.16.28.28,0,0,1-.17.27.28.28,0,0,1-.17,0l-4.06-1.4-.1-.06a.26.26,0,0,1-.07-.09.27.27,0,0,1,0-.11.29.29,0,0,1,0-.11.3.3,0,0,1,.06-.09l.09-.07.11,0,.11,0Z"/><path class="cls-1" d="M245.67,577.67l4,1.85a.29.29,0,0,1,.07.17.28.28,0,0,1-.2.29.29.29,0,0,1-.18,0l-4-1.85a.28.28,0,0,1-.07-.18.28.28,0,0,1,.21-.27.28.28,0,0,1,.17,0Z"/><path class="cls-1" d="M169.75,524.24,166.67,521a.28.28,0,0,1-.06-.19.29.29,0,0,1,.08-.18.27.27,0,0,1,.18-.08.28.28,0,0,1,.19.05h0l3.08,3.22a.28.28,0,0,1,.08.09.28.28,0,0,1,0,.11.29.29,0,0,1,0,.12.29.29,0,0,1-.17.16l-.12,0-.11,0a.28.28,0,0,1-.09-.08Z"/><path class="cls-1" d="M274.42,589.16a.28.28,0,0,1,0,.28.28.28,0,0,1-.14.15.28.28,0,0,1-.2,0l-4.2-1.43-.1-.06a.28.28,0,0,1-.07-.09.29.29,0,0,1,0-.11.27.27,0,0,1,0-.11.28.28,0,0,1,.06-.09l.09-.07.11,0,.11,0Z"/><path class="cls-1" d="M229.82,569.55l3.9,2.13a.28.28,0,0,1,.06.17.25.25,0,0,1-.42.17l-3.89-2.13a.25.25,0,1,1,.36-.34Z"/><path class="cls-1" d="M317.45,599.27h.14a.27.27,0,0,1,0,.11.28.28,0,0,1,0,.11.28.28,0,0,1-.31.22l-4.37-.45a.28.28,0,0,1-.17-.11.28.28,0,0,1-.05-.2.26.26,0,0,1,0-.1.3.3,0,0,1,.08-.08l.1,0H313Z"/><path class="cls-1" d="M139.55,485.88l2.49,3.7a.28.28,0,0,1-.2.47.28.28,0,0,1-.2-.08l-2.44-3.78a.28.28,0,0,1-.08-.19.27.27,0,0,1,.44-.2Z"/><path class="cls-1" d="M179.3,533.54a.28.28,0,0,1-.08-.2.27.27,0,0,1,.28-.28.28.28,0,0,1,.2.08l3.28,3a.28.28,0,0,1-.39.39Z"/><path class="cls-1" d="M104,404.73c.36,1.43.73,2.8,1.09,4.31a.28.28,0,0,1-.2.34.28.28,0,0,1-.21,0,.28.28,0,0,1-.13-.17q-.56-2.16-1.09-4.31a.28.28,0,0,1,0-.18.28.28,0,0,1,.12-.13.28.28,0,0,1,.18,0,.28.28,0,0,1,.16.08Z"/><path class="cls-1" d="M106.29,413.33q.59,2.13,1.23,4.28a.28.28,0,0,1-.53.17q-.65-2.13-1.23-4.28a.28.28,0,0,1,.13-.3.27.27,0,0,1,.17,0,.27.27,0,0,1,.16.06Z"/><path class="cls-1" d="M100.41,387.28a.22.22,0,0,1,0,.14q.36,2.18.78,4.37a.28.28,0,0,1,0,.22l-.08.08-.1,0h-.11l-.1,0a.27.27,0,0,1-.08-.08.26.26,0,0,1,0-.1c-.28-1.46-.53-2.8-.78-4.4a.28.28,0,0,1,.22-.31.28.28,0,0,1,.34.08Z"/><path class="cls-1" d="M102.07,396q.45,2.18,1,4.34a.28.28,0,0,1-.2.34h-.11l-.1,0a.29.29,0,0,1-.08-.08.29.29,0,0,1,0-.1c-.34-1.46-.64-2.8-1-4.34a.28.28,0,0,1,0-.11.28.28,0,0,1,0-.1.3.3,0,0,1,.08-.08l.11,0a.28.28,0,0,1,.2.05A.29.29,0,0,1,102.07,396Z"/><path class="cls-1" d="M155.35,507.27l2.8,3.42a.28.28,0,0,1-.2.47.28.28,0,0,1-.2-.08l-2.8-3.42a.28.28,0,0,1,.39-.39Z"/><path class="cls-1" d="M134.79,478.38c.79,1.26,1.57,2.52,2.35,3.75a.28.28,0,0,1,0,.39l-.08.06-.1,0-.1,0-.08-.06-2.35-3.78a.28.28,0,0,1-.05-.21.29.29,0,0,1,0-.1.28.28,0,0,1,.07-.08l.1,0h.11l.1,0a.27.27,0,0,1,.08.07Z"/><path class="cls-1" d="M126,462.92q1,2,2.1,3.92a.28.28,0,0,1,.07.18.26.26,0,0,1-.43.18l-2.1-3.92a.25.25,0,0,1,.34-.36Z"/><path class="cls-1" d="M144.57,493.19l2.61,3.58a.28.28,0,0,1-.39.39l-2.6-3.61a.27.27,0,0,1,.36-.39Z"/><path class="cls-1" d="M130.25,470.73c.73,1.29,1.49,2.58,2.21,3.84a.28.28,0,0,1,.08.2.27.27,0,0,1-.44.2l-2.24-3.86a.27.27,0,0,1,0-.1.25.25,0,0,1,0-.11.28.28,0,0,1,0-.1.28.28,0,0,1,.07-.08l.1,0h.11l.1,0,.08.07Z"/><path class="cls-1" d="M111.7,430.29q.76,2.1,1.54,4.17a.29.29,0,0,1,0,.11.27.27,0,0,1,0,.11.29.29,0,0,1-.07.09l-.1.06-.11,0-.11,0-.09-.07a.3.3,0,0,1-.06-.1c-.53-1.4-1-2.8-1.54-4.17a.29.29,0,0,1,0-.11.27.27,0,0,1,0-.11.28.28,0,0,1,.06-.09l.1-.06.11,0,.11,0,.09.07a.3.3,0,0,1,.06.1Z"/><path class="cls-1" d="M149.83,500.33l2.8,3.5a.28.28,0,0,1,.05.21.28.28,0,0,1-.32.24.28.28,0,0,1-.18-.11l-2.8-3.5a.28.28,0,0,1,0-.19.28.28,0,0,1,.47-.17Z"/><path class="cls-1" d="M207.26,555.44l3.67,2.52a.28.28,0,0,1,.07.18.25.25,0,0,1-.26.26.28.28,0,0,1-.2-.08l-3.67-2.52a.26.26,0,0,1,.2-.46.28.28,0,0,1,.19.09Z"/><path class="cls-1" d="M200.09,550.23l3.56,2.63a.28.28,0,0,1,.07.18.25.25,0,0,1-.26.26.28.28,0,0,1-.2-.08l-3.59-2.63a.26.26,0,0,1-.07-.08.3.3,0,0,1,0-.1.28.28,0,0,1,.05-.21l.08-.07.1,0h.11l.1,0Z"/><path class="cls-1" d="M214.63,560.4l3.73,2.38a.27.27,0,0,1,.06.17.28.28,0,0,1-.06.17.28.28,0,0,1-.39,0l-3.75-2.38a.28.28,0,0,1-.08-.2.28.28,0,0,1,.08-.2l.1-.06h.12l.11,0a.28.28,0,0,1,.09.08Z"/><path class="cls-1" d="M222.14,565.1l3.81,2.27a.28.28,0,0,1-.34.45l-3.75-2.16a.28.28,0,0,1,0-.39.28.28,0,0,1,.28-.17Z"/><path class="cls-1" d="M108.85,421.87c.45,1.4.92,2.8,1.4,4.23a.29.29,0,0,1,0,.11.26.26,0,0,1,0,.11.28.28,0,0,1-.07.09l-.09.06-.11,0-.11,0-.09-.07a.29.29,0,0,1-.06-.1q-.7-2.1-1.4-4.23a.28.28,0,0,1,.53-.2Z"/><path class="cls-1" d="M118.31,446.9l1.82,4.06a.28.28,0,0,1,.07.18.26.26,0,0,1-.43.18c-.62-1.34-1.23-2.8-1.82-4.06a.24.24,0,0,1,.31-.36Z"/><path class="cls-1" d="M122,455c.64,1.34,1.29,2.8,2,4a.26.26,0,0,1,0,.11.29.29,0,0,1,0,.11.29.29,0,0,1-.06.1l-.09.07-.11,0h-.11l-.1-.05a.28.28,0,0,1-.07-.09c-.67-1.32-1.32-2.8-2-4a.28.28,0,0,1,.1-.33.27.27,0,0,1,.18,0,.28.28,0,0,1,.17.07Z"/><path class="cls-1" d="M193.09,544.77l3.47,2.8a.28.28,0,0,1,.07.18.25.25,0,0,1-.26.26.28.28,0,0,1-.2-.08l-3.47-2.8a.26.26,0,0,1,.2-.44.28.28,0,0,1,.2.08Z"/><path class="cls-1" d="M186.31,539.06l3.39,2.8a.27.27,0,0,1,.07.18.28.28,0,0,1-.07.19.28.28,0,0,1-.18.09.28.28,0,0,1-.19,0l-3.39-2.8a.31.31,0,0,1,0-.39.28.28,0,0,1,.36,0Z"/><path class="cls-1" d="M114.84,438.61q.81,2.07,1.68,4.12a.27.27,0,0,1,0,.11.28.28,0,0,1-.07.23.29.29,0,0,1-.1.07l-.12,0-.12,0a.28.28,0,0,1-.1-.08A.28.28,0,0,1,116,443q-.87-2-1.68-4.12a.28.28,0,0,1,0-.21.27.27,0,0,1,.35-.16.28.28,0,0,1,.15.14Z"/><path class="cls-1" d="M161.09,514.05l3,3.3a.28.28,0,0,1,0,.39.25.25,0,0,1-.09.07l-.11,0-.11,0a.24.24,0,0,1-.09-.07l-3-3.3a.28.28,0,0,1-.08-.2.27.27,0,0,1,.28-.28.28.28,0,0,1,.2.08Z"/><path class="cls-1" d="M367.79,84.46a.28.28,0,1,1,0-.56l4.45.25a.28.28,0,0,1,.17,0,.25.25,0,0,1,0,.22.28.28,0,0,1-.28.25Z"/><path class="cls-1" d="M390,85.83h.17a.25.25,0,0,1,0,.22.26.26,0,0,1,0,.11.28.28,0,0,1-.07.08l-.1.05h-.11l-4.4-.53a.28.28,0,1,1,0-.56Z"/><path class="cls-1" d="M358.91,84.21a.28.28,0,1,1,0-.56h4.45a.28.28,0,1,1,0,.56Z"/><path class="cls-1" d="M381.13,84.85h.17a.31.31,0,0,1,0,.22.26.26,0,0,1,0,.11.27.27,0,0,1-.07.08l-.1.05H381l-4.43-.39-.11,0-.09-.06a.28.28,0,0,1-.06-.09.27.27,0,0,1,0-.21.28.28,0,0,1,.06-.09l.09-.06.11,0Z"/><path class="cls-1" d="M602.79,264.4c-.45-1.4-.92-2.8-1.37-4.23a.28.28,0,0,1,.13-.3.28.28,0,0,1,.32,0h0c.48,1.4.92,2.8,1.4,4.23a.28.28,0,0,1-.19.33.28.28,0,0,1-.34-.16Z"/><path class="cls-1" d="M511.6,136.18,508,133.55a.27.27,0,0,1-.07-.09.25.25,0,0,1,.07-.3.28.28,0,0,1,.39,0l3.59,2.63a.28.28,0,0,1-.36.42Z"/><path class="cls-1" d="M497.09,126l-3.75-2.38a.28.28,0,0,1-.08-.2.27.27,0,0,1,.28-.28.28.28,0,0,1,.2.08l3.75,2.41a.28.28,0,0,1,.05.17.29.29,0,0,1-.06.17.28.28,0,0,1-.33.08Z"/><path class="cls-1" d="M596.79,247.69c-.56-1.37-1.09-2.8-1.68-4.12a.28.28,0,0,1,0-.21.35.35,0,0,1,.3-.2.28.28,0,0,1,.15,0q.87,2,1.68,4.12a.28.28,0,0,1,0,.21.36.36,0,0,1-.3.2.28.28,0,0,1-.15,0Z"/><path class="cls-1" d="M504.43,130.94l-3.64-2.52a.28.28,0,0,1-.08-.39.28.28,0,0,1,.39-.08l3.67,2.52a.28.28,0,0,1,0,.36.28.28,0,0,1-.34.11Z"/><path class="cls-1" d="M599.93,256q-.76-2.1-1.54-4.17a.27.27,0,0,1,0-.11.29.29,0,0,1,0-.11.29.29,0,0,1,.07-.09l.1-.06a.28.28,0,0,1,.31,0h0c.53,1.4,1,2.8,1.54,4.17a.29.29,0,0,1,0,.11.28.28,0,0,1-.09.2l-.09.06a.28.28,0,0,1-.31,0Z"/><path class="cls-1" d="M525.41,147.32l-3.39-2.8a.31.31,0,0,1-.07-.2.3.3,0,0,1,.07-.2.28.28,0,0,1,.39,0l3.39,2.8a.28.28,0,0,1-.39.39Z"/><path class="cls-1" d="M518.6,141.64l-3.47-2.8a.28.28,0,0,1,.39-.39l3.47,2.8a.29.29,0,0,1,.07.19.28.28,0,0,1-.07.19.28.28,0,0,1-.17.09.28.28,0,0,1-.19,0Z"/><path class="cls-1" d="M458,105.1l-4.09-1.71a.28.28,0,0,1-.14-.15.28.28,0,0,1,0-.21.28.28,0,0,1,.15-.14.28.28,0,0,1,.21,0l4.09,1.71a.41.41,0,0,1-.08.44.28.28,0,0,1-.14.07Z"/><path class="cls-1" d="M445.68,100.17l-.1-.06a.28.28,0,0,1-.07-.09.29.29,0,0,1,0-.11.3.3,0,0,1,.08-.2l.09-.07.11,0,.11,0L450,101.2a.27.27,0,0,1,.07.17.28.28,0,0,1,0,.18.29.29,0,0,1-.15.11.28.28,0,0,1-.18,0Z"/><path class="cls-1" d="M437.3,97.23a.28.28,0,0,1-.16-.34.28.28,0,0,1,.13-.16.28.28,0,0,1,.2,0L441.78,98a.28.28,0,0,1,0,.28.28.28,0,0,1-.34.17Z"/><path class="cls-1" d="M489.55,121.28,485.74,119a.28.28,0,0,1-.08-.2.27.27,0,0,1,.45-.2l3.84,2.27a.28.28,0,0,1,.06.39l-.08.07-.1,0a.28.28,0,0,1-.21-.05Z"/><path class="cls-1" d="M481.87,116.83l-3.89-2a.27.27,0,0,1-.12-.05.29.29,0,0,1-.08-.1.28.28,0,0,1,0-.12.28.28,0,0,1,0-.12.28.28,0,0,1,.2-.15.28.28,0,0,1,.24.07l3.89,2.13a.28.28,0,0,1,.06.17.22.22,0,0,1-.31.2Z"/><path class="cls-1" d="M474.06,112.63l-4-2a.28.28,0,0,1,0-.36.28.28,0,0,1,.37,0l4,2a.25.25,0,0,1,0,.34.28.28,0,0,1-.19.09A.28.28,0,0,1,474.06,112.63Z"/><path class="cls-1" d="M466.1,108.74l-4-1.85a.28.28,0,0,1,0-.48.29.29,0,0,1,.19,0l4,1.85a.28.28,0,0,1-.31.45Z"/><path class="cls-1" d="M550.6,172.33l-3-3.3a.28.28,0,0,1-.08-.2.28.28,0,0,1,.47-.2h0l3,3.3a.28.28,0,0,1,.08.2.35.35,0,0,1-.18.28.28.28,0,0,1-.35-.08Z"/><path class="cls-1" d="M593.38,239.48c-.59-1.37-1.21-2.8-1.82-4.06a.28.28,0,0,1,.45-.31c.62,1.34,1.23,2.8,1.82,4.06a.28.28,0,0,1,0,.21.28.28,0,0,1-.45.1Z"/><path class="cls-1" d="M567.13,193.22l-2.61-3.61a.28.28,0,0,1-.08-.2.25.25,0,0,1,.26-.26.28.28,0,0,1,.18.07h0l2.61,3.61a.28.28,0,0,1,.08.2.25.25,0,0,1-.26.26.28.28,0,0,1-.18-.07Z"/><path class="cls-1" d="M561.86,186.05l-2.8-3.5a.28.28,0,0,1-.08-.2.25.25,0,0,1,.26-.26.28.28,0,0,1,.18.07h0l2.8,3.5a.28.28,0,0,1,0,.39.31.31,0,0,1-.36,0Z"/><path class="cls-1" d="M572.17,200.5l-2.49-3.7a.26.26,0,0,1,.18-.46.28.28,0,0,1,.18.07h0l2.49,3.7a.28.28,0,0,1,.08.2.25.25,0,0,1-.26.26.28.28,0,0,1-.18-.07Z"/><path class="cls-1" d="M576.93,208l-2.35-3.78a.28.28,0,0,1,0-.39.28.28,0,0,1,.17-.06.28.28,0,0,1,.17.06h0l2.35,3.78a.28.28,0,0,1,0,.39.25.25,0,0,1-.34,0Z"/><path class="cls-1" d="M556.34,179.22l-2.8-3.42a.27.27,0,0,1,.36-.39l2.8,3.42a.28.28,0,0,1,.08.2.27.27,0,0,1-.44.2Z"/><path class="cls-1" d="M544.63,165.75l-3.08-3.33a.28.28,0,0,1-.08-.2.28.28,0,0,1,.47-.2h0l3.08,3.22a.28.28,0,0,1,.08.2.28.28,0,0,1-.08.2.26.26,0,0,1-.07.09l-.1.05h-.11Z"/><path class="cls-1" d="M581.44,215.62l-2.21-3.84a.28.28,0,0,1,.42-.34h0l2.21,3.86a.28.28,0,0,1,0,.36l-.1.06h-.12l-.11,0a.28.28,0,0,1-.09-.08Z"/><path class="cls-1" d="M585.7,223.46c-.67-1.32-1.37-2.63-2.1-3.92a.28.28,0,0,1-.07-.18.22.22,0,0,1,.24-.24.28.28,0,0,1,.17.06h0l2.1,3.92a.28.28,0,0,1,0,.36.28.28,0,0,1-.17.06.28.28,0,0,1-.17-.06Z"/><path class="cls-1" d="M532,153.23l-3.39-3a.24.24,0,0,1-.07-.09.25.25,0,0,1,.07-.31.28.28,0,0,1,.39,0l3.28,3a.28.28,0,0,1,.08.2.18.18,0,0,1-.22.22.28.28,0,0,1-.14-.05Z"/><path class="cls-1" d="M538.44,159.39l-3.17-3.11a.28.28,0,0,1-.08-.2.28.28,0,0,1,.47-.2l3.19,3.11a.28.28,0,0,1,.08.09.27.27,0,0,1,0,.11.28.28,0,0,1-.08.22.29.29,0,0,1-.1.06l-.12,0-.11,0a.28.28,0,0,1-.09-.08Z"/><path class="cls-1" d="M589.68,231.39c-.64-1.34-1.29-2.8-2-4a.28.28,0,0,1-.07-.18.28.28,0,0,1,.07-.18.25.25,0,0,1,.31,0h0c.67,1.32,1.32,2.66,2,4a.28.28,0,0,1-.16.32.29.29,0,0,1-.19,0,.28.28,0,0,1-.15-.11Z"/><path class="cls-1" d="M611.22,299q-.36-2.21-.78-4.37a.28.28,0,0,1,.14-.31.27.27,0,0,1,.17,0,.15.15,0,0,1,.16.22c.28,1.46.53,2.8.81,4.4a.28.28,0,0,1-.23.31.28.28,0,0,1-.28-.22Z"/><path class="cls-1" d="M615.11,329.68a.24.24,0,0,1,0,.1.24.24,0,0,1,0,.1,33.68,33.68,0,0,0,.2,4.45.28.28,0,0,1-.28.28.28.28,0,0,1-.19-.07.28.28,0,0,1-.09-.18q0-2.21-.2-4.42a.44.44,0,0,1,.42-.3A.28.28,0,0,1,615.11,329.68Z"/><path class="cls-1" d="M609.57,290.22q-.45-2.18-1-4.34a.28.28,0,0,1,0-.21.4.4,0,0,1,.29-.16.28.28,0,0,1,.13,0q.5,2.18,1,4.37a.28.28,0,0,1,0,.22.29.29,0,0,1-.08.08l-.1,0h-.11Z"/><path class="cls-1" d="M614.53,320.8a.25.25,0,0,1,0,.17c0,1.48.25,3,.34,4.45a.28.28,0,0,1-.28.28.28.28,0,0,1-.28-.28c0-1.48-.22-3-.34-4.43a.29.29,0,0,1,0-.11.28.28,0,0,1,.05-.1l.08-.07.11,0a.28.28,0,0,1,.31.11Z"/><path class="cls-1" d="M607.61,281.54q-.53-2.16-1.09-4.31a.28.28,0,0,1,.2-.34.29.29,0,0,1,.28,0c.39,1.43.76,2.8,1.09,4.31a.27.27,0,0,1,0,.21.28.28,0,0,1-.17.13.28.28,0,0,1-.28,0Z"/><path class="cls-1" d="M428.84,94.59a.28.28,0,0,1-.2-.34.28.28,0,0,1,.13-.17.28.28,0,0,1,.21,0l4.4,1.15a.28.28,0,0,1,0,.28.28.28,0,0,1-.34.17Z"/><path class="cls-1" d="M613.6,311.93a.24.24,0,0,1,0,.17c.17,1.48.34,2.94.51,4.42a.27.27,0,0,1,0,.11.28.28,0,0,1-.05.1l-.08.07-.11,0h-.11l-.1-.05a.26.26,0,0,1-.07-.09.29.29,0,0,1,0-.1q-.22-2.21-.5-4.42a.29.29,0,0,1,0-.11.29.29,0,0,1,.05-.1.28.28,0,0,1,.09-.07l.1,0a.28.28,0,0,1,.17,0,.27.27,0,0,1,.14.09Z"/><path class="cls-1" d="M605.34,272.95c-.39-1.43-.81-2.8-1.23-4.28a.27.27,0,0,1,0-.17.28.28,0,0,1,.43-.11h0c.42,1.43.84,2.8,1.23,4.28a.28.28,0,0,1,0,.21.28.28,0,0,1-.17.13.27.27,0,0,1-.13,0,.28.28,0,0,1-.12-.06Z"/><path class="cls-1" d="M411.67,90.2a.28.28,0,0,1-.13,0,.29.29,0,0,1-.12,0,.28.28,0,0,1-.08-.1.28.28,0,0,1,0-.25.28.28,0,0,1,.08-.1.28.28,0,0,1,.25,0l4.31,1a.36.36,0,0,1-.13.42.28.28,0,0,1-.21,0Z"/><path class="cls-1" d="M420.3,92.24a.28.28,0,0,1,.14-.53l4.29,1.15a.38.38,0,0,1-.13.45.28.28,0,0,1-.21,0Z"/><path class="cls-1" d="M394.16,87a.28.28,0,0,1,0-.2.28.28,0,0,1,.31-.22l4.37.7H399a.28.28,0,0,1,0,.25.28.28,0,0,1,0,.1.28.28,0,0,1-.08.08l-.1,0h-.11Z"/><path class="cls-1" d="M403,88.46l-.1,0a.28.28,0,0,1-.12-.18.31.31,0,0,1,0-.22.29.29,0,0,1,.08-.08l.1,0h.11l4.34.84h.14a.25.25,0,0,1,0,.25.26.26,0,0,1,0,.1.29.29,0,0,1-.08.08l-.1,0h-.11Z"/><path class="cls-1" d="M118.85,589.44a8.32,8.32,0,1,0-8.32-8.32A8.32,8.32,0,0,0,118.85,589.44Z"/><path class="cls-1" d="M183.56,516.54a.28.28,0,0,1-.47-.2.28.28,0,0,1,.08-.2l3.14-3.14a.28.28,0,0,1,.39.39Z"/><path class="cls-1" d="M189.84,510.27a.28.28,0,0,1-.39,0,.28.28,0,0,1,0-.39l3-3a.28.28,0,0,1,.09-.08l.11,0,.12,0a.28.28,0,0,1,.1.07.28.28,0,0,1,.08.22.29.29,0,0,1,0,.11.29.29,0,0,1-.08.09Z"/><path class="cls-1" d="M208.24,491.37a.28.28,0,0,1,0-.39l3.14-3.14a.28.28,0,0,1,.19-.06.28.28,0,0,1,.18.08.27.27,0,0,1,.08.18.28.28,0,0,1-.05.19l-3.14,3.14a.28.28,0,0,1-.2.08.28.28,0,0,1-.2-.08Z"/><path class="cls-1" d="M196.09,504.05a.27.27,0,0,1-.09.08l-.11,0-.12,0a.28.28,0,0,1-.16-.16.28.28,0,0,1,0-.12.29.29,0,0,1,0-.11.28.28,0,0,1,.08-.09l3.14-3.14a.28.28,0,0,1,.09-.08l.11,0,.12,0a.28.28,0,0,1,.16.16.28.28,0,0,1,0,.12.27.27,0,0,1,0,.11.28.28,0,0,1-.08.09Z"/><path class="cls-1" d="M202.36,497.67a.28.28,0,0,1-.39-.39l3.14-3.14a.28.28,0,0,1,.47.2.28.28,0,0,1-.08.2Z"/><path class="cls-1" d="M177.29,522.84a.28.28,0,0,1-.37,0,.27.27,0,0,1-.08-.18.28.28,0,0,1,.06-.19l3.14-3.14a.27.27,0,0,1,.09-.08l.11,0,.12,0a.29.29,0,0,1,.1.06.28.28,0,0,1,.06.1.28.28,0,0,1,0,.12.28.28,0,0,1-.11.2Z"/><path class="cls-1" d="M161.21,538.19a.28.28,0,0,1,.19-.05.27.27,0,0,1,.18.08.28.28,0,0,1,0,.37l-3.14,3.14a.28.28,0,0,1-.47-.2.28.28,0,0,1,.08-.2Z"/><path class="cls-1" d="M167.48,531.92a.28.28,0,0,1,.39,0,.28.28,0,0,1,.08.2.28.28,0,0,1-.08.2l-3.14,3.14a.28.28,0,0,1-.2.08.27.27,0,0,1-.28-.28.28.28,0,0,1,.08-.2Z"/><path class="cls-1" d="M154.93,544.49a.28.28,0,0,1,.39,0,.28.28,0,0,1,.08.2.28.28,0,0,1-.08.2L152.18,548a.28.28,0,0,1-.39-.39Z"/><path class="cls-1" d="M142.38,557.09a.28.28,0,0,1,.19-.05.27.27,0,0,1,.18.08.28.28,0,0,1,.08.18.28.28,0,0,1-.06.19l-3.14,3.16a.28.28,0,0,1-.09.08l-.12,0-.12,0a.28.28,0,0,1-.18-.28.27.27,0,0,1,0-.11.28.28,0,0,1,.08-.09Z"/><path class="cls-1" d="M173.2,527l3.17,3.11a.28.28,0,0,1-.21.45.28.28,0,0,1-.19-.06l-3.14-3.05L171,529.26a.28.28,0,0,1-.09.08l-.11,0-.12,0a.29.29,0,0,1-.17-.16.28.28,0,0,1,0-.12.28.28,0,0,1,.11-.2l3.14-3.14a.28.28,0,0,1,.39.39Z"/><path class="cls-1" d="M136.41,563.39a.28.28,0,0,1,.08.2.28.28,0,0,1-.08.2l-3.14,3.16a.27.27,0,0,1-.09.08l-.11,0-.12,0a.29.29,0,0,1-.1-.06.28.28,0,0,1-.06-.1.28.28,0,0,1,0-.12.28.28,0,0,1,0-.11.28.28,0,0,1,.08-.09l3.14-3.14a.28.28,0,0,1,.19-.1.28.28,0,0,1,.2.07Z"/><path class="cls-1" d="M148.65,550.79a.28.28,0,0,1,.45.2.28.28,0,0,1-.06.19l-3.14,3.28a.28.28,0,0,1-.19.05.28.28,0,0,1-.26-.26.28.28,0,0,1,.05-.19Z"/><path class="cls-1" d="M314.87,384.31a.28.28,0,0,1-.08-.2.28.28,0,0,1,.08-.2l3.14-3.14a.28.28,0,0,1,.09-.08l.11,0,.12,0a.28.28,0,0,1,.16.16.28.28,0,0,1,0,.12.28.28,0,0,1-.11.2l-3.14,3.16a.28.28,0,0,1-.39,0Z"/><path class="cls-1" d="M321.15,378a.28.28,0,0,1-.08-.2.28.28,0,0,1,.08-.2l3.14-3.14a.28.28,0,0,1,.19-.05.29.29,0,0,1,.18.08.28.28,0,0,1,.08.18.28.28,0,0,1-.05.19L321.54,378a.28.28,0,0,1-.39,0Z"/><path class="cls-1" d="M327.42,371.71a.28.28,0,0,1,0-.39l3.14-3.14a.28.28,0,0,1,.2-.08.27.27,0,0,1,.28.28.28.28,0,0,1-.08.2l-3.14,3.16a.28.28,0,0,1-.2.07.28.28,0,0,1-.19-.09Z"/><path class="cls-1" d="M277.25,422.09a.28.28,0,0,1,0-.39l3.14-3.14a.28.28,0,0,1,.39.39l-3.14,3.17a.28.28,0,0,1-.2.07.28.28,0,0,1-.19-.09Z"/><path class="cls-1" d="M333.7,365.44a.28.28,0,0,1-.08-.2.28.28,0,0,1,.08-.2l3.14-3.14a.28.28,0,0,1,.39,0,.28.28,0,0,1,0,.39l-3.14,3.14a.28.28,0,0,1-.2.08A.28.28,0,0,1,333.7,365.44Z"/><path class="cls-1" d="M308.6,390.61a.28.28,0,0,1,0-.39l3.14-3.14a.28.28,0,0,1,.39,0,.28.28,0,0,1,0,.39L309,390.61a.28.28,0,0,1-.2.08.28.28,0,0,1-.2-.08Z"/><path class="cls-1" d="M264.7,434.69a.28.28,0,0,1,0-.39l3.14-3.05a.28.28,0,0,1,.2-.08.27.27,0,0,1,.28.28.28.28,0,0,1-.08.2l-3.14,3.14-.1,0h-.11l-.1,0a.28.28,0,0,1-.08-.08Z"/><path class="cls-1" d="M270.89,428.45a.28.28,0,0,1,0-.39l3.14-3.14a.28.28,0,0,1,.37,0,.28.28,0,0,1,.08.18.28.28,0,0,1-.06.19l-3.05,3.14a.28.28,0,0,1-.37.1A.27.27,0,0,1,270.89,428.45Z"/><path class="cls-1" d="M302.35,396.92a.28.28,0,0,1,0-.39l3.14-3.14a.28.28,0,0,1,.39,0h0a.28.28,0,0,1,.08.2.28.28,0,0,1-.08.2l-3.14,3.14a.28.28,0,0,1-.39,0Z"/><path class="cls-1" d="M252.15,447.29a.28.28,0,0,1,0-.39l3.14-3.14a.28.28,0,0,1,.39.39l-3.14,3.14a.28.28,0,0,1-.39,0Z"/><path class="cls-1" d="M296.1,403.24a.28.28,0,0,1-.08-.2.28.28,0,0,1,.08-.2l3.14-3.14a.28.28,0,0,1,.37,0,.28.28,0,0,1,0,.37l-3.17,3.14a.28.28,0,0,1-.36,0Z"/><path class="cls-1" d="M258.42,441a.28.28,0,0,1-.08-.2.28.28,0,0,1,.08-.2l3.14-3.14a.28.28,0,0,1,.2-.08.27.27,0,0,1,.28.28.28.28,0,0,1-.08.2L258.81,441a.28.28,0,0,1-.2.07.28.28,0,0,1-.19-.09Z"/><path class="cls-1" d="M245.9,453.65a.28.28,0,0,1,0-.39l3.14-3.14a.28.28,0,0,1,.45.21.28.28,0,0,1-.06.19l-3.14,3.14a.28.28,0,0,1-.39,0Z"/><path class="cls-1" d="M289.8,409.52a.28.28,0,0,1,0-.39l3.14-3.08A.27.27,0,0,1,293,406l.11,0,.12,0a.28.28,0,0,1,.1.07.28.28,0,0,1,.08.22.28.28,0,0,1-.11.2l-3.14,3.14a.28.28,0,0,1-.39-.06Z"/><path class="cls-1" d="M283.52,415.82a.28.28,0,0,1-.08-.2.28.28,0,0,1,.08-.2l3.14-3.14a.28.28,0,0,1,.09-.08l.11,0,.12,0a.29.29,0,0,1,.1.06.3.3,0,0,1,.06.1.28.28,0,0,1,0,.12.28.28,0,0,1,0,.11.27.27,0,0,1-.08.09l-3.14,3.14a.28.28,0,0,1-.39,0Z"/><path class="cls-1" d="M224.32,475.24a.28.28,0,0,1,0,.39l-3.14,3.22a.28.28,0,0,1-.09.08l-.11,0-.12,0-.1-.06a.29.29,0,0,1-.06-.1.28.28,0,0,1,0-.12.28.28,0,0,1,.11-.2l3.14-3.14a.29.29,0,0,1,.08-.08l.1,0h.11l.1,0Z"/><path class="cls-1" d="M239.62,459.89a.28.28,0,0,1-.08-.2.28.28,0,0,1,.08-.2l3.25-3.05a.29.29,0,0,1,.09-.08l.11,0,.12,0a.28.28,0,0,1,.1.06.29.29,0,0,1,.06.1.26.26,0,0,1,0,.12.28.28,0,0,1-.11.2l-3.19,3.05a.28.28,0,0,1-.22.11.29.29,0,0,1-.12,0,.28.28,0,0,1-.1-.08Z"/><path class="cls-1" d="M361.46,589.43a5.6,5.6,0,0,1-5.35,5.6v42.34a.28.28,0,1,1-.56,0V595a5.6,5.6,0,1,1,5.91-5.6Z"/><path class="cls-1" d="M388.65,172.11a5.63,5.63,0,1,0-6.44,4.68A5.63,5.63,0,0,0,388.65,172.11Z"/><path class="cls-1" d="M334.13,516a5.63,5.63,0,1,0-6.44,4.68A5.63,5.63,0,0,0,334.13,516Z"/><path class="cls-1" d="M415.06,179.36A5.63,5.63,0,1,0,408,183,5.63,5.63,0,0,0,415.06,179.36Z"/><path class="cls-1" d="M303.75,503.41a5.6,5.6,0,1,1-2.18-.26A5.61,5.61,0,0,1,303.75,503.41Z"/><path class="cls-1" d="M440,190.67a5.63,5.63,0,1,0-7.57,2.46A5.63,5.63,0,0,0,440,190.67Z"/><path class="cls-1" d="M281.79,500.89a5.63,5.63,0,1,0-7.57,2.46A5.63,5.63,0,0,0,281.79,500.89Z"/><path class="cls-1" d="M462.77,205.63a5.63,5.63,0,1,0-7.86,1.25A5.63,5.63,0,0,0,462.77,205.63Z"/><path class="cls-1" d="M258,487.38a5.63,5.63,0,1,0-7.87,1.25A5.63,5.63,0,0,0,258,487.38Z"/><path class="cls-1" d="M483,224.09a5.63,5.63,0,1,0-8,0A5.63,5.63,0,0,0,483,224.09Z"/><path class="cls-1" d="M236.68,462.33a5.61,5.61,0,0,1-7.42,8.4l-1.76,1.79a.28.28,0,0,1-.37,0,.28.28,0,0,1-.08-.18.28.28,0,0,1,.05-.19l1.76-1.68a5.62,5.62,0,0,1,8-8Z"/><path class="cls-1" d="M492.21,244.16a5.6,5.6,0,1,1,1.61,1.49,5.6,5.6,0,0,1-1.61-1.49Z"/><path class="cls-1" d="M218.24,450.12a5.63,5.63,0,1,0-7.86-1.25A5.62,5.62,0,0,0,218.24,450.12Z"/><path class="cls-1" d="M513.59,269.2a5.63,5.63,0,1,0-7.57-2.46A5.63,5.63,0,0,0,513.59,269.2Z"/><path class="cls-1" d="M203.19,427.26a5.63,5.63,0,1,0-7.57-2.46A5.63,5.63,0,0,0,203.19,427.26Z"/><path class="cls-1" d="M523.25,294.76a5.63,5.63,0,1,0-7.1-3.61A5.63,5.63,0,0,0,523.25,294.76Z"/><path class="cls-1" d="M192.14,401.79a5.63,5.63,0,1,0-7.1-3.6A5.62,5.62,0,0,0,192.14,401.79Z"/><path class="cls-1" d="M528.77,321.49a5.63,5.63,0,1,0-6.45-4.67A5.63,5.63,0,0,0,528.77,321.49Z"/><path class="cls-1" d="M184.69,376a5.63,5.63,0,1,0-6.44-4.68A5.63,5.63,0,0,0,184.69,376Z"/><path class="cls-1" d="M533.46,371.32A5.63,5.63,0,1,0,527,376,5.63,5.63,0,0,0,533.46,371.32Z"/><path class="cls-1" d="M184.71,310.41a5.61,5.61,0,1,1-2.19.09,5.61,5.61,0,0,1,2.19-.09Z"/><path class="cls-1" d="M519.75,402.35a5.6,5.6,0,1,1,2.18.27,5.59,5.59,0,0,1-2.18-.27Z"/><path class="cls-1" d="M195.54,291.15a5.63,5.63,0,1,0-7.09,3.62A5.63,5.63,0,0,0,195.54,291.15Z"/><path class="cls-1" d="M508.49,427.24a5.6,5.6,0,1,1,2.11.6,5.6,5.6,0,0,1-2.11-.6Z"/><path class="cls-1" d="M205.66,266.69a5.63,5.63,0,1,0-7.57,2.46A5.63,5.63,0,0,0,205.66,266.69Z"/><path class="cls-1" d="M501.33,448.86a5.63,5.63,0,1,0-7.86,1.25A5.63,5.63,0,0,0,501.33,448.86Z"/><path class="cls-1" d="M219.49,244.14a5.63,5.63,0,1,0-7.86,1.25A5.63,5.63,0,0,0,219.49,244.14Z"/><path class="cls-1" d="M461.53,488.58a5.63,5.63,0,1,0-7.87-1.24A5.63,5.63,0,0,0,461.53,488.58Z"/><path class="cls-1" d="M256.79,206.89a5.63,5.63,0,1,0-7.87-1.24A5.63,5.63,0,0,0,256.79,206.89Z"/><path class="cls-1" d="M437.47,503.33A5.6,5.6,0,1,1,439.2,502,5.6,5.6,0,0,1,437.47,503.33Z"/><path class="cls-1" d="M279.34,193.08a5.63,5.63,0,1,0-7.58-2.45A5.63,5.63,0,0,0,279.34,193.08Z"/><path class="cls-1" d="M411.4,514.12a5.63,5.63,0,1,0-7.1-3.61A5.63,5.63,0,0,0,411.4,514.12Z"/><path class="cls-1" d="M303.76,183a5.63,5.63,0,1,0-7.1-3.61A5.63,5.63,0,0,0,303.76,183Z"/><path class="cls-1" d="M377.54,516a5.6,5.6,0,1,1,.75,2.07,5.59,5.59,0,0,1-.75-2.07Z"/><path class="cls-1" d="M329.49,176.82a5.63,5.63,0,1,0-6.45-4.68A5.63,5.63,0,0,0,329.49,176.82Z"/><path class="cls-1" d="M355.86,11.26a5.63,5.63,0,1,0-5.63-5.63A5.63,5.63,0,0,0,355.86,11.26Z"/><path class="cls-1" d="M108.59,570.87a14.51,14.51,0,1,0,20.68.2l1-1a.28.28,0,0,0,.08-.2.27.27,0,0,0-.28-.28.28.28,0,0,0-.2.08l-1,1a14.51,14.51,0,0,0-20.28.2Zm.39.39a14,14,0,0,1,19.61-.2l-1.76,1.76a.28.28,0,0,0,.39.39l1.77-1.76a14,14,0,1,1-19.89-.2Z"/><path class="cls-1" d="M355.86,655.41a.28.28,0,0,0-.28.28v10.5a15,15,0,1,0,.56,0v-10.5a.29.29,0,0,0,0-.2.28.28,0,0,0-.13-.08A.27.27,0,0,0,355.86,655.41Zm-.28,11.34v8.4a5.6,5.6,0,1,0,.56,0v-8.4a14,14,0,1,1-.56,0Z"/><path class="cls-1" d="M689.37,353.13a5.63,5.63,0,1,0-5.63-5.63A5.63,5.63,0,0,0,689.37,353.13Z"/><path class="cls-1" d="M5.63,359.94A5.63,5.63,0,1,0,0,354.32,5.63,5.63,0,0,0,5.63,359.94Z"/><g class="cls-2"><path class="cls-3" d="M335.91,176.42a.39.39,0,0,0-.34,0c-5.27.62-10.56,1.51-15.74,2.63a.42.42,0,0,0-.25.18.42.42,0,0,0-.06.3.4.4,0,0,0,.06.15.38.38,0,0,0,.11.11.39.39,0,0,0,.15.06.4.4,0,0,0,.16,0c5.15-1.12,10.42-2,15.66-2.63a.4.4,0,0,0,.15-.05.39.39,0,0,0,.12-.1.38.38,0,0,0,.07-.14.4.4,0,0,0,0-.15.44.44,0,0,0,0-.18.43.43,0,0,0-.08-.16Z"/><path class="cls-3" d="M413.77,186.36c5,1.85,9.86,3.92,14.6,6.22a.39.39,0,0,0,.45-.64c-4.76-2.32-9.69-4.43-14.68-6.27a.39.39,0,0,0-.28.73Z"/><path class="cls-3" d="M304.84,183.17a.39.39,0,0,0-.39,0,155.25,155.25,0,0,0-15,5.6.39.39,0,0,0-.21.21.38.38,0,0,0,0,.15.4.4,0,0,0,0,.15.39.39,0,0,0,.09.13.4.4,0,0,0,.13.08l.15,0a.41.41,0,0,0,.15,0c4.85-2.07,9.86-3.95,14.88-5.6a.38.38,0,0,0,.14-.08.38.38,0,0,0,.1-.12.38.38,0,0,0,0-.15.41.41,0,0,0,0-.15.4.4,0,0,0-.08-.22Z"/><path class="cls-3" d="M383.17,178.18c5.21.87,10.42,2,15.52,3.36a.39.39,0,0,0,.48-.28.4.4,0,0,0,0-.18.4.4,0,0,0,0-.18H399c-5.1-1.35-10.37-2.49-15.6-3.36a.4.4,0,0,0-.15,0,.41.41,0,0,0-.14.07.38.38,0,0,0-.1.12.4.4,0,0,0,0,.15.39.39,0,0,0,.07.18.39.39,0,0,0,.15.13Z"/><path class="cls-3" d="M367.71,175.66a.36.36,0,0,0-.25,0c-5.27-.36-10.65-.5-15.94-.36a.39.39,0,0,0,0,.78c5.27,0,10.62,0,15.89.36a.37.37,0,0,0,.15,0,.39.39,0,0,0,.13-.07.39.39,0,0,0,.09-.12.38.38,0,0,0,0-.15.41.41,0,0,0,0-.22.42.42,0,0,0-.11-.2Z"/><path class="cls-3" d="M308.09,104.2c5.18-1,10.48-1.9,15.72-2.58a.4.4,0,0,0,.15-.05.39.39,0,0,0,.12-.1.38.38,0,0,0,.07-.14.4.4,0,0,0,0-.15.37.37,0,0,0,0-.22.39.39,0,0,0-.34,0c-5.24.67-10.56,1.57-15.77,2.6a.39.39,0,0,0-.31.45.39.39,0,0,0,.37.2Z"/><path class="cls-3" d="M219.81,140.41a.41.41,0,0,0,.13.09.39.39,0,0,0,.15,0,.38.38,0,0,0,.28-.12c4.37-2.8,8.94-5.77,13.5-8.4a.39.39,0,0,0,.18-.24.38.38,0,0,0,0-.29h0a.39.39,0,0,0-.48,0c-4.59,2.8-9.16,5.6-13.56,8.4a.39.39,0,0,0-.12.1.39.39,0,0,0-.09.29.38.38,0,0,0,0,.15Z"/><path class="cls-3" d="M262.48,118c4.9-2,9.92-3.92,14.93-5.6a.39.39,0,0,0,.25-.28.4.4,0,0,0,0-.19.39.39,0,0,0-.1-.17.41.41,0,0,0-.2,0,.42.42,0,0,0-.2,0c-5,1.71-10.06,3.58-15,5.6a.39.39,0,0,0-.22.5.39.39,0,0,0,.5.14Z"/><path class="cls-3" d="M448.65,118c4.85,2,9.72,4.23,14.48,6.55a.38.38,0,0,0,.15,0,.39.39,0,0,0,.15,0,.38.38,0,0,0,.13-.07.37.37,0,0,0,.1-.12.39.39,0,0,0,0-.45h0c-4.76-2.35-9.64-4.54-14.54-6.58a.42.42,0,0,0-.31,0,.41.41,0,0,0-.22.22.39.39,0,0,0,0,.22.39.39,0,0,0,.09.2Z"/><path class="cls-3" d="M403,104.2c5.18,1,10.39,2.24,15.49,3.61a.4.4,0,0,0,.3,0,.39.39,0,0,0,.18-.24.4.4,0,0,0,.05-.2.39.39,0,0,0-.05-.2h-.17c-5.1-1.37-10.34-2.58-15.55-3.61a.4.4,0,1,0-.14.78Z"/><path class="cls-3" d="M355.58,99.55c5.29,0,10.65.17,15.91.5a.39.39,0,0,0,.42-.46.39.39,0,0,0-.11-.21.36.36,0,0,0-.25,0c-5.3-.34-10.67-.5-16-.53a.39.39,0,1,0,0,.78Z"/><path class="cls-3" d="M490.67,140.43c4.4,2.94,8.74,6,12.94,9.27a.4.4,0,0,0,.66-.31.4.4,0,0,0-.13-.28h0c-4.2-3.22-8.54-6.36-13-9.3a.4.4,0,0,0-.14-.06.39.39,0,0,0-.41.16.39.39,0,0,0-.06.14.39.39,0,0,0,0,.15.39.39,0,0,0,.06.14.38.38,0,0,0,.11.11Z"/><path class="cls-3" d="M527.54,170.68c3.7,3.7,7.34,7.56,10.79,11.48a.4.4,0,1,0,.59-.53c-3.47-3.92-7.12-7.81-10.81-11.54A.41.41,0,0,0,528,170a.4.4,0,0,0-.3,0,.4.4,0,0,0-.13.09.39.39,0,0,0-.1.13.4.4,0,0,0,0,.32A.4.4,0,0,0,527.54,170.68Z"/></g></g></g></svg>