<svg width="617" height="537" viewBox="0 0 617 537" fill="none" xmlns="http://www.w3.org/2000/svg">
<path d="M262.188 9.634H255.168L253.656 13H252.27L258.03 0.400002H259.344L265.104 13H263.7L262.188 9.634ZM261.702 8.554L258.678 1.786L255.654 8.554H261.702Z" fill="#BDBDBD"/>
<path d="M273.243 8.104C274.527 8.404 275.169 9.178 275.169 10.426C275.169 11.254 274.863 11.89 274.251 12.334C273.639 12.778 272.727 13 271.515 13H267.213V3.532H271.389C272.469 3.532 273.315 3.742 273.927 4.162C274.539 4.582 274.845 5.182 274.845 5.962C274.845 6.478 274.701 6.922 274.413 7.294C274.137 7.654 273.747 7.924 273.243 8.104ZM268.455 7.744H271.299C272.031 7.744 272.589 7.606 272.973 7.33C273.369 7.054 273.567 6.652 273.567 6.124C273.567 5.596 273.369 5.2 272.973 4.936C272.589 4.672 272.031 4.54 271.299 4.54H268.455V7.744ZM271.461 11.992C272.277 11.992 272.889 11.86 273.297 11.596C273.705 11.332 273.909 10.918 273.909 10.354C273.909 9.79 273.723 9.376 273.351 9.112C272.979 8.836 272.391 8.698 271.587 8.698H268.455V11.992H271.461Z" fill="#BDBDBD"/>
<path d="M284.824 4.666H281.242V13H279.964V4.666H276.382V3.532H284.824V4.666Z" fill="#BDBDBD"/>
<path d="M290.138 13.09C289.226 13.09 288.404 12.886 287.672 12.478C286.94 12.058 286.364 11.482 285.944 10.75C285.524 10.018 285.314 9.19 285.314 8.266C285.314 7.342 285.524 6.514 285.944 5.782C286.364 5.05 286.94 4.48 287.672 4.072C288.404 3.664 289.226 3.46 290.138 3.46C291.05 3.46 291.872 3.664 292.604 4.072C293.336 4.48 293.906 5.05 294.314 5.782C294.734 6.514 294.944 7.342 294.944 8.266C294.944 9.19 294.734 10.018 294.314 10.75C293.906 11.482 293.336 12.058 292.604 12.478C291.872 12.886 291.05 13.09 290.138 13.09ZM290.138 11.956C290.81 11.956 291.41 11.806 291.938 11.506C292.478 11.194 292.898 10.756 293.198 10.192C293.498 9.628 293.648 8.986 293.648 8.266C293.648 7.546 293.498 6.904 293.198 6.34C292.898 5.776 292.478 5.344 291.938 5.044C291.41 4.732 290.81 4.576 290.138 4.576C289.466 4.576 288.86 4.732 288.32 5.044C287.792 5.344 287.372 5.776 287.06 6.34C286.76 6.904 286.61 7.546 286.61 8.266C286.61 8.986 286.76 9.628 287.06 10.192C287.372 10.756 287.792 11.194 288.32 11.506C288.86 11.806 289.466 11.956 290.138 11.956Z" fill="#BDBDBD"/>
<path d="M302.553 3.46C303.441 3.46 304.245 3.664 304.965 4.072C305.685 4.468 306.249 5.032 306.657 5.764C307.065 6.496 307.269 7.33 307.269 8.266C307.269 9.214 307.065 10.054 306.657 10.786C306.249 11.518 305.685 12.088 304.965 12.496C304.257 12.892 303.453 13.09 302.553 13.09C301.785 13.09 301.089 12.934 300.465 12.622C299.853 12.298 299.349 11.83 298.953 11.218V16.492H297.675V3.532H298.899V5.404C299.283 4.78 299.787 4.3 300.411 3.964C301.047 3.628 301.761 3.46 302.553 3.46ZM302.463 11.956C303.123 11.956 303.723 11.806 304.263 11.506C304.803 11.194 305.223 10.756 305.523 10.192C305.835 9.628 305.991 8.986 305.991 8.266C305.991 7.546 305.835 6.91 305.523 6.358C305.223 5.794 304.803 5.356 304.263 5.044C303.723 4.732 303.123 4.576 302.463 4.576C301.791 4.576 301.185 4.732 300.645 5.044C300.117 5.356 299.697 5.794 299.385 6.358C299.085 6.91 298.935 7.546 298.935 8.266C298.935 8.986 299.085 9.628 299.385 10.192C299.697 10.756 300.117 11.194 300.645 11.506C301.185 11.806 301.791 11.956 302.463 11.956Z" fill="#BDBDBD"/>
<path d="M310.015 3.532H311.293V11.056L317.611 3.532H318.745V13H317.467V5.476L311.167 13H310.015V3.532Z" fill="#BDBDBD"/>
<path d="M326.823 8.068C327.495 8.224 328.011 8.494 328.371 8.878C328.743 9.262 328.928 9.73 328.928 10.282C328.928 10.834 328.737 11.326 328.353 11.758C327.981 12.19 327.471 12.526 326.823 12.766C326.175 12.994 325.461 13.108 324.681 13.108C323.997 13.108 323.325 13.012 322.665 12.82C322.005 12.616 321.428 12.322 320.936 11.938L321.368 10.984C321.8 11.308 322.304 11.56 322.88 11.74C323.456 11.92 324.038 12.01 324.626 12.01C325.502 12.01 326.216 11.848 326.768 11.524C327.332 11.188 327.615 10.738 327.615 10.174C327.615 9.67 327.387 9.28 326.931 9.004C326.475 8.716 325.851 8.572 325.059 8.572H323.439V7.636H324.987C325.695 7.636 326.265 7.504 326.697 7.24C327.129 6.964 327.345 6.598 327.345 6.142C327.345 5.638 327.099 5.242 326.607 4.954C326.127 4.666 325.497 4.522 324.717 4.522C323.697 4.522 322.689 4.78 321.693 5.296L321.333 4.306C322.461 3.718 323.63 3.424 324.842 3.424C325.562 3.424 326.21 3.532 326.786 3.748C327.374 3.952 327.831 4.246 328.155 4.63C328.491 5.014 328.659 5.458 328.659 5.962C328.659 6.442 328.491 6.868 328.155 7.24C327.831 7.612 327.387 7.888 326.823 8.068Z" fill="#BDBDBD"/>
<path d="M335.088 3.46C336.324 3.46 337.272 3.772 337.932 4.396C338.592 5.008 338.922 5.92 338.922 7.132V13H337.698V11.524C337.41 12.016 336.984 12.4 336.42 12.676C335.868 12.952 335.208 13.09 334.44 13.09C333.384 13.09 332.544 12.838 331.92 12.334C331.296 11.83 330.984 11.164 330.984 10.336C330.984 9.532 331.272 8.884 331.848 8.392C332.436 7.9 333.366 7.654 334.638 7.654H337.644V7.078C337.644 6.262 337.416 5.644 336.96 5.224C336.504 4.792 335.838 4.576 334.962 4.576C334.362 4.576 333.786 4.678 333.234 4.882C332.682 5.074 332.208 5.344 331.812 5.692L331.236 4.738C331.716 4.33 332.292 4.018 332.964 3.802C333.636 3.574 334.344 3.46 335.088 3.46ZM334.638 12.082C335.358 12.082 335.976 11.92 336.492 11.596C337.008 11.26 337.392 10.78 337.644 10.156V8.608H334.674C333.054 8.608 332.244 9.172 332.244 10.3C332.244 10.852 332.454 11.29 332.874 11.614C333.294 11.926 333.882 12.082 334.638 12.082Z" fill="#BDBDBD"/>
<path d="M352.188 11.884V15.376H350.982V13H342.324V3.532H343.602V11.884H349.38V3.532H350.658V11.884H352.188Z" fill="#BDBDBD"/>
<path d="M354.629 3.532H355.907V11.056L362.225 3.532H363.359V13H362.081V5.476L355.781 13H354.629V3.532Z" fill="#BDBDBD"/>
<path d="M374.293 3.532V13H373.123V9.868H369.793L367.597 13H366.211L368.569 9.688C367.837 9.484 367.273 9.136 366.877 8.644C366.481 8.152 366.283 7.528 366.283 6.772C366.283 5.716 366.643 4.912 367.363 4.36C368.083 3.808 369.067 3.532 370.315 3.532H374.293ZM367.579 6.808C367.579 8.212 368.473 8.914 370.261 8.914H373.123V4.666H370.351C368.503 4.666 367.579 5.38 367.579 6.808Z" fill="#BDBDBD"/>
<path d="M491.632 106.108C490.384 106.108 489.256 105.832 488.248 105.28C487.252 104.728 486.466 103.966 485.89 102.994C485.326 102.01 485.044 100.912 485.044 99.7C485.044 98.488 485.326 97.396 485.89 96.424C486.466 95.44 487.258 94.672 488.266 94.12C489.274 93.568 490.402 93.292 491.65 93.292C492.586 93.292 493.45 93.448 494.242 93.76C495.034 94.072 495.706 94.528 496.258 95.128L495.412 95.974C494.428 94.978 493.186 94.48 491.686 94.48C490.69 94.48 489.784 94.708 488.968 95.164C488.152 95.62 487.51 96.244 487.042 97.036C486.586 97.828 486.358 98.716 486.358 99.7C486.358 100.684 486.586 101.572 487.042 102.364C487.51 103.156 488.152 103.78 488.968 104.236C489.784 104.692 490.69 104.92 491.686 104.92C493.198 104.92 494.44 104.416 495.412 103.408L496.258 104.254C495.706 104.854 495.028 105.316 494.224 105.64C493.432 105.952 492.568 106.108 491.632 106.108Z" fill="#BDBDBD"/>
<path d="M502.187 106.09C501.275 106.09 500.453 105.886 499.721 105.478C498.989 105.058 498.413 104.482 497.993 103.75C497.573 103.018 497.363 102.19 497.363 101.266C497.363 100.342 497.573 99.514 497.993 98.782C498.413 98.05 498.989 97.48 499.721 97.072C500.453 96.664 501.275 96.46 502.187 96.46C503.099 96.46 503.921 96.664 504.653 97.072C505.385 97.48 505.955 98.05 506.363 98.782C506.783 99.514 506.993 100.342 506.993 101.266C506.993 102.19 506.783 103.018 506.363 103.75C505.955 104.482 505.385 105.058 504.653 105.478C503.921 105.886 503.099 106.09 502.187 106.09ZM502.187 104.956C502.859 104.956 503.459 104.806 503.987 104.506C504.527 104.194 504.947 103.756 505.247 103.192C505.547 102.628 505.697 101.986 505.697 101.266C505.697 100.546 505.547 99.904 505.247 99.34C504.947 98.776 504.527 98.344 503.987 98.044C503.459 97.732 502.859 97.576 502.187 97.576C501.515 97.576 500.909 97.732 500.369 98.044C499.841 98.344 499.421 98.776 499.109 99.34C498.809 99.904 498.659 100.546 498.659 101.266C498.659 101.986 498.809 102.628 499.109 103.192C499.421 103.756 499.841 104.194 500.369 104.506C500.909 104.806 501.515 104.956 502.187 104.956Z" fill="#BDBDBD"/>
<path d="M513.63 106.09C512.718 106.09 511.896 105.886 511.164 105.478C510.432 105.058 509.856 104.482 509.436 103.75C509.016 103.018 508.806 102.19 508.806 101.266C508.806 100.342 509.016 99.514 509.436 98.782C509.856 98.05 510.432 97.48 511.164 97.072C511.896 96.664 512.718 96.46 513.63 96.46C514.542 96.46 515.364 96.664 516.096 97.072C516.828 97.48 517.398 98.05 517.806 98.782C518.226 99.514 518.436 100.342 518.436 101.266C518.436 102.19 518.226 103.018 517.806 103.75C517.398 104.482 516.828 105.058 516.096 105.478C515.364 105.886 514.542 106.09 513.63 106.09ZM513.63 104.956C514.302 104.956 514.902 104.806 515.43 104.506C515.97 104.194 516.39 103.756 516.69 103.192C516.99 102.628 517.14 101.986 517.14 101.266C517.14 100.546 516.99 99.904 516.69 99.34C516.39 98.776 515.97 98.344 515.43 98.044C514.902 97.732 514.302 97.576 513.63 97.576C512.958 97.576 512.352 97.732 511.812 98.044C511.284 98.344 510.864 98.776 510.552 99.34C510.252 99.904 510.102 100.546 510.102 101.266C510.102 101.986 510.252 102.628 510.552 103.192C510.864 103.756 511.284 104.194 511.812 104.506C512.352 104.806 512.958 104.956 513.63 104.956Z" fill="#BDBDBD"/>
<path d="M525.758 96.766C526.634 96.766 527.414 96.964 528.098 97.36C528.794 97.744 529.334 98.29 529.718 98.998C530.102 99.694 530.294 100.492 530.294 101.392C530.294 102.316 530.09 103.138 529.682 103.858C529.286 104.566 528.728 105.118 528.008 105.514C527.288 105.91 526.46 106.108 525.524 106.108C523.952 106.108 522.734 105.556 521.87 104.452C521.006 103.348 520.574 101.824 520.574 99.88C520.574 97.852 520.958 96.298 521.726 95.218C522.506 94.138 523.718 93.406 525.362 93.022L529.61 92.05L529.826 93.22L525.83 94.138C524.474 94.438 523.478 94.972 522.842 95.74C522.206 96.496 521.858 97.618 521.798 99.106C522.182 98.374 522.716 97.804 523.4 97.396C524.084 96.976 524.87 96.766 525.758 96.766ZM525.56 105.046C526.22 105.046 526.808 104.896 527.324 104.596C527.852 104.284 528.26 103.852 528.548 103.3C528.848 102.748 528.998 102.124 528.998 101.428C528.998 100.732 528.854 100.12 528.566 99.592C528.278 99.064 527.87 98.656 527.342 98.368C526.826 98.068 526.232 97.918 525.56 97.918C524.888 97.918 524.288 98.068 523.76 98.368C523.244 98.656 522.836 99.064 522.536 99.592C522.248 100.12 522.104 100.732 522.104 101.428C522.104 102.124 522.248 102.748 522.536 103.3C522.836 103.852 523.25 104.284 523.778 104.596C524.306 104.896 524.9 105.046 525.56 105.046Z" fill="#BDBDBD"/>
<path d="M546.101 96.532V106H533.033V96.532H534.311V104.884H538.955V96.532H540.233V104.884H544.823V96.532H546.101ZM547.559 104.884V108.07H546.353V106H544.751V104.884H547.559Z" fill="#BDBDBD"/>
<path d="M558.03 101.662H550.11C550.182 102.646 550.56 103.444 551.244 104.056C551.928 104.656 552.792 104.956 553.836 104.956C554.424 104.956 554.964 104.854 555.456 104.65C555.948 104.434 556.374 104.122 556.734 103.714L557.454 104.542C557.034 105.046 556.506 105.43 555.87 105.694C555.246 105.958 554.556 106.09 553.8 106.09C552.828 106.09 551.964 105.886 551.208 105.478C550.464 105.058 549.882 104.482 549.462 103.75C549.042 103.018 548.832 102.19 548.832 101.266C548.832 100.342 549.03 99.514 549.426 98.782C549.834 98.05 550.386 97.48 551.082 97.072C551.79 96.664 552.582 96.46 553.458 96.46C554.334 96.46 555.12 96.664 555.816 97.072C556.512 97.48 557.058 98.05 557.454 98.782C557.85 99.502 558.048 100.33 558.048 101.266L558.03 101.662ZM553.458 97.558C552.546 97.558 551.778 97.852 551.154 98.44C550.542 99.016 550.194 99.772 550.11 100.708H556.824C556.74 99.772 556.386 99.016 555.762 98.44C555.15 97.852 554.382 97.558 553.458 97.558Z" fill="#BDBDBD"/>
<path d="M560.877 96.532H562.155V100.726H568.113V96.532H569.391V106H568.113V101.824H562.155V106H560.877V96.532Z" fill="#BDBDBD"/>
<path d="M573.023 96.532H574.301V104.056L580.619 96.532H581.753V106H580.475V98.476L574.175 106H573.023V96.532Z" fill="#BDBDBD"/>
<path d="M592.688 96.532V106H591.518V102.868H588.188L585.992 106H584.606L586.964 102.688C586.232 102.484 585.668 102.136 585.272 101.644C584.876 101.152 584.678 100.528 584.678 99.772C584.678 98.716 585.038 97.912 585.758 97.36C586.478 96.808 587.462 96.532 588.71 96.532H592.688ZM585.974 99.808C585.974 101.212 586.868 101.914 588.656 101.914H591.518V97.666H588.746C586.898 97.666 585.974 98.38 585.974 99.808Z" fill="#BDBDBD"/>
<path d="M51.698 133.848V137.826H50.456V135H39.458L39.44 137.826H38.198L38.216 133.848H38.846C39.674 133.8 40.25 133.146 40.574 131.886C40.898 130.614 41.096 128.814 41.168 126.486L41.312 122.4H49.808V133.848H51.698ZM42.356 126.612C42.296 128.532 42.146 130.116 41.906 131.364C41.678 132.6 41.288 133.428 40.736 133.848H48.494V123.552H42.464L42.356 126.612Z" fill="#BDBDBD"/>
<path d="M57.7514 135.09C56.8394 135.09 56.0174 134.886 55.2854 134.478C54.5534 134.058 53.9774 133.482 53.5574 132.75C53.1374 132.018 52.9274 131.19 52.9274 130.266C52.9274 129.342 53.1374 128.514 53.5574 127.782C53.9774 127.05 54.5534 126.48 55.2854 126.072C56.0174 125.664 56.8394 125.46 57.7514 125.46C58.6634 125.46 59.4854 125.664 60.2174 126.072C60.9494 126.48 61.5194 127.05 61.9274 127.782C62.3474 128.514 62.5574 129.342 62.5574 130.266C62.5574 131.19 62.3474 132.018 61.9274 132.75C61.5194 133.482 60.9494 134.058 60.2174 134.478C59.4854 134.886 58.6634 135.09 57.7514 135.09ZM57.7514 133.956C58.4234 133.956 59.0234 133.806 59.5514 133.506C60.0914 133.194 60.5114 132.756 60.8114 132.192C61.1114 131.628 61.2614 130.986 61.2614 130.266C61.2614 129.546 61.1114 128.904 60.8114 128.34C60.5114 127.776 60.0914 127.344 59.5514 127.044C59.0234 126.732 58.4234 126.576 57.7514 126.576C57.0794 126.576 56.4734 126.732 55.9334 127.044C55.4054 127.344 54.9854 127.776 54.6734 128.34C54.3734 128.904 54.2234 129.546 54.2234 130.266C54.2234 130.986 54.3734 131.628 54.6734 132.192C54.9854 132.756 55.4054 133.194 55.9334 133.506C56.4734 133.806 57.0794 133.956 57.7514 133.956Z" fill="#BDBDBD"/>
<path d="M68.7267 130.788H66.5667V135H65.2887V125.532H66.5667V129.69H68.7447L72.0747 125.532H73.4607L69.7347 130.122L73.7307 135H72.2187L68.7267 130.788Z" fill="#BDBDBD"/>
<path d="M83.2488 125.532L78.5148 136.134C78.1308 137.022 77.6868 137.652 77.1828 138.024C76.6788 138.396 76.0728 138.582 75.3648 138.582C74.9088 138.582 74.4828 138.51 74.0868 138.366C73.6908 138.222 73.3488 138.006 73.0608 137.718L73.6548 136.764C74.1348 137.244 74.7108 137.484 75.3828 137.484C75.8148 137.484 76.1808 137.364 76.4808 137.124C76.7928 136.884 77.0808 136.476 77.3448 135.9L77.7588 134.982L73.5288 125.532H74.8608L78.4248 133.578L81.9888 125.532H83.2488Z" fill="#BDBDBD"/>
<path d="M95.8239 125.532V135H94.6539V127.512L90.8199 133.848H90.2439L86.4099 127.494V135H85.2399V125.532H86.5359L90.5499 132.354L94.6359 125.532H95.8239Z" fill="#BDBDBD"/>
<path d="M107.741 130.662H99.8206C99.8926 131.646 100.271 132.444 100.955 133.056C101.639 133.656 102.503 133.956 103.547 133.956C104.135 133.956 104.675 133.854 105.167 133.65C105.659 133.434 106.085 133.122 106.445 132.714L107.165 133.542C106.745 134.046 106.217 134.43 105.581 134.694C104.957 134.958 104.267 135.09 103.511 135.09C102.539 135.09 101.675 134.886 100.919 134.478C100.175 134.058 99.5926 133.482 99.1726 132.75C98.7526 132.018 98.5426 131.19 98.5426 130.266C98.5426 129.342 98.7406 128.514 99.1366 127.782C99.5446 127.05 100.097 126.48 100.793 126.072C101.501 125.664 102.293 125.46 103.169 125.46C104.045 125.46 104.831 125.664 105.527 126.072C106.223 126.48 106.769 127.05 107.165 127.782C107.561 128.502 107.759 129.33 107.759 130.266L107.741 130.662ZM103.169 126.558C102.257 126.558 101.489 126.852 100.865 127.44C100.253 128.016 99.9046 128.772 99.8206 129.708H106.535C106.451 128.772 106.097 128.016 105.473 127.44C104.861 126.852 104.093 126.558 103.169 126.558Z" fill="#BDBDBD"/>
<path d="M110.588 125.532H111.866V129.726H117.824V125.532H119.102V135H117.824V130.824H111.866V135H110.588V125.532Z" fill="#BDBDBD"/>
<path d="M129.394 126.666H125.812V135H124.534V126.666H120.952V125.532H129.394V126.666Z" fill="#BDBDBD"/>
<path d="M135.22 128.88C136.408 128.892 137.314 129.156 137.938 129.672C138.562 130.188 138.874 130.932 138.874 131.904C138.874 132.912 138.538 133.686 137.866 134.226C137.194 134.766 136.234 135.03 134.986 135.018L131.242 135V125.532H132.52V128.844L135.22 128.88ZM140.458 125.532H141.736V135H140.458V125.532ZM134.914 134.046C135.79 134.058 136.45 133.884 136.894 133.524C137.35 133.152 137.578 132.612 137.578 131.904C137.578 131.208 137.356 130.692 136.912 130.356C136.468 130.02 135.802 129.846 134.914 129.834L132.52 129.798V134.01L134.914 134.046Z" fill="#BDBDBD"/>
<path d="M402.606 529.682C402.606 531.35 402.012 532.664 400.824 533.624C399.648 534.572 397.998 535.076 395.874 535.136V536.432H394.632V535.136C392.508 535.064 390.852 534.554 389.664 533.606C388.488 532.658 387.9 531.35 387.9 529.682C387.9 528.014 388.488 526.706 389.664 525.758C390.852 524.81 392.508 524.3 394.632 524.228V522.968H395.874V524.228C397.986 524.3 399.636 524.816 400.824 525.776C402.012 526.724 402.606 528.026 402.606 529.682ZM395.874 534.074C397.614 534.002 398.958 533.588 399.906 532.832C400.854 532.076 401.328 531.026 401.328 529.682C401.328 528.338 400.848 527.288 399.888 526.532C398.94 525.776 397.602 525.368 395.874 525.308V534.074ZM389.178 529.682C389.178 531.026 389.652 532.076 390.6 532.832C391.56 533.576 392.904 533.99 394.632 534.074V525.308C392.88 525.38 391.53 525.794 390.582 526.55C389.646 527.294 389.178 528.338 389.178 529.682Z" fill="#BDBDBD"/>
<path d="M408.582 526.46C409.818 526.46 410.766 526.772 411.426 527.396C412.086 528.008 412.416 528.92 412.416 530.132V536H411.192V534.524C410.904 535.016 410.478 535.4 409.914 535.676C409.362 535.952 408.702 536.09 407.934 536.09C406.878 536.09 406.038 535.838 405.414 535.334C404.79 534.83 404.478 534.164 404.478 533.336C404.478 532.532 404.766 531.884 405.342 531.392C405.93 530.9 406.86 530.654 408.132 530.654H411.138V530.078C411.138 529.262 410.91 528.644 410.454 528.224C409.998 527.792 409.332 527.576 408.456 527.576C407.856 527.576 407.28 527.678 406.728 527.882C406.176 528.074 405.702 528.344 405.306 528.692L404.73 527.738C405.21 527.33 405.786 527.018 406.458 526.802C407.13 526.574 407.838 526.46 408.582 526.46ZM408.132 535.082C408.852 535.082 409.47 534.92 409.986 534.596C410.502 534.26 410.886 533.78 411.138 533.156V531.608H408.168C406.548 531.608 405.738 532.172 405.738 533.3C405.738 533.852 405.948 534.29 406.368 534.614C406.788 534.926 407.376 535.082 408.132 535.082Z" fill="#BDBDBD"/>
<path d="M415.818 526.532H417.096V534.056L423.414 526.532H424.548V536H423.27V528.476L416.97 536H415.818V526.532ZM420.12 525.164C419.304 525.164 418.656 524.96 418.176 524.552C417.696 524.144 417.45 523.568 417.438 522.824H418.356C418.368 523.292 418.536 523.67 418.86 523.958C419.184 524.234 419.604 524.372 420.12 524.372C420.636 524.372 421.056 524.234 421.38 523.958C421.716 523.67 421.89 523.292 421.902 522.824H422.82C422.808 523.568 422.556 524.144 422.064 524.552C421.584 524.96 420.936 525.164 420.12 525.164Z" fill="#BDBDBD"/>
<path d="M435.951 526.532V536H434.673V527.666H430.137L430.011 530.006C429.915 531.974 429.687 533.486 429.327 534.542C428.967 535.598 428.325 536.126 427.401 536.126C427.149 536.126 426.843 536.078 426.483 535.982L426.573 534.884C426.789 534.932 426.939 534.956 427.023 534.956C427.515 534.956 427.887 534.728 428.139 534.272C428.391 533.816 428.559 533.252 428.643 532.58C428.727 531.908 428.799 531.02 428.859 529.916L429.021 526.532H435.951Z" fill="#BDBDBD"/>
<path d="M443.562 529.88C444.75 529.892 445.656 530.156 446.28 530.672C446.904 531.188 447.216 531.932 447.216 532.904C447.216 533.912 446.88 534.686 446.208 535.226C445.536 535.766 444.576 536.03 443.328 536.018L439.584 536V526.532H440.862V529.844L443.562 529.88ZM448.8 526.532H450.078V536H448.8V526.532ZM443.256 535.046C444.132 535.058 444.792 534.884 445.236 534.524C445.692 534.152 445.92 533.612 445.92 532.904C445.92 532.208 445.698 531.692 445.254 531.356C444.81 531.02 444.144 530.846 443.256 530.834L440.862 530.798V535.01L443.256 535.046Z" fill="#BDBDBD"/>
<path d="M343.382 188.292C344.558 188.292 345.62 188.568 346.568 189.12C347.528 189.672 348.278 190.44 348.818 191.424C349.37 192.396 349.646 193.488 349.646 194.7C349.646 195.912 349.37 197.01 348.818 197.994C348.278 198.966 347.528 199.728 346.568 200.28C345.62 200.832 344.558 201.108 343.382 201.108C342.398 201.108 341.498 200.952 340.682 200.64C339.866 200.328 339.182 199.866 338.63 199.254L339.458 198.408C340.454 199.416 341.744 199.92 343.328 199.92C344.216 199.92 345.026 199.716 345.758 199.308C346.49 198.888 347.078 198.318 347.522 197.598C347.978 196.866 348.236 196.044 348.296 195.132H341.798V194.034H348.278C348.182 193.158 347.906 192.378 347.45 191.694C347.006 190.998 346.424 190.458 345.704 190.074C344.984 189.678 344.192 189.48 343.328 189.48C341.744 189.48 340.454 189.984 339.458 190.992L338.63 190.146C339.182 189.534 339.866 189.072 340.682 188.76C341.498 188.448 342.398 188.292 343.382 188.292Z" fill="#BDBDBD"/>
<path d="M365.073 199.848V203.952H363.831V201H352.833V188.4H354.147V199.848H361.761V188.4H363.075V199.848H365.073Z" fill="#BDBDBD"/>
<path d="M378.324 188.4V201H377.01V189.552H369.036V201H367.722V188.4H378.324Z" fill="#BDBDBD"/>
<path d="M516.368 370.552H511.94V382H510.626V370.552H506.198V369.4H516.368V370.552Z" fill="#BDBDBD"/>
<path d="M523.032 372.46C523.92 372.46 524.724 372.664 525.444 373.072C526.164 373.468 526.728 374.032 527.136 374.764C527.544 375.496 527.748 376.33 527.748 377.266C527.748 378.214 527.544 379.054 527.136 379.786C526.728 380.518 526.164 381.088 525.444 381.496C524.736 381.892 523.932 382.09 523.032 382.09C522.264 382.09 521.568 381.934 520.944 381.622C520.332 381.298 519.828 380.83 519.432 380.218V385.492H518.154V372.532H519.378V374.404C519.762 373.78 520.266 373.3 520.89 372.964C521.526 372.628 522.24 372.46 523.032 372.46ZM522.942 380.956C523.602 380.956 524.202 380.806 524.742 380.506C525.282 380.194 525.702 379.756 526.002 379.192C526.314 378.628 526.47 377.986 526.47 377.266C526.47 376.546 526.314 375.91 526.002 375.358C525.702 374.794 525.282 374.356 524.742 374.044C524.202 373.732 523.602 373.576 522.942 373.576C522.27 373.576 521.664 373.732 521.124 374.044C520.596 374.356 520.176 374.794 519.864 375.358C519.564 375.91 519.414 376.546 519.414 377.266C519.414 377.986 519.564 378.628 519.864 379.192C520.176 379.756 520.596 380.194 521.124 380.506C521.664 380.806 522.27 380.956 522.942 380.956Z" fill="#BDBDBD"/>
<path d="M533.699 372.46C534.935 372.46 535.883 372.772 536.543 373.396C537.203 374.008 537.533 374.92 537.533 376.132V382H536.309V380.524C536.021 381.016 535.595 381.4 535.031 381.676C534.479 381.952 533.819 382.09 533.051 382.09C531.995 382.09 531.155 381.838 530.531 381.334C529.907 380.83 529.595 380.164 529.595 379.336C529.595 378.532 529.883 377.884 530.459 377.392C531.047 376.9 531.977 376.654 533.249 376.654H536.255V376.078C536.255 375.262 536.027 374.644 535.571 374.224C535.115 373.792 534.449 373.576 533.573 373.576C532.973 373.576 532.397 373.678 531.845 373.882C531.293 374.074 530.819 374.344 530.423 374.692L529.847 373.738C530.327 373.33 530.903 373.018 531.575 372.802C532.247 372.574 532.955 372.46 533.699 372.46ZM533.249 381.082C533.969 381.082 534.587 380.92 535.103 380.596C535.619 380.26 536.003 379.78 536.255 379.156V377.608H533.285C531.665 377.608 530.855 378.172 530.855 379.3C530.855 379.852 531.065 380.29 531.485 380.614C531.905 380.926 532.493 381.082 533.249 381.082Z" fill="#BDBDBD"/>
<path d="M540.935 372.532H542.213V376.726H548.171V372.532H549.449V382H548.171V377.824H542.213V382H540.935V372.532Z" fill="#BDBDBD"/>
<path d="M557.496 377.068C558.168 377.224 558.684 377.494 559.044 377.878C559.416 378.262 559.602 378.73 559.602 379.282C559.602 379.834 559.41 380.326 559.026 380.758C558.654 381.19 558.144 381.526 557.496 381.766C556.848 381.994 556.134 382.108 555.354 382.108C554.67 382.108 553.998 382.012 553.338 381.82C552.678 381.616 552.102 381.322 551.61 380.938L552.042 379.984C552.474 380.308 552.978 380.56 553.554 380.74C554.13 380.92 554.712 381.01 555.3 381.01C556.176 381.01 556.89 380.848 557.442 380.524C558.006 380.188 558.288 379.738 558.288 379.174C558.288 378.67 558.06 378.28 557.604 378.004C557.148 377.716 556.524 377.572 555.732 377.572H554.112V376.636H555.66C556.368 376.636 556.938 376.504 557.37 376.24C557.802 375.964 558.018 375.598 558.018 375.142C558.018 374.638 557.772 374.242 557.28 373.954C556.8 373.666 556.17 373.522 555.39 373.522C554.37 373.522 553.362 373.78 552.366 374.296L552.006 373.306C553.134 372.718 554.304 372.424 555.516 372.424C556.236 372.424 556.884 372.532 557.46 372.748C558.048 372.952 558.504 373.246 558.828 373.63C559.164 374.014 559.332 374.458 559.332 374.962C559.332 375.442 559.164 375.868 558.828 376.24C558.504 376.612 558.06 376.888 557.496 377.068Z" fill="#BDBDBD"/>
<path d="M565.762 372.46C566.998 372.46 567.946 372.772 568.606 373.396C569.266 374.008 569.596 374.92 569.596 376.132V382H568.372V380.524C568.084 381.016 567.658 381.4 567.094 381.676C566.542 381.952 565.882 382.09 565.114 382.09C564.058 382.09 563.218 381.838 562.594 381.334C561.97 380.83 561.658 380.164 561.658 379.336C561.658 378.532 561.946 377.884 562.522 377.392C563.11 376.9 564.04 376.654 565.312 376.654H568.318V376.078C568.318 375.262 568.09 374.644 567.634 374.224C567.178 373.792 566.512 373.576 565.636 373.576C565.036 373.576 564.46 373.678 563.908 373.882C563.356 374.074 562.882 374.344 562.486 374.692L561.91 373.738C562.39 373.33 562.966 373.018 563.638 372.802C564.31 372.574 565.018 372.46 565.762 372.46ZM565.312 381.082C566.032 381.082 566.65 380.92 567.166 380.596C567.682 380.26 568.066 379.78 568.318 379.156V377.608H565.348C563.728 377.608 562.918 378.172 562.918 379.3C562.918 379.852 563.128 380.29 563.548 380.614C563.968 380.926 564.556 381.082 565.312 381.082Z" fill="#BDBDBD"/>
<path d="M576.436 377.788H574.276V382H572.998V372.532H574.276V376.69H576.454L579.784 372.532H581.17L577.444 377.122L581.44 382H579.928L576.436 377.788Z" fill="#BDBDBD"/>
<path d="M593.321 380.884V384.376H592.115V382H583.457V372.532H584.735V380.884H590.513V372.532H591.791V380.884H593.321Z" fill="#BDBDBD"/>
<path d="M595.761 372.532H597.039V380.056L603.357 372.532H604.491V382H603.213V374.476L596.913 382H595.761V372.532Z" fill="#BDBDBD"/>
<path d="M608.154 372.532H609.432V380.056L615.75 372.532H616.884V382H615.606V374.476L609.306 382H608.154V372.532Z" fill="#BDBDBD"/>
<path d="M74.99 475.502C75.818 475.682 76.454 476.042 76.898 476.582C77.354 477.11 77.582 477.794 77.582 478.634C77.582 479.714 77.18 480.548 76.376 481.136C75.584 481.712 74.408 482 72.848 482H67.052V469.4H72.488C73.892 469.4 74.978 469.682 75.746 470.246C76.526 470.81 76.916 471.608 76.916 472.64C76.916 473.336 76.742 473.93 76.394 474.422C76.058 474.902 75.59 475.262 74.99 475.502ZM68.384 470.498V475.07H72.398C73.418 475.07 74.204 474.878 74.756 474.494C75.308 474.098 75.584 473.528 75.584 472.784C75.584 472.04 75.308 471.476 74.756 471.092C74.204 470.696 73.418 470.498 72.398 470.498H68.384ZM72.83 480.902C73.958 480.902 74.81 480.71 75.386 480.326C75.962 479.942 76.25 479.342 76.25 478.526C76.25 476.954 75.11 476.168 72.83 476.168H68.384V480.902H72.83Z" fill="#BDBDBD"/>
<path d="M85.3383 469.4C86.9463 469.4 88.2063 469.784 89.1183 470.552C90.0303 471.32 90.4863 472.376 90.4863 473.72C90.4863 475.064 90.0303 476.12 89.1183 476.888C88.2063 477.644 86.9463 478.022 85.3383 478.022H81.9543V482H80.6223V469.4H85.3383ZM85.3023 476.852C86.5503 476.852 87.5043 476.582 88.1643 476.042C88.8243 475.49 89.1543 474.716 89.1543 473.72C89.1543 472.7 88.8243 471.92 88.1643 471.38C87.5043 470.828 86.5503 470.552 85.3023 470.552H81.9543V476.852H85.3023Z" fill="#BDBDBD"/>
<path d="M106.452 469.4V482H105.174V471.92L100.224 480.398H99.5945L94.6445 471.974V482H93.3665V469.4H94.4645L99.9365 478.742L105.354 469.4H106.452Z" fill="#BDBDBD"/>
<path d="M119.625 472.766C120.501 472.766 121.281 472.964 121.965 473.36C122.661 473.744 123.201 474.29 123.585 474.998C123.969 475.694 124.161 476.492 124.161 477.392C124.161 478.316 123.957 479.138 123.549 479.858C123.153 480.566 122.595 481.118 121.875 481.514C121.155 481.91 120.327 482.108 119.391 482.108C117.819 482.108 116.601 481.556 115.737 480.452C114.873 479.348 114.441 477.824 114.441 475.88C114.441 473.852 114.825 472.298 115.593 471.218C116.373 470.138 117.585 469.406 119.229 469.022L123.477 468.05L123.693 469.22L119.697 470.138C118.341 470.438 117.345 470.972 116.709 471.74C116.073 472.496 115.725 473.618 115.665 475.106C116.049 474.374 116.583 473.804 117.267 473.396C117.951 472.976 118.737 472.766 119.625 472.766ZM119.427 481.046C120.087 481.046 120.675 480.896 121.191 480.596C121.719 480.284 122.127 479.852 122.415 479.3C122.715 478.748 122.865 478.124 122.865 477.428C122.865 476.732 122.721 476.12 122.433 475.592C122.145 475.064 121.737 474.656 121.209 474.368C120.693 474.068 120.099 473.918 119.427 473.918C118.755 473.918 118.155 474.068 117.627 474.368C117.111 474.656 116.703 475.064 116.403 475.592C116.115 476.12 115.971 476.732 115.971 477.428C115.971 478.124 116.115 478.748 116.403 479.3C116.703 479.852 117.117 480.284 117.645 480.596C118.173 480.896 118.767 481.046 119.427 481.046Z" fill="#BDBDBD"/>
<path d="M126.9 472.532H128.178V480.056L134.496 472.532H135.63V482H134.352V474.476L128.052 482H126.9V472.532Z" fill="#BDBDBD"/>
<path d="M143.707 477.068C144.379 477.224 144.895 477.494 145.255 477.878C145.627 478.262 145.813 478.73 145.813 479.282C145.813 479.834 145.621 480.326 145.237 480.758C144.865 481.19 144.355 481.526 143.707 481.766C143.059 481.994 142.345 482.108 141.565 482.108C140.881 482.108 140.209 482.012 139.549 481.82C138.889 481.616 138.313 481.322 137.821 480.938L138.253 479.984C138.685 480.308 139.189 480.56 139.765 480.74C140.341 480.92 140.923 481.01 141.511 481.01C142.387 481.01 143.101 480.848 143.653 480.524C144.217 480.188 144.499 479.738 144.499 479.174C144.499 478.67 144.271 478.28 143.815 478.004C143.359 477.716 142.735 477.572 141.943 477.572H140.323V476.636H141.871C142.579 476.636 143.149 476.504 143.581 476.24C144.013 475.964 144.229 475.598 144.229 475.142C144.229 474.638 143.983 474.242 143.491 473.954C143.011 473.666 142.381 473.522 141.601 473.522C140.581 473.522 139.573 473.78 138.577 474.296L138.217 473.306C139.345 472.718 140.515 472.424 141.727 472.424C142.447 472.424 143.095 472.532 143.671 472.748C144.259 472.952 144.715 473.246 145.039 473.63C145.375 474.014 145.543 474.458 145.543 474.962C145.543 475.442 145.375 475.868 145.039 476.24C144.715 476.612 144.271 476.888 143.707 477.068Z" fill="#BDBDBD"/>
<path d="M148.715 472.532H149.993V476.726H155.951V472.532H157.229V482H155.951V477.824H149.993V482H148.715V472.532Z" fill="#BDBDBD"/>
<path d="M169.141 477.662H161.221C161.293 478.646 161.671 479.444 162.355 480.056C163.039 480.656 163.903 480.956 164.947 480.956C165.535 480.956 166.075 480.854 166.567 480.65C167.059 480.434 167.485 480.122 167.845 479.714L168.565 480.542C168.145 481.046 167.617 481.43 166.981 481.694C166.357 481.958 165.667 482.09 164.911 482.09C163.939 482.09 163.075 481.886 162.319 481.478C161.575 481.058 160.993 480.482 160.573 479.75C160.153 479.018 159.943 478.19 159.943 477.266C159.943 476.342 160.141 475.514 160.537 474.782C160.945 474.05 161.497 473.48 162.193 473.072C162.901 472.664 163.693 472.46 164.569 472.46C165.445 472.46 166.231 472.664 166.927 473.072C167.623 473.48 168.169 474.05 168.565 474.782C168.961 475.502 169.159 476.33 169.159 477.266L169.141 477.662ZM164.569 473.558C163.657 473.558 162.889 473.852 162.265 474.44C161.653 475.016 161.305 475.772 161.221 476.708H167.935C167.851 475.772 167.497 475.016 166.873 474.44C166.261 473.852 165.493 473.558 164.569 473.558Z" fill="#BDBDBD"/>
<path d="M175.948 482.09C175.012 482.09 174.172 481.886 173.428 481.478C172.696 481.07 172.12 480.5 171.7 479.768C171.28 479.024 171.07 478.19 171.07 477.266C171.07 476.342 171.28 475.514 171.7 474.782C172.12 474.05 172.696 473.48 173.428 473.072C174.172 472.664 175.012 472.46 175.948 472.46C176.764 472.46 177.49 472.622 178.126 472.946C178.774 473.258 179.284 473.72 179.656 474.332L178.702 474.98C178.39 474.512 177.994 474.164 177.514 473.936C177.034 473.696 176.512 473.576 175.948 473.576C175.264 473.576 174.646 473.732 174.094 474.044C173.554 474.344 173.128 474.776 172.816 475.34C172.516 475.904 172.366 476.546 172.366 477.266C172.366 477.998 172.516 478.646 172.816 479.21C173.128 479.762 173.554 480.194 174.094 480.506C174.646 480.806 175.264 480.956 175.948 480.956C176.512 480.956 177.034 480.842 177.514 480.614C177.994 480.386 178.39 480.038 178.702 479.57L179.656 480.218C179.284 480.83 178.774 481.298 178.126 481.622C177.478 481.934 176.752 482.09 175.948 482.09Z" fill="#BDBDBD"/>
<path d="M181.269 476.564H185.985V477.68H181.269V476.564Z" fill="#BDBDBD"/>
<path d="M197.377 472.532V482H196.099V473.666H190.159V482H188.881V472.532H197.377Z" fill="#BDBDBD"/>
<path d="M205.887 472.46C206.775 472.46 207.579 472.664 208.299 473.072C209.019 473.468 209.583 474.032 209.991 474.764C210.399 475.496 210.603 476.33 210.603 477.266C210.603 478.214 210.399 479.054 209.991 479.786C209.583 480.518 209.019 481.088 208.299 481.496C207.591 481.892 206.787 482.09 205.887 482.09C205.119 482.09 204.423 481.934 203.799 481.622C203.187 481.298 202.683 480.83 202.287 480.218V485.492H201.009V472.532H202.233V474.404C202.617 473.78 203.121 473.3 203.745 472.964C204.381 472.628 205.095 472.46 205.887 472.46ZM205.797 480.956C206.457 480.956 207.057 480.806 207.597 480.506C208.137 480.194 208.557 479.756 208.857 479.192C209.169 478.628 209.325 477.986 209.325 477.266C209.325 476.546 209.169 475.91 208.857 475.358C208.557 474.794 208.137 474.356 207.597 474.044C207.057 473.732 206.457 473.576 205.797 473.576C205.125 473.576 204.519 473.732 203.979 474.044C203.451 474.356 203.031 474.794 202.719 475.358C202.419 475.91 202.269 476.546 202.269 477.266C202.269 477.986 202.419 478.628 202.719 479.192C203.031 479.756 203.451 480.194 203.979 480.506C204.519 480.806 205.125 480.956 205.797 480.956Z" fill="#BDBDBD"/>
<path d="M217.255 482.09C216.343 482.09 215.521 481.886 214.789 481.478C214.057 481.058 213.481 480.482 213.061 479.75C212.641 479.018 212.431 478.19 212.431 477.266C212.431 476.342 212.641 475.514 213.061 474.782C213.481 474.05 214.057 473.48 214.789 473.072C215.521 472.664 216.343 472.46 217.255 472.46C218.167 472.46 218.989 472.664 219.721 473.072C220.453 473.48 221.023 474.05 221.431 474.782C221.851 475.514 222.061 476.342 222.061 477.266C222.061 478.19 221.851 479.018 221.431 479.75C221.023 480.482 220.453 481.058 219.721 481.478C218.989 481.886 218.167 482.09 217.255 482.09ZM217.255 480.956C217.927 480.956 218.527 480.806 219.055 480.506C219.595 480.194 220.015 479.756 220.315 479.192C220.615 478.628 220.765 477.986 220.765 477.266C220.765 476.546 220.615 475.904 220.315 475.34C220.015 474.776 219.595 474.344 219.055 474.044C218.527 473.732 217.927 473.576 217.255 473.576C216.583 473.576 215.977 473.732 215.437 474.044C214.909 474.344 214.489 474.776 214.177 475.34C213.877 475.904 213.727 476.546 213.727 477.266C213.727 477.986 213.877 478.628 214.177 479.192C214.489 479.756 214.909 480.194 215.437 480.506C215.977 480.806 216.583 480.956 217.255 480.956Z" fill="#BDBDBD"/>
<path d="M234.657 480.884V484.376H233.451V482H224.793V472.532H226.071V480.884H231.849V472.532H233.127V480.884H234.657Z" fill="#BDBDBD"/>
<path d="M245.377 477.662H237.457C237.529 478.646 237.907 479.444 238.591 480.056C239.275 480.656 240.139 480.956 241.183 480.956C241.771 480.956 242.311 480.854 242.803 480.65C243.295 480.434 243.721 480.122 244.081 479.714L244.801 480.542C244.381 481.046 243.853 481.43 243.217 481.694C242.593 481.958 241.903 482.09 241.147 482.09C240.175 482.09 239.311 481.886 238.555 481.478C237.811 481.058 237.229 480.482 236.809 479.75C236.389 479.018 236.179 478.19 236.179 477.266C236.179 476.342 236.377 475.514 236.773 474.782C237.181 474.05 237.733 473.48 238.429 473.072C239.137 472.664 239.929 472.46 240.805 472.46C241.681 472.46 242.467 472.664 243.163 473.072C243.859 473.48 244.405 474.05 244.801 474.782C245.197 475.502 245.395 476.33 245.395 477.266L245.377 477.662ZM240.805 473.558C239.893 473.558 239.125 473.852 238.501 474.44C237.889 475.016 237.541 475.772 237.457 476.708H244.171C244.087 475.772 243.733 475.016 243.109 474.44C242.497 473.852 241.729 473.558 240.805 473.558Z" fill="#BDBDBD"/>
<path d="M252.184 482.09C251.248 482.09 250.408 481.886 249.664 481.478C248.932 481.07 248.356 480.5 247.936 479.768C247.516 479.024 247.306 478.19 247.306 477.266C247.306 476.342 247.516 475.514 247.936 474.782C248.356 474.05 248.932 473.48 249.664 473.072C250.408 472.664 251.248 472.46 252.184 472.46C253 472.46 253.726 472.622 254.362 472.946C255.01 473.258 255.52 473.72 255.892 474.332L254.938 474.98C254.626 474.512 254.23 474.164 253.75 473.936C253.27 473.696 252.748 473.576 252.184 473.576C251.5 473.576 250.882 473.732 250.33 474.044C249.79 474.344 249.364 474.776 249.052 475.34C248.752 475.904 248.602 476.546 248.602 477.266C248.602 477.998 248.752 478.646 249.052 479.21C249.364 479.762 249.79 480.194 250.33 480.506C250.882 480.806 251.5 480.956 252.184 480.956C252.748 480.956 253.27 480.842 253.75 480.614C254.23 480.386 254.626 480.038 254.938 479.57L255.892 480.218C255.52 480.83 255.01 481.298 254.362 481.622C253.714 481.934 252.988 482.09 252.184 482.09Z" fill="#BDBDBD"/>
<path d="M262.169 482.09C261.233 482.09 260.393 481.886 259.649 481.478C258.917 481.07 258.341 480.5 257.921 479.768C257.501 479.024 257.291 478.19 257.291 477.266C257.291 476.342 257.501 475.514 257.921 474.782C258.341 474.05 258.917 473.48 259.649 473.072C260.393 472.664 261.233 472.46 262.169 472.46C262.985 472.46 263.711 472.622 264.347 472.946C264.995 473.258 265.505 473.72 265.877 474.332L264.923 474.98C264.611 474.512 264.215 474.164 263.735 473.936C263.255 473.696 262.733 473.576 262.169 473.576C261.485 473.576 260.867 473.732 260.315 474.044C259.775 474.344 259.349 474.776 259.037 475.34C258.737 475.904 258.587 476.546 258.587 477.266C258.587 477.998 258.737 478.646 259.037 479.21C259.349 479.762 259.775 480.194 260.315 480.506C260.867 480.806 261.485 480.956 262.169 480.956C262.733 480.956 263.255 480.842 263.735 480.614C264.215 480.386 264.611 480.038 264.923 479.57L265.877 480.218C265.505 480.83 264.995 481.298 264.347 481.622C263.699 481.934 262.973 482.09 262.169 482.09Z" fill="#BDBDBD"/>
<path d="M272.329 475.88C273.517 475.892 274.423 476.156 275.047 476.672C275.671 477.188 275.983 477.932 275.983 478.904C275.983 479.912 275.647 480.686 274.975 481.226C274.303 481.766 273.343 482.03 272.095 482.018L268.351 482V472.532H269.629V475.844L272.329 475.88ZM277.567 472.532H278.845V482H277.567V472.532ZM272.023 481.046C272.899 481.058 273.559 480.884 274.003 480.524C274.459 480.152 274.687 479.612 274.687 478.904C274.687 478.208 274.465 477.692 274.021 477.356C273.577 477.02 272.911 476.846 272.023 476.834L269.629 476.798V481.01L272.023 481.046Z" fill="#BDBDBD"/>
<path d="M0.124023 291.4H1.43802V301.84L9.50202 291.4H10.708V304H9.39402V293.578L1.33002 304H0.124023V291.4Z" fill="#BDBDBD"/>
<path d="M14.654 294.532H15.932V298.726H21.89V294.532H23.168V304H21.89V299.824H15.932V304H14.654V294.532Z" fill="#BDBDBD"/>
<path d="M33.4604 295.666H29.8784V304H28.6004V295.666H25.0184V294.532H33.4604V295.666Z" fill="#BDBDBD"/>
<path d="M43.1488 299.662H35.2288C35.3008 300.646 35.6788 301.444 36.3628 302.056C37.0468 302.656 37.9108 302.956 38.9548 302.956C39.5428 302.956 40.0828 302.854 40.5748 302.65C41.0668 302.434 41.4928 302.122 41.8528 301.714L42.5728 302.542C42.1528 303.046 41.6248 303.43 40.9888 303.694C40.3648 303.958 39.6748 304.09 38.9188 304.09C37.9468 304.09 37.0828 303.886 36.3268 303.478C35.5828 303.058 35.0008 302.482 34.5808 301.75C34.1608 301.018 33.9508 300.19 33.9508 299.266C33.9508 298.342 34.1488 297.514 34.5448 296.782C34.9528 296.05 35.5048 295.48 36.2008 295.072C36.9088 294.664 37.7008 294.46 38.5768 294.46C39.4528 294.46 40.2388 294.664 40.9348 295.072C41.6308 295.48 42.1768 296.05 42.5728 296.782C42.9688 297.502 43.1668 298.33 43.1668 299.266L43.1488 299.662ZM38.5768 295.558C37.6648 295.558 36.8968 295.852 36.2728 296.44C35.6608 297.016 35.3128 297.772 35.2288 298.708H41.9428C41.8588 297.772 41.5048 297.016 40.8808 296.44C40.2688 295.852 39.5008 295.558 38.5768 295.558Z" fill="#BDBDBD"/>
<path d="M50.8738 294.46C51.7618 294.46 52.5658 294.664 53.2858 295.072C54.0058 295.468 54.5698 296.032 54.9778 296.764C55.3858 297.496 55.5898 298.33 55.5898 299.266C55.5898 300.214 55.3858 301.054 54.9778 301.786C54.5698 302.518 54.0058 303.088 53.2858 303.496C52.5778 303.892 51.7738 304.09 50.8738 304.09C50.1058 304.09 49.4098 303.934 48.7858 303.622C48.1738 303.298 47.6698 302.83 47.2738 302.218V307.492H45.9958V294.532H47.2198V296.404C47.6038 295.78 48.1078 295.3 48.7318 294.964C49.3678 294.628 50.0818 294.46 50.8738 294.46ZM50.7838 302.956C51.4438 302.956 52.0438 302.806 52.5838 302.506C53.1238 302.194 53.5438 301.756 53.8438 301.192C54.1558 300.628 54.3118 299.986 54.3118 299.266C54.3118 298.546 54.1558 297.91 53.8438 297.358C53.5438 296.794 53.1238 296.356 52.5838 296.044C52.0438 295.732 51.4438 295.576 50.7838 295.576C50.1118 295.576 49.5058 295.732 48.9658 296.044C48.4378 296.356 48.0178 296.794 47.7058 297.358C47.4058 297.91 47.2558 298.546 47.2558 299.266C47.2558 299.986 47.4058 300.628 47.7058 301.192C48.0178 301.756 48.4378 302.194 48.9658 302.506C49.5058 302.806 50.1118 302.956 50.7838 302.956Z" fill="#BDBDBD"/>
<path d="M69.7656 299.248C69.7656 300.724 69.2796 301.882 68.3076 302.722C67.3356 303.562 65.9616 304.018 64.1856 304.09V307.492H62.9436V304.108C61.1796 304.036 59.8116 303.58 58.8396 302.74C57.8796 301.888 57.3996 300.724 57.3996 299.248C57.3996 297.784 57.8796 296.638 58.8396 295.81C59.8116 294.982 61.1796 294.532 62.9436 294.46V290.644H64.1856V294.46C65.9616 294.544 67.3356 295 68.3076 295.828C69.2796 296.656 69.7656 297.796 69.7656 299.248ZM58.6596 299.248C58.6596 300.376 59.0196 301.258 59.7396 301.894C60.4716 302.53 61.5396 302.89 62.9436 302.974V295.594C61.5516 295.666 60.4896 296.02 59.7576 296.656C59.0256 297.28 58.6596 298.144 58.6596 299.248ZM64.1856 302.974C65.5896 302.902 66.6576 302.548 67.3896 301.912C68.1336 301.276 68.5056 300.388 68.5056 299.248C68.5056 298.132 68.1336 297.262 67.3896 296.638C66.6576 296.014 65.5896 295.666 64.1856 295.594V302.974Z" fill="#BDBDBD"/>
<path d="M80.7484 299.662H72.8284C72.9004 300.646 73.2784 301.444 73.9624 302.056C74.6464 302.656 75.5104 302.956 76.5544 302.956C77.1424 302.956 77.6824 302.854 78.1744 302.65C78.6664 302.434 79.0924 302.122 79.4524 301.714L80.1724 302.542C79.7524 303.046 79.2244 303.43 78.5884 303.694C77.9644 303.958 77.2744 304.09 76.5184 304.09C75.5464 304.09 74.6824 303.886 73.9264 303.478C73.1824 303.058 72.6004 302.482 72.1804 301.75C71.7604 301.018 71.5504 300.19 71.5504 299.266C71.5504 298.342 71.7484 297.514 72.1444 296.782C72.5524 296.05 73.1044 295.48 73.8004 295.072C74.5084 294.664 75.3004 294.46 76.1764 294.46C77.0524 294.46 77.8384 294.664 78.5344 295.072C79.2304 295.48 79.7764 296.05 80.1724 296.782C80.5684 297.502 80.7664 298.33 80.7664 299.266L80.7484 299.662ZM76.1764 295.558C75.2644 295.558 74.4964 295.852 73.8724 296.44C73.2604 297.016 72.9124 297.772 72.8284 298.708H79.5424C79.4584 297.772 79.1044 297.016 78.4804 296.44C77.8684 295.852 77.1004 295.558 76.1764 295.558Z" fill="#BDBDBD"/>
<path d="M83.5954 294.532H84.8734V302.056L91.1914 294.532H92.3254V304H91.0474V296.476L84.7474 304H83.5954V294.532ZM87.8974 293.164C87.0814 293.164 86.4334 292.96 85.9534 292.552C85.4734 292.144 85.2274 291.568 85.2154 290.824H86.1334C86.1454 291.292 86.3134 291.67 86.6374 291.958C86.9614 292.234 87.3814 292.372 87.8974 292.372C88.4134 292.372 88.8334 292.234 89.1574 291.958C89.4934 291.67 89.6674 291.292 89.6794 290.824H90.5974C90.5854 291.568 90.3334 292.144 89.8414 292.552C89.3614 292.96 88.7134 293.164 87.8974 293.164Z" fill="#BDBDBD"/>
<path d="M99.9479 304.09C99.0119 304.09 98.1719 303.886 97.4279 303.478C96.6959 303.07 96.1199 302.5 95.6999 301.768C95.2799 301.024 95.0699 300.19 95.0699 299.266C95.0699 298.342 95.2799 297.514 95.6999 296.782C96.1199 296.05 96.6959 295.48 97.4279 295.072C98.1719 294.664 99.0119 294.46 99.9479 294.46C100.764 294.46 101.49 294.622 102.126 294.946C102.774 295.258 103.284 295.72 103.656 296.332L102.702 296.98C102.39 296.512 101.994 296.164 101.514 295.936C101.034 295.696 100.512 295.576 99.9479 295.576C99.2639 295.576 98.6459 295.732 98.0939 296.044C97.5539 296.344 97.1279 296.776 96.8159 297.34C96.5159 297.904 96.3659 298.546 96.3659 299.266C96.3659 299.998 96.5159 300.646 96.8159 301.21C97.1279 301.762 97.5539 302.194 98.0939 302.506C98.6459 302.806 99.2639 302.956 99.9479 302.956C100.512 302.956 101.034 302.842 101.514 302.614C101.994 302.386 102.39 302.038 102.702 301.57L103.656 302.218C103.284 302.83 102.774 303.298 102.126 303.622C101.478 303.934 100.752 304.09 99.9479 304.09Z" fill="#BDBDBD"/>
<path d="M110.109 297.88C111.297 297.892 112.203 298.156 112.827 298.672C113.451 299.188 113.763 299.932 113.763 300.904C113.763 301.912 113.427 302.686 112.755 303.226C112.083 303.766 111.123 304.03 109.875 304.018L106.131 304V294.532H107.409V297.844L110.109 297.88ZM115.347 294.532H116.625V304H115.347V294.532ZM109.803 303.046C110.679 303.058 111.339 302.884 111.783 302.524C112.239 302.152 112.467 301.612 112.467 300.904C112.467 300.208 112.245 299.692 111.801 299.356C111.357 299.02 110.691 298.846 109.803 298.834L107.409 298.798V303.01L109.803 303.046Z" fill="#BDBDBD"/>
</svg>
