<svg class="Icon" version="1.1" viewBox="0 0 108 139" data-reactid="8" xmlns="http://www.w3.org/2000/svg" xmlns:xlink="http://www.w3.org/1999/xlink"><path fill="#221E1F" d="M19.444 100.982c-.212.417-.386 1.14-.386 1.608v12.15c0 .468-.383.85-.85.85H11.55c-.468 0-.85-.382-.85-.85v-12.15c0-.468-.175-1.19-.387-1.608L.817 82.342c-.212-.418-.003-.76.465-.76h7.42c.47 0 1.005.352 1.192.78l4.67 10.67c.187.428.492.427.678-.002l4.625-10.667c.186-.43.72-.78 1.188-.78h7.422c.468 0 .677.34.465.758l-9.498 18.642z"/><path fill="#009889" d="M33.618 115.59c-.468 0-.85-.382-.85-.85V82.434c0-.468.382-.85.85-.85h6.657c.468 0 .85.382.85.85v24.856c0 .468.384.85.852.85h12.58c.47 0 .852.384.852.852v5.75c0 .468-.384.85-.852.85h-20.94zM73.12 115.59c-.47 0-.852-.382-.852-.85v-.4c0-.468-.302-.616-.67-.33 0 0-2.34 1.82-5.062 1.82-2.58 0-4.73-.86-6.162-2.293-1.48-1.48-2.245-3.63-2.245-6.02 0-3.868 2.627-7.45 8.74-7.45h4.356c.468 0 .85-.15.85-.335 0-.184-.128-.694-.286-1.135 0 0-.86-2.4-3.582-2.4-2.007 0-2.866.48-4.108 1.72l-4.27-4.27c-.332-.332-.287-.818.1-1.083 0 0 4.313-2.958 8.66-2.958 7.355 0 11.32 3.057 11.32 9.314v15.82c0 .467-.383.85-.85.85h-5.94zm-1.042-9.982c0-.184-.383-.334-.85-.334h-2.265c-.468 0-1.212.125-1.654.278 0 0-1.682.582-1.682 1.775 0 1.146.86 2.15 2.58 2.15 1.528 0 2.245-.144 3.104-.957.573-.525.686-1.732.686-1.732.045-.464.08-.996.08-1.18zM105.18 113.538c-1.48 1.48-3.774 2.34-6.258 2.34-2.676 0-4.348-.812-5.923-2.388v1.25c0 .468-.384.85-.852.85h-5.895c-.468 0-.85-.382-.85-.85V82.434c0-.468.382-.85.85-.85h6.134c.468 0 .85.382.85.85v8.473c0 .468.318.637.707.376 0 0 2.494-1.675 5.025-1.675 2.482 0 4.728.86 6.208 2.34 2.53 2.532 2.39 7.022 2.39 10.795 0 3.774.142 8.263-2.39 10.795zm-8.695-16.86c-2.914 0-3.247 2.34-3.247 6.065s.333 6.066 3.247 6.066 3.248-2.342 3.248-6.067-.334-6.066-3.248-6.066z"/><path fill="#009889" d="M10.677 135.663v-.856c-.63.7-1.293.96-2.255.96-.89 0-1.73-.314-2.235-.82-.91-.91-.926-2.482-.926-3.845s.018-2.917.927-3.826c.507-.507 1.328-.82 2.218-.82.927 0 1.626.244 2.22.908v-4.14h2.27v12.438h-2.218zM9.07 128.5c-1.364 0-1.54 1.118-1.54 2.604 0 1.485.176 2.62 1.54 2.62 1.36 0 1.554-1.135 1.554-2.62 0-1.486-.192-2.604-1.555-2.604zM17.23 131.82c0 1.17.715 2.026 1.99 2.026.997 0 1.486-.28 2.062-.855l1.38 1.346c-.925.925-1.815 1.432-3.458 1.432-2.15 0-4.21-.978-4.21-4.665 0-2.97 1.606-4.647 3.966-4.647 2.532 0 3.965 1.852 3.965 4.35v1.015H17.23zm3.25-2.534c-.246-.54-.752-.943-1.52-.943s-1.276.402-1.522.943c-.14.332-.19.577-.21.98h3.46c-.017-.403-.07-.648-.21-.98zM28.78 135.663h-1.782l-3.354-9.102h2.393l1.852 5.626 1.834-5.625h2.393l-3.337 9.103zM35.07 131.82c0 1.17.718 2.026 1.993 2.026.995 0 1.484-.28 2.06-.855l1.382 1.346c-.926.925-1.817 1.432-3.46 1.432-2.148 0-4.21-.978-4.21-4.665 0-2.97 1.606-4.647 3.966-4.647 2.534 0 3.967 1.852 3.967 4.35v1.015H35.07zm3.25-2.534c-.244-.54-.75-.943-1.52-.943s-1.274.402-1.52.943c-.14.332-.192.577-.21.98h3.46c-.017-.403-.07-.648-.21-.98zM45.434 135.663c-1.87 0-2.656-1.31-2.656-2.604v-9.837h2.27v9.696c0 .54.228.82.805.82h.873v1.922h-1.292zM54.484 134.65c-.56.593-1.486 1.117-2.83 1.117s-2.254-.524-2.814-1.118c-.82-.857-1.03-1.888-1.03-3.547 0-1.642.21-2.673 1.03-3.53.56-.593 1.468-1.117 2.813-1.117s2.27.524 2.83 1.118c.82.856 1.03 1.887 1.03 3.53.002 1.66-.208 2.69-1.03 3.545zM52.72 128.9c-.263-.262-.61-.402-1.066-.402-.454 0-.785.14-1.048.402-.47.472-.523 1.258-.523 2.2s.053 1.748.523 2.22c.263.262.594.402 1.048.402.455 0 .804-.14 1.066-.402.472-.472.524-1.275.524-2.22s-.053-1.728-.524-2.2zM64.375 134.947c-.507.507-1.327.82-2.22.82-.925 0-1.606-.244-2.2-.907V139h-2.27v-12.44h2.2v.856c.63-.7 1.31-.96 2.27-.96.893 0 1.713.313 2.22.82.91.91.926 2.464.926 3.826s-.016 2.936-.925 3.845zm-2.883-6.447c-1.362 0-1.537 1.118-1.537 2.604 0 1.485.175 2.62 1.537 2.62s1.537-1.135 1.537-2.62c0-1.486-.176-2.604-1.538-2.604zM78.057 135.663v-5.503c0-1.24-.786-1.66-1.503-1.66-.698 0-1.52.42-1.52 1.608v5.556h-2.27v-5.503c0-1.24-.787-1.66-1.503-1.66-.716 0-1.52.42-1.52 1.66v5.504h-2.27v-9.102h2.22v.838c.593-.61 1.432-.944 2.27-.944 1.013 0 1.834.367 2.41 1.153.77-.805 1.59-1.154 2.726-1.154.908 0 1.73.297 2.236.804.734.733.995 1.59.995 2.585v5.818h-2.27zM84.56 131.82c0 1.17.716 2.026 1.99 2.026.997 0 1.485-.28 2.063-.855l1.38 1.346c-.926.925-1.817 1.432-3.46 1.432-2.148 0-4.21-.978-4.21-4.665 0-2.97 1.608-4.647 3.967-4.647 2.532 0 3.965 1.852 3.965 4.35v1.015H84.56zm3.25-2.534c-.246-.54-.752-.943-1.52-.943-.77 0-1.277.402-1.522.943-.14.332-.192.577-.21.98h3.46c-.018-.403-.07-.648-.21-.98zM97.646 135.663v-5.503c0-1.24-.786-1.66-1.502-1.66-.717 0-1.52.42-1.52 1.66v5.503H92.35v-9.102h2.22v.84c.593-.63 1.432-.945 2.27-.945.908 0 1.643.297 2.15.804.732.732.925 1.59.925 2.584v5.818h-2.27zM105.213 135.663c-1.852 0-2.638-1.31-2.638-2.604v-4.51h-.96v-1.728h.96v-2.69h2.27v2.69h1.607v1.73h-1.606v4.367c0 .523.244.82.786.82h.82v1.922h-1.24z"/><path fill="#221E1F" d="M33.28 63.91c.257-5.67-.016-8.846-.81-10.828-.853-2.127-2.57-4.365-5.292-8.154-4.99-6.95-5.935-14.19-5.66-20.173.095-2.078.43-5.673 1.75-6.542-.482 3.85-2.818 14.293 5.534 25.55 2.823 3.805 4.48 6.464 5.364 9.007.737 2.12.562 4.147-.885 11.14zM86.718 19.754V15.44h-2.403c-.193-.81-.5-1.572-.902-2.274l1.672-1.672-3.052-3.052-1.638 1.636c-.71-.43-1.484-.76-2.308-.973V6.808H73.77v2.298c-.823.213-1.598.542-2.308.973l-1.637-1.637-3.05 3.052 1.67 1.672c-.402.702-.71 1.465-.902 2.273H65.14v4.315h2.478c.213.772.53 1.497.937 2.167l-1.78 1.778 3.05 3.05 1.813-1.812c.66.38 1.377.67 2.132.864v2.584h4.316v-2.584c.755-.194 1.47-.484 2.132-.864l1.813 1.813 3.053-3.05-1.78-1.778c.405-.67.724-1.395.936-2.167h2.478zm-10.79 2.62c-2.64 0-4.776-2.138-4.776-4.777s2.138-4.777 4.777-4.777c2.638 0 4.776 2.138 4.776 4.777s-2.14 4.778-4.777 4.778zM51.848 27.39v-4.298h-2.394c-.192-.806-.497-1.565-.897-2.263l1.663-1.667-3.038-3.038-1.63 1.63c-.707-.43-1.48-.757-2.3-.97v-2.29h-4.298v2.29c-.82.212-1.592.54-2.3.97l-1.63-1.63-3.038 3.038 1.665 1.666c-.4.697-.705 1.456-.897 2.262H30.36v4.298h2.467c.21.768.527 1.49.93 2.157l-1.77 1.77 3.038 3.04 1.807-1.806c.658.38 1.372.67 2.123.862v2.573h4.3v-2.573c.75-.193 1.463-.483 2.122-.86l1.806 1.805 3.038-3.04-1.77-1.77c.403-.667.72-1.39.932-2.157h2.466zM41.104 30c-2.628 0-4.758-2.13-4.758-4.758s2.13-4.757 4.758-4.757 4.756 2.13 4.756 4.757S43.73 30 41.104 30zM65.418 9.868v-3.19h-1.776c-.144-.596-.37-1.16-.667-1.678l1.234-1.236-2.255-2.254-1.21 1.208C60.22 2.4 59.65 2.156 59.04 2V.3h-3.19V2c-.607.157-1.18.4-1.704.718l-1.21-1.208-2.255 2.254L51.916 5c-.297.52-.523 1.082-.666 1.68H49.47v3.19h1.832c.157.57.393 1.105.69 1.6l-1.313 1.313 2.255 2.255 1.34-1.34c.49.28 1.02.497 1.576.64v1.908h3.19v-1.91c.557-.14 1.087-.357 1.575-.638l1.34 1.34 2.254-2.255-1.315-1.313c.3-.495.534-1.03.69-1.6h1.833zm-7.973 1.936c-1.95 0-3.53-1.58-3.53-3.53s1.58-3.53 3.53-3.53c1.95 0 3.53 1.58 3.53 3.53s-1.58 3.53-3.53 3.53zM41.992 10.726V8.7h-1.128c-.09-.38-.234-.74-.424-1.068l.786-.785-1.434-1.434-.77.77c-.332-.203-.696-.36-1.082-.458v-1.08h-2.026v1.08c-.388.1-.752.255-1.086.457l-.768-.77-1.434 1.435.785.785c-.187.33-.332.687-.422 1.067H31.86v2.025h1.163c.1.363.25.703.44 1.018l-.837.834 1.434 1.434.85-.852c.313.18.648.316 1.004.407v1.213h2.026v-1.213c.353-.09.69-.228 1-.407l.853.853 1.434-1.433-.837-.834c.19-.315.34-.655.44-1.018h1.162zm-5.065 1.23c-1.24 0-2.243-1.003-2.243-2.243s1.003-2.243 2.243-2.243 2.243 1.003 2.243 2.243-1.003 2.244-2.243 2.244zM31.816 14.643v-1.31h-.732c-.058-.247-.15-.48-.272-.692l.507-.507-.927-.928-.498.498c-.216-.13-.45-.23-.702-.295v-.7h-1.31v.7c-.253.064-.488.165-.703.295l-.497-.498-.928.928.508.508c-.122.214-.216.446-.274.692h-.73v1.31h.752c.065.236.162.455.285.66l-.54.54.927.927.55-.552c.202.115.42.204.65.262v.786h1.31v-.786c.23-.06.447-.147.647-.262l.554.55.926-.926-.54-.54c.124-.205.22-.424.284-.66h.752zm-3.28.796c-.802 0-1.45-.65-1.45-1.453s.648-1.452 1.45-1.452c.802 0 1.45.65 1.45 1.452 0 .803-.648 1.452-1.45 1.452zM65.475 28.042v-2.418h-1.348c-.108-.455-.278-.883-.506-1.276l.938-.936-1.71-1.713-.917.917c-.397-.24-.832-.427-1.295-.546v-1.288h-2.42v1.29c-.463.118-.896.304-1.295.545l-.918-.918-1.71 1.712.936.936c-.226.393-.396.82-.506 1.276h-1.347v2.418h1.39c.12.434.297.84.523 1.216l-.996.997 1.71 1.712 1.018-1.017c.37.212.773.376 1.195.484v1.45h2.42v-1.45c.425-.108.825-.272 1.195-.484l1.018 1.017 1.71-1.712-.998-.997c.23-.375.407-.782.526-1.216h1.39zm-6.05 1.47c-1.48 0-2.68-1.198-2.68-2.678s1.2-2.68 2.68-2.68c1.48 0 2.678 1.2 2.678 2.68 0 1.48-1.2 2.68-2.677 2.68zM72.757 32.212v-1.508h-.84c-.066-.282-.173-.55-.314-.795l.583-.584-1.065-1.067-.57.57c-.248-.15-.52-.266-.807-.34v-.802h-1.51v.802c-.287.074-.558.19-.806.34l-.572-.57-1.066 1.066.584.583c-.142.244-.248.512-.315.794h-.842v1.508h.866c.075.27.185.523.327.758l-.62.62 1.065 1.067.635-.633c.23.132.48.234.744.302v.902h1.51v-.902c.263-.068.513-.17.743-.302l.634.633 1.066-1.066-.622-.62c.144-.235.255-.488.327-.758h.867zm-3.77.915c-.923 0-1.67-.746-1.67-1.67 0-.922.747-1.67 1.67-1.67.922 0 1.67.748 1.67 1.67 0 .924-.748 1.67-1.67 1.67zM72.948 4.256v-1.42h-.79c-.063-.264-.163-.516-.296-.746l.548-.55L71.408.537l-.538.538c-.233-.142-.488-.25-.76-.32V0h-1.418v.755c-.27.07-.526.178-.758.32l-.538-.538-1.004 1.003.55.55c-.134.23-.233.48-.298.747h-.79v1.42h.815c.068.253.173.49.306.71l-.584.585 1.004 1.004.595-.597c.22.124.454.22.702.283v.85h1.42v-.85c.247-.063.48-.16.7-.284l.596.596 1.002-1.004-.585-.584c.135-.22.24-.458.31-.712h.813zm-3.546.862c-.87 0-1.57-.703-1.57-1.57s.7-1.572 1.57-1.572c.866 0 1.57.703 1.57 1.57S70.268 5.12 69.4 5.12z"/><path fill="#221E1F" d="M63.88 83.457c-.25-5.024.488-15.73 14.17-15.653 1.96.01 3.377-.012 4.424-.663 1.393-.864 1.277-3.58 1.208-5.2-.02-.46-.036-.86-.02-1.172.063-1.153.684-2.08 1.183-2.82.19-.282.402-.6.457-.764.067-.205.05-.303-.08-.454-.39-.455-.924-1.08-.804-1.877.05-.324.23-.787.81-1.152.305-.19.502-.376.268-1.006-.68-1.82-.816-2.54-.495-4.13.387-1.905 2.316-2.6 3.726-3.108.562-.202 1.092-.394 1.41-.604.527-.35.833-.75.908-1.188.11-.626-.253-1.27-.574-1.7-1.71-2.285-2.785-3.76-4.97-7.55-1.047-1.82-.803-5.345.762-6.963-.42 2.853-.16 4.64.672 6.087 2.126 3.688 3.47 5.005 5.136 7.228.8 1.068 1.127 2.187.944 3.24-.17.985-.784 1.854-1.772 2.51-.52.345-1.16.576-1.838.82-1.336.482-2.292.88-2.442 1.627-.23 1.126-.188 1.438.408 3.034.48 1.292.184 2.446-.813 3.213.063.078.132.158.185.22.41.478.82 1.278.46 2.38-.142.424-.41.825-.696 1.25-.38.568-.813 1.21-.846 1.815-.012.216.004.57.02.98.09 2.058.235 5.503-2.15 6.984-1.528.948-3.356.915-5.473.962-7.198.158-11.696 1.977-14.176 13.655z"/></svg>